<svg xmlns="http://www.w3.org/2000/svg" xmlns:xlink="http://www.w3.org/1999/xlink" viewBox="0 0 776.43 519.37"><defs><style>.cls-1{isolation:isolate;}.cls-2{fill:#e0f3ff;}.cls-3{fill:url(#Áåçûìÿííûé_ãðàäèåíò_74);}.cls-4{fill:url(#Áåçûìÿííûé_ãðàäèåíò_26);}.cls-5{fill:url(#Áåçûìÿííûé_ãðàäèåíò_26-2);}.cls-37,.cls-6,.cls-7,.cls-8{opacity:0.76;}.cls-103,.cls-11,.cls-13,.cls-19,.cls-22,.cls-24,.cls-27,.cls-28,.cls-29,.cls-30,.cls-31,.cls-32,.cls-33,.cls-34,.cls-35,.cls-36,.cls-37,.cls-38,.cls-39,.cls-40,.cls-41,.cls-42,.cls-43,.cls-44,.cls-45,.cls-46,.cls-47,.cls-48,.cls-49,.cls-53,.cls-6,.cls-65,.cls-68,.cls-69,.cls-7,.cls-70,.cls-74,.cls-75,.cls-8,.cls-82,.cls-83,.cls-84,.cls-85,.cls-86,.cls-87{mix-blend-mode:multiply;}.cls-6{fill:url(#Áåçûìÿííûé_ãðàäèåíò_70);}.cls-7{fill:url(#Áåçûìÿííûé_ãðàäèåíò_70-2);}.cls-8{fill:url(#Áåçûìÿííûé_ãðàäèåíò_70-3);}.cls-9{fill:#fe9083;}.cls-10{fill:url(#Áåçûìÿííûé_ãðàäèåíò_354);}.cls-103,.cls-11,.cls-110,.cls-111,.cls-13,.cls-28,.cls-29,.cls-30,.cls-31,.cls-32,.cls-33,.cls-34,.cls-35,.cls-36,.cls-38,.cls-40,.cls-41,.cls-42,.cls-43,.cls-44,.cls-46,.cls-47,.cls-48,.cls-49,.cls-70{opacity:0.5;}.cls-11{fill:url(#Áåçûìÿííûé_ãðàäèåíò_70-4);}.cls-12{fill:url(#Áåçûìÿííûé_ãðàäèåíò_26-3);}.cls-13{fill:url(#Áåçûìÿííûé_ãðàäèåíò_70-5);}.cls-14{fill:url(#Áåçûìÿííûé_ãðàäèåíò_178);}.cls-15{fill:url(#Áåçûìÿííûé_ãðàäèåíò_55);}.cls-16{fill:#cb4d7a;}.cls-17{fill:#ee8183;}.cls-18{fill:url(#Áåçûìÿííûé_ãðàäèåíò_71);}.cls-19,.cls-24,.cls-53,.cls-65,.cls-68,.cls-69,.cls-80,.cls-82{opacity:0.6;}.cls-19{fill:url(#Áåçûìÿííûé_ãðàäèåíò_48);}.cls-20{fill:url(#Áåçûìÿííûé_ãðàäèåíò_71-2);}.cls-21{fill:#e28183;}.cls-22,.cls-27{opacity:0.91;}.cls-22{fill:url(#Áåçûìÿííûé_ãðàäèåíò_73);}.cls-23{fill:url(#Áåçûìÿííûé_ãðàäèåíò_71-3);}.cls-24{fill:url(#Áåçûìÿííûé_ãðàäèåíò_48-2);}.cls-25{fill:url(#Áåçûìÿííûé_ãðàäèåíò_64);}.cls-26{fill:url(#Áåçûìÿííûé_ãðàäèåíò_64-2);}.cls-27{fill:url(#Áåçûìÿííûé_ãðàäèåíò_73-2);}.cls-28{fill:url(#Áåçûìÿííûé_ãðàäèåíò_70-6);}.cls-29{fill:url(#Áåçûìÿííûé_ãðàäèåíò_70-7);}.cls-30{fill:url(#Áåçûìÿííûé_ãðàäèåíò_4);}.cls-31{fill:url(#Áåçûìÿííûé_ãðàäèåíò_4-2);}.cls-32{fill:url(#Áåçûìÿííûé_ãðàäèåíò_4-3);}.cls-33{fill:url(#Áåçûìÿííûé_ãðàäèåíò_4-4);}.cls-34{fill:url(#Áåçûìÿííûé_ãðàäèåíò_4-5);}.cls-35{fill:url(#Áåçûìÿííûé_ãðàäèåíò_4-6);}.cls-36{fill:url(#Áåçûìÿííûé_ãðàäèåíò_4-7);}.cls-37{fill:url(#Áåçûìÿííûé_ãðàäèåíò_70-8);}.cls-38{fill:url(#Áåçûìÿííûé_ãðàäèåíò_70-9);}.cls-39,.cls-45,.cls-83,.cls-84,.cls-85,.cls-86{opacity:0.3;}.cls-39{fill:url(#Áåçûìÿííûé_ãðàäèåíò_70-10);}.cls-40{fill:url(#Áåçûìÿííûé_ãðàäèåíò_4-8);}.cls-41{fill:url(#Áåçûìÿííûé_ãðàäèåíò_70-11);}.cls-42{fill:url(#Áåçûìÿííûé_ãðàäèåíò_4-9);}.cls-43{fill:url(#Áåçûìÿííûé_ãðàäèåíò_4-10);}.cls-44{fill:url(#Áåçûìÿííûé_ãðàäèåíò_70-12);}.cls-45{fill:url(#Áåçûìÿííûé_ãðàäèåíò_70-13);}.cls-46{fill:url(#Áåçûìÿííûé_ãðàäèåíò_70-14);}.cls-47{fill:url(#Áåçûìÿííûé_ãðàäèåíò_70-15);}.cls-48{fill:url(#Áåçûìÿííûé_ãðàäèåíò_70-16);}.cls-49{fill:#7a4ac0;}.cls-50{fill:url(#Áåçûìÿííûé_ãðàäèåíò_71-4);}.cls-51{fill:url(#Áåçûìÿííûé_ãðàäèåíò_71-5);}.cls-52{fill:url(#Áåçûìÿííûé_ãðàäèåíò_387);}.cls-53{fill:url(#Áåçûìÿííûé_ãðàäèåíò_48-3);}.cls-54{fill:#38368e;}.cls-55{fill:url(#Áåçûìÿííûé_ãðàäèåíò_59);}.cls-56{fill:url(#Áåçûìÿííûé_ãðàäèåíò_184);}.cls-57{fill:#ffebed;}.cls-58{fill:#7f9ec9;}.cls-59{fill:#131163;}.cls-60{fill:#fff;}.cls-61{fill:#c6659c;}.cls-62{fill:#cb5f7d;}.cls-63{fill:#9f4a8b;}.cls-64{fill:#ffbcaf;}.cls-65{fill:url(#Áåçûìÿííûé_ãðàäèåíò_48-4);}.cls-66{fill:url(#Áåçûìÿííûé_ãðàäèåíò_292);}.cls-67{fill:#d2726c;}.cls-68{fill:url(#Áåçûìÿííûé_ãðàäèåíò_35);}.cls-69{fill:url(#Áåçûìÿííûé_ãðàäèåíò_52);}.cls-70{fill:url(#Áåçûìÿííûé_ãðàäèåíò_397);}.cls-71{fill:url(#Áåçûìÿííûé_ãðàäèåíò_141);}.cls-72{fill:url(#Áåçûìÿííûé_ãðàäèåíò_141-2);}.cls-73{fill:url(#Áåçûìÿííûé_ãðàäèåíò_141-3);}.cls-74,.cls-75{opacity:0.8;}.cls-74{fill:url(#Áåçûìÿííûé_ãðàäèåíò_285);}.cls-75{fill:url(#Áåçûìÿííûé_ãðàäèåíò_285-2);}.cls-76{fill:#34c7ff;}.cls-77{fill:url(#Áåçûìÿííûé_ãðàäèåíò_141-4);}.cls-78{fill:url(#Áåçûìÿííûé_ãðàäèåíò_141-5);}.cls-79{fill:url(#Áåçûìÿííûé_ãðàäèåíò_141-6);}.cls-80{fill:#36d1f7;}.cls-81{fill:#744ca2;}.cls-82{fill:url(#Áåçûìÿííûé_ãðàäèåíò_89);}.cls-83{fill:url(#Áåçûìÿííûé_ãðàäèåíò_85);}.cls-84{fill:url(#Áåçûìÿííûé_ãðàäèåíò_85-2);}.cls-85{fill:url(#Áåçûìÿííûé_ãðàäèåíò_85-3);}.cls-86{fill:url(#Áåçûìÿííûé_ãðàäèåíò_85-4);}.cls-87{fill:#d1d4fb;}.cls-104,.cls-88{mix-blend-mode:soft-light;}.cls-89{fill:#e0ffff;}.cls-90{fill:url(#Áåçûìÿííûé_ãðàäèåíò_65);}.cls-91{fill:url(#Áåçûìÿííûé_ãðàäèåíò_14);}.cls-92{opacity:0.81;fill:url(#Áåçûìÿííûé_ãðàäèåíò_115);}.cls-93{fill:#473da2;}.cls-94{fill:url(#Áåçûìÿííûé_ãðàäèåíò_302);}.cls-95{fill:url(#Áåçûìÿííûé_ãðàäèåíò_322);}.cls-96{fill:url(#Áåçûìÿííûé_ãðàäèåíò_25);}.cls-97,.cls-99{opacity:0.73;}.cls-97{fill:url(#Áåçûìÿííûé_ãðàäèåíò_97);}.cls-98{fill:#953da2;}.cls-99{fill:url(#Áåçûìÿííûé_ãðàäèåíò_97-2);}.cls-100,.cls-101,.cls-102,.cls-103,.cls-104,.cls-108,.cls-109{fill-rule:evenodd;}.cls-100{fill:url(#Áåçûìÿííûé_ãðàäèåíò_206);}.cls-101{fill:url(#Áåçûìÿííûé_ãðàäèåíò_206-2);}.cls-102{fill:url(#Áåçûìÿííûé_ãðàäèåíò_107);}.cls-103{fill:#601734;}.cls-104{fill:#b3d9ff;}.cls-105{fill:#ff1d9c;}.cls-106{fill:#6877ff;}.cls-107{fill:#4f31e0;}.cls-108{fill:url(#Áåçûìÿííûé_ãðàäèåíò_107-2);}.cls-109{fill:url(#Áåçûìÿííûé_ãðàäèåíò_206-3);}.cls-110,.cls-111{mix-blend-mode:screen;}.cls-110{fill:url(#Áåçûìÿííûé_ãðàäèåíò_83);}.cls-111{fill:url(#Áåçûìÿííûé_ãðàäèåíò_83-2);}</style><linearGradient id="Áåçûìÿííûé_ãðàäèåíò_74" x1="391.79" y1="519.31" x2="391.79" y2="390.44" gradientUnits="userSpaceOnUse"><stop offset="0" stop-color="#6456c0"/><stop offset="1" stop-color="#5f2c95"/></linearGradient><linearGradient id="Áåçûìÿííûé_ãðàäèåíò_26" x1="350.08" y1="474.07" x2="383.88" y2="474.07" gradientUnits="userSpaceOnUse"><stop offset="0" stop-color="#9e8cef"/><stop offset="1" stop-color="#caafee"/></linearGradient><linearGradient id="Áåçûìÿííûé_ãðàäèåíò_26-2" x1="-650" y1="474.07" x2="-616.2" y2="474.07" gradientTransform="matrix(-1, 0, 0, 1, -220.94, 0)" xlink:href="#Áåçûìÿííûé_ãðàäèåíò_26"/><linearGradient id="Áåçûìÿííûé_ãðàäèåíò_70" x1="387.25" y1="519.31" x2="387.25" y2="390.44" gradientUnits="userSpaceOnUse"><stop offset="0" stop-color="#ccf"/><stop offset="1" stop-color="#755cbb"/></linearGradient><linearGradient id="Áåçûìÿííûé_ãðàäèåíò_70-2" x1="402.25" y1="454.88" x2="402.25" y2="419.73" xlink:href="#Áåçûìÿííûé_ãðàäèåíò_70"/><linearGradient id="Áåçûìÿííûé_ãðàäèåíò_70-3" x1="361.54" y1="441.95" x2="361.54" y2="407.52" xlink:href="#Áåçûìÿííûé_ãðàäèåíò_70"/><linearGradient id="Áåçûìÿííûé_ãðàäèåíò_354" x1="396.47" y1="196.38" x2="396.47" y2="144.93" gradientUnits="userSpaceOnUse"><stop offset="0" stop-color="#d5cdf8"/><stop offset="1" stop-color="#f3edfb"/></linearGradient><linearGradient id="Áåçûìÿííûé_ãðàäèåíò_70-4" x1="369.99" y1="170.6" x2="422.95" y2="170.6" xlink:href="#Áåçûìÿííûé_ãðàäèåíò_70"/><linearGradient id="Áåçûìÿííûé_ãðàäèåíò_26-3" x1="381.32" y1="401.91" x2="381.32" y2="142.69" xlink:href="#Áåçûìÿííûé_ãðàäèåíò_26"/><linearGradient id="Áåçûìÿííûé_ãðàäèåíò_70-5" x1="273.75" y1="240.39" x2="336.88" y2="240.39" xlink:href="#Áåçûìÿííûé_ãðàäèåíò_70"/><linearGradient id="Áåçûìÿííûé_ãðàäèåíò_178" x1="271.8" y1="312.98" x2="271.8" y2="191.77" gradientUnits="userSpaceOnUse"><stop offset="0" stop-color="#9e8cef"/><stop offset="1" stop-color="#dac7f3"/></linearGradient><linearGradient id="Áåçûìÿííûé_ãðàäèåíò_55" x1="480.24" y1="278.05" x2="561.58" y2="278.05" gradientUnits="userSpaceOnUse"><stop offset="0" stop-color="#a999f1"/><stop offset="1" stop-color="#dac7f3"/></linearGradient><linearGradient id="Áåçûìÿííûé_ãðàäèåíò_71" x1="245.34" y1="175.24" x2="245.34" y2="143.28" gradientUnits="userSpaceOnUse"><stop offset="0.02" stop-color="#ffc2a9"/><stop offset="1" stop-color="#ff9595"/></linearGradient><linearGradient id="Áåçûìÿííûé_ãðàäèåíò_48" x1="265.46" y1="174.48" x2="265.46" y2="121.58" gradientUnits="userSpaceOnUse"><stop offset="0" stop-color="#ffeadb"/><stop offset="0.99" stop-color="#c27cb6"/></linearGradient><linearGradient id="Áåçûìÿííûé_ãðàäèåíò_71-2" x1="263.75" y1="210.47" x2="263.75" y2="128.91" xlink:href="#Áåçûìÿííûé_ãðàäèåíò_71"/><linearGradient id="Áåçûìÿííûé_ãðàäèåíò_73" x1="249.16" y1="197.75" x2="274.81" y2="197.75" gradientUnits="userSpaceOnUse"><stop offset="0.02" stop-color="#d1a1d6"/><stop offset="0.99" stop-color="#bd89c4"/></linearGradient><linearGradient id="Áåçûìÿííûé_ãðàäèåíò_71-3" x1="563.25" y1="260.15" x2="563.25" y2="151.09" xlink:href="#Áåçûìÿííûé_ãðàäèåíò_71"/><linearGradient id="Áåçûìÿííûé_ãðàäèåíò_48-2" x1="576.14" y1="225.21" x2="576.14" y2="171.02" xlink:href="#Áåçûìÿííûé_ãðàäèåíò_48"/><linearGradient id="Áåçûìÿííûé_ãðàäèåíò_64" x1="586.83" y1="206.51" x2="586.83" y2="182.22" gradientUnits="userSpaceOnUse"><stop offset="0" stop-color="#ffb0b0"/><stop offset="0.98" stop-color="#ffc2a9"/></linearGradient><linearGradient id="Áåçûìÿííûé_ãðàäèåíò_64-2" x1="600.92" y1="210.25" x2="600.92" y2="196.93" xlink:href="#Áåçûìÿííûé_ãðàäèåíò_64"/><linearGradient id="Áåçûìÿííûé_ãðàäèåíò_73-2" x1="543.94" y1="236.8" x2="568.72" y2="236.8" xlink:href="#Áåçûìÿííûé_ãðàäèåíò_73"/><linearGradient id="Áåçûìÿííûé_ãðàäèåíò_70-6" x1="509.47" y1="322.3" x2="509.47" y2="200.22" xlink:href="#Áåçûìÿííûé_ãðàäèåíò_70"/><linearGradient id="Áåçûìÿííûé_ãðàäèåíò_70-7" x1="240.67" y1="297.71" x2="444.86" y2="297.71" xlink:href="#Áåçûìÿííûé_ãðàäèåíò_70"/><linearGradient id="Áåçûìÿííûé_ãðàäèåíò_4" x1="420.69" y1="263.54" x2="459.72" y2="263.54" gradientUnits="userSpaceOnUse"><stop offset="0" stop-color="#ccedff"/><stop offset="1" stop-color="#755cbb"/></linearGradient><linearGradient id="Áåçûìÿííûé_ãðàäèåíò_4-2" x1="385.29" y1="332.03" x2="442.64" y2="332.03" xlink:href="#Áåçûìÿííûé_ãðàäèåíò_4"/><linearGradient id="Áåçûìÿííûé_ãðàäèåíò_4-3" x1="387.94" y1="357.97" x2="449.22" y2="357.97" xlink:href="#Áåçûìÿííûé_ãðàäèåíò_4"/><linearGradient id="Áåçûìÿííûé_ãðàäèåíò_4-4" x1="335.2" y1="293.76" x2="335.2" y2="224.98" xlink:href="#Áåçûìÿííûé_ãðàäèåíò_4"/><linearGradient id="Áåçûìÿííûé_ãðàäèåíò_4-5" x1="340.74" y1="299.54" x2="340.74" y2="247.4" xlink:href="#Áåçûìÿííûé_ãðàäèåíò_4"/><linearGradient id="Áåçûìÿííûé_ãðàäèåíò_4-6" x1="258.34" y1="232.89" x2="258.34" y2="193.5" xlink:href="#Áåçûìÿííûé_ãðàäèåíò_4"/><linearGradient id="Áåçûìÿííûé_ãðàäèåíò_4-7" x1="290.22" y1="198.2" x2="306.09" y2="198.2" xlink:href="#Áåçûìÿííûé_ãðàäèåíò_4"/><linearGradient id="Áåçûìÿííûé_ãðàäèåíò_70-8" x1="462.78" y1="293.76" x2="462.78" y2="220.75" xlink:href="#Áåçûìÿííûé_ãðàäèåíò_70"/><linearGradient id="Áåçûìÿííûé_ãðàäèåíò_70-9" x1="544.87" y1="278.05" x2="544.87" y2="239.9" xlink:href="#Áåçûìÿííûé_ãðàäèåíò_70"/><linearGradient id="Áåçûìÿííûé_ãðàäèåíò_70-10" x1="501.6" y1="276.35" x2="501.6" y2="247.18" xlink:href="#Áåçûìÿííûé_ãðàäèåíò_70"/><linearGradient id="Áåçûìÿííûé_ãðàäèåíò_4-8" x1="250.1" y1="235.41" x2="250.1" y2="224.57" xlink:href="#Áåçûìÿííûé_ãðàäèåíò_4"/><linearGradient id="Áåçûìÿííûé_ãðàäèåíò_70-11" x1="279.03" y1="268.43" x2="279.03" y2="209.23" xlink:href="#Áåçûìÿííûé_ãðàäèåíò_70"/><linearGradient id="Áåçûìÿííûé_ãðàäèåíò_4-9" x1="431.32" y1="226.76" x2="431.32" y2="182.22" xlink:href="#Áåçûìÿííûé_ãðàäèåíò_4"/><linearGradient id="Áåçûìÿííûé_ãðàäèåíò_4-10" x1="372.97" y1="220.74" x2="372.97" y2="159.26" xlink:href="#Áåçûìÿííûé_ãðàäèåíò_4"/><linearGradient id="Áåçûìÿííûé_ãðàäèåíò_70-12" x1="361.06" y1="172.73" x2="427.89" y2="172.73" xlink:href="#Áåçûìÿííûé_ãðàäèåíò_70"/><linearGradient id="Áåçûìÿííûé_ãðàäèåíò_70-13" x1="532.85" y1="273.7" x2="532.85" y2="235.03" xlink:href="#Áåçûìÿííûé_ãðàäèåíò_70"/><linearGradient id="Áåçûìÿííûé_ãðàäèåíò_70-14" x1="478.19" y1="317.33" x2="478.19" y2="200.22" xlink:href="#Áåçûìÿííûé_ãðàäèåíò_70"/><linearGradient id="Áåçûìÿííûé_ãðàäèåíò_70-15" x1="352.28" y1="372.34" x2="352.28" y2="338.77" xlink:href="#Áåçûìÿííûé_ãðàäèåíò_70"/><linearGradient id="Áåçûìÿííûé_ãðàäèåíò_70-16" x1="417.49" y1="363.12" x2="417.49" y2="346.82" xlink:href="#Áåçûìÿííûé_ãðàäèåíò_70"/><linearGradient id="Áåçûìÿííûé_ãðàäèåíò_71-4" x1="416.77" y1="153.56" x2="416.77" y2="42.03" xlink:href="#Áåçûìÿííûé_ãðàäèåíò_71"/><linearGradient id="Áåçûìÿííûé_ãðàäèåíò_71-5" x1="375.2" y1="108.55" x2="375.2" y2="75.67" xlink:href="#Áåçûìÿííûé_ãðàäèåíò_71"/><linearGradient id="Áåçûìÿííûé_ãðàäèåíò_387" x1="432.28" y1="120.99" x2="433.65" y2="113.81" gradientUnits="userSpaceOnUse"><stop offset="0" stop-color="#e1616a"/><stop offset="1" stop-color="#ff8883"/></linearGradient><linearGradient id="Áåçûìÿííûé_ãðàäèåíò_48-3" x1="419.83" y1="115.5" x2="419.83" y2="43.65" xlink:href="#Áåçûìÿííûé_ãðàäèåíò_48"/><linearGradient id="Áåçûìÿííûé_ãðàäèåíò_59" x1="416.33" y1="86.07" x2="416.33" y2="71.84" gradientUnits="userSpaceOnUse"><stop offset="0" stop-color="#cf6074"/><stop offset="1" stop-color="#f37270"/></linearGradient><linearGradient id="Áåçûìÿííûé_ãðàäèåíò_184" x1="444.72" y1="90.59" x2="444.72" y2="78.2" gradientUnits="userSpaceOnUse"><stop offset="0" stop-color="#cf6074"/><stop offset="1" stop-color="#ff817f"/></linearGradient><linearGradient id="Áåçûìÿííûé_ãðàäèåíò_48-4" x1="445.88" y1="97.8" x2="445.88" y2="69.93" xlink:href="#Áåçûìÿííûé_ãðàäèåíò_48"/><linearGradient id="Áåçûìÿííûé_ãðàäèåíò_292" x1="418.27" y1="154.96" x2="418.27" y2="19.7" gradientUnits="userSpaceOnUse"><stop offset="0" stop-color="#2e33a0"/><stop offset="1" stop-color="#0665a5"/></linearGradient><linearGradient id="Áåçûìÿííûé_ãðàäèåíò_35" x1="453.8" y1="69.79" x2="453.8" y2="38.58" gradientUnits="userSpaceOnUse"><stop offset="0" stop-color="#ffeadb"/><stop offset="0.99" stop-color="#8860c7"/></linearGradient><linearGradient id="Áåçûìÿííûé_ãðàäèåíò_52" x1="411.28" y1="154.96" x2="411.28" y2="19.7" gradientUnits="userSpaceOnUse"><stop offset="0" stop-color="#ccc2db"/><stop offset="0.99" stop-color="#8860c7"/></linearGradient><linearGradient id="Áåçûìÿííûé_ãðàäèåíò_397" x1="420.35" y1="154.93" x2="420.35" y2="149.12" gradientUnits="userSpaceOnUse"><stop offset="0" stop-color="#776d7e"/><stop offset="1" stop-color="#9d68c2"/></linearGradient><linearGradient id="Áåçûìÿííûé_ãðàäèåíò_141" x1="437.4" y1="29.41" x2="437.4" y2="25.09" gradientUnits="userSpaceOnUse"><stop offset="0" stop-color="#1f77d1"/><stop offset="1" stop-color="#0686c9"/></linearGradient><linearGradient id="Áåçûìÿííûé_ãðàäèåíò_141-2" x1="409.89" y1="43.62" x2="409.89" y2="30.86" xlink:href="#Áåçûìÿííûé_ãðàäèåíò_141"/><linearGradient id="Áåçûìÿííûé_ãðàäèåíò_141-3" x1="456.15" y1="50.1" x2="456.15" y2="38.58" xlink:href="#Áåçûìÿííûé_ãðàäèåíò_141"/><linearGradient id="Áåçûìÿííûé_ãðàäèåíò_285" x1="379.98" y1="100.76" x2="365.26" y2="82.72" gradientUnits="userSpaceOnUse"><stop offset="0" stop-color="#ffeadb"/><stop offset="0.99" stop-color="#b060f4"/></linearGradient><linearGradient id="Áåçûìÿííûé_ãðàäèåíò_285-2" x1="381.53" y1="98.44" x2="374.28" y2="89.56" xlink:href="#Áåçûìÿííûé_ãðàäèåíò_285"/><linearGradient id="Áåçûìÿííûé_ãðàäèåíò_141-4" x1="409.04" y1="44.77" x2="433.98" y2="44.77" xlink:href="#Áåçûìÿííûé_ãðàäèåíò_141"/><linearGradient id="Áåçûìÿííûé_ãðàäèåíò_141-5" x1="444.22" y1="119.36" x2="451.79" y2="119.36" xlink:href="#Áåçûìÿííûé_ãðàäèåíò_141"/><linearGradient id="Áåçûìÿííûé_ãðàäèåíò_141-6" x1="434.88" y1="113.74" x2="443.04" y2="113.74" xlink:href="#Áåçûìÿííûé_ãðàäèåíò_141"/><linearGradient id="Áåçûìÿííûé_ãðàäèåíò_89" x1="497.96" y1="133.53" x2="753.74" y2="133.53" gradientUnits="userSpaceOnUse"><stop offset="0" stop-color="#9d68c2"/><stop offset="1" stop-color="#aec2ff"/></linearGradient><linearGradient id="Áåçûìÿííûé_ãðàäèåíò_85" x1="549.99" y1="230.14" x2="549.99" y2="152.99" gradientUnits="userSpaceOnUse"><stop offset="0" stop-color="#ccedff"/><stop offset="1" stop-color="#9d68c2"/></linearGradient><linearGradient id="Áåçûìÿííûé_ãðàäèåíò_85-2" x1="681.54" y1="192.52" x2="681.54" y2="158.54" xlink:href="#Áåçûìÿííûé_ãðàäèåíò_85"/><linearGradient id="Áåçûìÿííûé_ãðàäèåíò_85-3" x1="721.63" y1="192.52" x2="721.63" y2="158.54" xlink:href="#Áåçûìÿííûé_ãðàäèåíò_85"/><linearGradient id="Áåçûìÿííûé_ãðàäèåíò_85-4" x1="640.78" y1="192.52" x2="640.78" y2="158.54" xlink:href="#Áåçûìÿííûé_ãðàäèåíò_85"/><linearGradient id="Áåçûìÿííûé_ãðàäèåíò_65" x1="275.31" y1="109.03" x2="275.31" y2="73.46" gradientUnits="userSpaceOnUse"><stop offset="0" stop-color="#d93de3"/><stop offset="1" stop-color="#ff6dba"/></linearGradient><linearGradient id="Áåçûìÿííûé_ãðàäèåíò_14" x1="297.05" y1="109.03" x2="297.05" y2="73.46" gradientUnits="userSpaceOnUse"><stop offset="0" stop-color="#a242ea"/><stop offset="1" stop-color="#fe117e"/></linearGradient><linearGradient id="Áåçûìÿííûé_ãðàäèåíò_115" x1="56.44" y1="113.39" x2="70.32" y2="2.86" gradientUnits="userSpaceOnUse"><stop offset="0" stop-color="#067eff"/><stop offset="1" stop-color="#3e37a0"/></linearGradient><linearGradient id="Áåçûìÿííûé_ãðàäèåíò_302" x1="-491.46" y1="1294.52" x2="-491.46" y2="1281.48" gradientTransform="matrix(0.92, 0.39, -0.39, 0.92, 959.03, -678.46)" gradientUnits="userSpaceOnUse"><stop offset="0" stop-color="#459fff"/><stop offset="1" stop-color="#a96dff"/></linearGradient><linearGradient id="Áåçûìÿííûé_ãðàäèåíò_322" x1="-270.68" y1="1365.31" x2="-270.68" y2="1357.9" gradientTransform="matrix(0.92, 0.39, -0.39, 0.92, 959.03, -678.46)" gradientUnits="userSpaceOnUse"><stop offset="0" stop-color="#b31a8f"/><stop offset="1" stop-color="#fe117e"/></linearGradient><linearGradient id="Áåçûìÿííûé_ãðàäèåíò_25" x1="-571.15" y1="1199.9" x2="-571.15" y2="1193.27" gradientTransform="translate(1793.98 -466.65) rotate(40.82)" gradientUnits="userSpaceOnUse"><stop offset="0" stop-color="#8642a0"/><stop offset="1" stop-color="#6456c0"/></linearGradient><linearGradient id="Áåçûìÿííûé_ãðàäèåíò_97" x1="728.81" y1="465.6" x2="728.81" y2="398.19" gradientUnits="userSpaceOnUse"><stop offset="0" stop-color="#d906e3"/><stop offset="1" stop-color="#ff6df9"/></linearGradient><linearGradient id="Áåçûìÿííûé_ãðàäèåíò_97-2" x1="87.44" y1="445.38" x2="87.44" y2="361.06" xlink:href="#Áåçûìÿííûé_ãðàäèåíò_97"/><linearGradient id="Áåçûìÿííûé_ãðàäèåíò_206" x1="83.89" y1="177.84" x2="76.71" y2="116.17" gradientTransform="matrix(0.97, 0.26, -0.26, 0.97, 53.94, 58.93)" gradientUnits="userSpaceOnUse"><stop offset="0" stop-color="#1852a0"/><stop offset="1" stop-color="#067ed3"/></linearGradient><linearGradient id="Áåçûìÿííûé_ãðàäèåíò_206-2" x1="76.93" y1="178.07" x2="76.93" y2="114.88" xlink:href="#Áåçûìÿííûé_ãðàäèåíò_206"/><linearGradient id="Áåçûìÿííûé_ãðàäèåíò_107" x1="27.89" y1="229.8" x2="23.24" y2="189.91" gradientTransform="matrix(0.94, 0.33, -0.52, 1.49, 167.43, -102.13)" gradientUnits="userSpaceOnUse"><stop offset="0" stop-color="#188dc1"/><stop offset="1" stop-color="#06bfe7"/></linearGradient><linearGradient id="Áåçûìÿííûé_ãðàäèåíò_107-2" x1="644.59" y1="67.87" x2="660.95" y2="7.08" gradientTransform="matrix(1, 0, 0, 1, 0, 0)" xlink:href="#Áåçûìÿííûé_ãðàäèåíò_107"/><linearGradient id="Áåçûìÿííûé_ãðàäèåíò_206-3" x1="616.45" y1="60.86" x2="628.66" y2="15.53" gradientTransform="matrix(1, 0, 0, 1, 0, 0)" xlink:href="#Áåçûìÿííûé_ãðàäèåíò_206"/><radialGradient id="Áåçûìÿííûé_ãðàäèåíò_83" cx="449.22" cy="463.42" r="45.12" gradientUnits="userSpaceOnUse"><stop offset="0" stop-color="#4b474b"/><stop offset="1"/></radialGradient><radialGradient id="Áåçûìÿííûé_ãðàäèåíò_83-2" cx="329.03" cy="463.42" r="44.65" xlink:href="#Áåçûìÿííûé_ãðàäèåíò_83"/></defs><g class="cls-1"><g id="Camada_2" data-name="Camada 2"><g id="illustration"><circle class="cls-2" cx="405.8" cy="223.94" r="223.94" transform="translate(-39.49 352.53) rotate(-45)"/><path class="cls-3" d="M487,519.31h-67.9c-7.11-39.46-23.63-90.82-23.63-90.82-4-2.38-11.86.55-11.86.55l-24.82,90.27h-62C293.5,463.61,324,400.38,324,400.38h0a6.88,6.88,0,0,1-.81-3.46c.1-.56,1.14-1.63,2.31-2.68,1.68-1.53,3.67-3.07,3.67-3.07l115.73-.72s1.17.59,2.66,1.49h0c2.53,1.53,6,3.9,6,5.63a7.82,7.82,0,0,1-1.17,4.28l-.05.07C477.07,448.74,487,519.31,487,519.31Z"/><path class="cls-4" d="M350.79,519.37l-.71-.12c7.89-46.51,27.93-85.52,28.13-85.91l.09-.11,5.1-4.46.48.54-5.06,4.42C377.92,435.49,358.52,473.83,350.79,519.37Z"/><path class="cls-5" d="M428.35,519.37c-7.74-45.57-27.68-84.28-28.57-86l-4.52-4.06.48-.54,4.65,4.2c.2.4,20.77,39.77,28.67,86.28Z"/><path class="cls-6" d="M453.48,397.56a7.82,7.82,0,0,1-1.17,4.28l-.05.07c-24.1,5.45-42.43,27.94-42.43,27.94,13.13,25.19,35,89.46,35,89.46H419.13c-7.11-39.46-23.63-90.82-23.63-90.82-4-2.38-11.86.55-11.86.55l-24.82,90.27H342.76c5.75-37.82,22.72-84,22.72-84C348.79,415.9,324,400.38,324,400.38h0L321,398.52l2.13-1.61c10.74,10.3,45.35,23.75,46.42,24.17l-44.11-26.85c1.68-1.53,3.67-3.07,3.67-3.07l115.73-.72s1.17.59,2.66,1.49l-31.61,17.39Z"/><polygon class="cls-7" points="395.5 428.49 409.01 419.73 405.8 428.49 403.45 454.88 395.5 428.49"/><polygon class="cls-8" points="383.64 429.04 369.57 421.08 339.44 407.52 377.8 432.87 380.09 441.95 383.64 429.04"/><path class="cls-9" d="M422.35,157.66c.09.62.16,1,.16,1a80.87,80.87,0,0,1-2.4,8.18,66.33,66.33,0,0,1-9,17.51,34.56,34.56,0,0,1-3.92,4.59c-21.08-6.61-31.47-27.23-35.45-37.48a.52.52,0,0,1-.06-.16c-.77-1.94-1.27-3.5-1.59-4.51h0c-.25-.81-.36-1.26-.36-1.26.08-.18.17-.36.26-.54l0-.07c.35-.72.69-1.46,1-2.17a101.92,101.92,0,0,0,5.78-16.13c1-3.79,1.57-6.7,1.83-8.25.13-.79.19-1.23.19-1.23l9.83,5.19,33.84,17.91a55.81,55.81,0,0,0-.72,8.58c0,1.81,0,3.43.13,4.8.1,1.67.27,3,.4,3.87h0A1.3,1.3,0,0,0,422.35,157.66Z"/><path class="cls-10" d="M413,191.16a28.67,28.67,0,0,1-7,5.11.82.82,0,0,1-.17.11l-.2-.12h0c-.73-.45-3.25-2-6.63-4.54-8.84-6.66-23.6-20.12-27.82-38.27a.21.21,0,0,1,0-.07,44.69,44.69,0,0,1-1-6.63h0c0-.6-.09-1.19-.1-1.8a93.15,93.15,0,0,0,8,14.33c6,8.76,15,18.31,25.67,18.36,9.28.06,14-6.28,16.44-12.13a32.32,32.32,0,0,0,1.95-6.64s0,0,0,0c.1-.52.17-1,.24-1.38h0c0-.2.06-.38.08-.54.08-.65.11-1,.11-1S426.07,178.06,413,191.16Z"/><path class="cls-11" d="M413,191.16a28.67,28.67,0,0,1-7,5.11h-.39c-.73-.45-3.25-2-6.63-4.54-8.84-6.66-23.6-20.12-27.82-38.27a.21.21,0,0,1,0-.07,44.69,44.69,0,0,1-1-6.63h0c0-.6-.09-1.19-.1-1.8a93.15,93.15,0,0,0,8,14.33s5.84,16,18.47,24c6.32,4,11.12,3.4,14.64,1.06s5.81-6.39,7.16-9.45a22.21,22.21,0,0,0,1.84-8.06c0-.48,0-.91,0-1.3a32.32,32.32,0,0,0,1.95-6.64s0,0,0,0c.1-.52.17-1,.24-1.38h0c0-.2.06-.38.08-.54.08-.65.11-1,.11-1S426.07,178.06,413,191.16Z"/><path class="cls-12" d="M494.09,322.17a1.4,1.4,0,0,0-.23.12c-1.18.14-4.87-.67-9.69-4.84l0,0s0,0,0,0l-.06-.06c-4-3.54-8.9-9.45-13.74-19.13-9.67-19.34-12.45-32.25-12.9-34.51l-.05-.34-5.65,8.95c-3.83,11.52-11.08,59.16-10.95,61.21s6.43,12.05,6.3,13.28l0,0c-.17,1.24-3,4-3.81,6.94-.55,2,3.29,8.22,6,12.89h0c1.4,2.43,2.49,4.42,2.49,5.18,0,2.18-6.85,12.85-6.85,12.85v5.75l-.1.1-.32.29-.26.22c-2.6,2.05-13.62,8.77-48.06,10.62-40.81,2.18-68-10.95-68-10.95l2.05-5.62s-1.9-1.64-2.05-2.46,1.51-2.74,1.51-2.74-4.11-2.18-4.11-4.93,8.22-11.21,8-18.48-6.58-13.68-7.4-17.78,10.68-14.23,10.68-14.23C326.89,293.28,325,251.4,325,251.4l-1.9-2.2s-11.78,26.83-22.45,40c-1.27,1.56-2.62,3.11-4,4.6a116.92,116.92,0,0,1-9.19,8.88c-7.4,6.44-14.12,10.68-15.82,10.34-2.74-.55-13.69-22.17-13.19-44.35.23-10.54,6.59-22.34,13.19-31.81.71-1,1.42-2,2.14-3a151.73,151.73,0,0,1,11.32-13.65c.84-.9,1.32-1.38,1.32-1.38s-1.5-4.83-2.53-9a1.63,1.63,0,0,0-.07-.3.8.8,0,0,0,0-.15l0-.1c-.61-2.58-1-4.82-.64-5.37.91-1.46,6.22-3.11,7.13-4.19s4.73-19.53,7.65-21.54,7.73-3.32,24.16-9.78l2.5-1c18.41-7.3,36.49-16.15,36.49-16.15l6.93-8.53H371l-1,2.17,0,.07q.74,3.3,1.69,6.32a.52.52,0,0,0,.06.16c9.53,30.07,34.06,39.77,34.06,39.77,17-12.59,16.71-32.57,16.71-32.57v-2.74l3.2.95,2.18,5.2s3.69,5.75,18.34,12.2a86.76,86.76,0,0,1,8,4.11c13.4,7.62,28.31,19.39,29.45,21.89a7.1,7.1,0,0,1,.39,1.24v0c1.58,6.18,4.81,29.33,7.82,37.6a18.93,18.93,0,0,0,7,9.47s0,0,0,0a11.17,11.17,0,0,0,2.8,1.46c.23,1.27.45,2.53.65,3.77C508.73,293.41,496.78,320.29,494.09,322.17Z"/><path class="cls-13" d="M336.88,247.4l-11.91,4-1.9-2.2s-11.78,26.83-22.45,40c-1.27,1.56-2.62,3.11-4,4.6a116.92,116.92,0,0,1-9.19,8.88l-9.07-39.11-4.61-29.68a151.73,151.73,0,0,1,11.32-13.65c.84-.9,1.32-1.38,1.32-1.38s-1.5-4.83-2.53-9a1.63,1.63,0,0,0-.07-.3.8.8,0,0,0,0-.15l0-.1c-.61-2.58-1-4.82-.64-5.37.91-1.46,6.22-3.11,7.13-4.19s4.73-19.53,7.65-21.54c0,0-1.9,17.7,8.22,40.15l4.93,6.93,14.42,11.59S330.91,244.06,336.88,247.4Z"/><path class="cls-14" d="M302.44,279.41c-2.56,19-30.83,33.57-30.83,33.57-6.3,0-13.33-11-19.72-24.45s-6.77-52.31-7.11-54.71-3.9-7.19-4.11-9.25,5.75-6.29,5.75-6.29l0-.11,0-.1c-.62-1.33-4.12-8.82-3.87-10.2s7-4.78,7-4.78l.42,7.38s15.57-2.94,20.85-15l.92-3.7,2.6,1.73v15.88s.54,2.47,1.36,2.47,6.89-3,8.16-2.62,2.54,8.92,4.25,10,6.21,4.25,6.89,5.75c.3.68.33,3.12.36,6,0,3.53.07,7.69.59,10C296.79,245.23,305,260.43,302.44,279.41Z"/><path class="cls-15" d="M561,263.16c-1.28,2-7.66,6.21-9.31,7.86s0,7,0,7c-26.82,28.48-54.79,42.73-57.61,44.12a1.4,1.4,0,0,0-.23.12c-16.84-11.33-15.4-30-9.81-45.7a118.77,118.77,0,0,1,14.91-28v0h0a34.93,34.93,0,0,1,8.55-2.37,5.16,5.16,0,0,1,3.16,1c2.06,1.27,3.79,3.28,5.47,2.44,2.47-1.24,8-14.28,11.73-14.64,2.61-.25,6.24,2.41,8.65,3.92,1.05.67,1.88,1.12,2.28,1,1.37-.36,6-5.94,6.4-6.08s2.49,1.4,2.49,1.4l-1.49,1.85a50.53,50.53,0,0,0,9.76,22l5-7.34S562.29,261.15,561,263.16Z"/><path class="cls-16" d="M422.43,157.1c0,.18-.06.37-.08.56-.07.39-.16.77-.27,1.16,0,0,0,0,0,0-1.71,6.37-8.66,12.88-17.43,9.75-9.58-3.43-27.81-42-27.81-42l1.83-8.25,43.27,35.25.48,3.33Z"/><path class="cls-17" d="M278.36,150s-2.65-14.6-1.46-25.36a117.06,117.06,0,0,0-.31-23s-2.61-1.09-4.53,0-6.39,12.23-4.38,21.17.46,30.38.46,30.38h-3l-6.57-9-3.2-.91S237,160.61,237.25,170.92l2.4,9.17,22.65-.77,14.78-16.88Z"/><path class="cls-18" d="M255.36,143.28a117.77,117.77,0,0,0,3.06,21.35,5.11,5.11,0,0,1-5.16,4.31l-1.16-1.3s-.82,4.58-5,4.93l-4-4,1,3.28a5.62,5.62,0,0,1-5.2,3.36s-6.29-4.93-6.7-11.36l6.22-5.27v-4l7.39-5.2.14-2.94S250.35,143.21,255.36,143.28Z"/><path class="cls-19" d="M277.16,121.58s-1.11,2.81-2.68,3.91-6.14,1.93-6.14,1.93l-.2,25.8h-3l-6.57-9s3.33,5.16,3.53,9l-2.6,1.28-2.26-7.73-1.07,5.56,1.07,6.93s3.89-3.35,10.94-3.49l1.06,1.92s-12.75,10.57-15.69,16.79c0,0,6.29-8,20.66-16.83l1.37-4.24,1.82-10.13S275.67,128.68,277.16,121.58Z"/><path class="cls-20" d="M287.85,166.54c-1.19,3.56-13.6,18.34-15,21.54a43.53,43.53,0,0,0-2.19,7.39c-6.1,13.18-20.85,15-20.85,15l-.68-11.9s-7.93-4.56-9.27-7.06l0,0-.16-.41c-.4-2.33-.05-11-.05-11l13.88-5.62c6-7.81,20.67-16.83,20.67-16.83l.68-4.09c-10.52-5.17-8.75-20.82-7-22.74s5.06-1.91,5.06-1.91,3.84,12.59,6.3,18.48S289,163,287.85,166.54Z"/><path class="cls-21" d="M246,146.43s1.55,14.37,6.09,21.21a33.49,33.49,0,0,1-6.23-18.27Z"/><path class="cls-21" d="M238.48,154.57s1.51,11.56,8.63,18c0,0-6.31-3.15-8.63-14Z"/><path class="cls-22" d="M274.81,185s-15.66,15.2-25.65,13.55l.68,11.9a26.39,26.39,0,0,0,21.76-18.71A44,44,0,0,1,274.81,185Z"/><path class="cls-23" d="M605.67,205.68S591.3,232,574.47,240h-5.75l-13.28,20.12s-8.58-5.38-9.21-23.08A16.15,16.15,0,0,0,550,230.4s-4.74-3.73-6-6.46-1.73-10.95-2.64-14.33-8.67-10.4-10.4-11.31-9.58-1.38-9.58-1.38-1.1-2.83,0-4.18,13.32-6.13,20-1.56a29.56,29.56,0,0,0,1.19,5.3c.73,1.82,6.57,8.29,7.48,8.29s4.84-3.28,6.57-5.84S567,177.45,569.17,171a.48.48,0,0,1,.06-.18c0-.11.07-.21.08-.29a1,1,0,0,0,.06-.19s0,0,0-.07c1.65-5.57,11.22-16.24,16.34-19.16,0,0,2.18-.55,3.36,2.18,0,0-4.1,11.69-8.39,18.62-.72,1.17-1.5,2.55-2.31,4h0c-3.65,6.72-7.77,15.51-8.36,16.8l-.07.16,2.28,1.17,6.17-5.85,6.33-6,14.51,15.33-1.43,1.82-4.53,5.82,2.29.42,5.35-5.91Z"/><path class="cls-24" d="M602.31,211.26,597.72,218S572.5,198.57,567,196.92s-7.48-.54-7.48-.54l-5.65,7.2s10.4,9.22,11.31,21.63c0,0-3.47-15.69-15.24-20.44.91,0,4.84-3.28,6.57-5.84S567,177.45,569.17,171a7.15,7.15,0,0,0,.23,4.93c1.24,2.3,8.55.13,9,0h0L570,192.75l-.07.16,2.28,1.17,6.17-5.85-3.09,7.18,22.5,4-4.53,5.82,2.29.42Z"/><path class="cls-25" d="M584.73,182.24s4.38-.64,7.21,5l-.64,1.82s4.27.84,8.39,7.76A23.39,23.39,0,0,1,587,206.51s-4.2-1.19-4.93-4.75l.83-2.28-3.29,2.46s-3.92,1.19-5.66-4.65Z"/><path class="cls-26" d="M607,203.86s.91-4.2-3.56-6.93l-8.66,9.58a4.47,4.47,0,0,0,4,3.74S604.71,208.24,607,203.86Z"/><path class="cls-27" d="M543.94,223.94s10,11.2,24.78,16.09l-6.35,9.63-13.25-16.83.85-2.43S544.67,226.41,543.94,223.94Z"/><path class="cls-21" d="M591.3,189.08s-4.2,6.93-8.39,10.4l-.83,2.28s8.15-5.5,11.15-11.85A5.27,5.27,0,0,0,591.3,189.08Z"/><path class="cls-28" d="M561,263.16c-1.28,2-7.66,6.21-9.31,7.86s0,7,0,7c-26.82,28.48-54.79,42.73-57.61,44.12a1.4,1.4,0,0,0-.23.12c-2.19.27-12.87-2.73-23.55-24.09-9.67-19.34-12.45-32.25-12.9-34.51l-.05-.34,2.35-3.2,3.5-39.4,2.45,7.93c9.31-11.23,18.07-28.46,18.07-28.46l.39,1.24v0c1.58,6.18,4.81,29.33,7.82,37.6a18.93,18.93,0,0,0,7,9.47v0c-8.57,7.81-12.81,19-14.91,28A77.65,77.65,0,0,0,482,291.08a97.54,97.54,0,0,1,9.85-24.5,52.92,52.92,0,0,1,10.59-12.78,86.11,86.11,0,0,1,8.26-6.62c2.06,1.27,3.79,3.28,5.47,2.44-11.27,16.92-11,50.41-.41,44s13-19.94,13-19.94c-2.5-16.51-1.76-35.13.25-38.67,2.44.08,9.42,5,9.82,4.87-.63,19.43,8.5,32.4,8.5,32.4l6-9.31a57.81,57.81,0,0,1-8.12-29.17c.36-.16,2.49,1.4,2.49,1.4l-1.49,1.85a50.53,50.53,0,0,0,9.76,22l5-7.34S562.29,261.15,561,263.16Z"/><path class="cls-29" d="M444.86,384.69v5.75l-.1.1-.32.29-.26.22c-2.6,2.05-13.62,8.77-48.06,10.62-40.81,2.18-68-10.95-68-10.95l2.05-5.62s-1.9-1.64-2.05-2.46,1.51-2.74,1.51-2.74-4.11-2.18-4.11-4.93c0-2.47,6.71-9.62,7.79-16.34a9.7,9.7,0,0,0,.16-2.14c-.28-7.22-6.52-13.62-7.38-17.72a.15.15,0,0,1,0-.06c-.82-4.1,10.68-14.23,10.68-14.23C326.89,293.28,325,251.4,325,251.4l-1.9-2.2s-11.78,26.83-22.45,40-26.28,24.37-29,23.82c-6.3,0-13.33-11-19.72-24.45s-6.77-52.31-7.11-54.71-3.9-7.19-4.11-9.25c6.84,11.78,17.75,8.31,17.75,8.31-7.9.17-12-14.6-12-14.6l0-.11,0-.1-3.86-10.18c.44.49,9.47,10.59,18.19,4.36,8.94-6.38,13.55-18.75,13.55-18.75v15.88s.54,2.47,1.36,2.47a194.08,194.08,0,0,1-4,25c-4.06,19-9.62,37.29-9.62,37.29s15.08-8.21,20.38-29a87.45,87.45,0,0,0,2.7-24.9,61.7,61.7,0,0,0-1.21-10.42,1.63,1.63,0,0,0-.07-.3.8.8,0,0,0,0-.15s0-.05,0-.07l1.46,3.09,2.78,6.88c3.22,26.7-3.43,66.93-3.43,66.93,9.68-12.05,11.69-38.69,11.27-45.16-.19-3.09-.43-6.91-.59-10-.22-3.41-.36-6-.36-6l19.8,11.82L311,225.21l14.42,11.59s12.95,15.6,26.27,17.42,62.22.73,62.22.73-42.51,2.73-54.92,6.39-14.78,7.84-14.78,7.84c9,45.64,58.62,61,60.17,61.48-45-6.76-66-45.05-66-45.05s-.73,21.54,2.73,29.74,23.91,28.29,50.19,32.48a61.91,61.91,0,0,0,6.54.66c22.16,1,40.51-10.28,42.39-11.5l.16-.1,0,.07c-.7,1.09-9.79,13.86-46.48,15.26q-3.35.12-6.5,0h0c-34-1.43-51.33-24.08-51.33-24.08s-12.58,6.76-4.55,16.79c.09.1.17.22.26.32,2.37,2.73,7.58,6.06,13.75,9.5l.51.29c7.45,4.12,16.19,8.36,22.95,11.88l.1,0a83.63,83.63,0,0,1,9.42,5.39h0c1.9,1.39,2.29,2.28.43,2.5-9.49,1.1-45.43-6.75-46.89-4.56s1.78,7.84,1.78,7.84c33,16.35,103.59,8.29,105.81,8.05-59.08,15.12-107.42-4-107.42-4l1.61,5.66a211.56,211.56,0,0,0,57.33,9.85c31,.72,50.37-7.21,50.37-7.21Z"/><path class="cls-30" d="M420.69,254.77s23.5,1.28,39,5.38l-8,12.15A106.83,106.83,0,0,0,420.69,254.77Z"/><path class="cls-31" d="M442.64,319.55S428,331.78,413.57,337.43a97.35,97.35,0,0,1-28.28,6.21s8.28,2.46,28.67-.82,27.37-14.33,27.37-14.33Z"/><path class="cls-32" d="M449.22,366.65h0c-27.13,7-61.57-3-61.28-4.27s9.44.55,30.64-3.7c20.56-4.12,28-11.43,28.46-11.87-.17,1.24-3,4-3.81,6.94C442.68,355.74,446.52,362,449.22,366.65Z"/><path class="cls-33" d="M375.53,258.45c-23.17,2.35-29.41,8.81-29.41,8.81-6.51.83-21.15-15.86-21.15-15.86l-1.9-2.2s-11.78,26.83-22.45,40c-1.27,1.56-2.62,3.11-4,4.6l1.51-3.41s2.49-1.19,3.21-14.23-5.47-32.48-5.52-35.12-.95-16-.95-16l19.8,11.82L311,225.21l14.42,11.59s5.64,8.49,19.9,15.57C358.79,259.06,373.87,258.52,375.53,258.45Z"/><path class="cls-34" d="M323.07,249.2l13.8-1.8s5.52,3.66,16.6,8.17l-9.24,13.61s3.66,19.42,14.18,30.36c0,0-27.91-15.51-31.83-28.54Z"/><path class="cls-35" d="M242.47,207.89l3.95,10.39s4,14,12,14.6,15.79-23.5,15.79-23.5V193.5s-8.49,18.21-17.66,20.26S242.47,207.89,242.47,207.89Z"/><path class="cls-36" d="M290.22,199.67s7.11,14.23,15.87,18.61c0,0-10.41-25.28-8.22-40.15C297.87,178.13,294,180.51,290.22,199.67Z"/><path class="cls-37" d="M463.21,220.75l2.45,7.93,2.49,65.08a157.2,157.2,0,0,1-10.74-30.07l2.31-3.54S463.58,235.62,463.21,220.75Z"/><path class="cls-38" d="M538.83,239.9s-1.39,32,12.2,34.73l.67,3.42S534.13,277.4,538.83,239.9Z"/><path class="cls-39" d="M516.17,249.62s-.52,1.15-5.47-2.44c0,0-17.09,12.11-23.67,29.17,0,0,10.53-15.68,16.14-17.37s7,4.56,7,4.56S512.35,254.72,516.17,249.62Z"/><path class="cls-40" d="M240.67,224.57s6.57,12.12,18.89,8.32c0,0-7.38,5-14.78.93C244.78,233.82,240.19,225.94,240.67,224.57Z"/><path class="cls-41" d="M283.73,209.23s9,33.8-14.54,59.2c0,0,15.32-7.87,18.79-26.07A56,56,0,0,0,283.73,209.23Z"/><path class="cls-42" d="M445.73,182.22s-1,15.25-8.33,26.2-21.82,18.34-21.82,18.34,18.2-6.7,26.55-16.15S445.73,182.22,445.73,182.22Z"/><path class="cls-43" d="M352.62,159.26A96.37,96.37,0,0,0,356.73,185c4.1,13,39.74,35.72,39.74,35.72s-36.73-15.26-43.85-29S352.62,159.26,352.62,159.26Z"/><path class="cls-44" d="M427.89,162c-1.13,13.44-5.22,22.8-9.58,29.11-6,8.67-12.51,11.63-12.51,11.63a75.16,75.16,0,0,1-17-10.24c-20.6-16.47-27.24-39.29-27.75-41.17,8.7,21,21.47,33.73,31.14,40.89a62.54,62.54,0,0,0,13.6,8V193.5a45.23,45.23,0,0,1-4.48-2c-17.05-8.6-26-26.51-30.19-38.1a.21.21,0,0,1,0-.07A82,82,0,0,1,368,142.69H371l-1,2.17,0,.07q.74,3.3,1.69,6.32a.52.52,0,0,0,.06.16c9.53,30.07,34.06,39.77,34.06,39.77,17-12.59,16.71-32.57,16.71-32.57v-2.74l3.2.95Z"/><path class="cls-45" d="M529,235s-4.63,15.13-.25,38.67c0,0,2.19-29.83,3.83-32.43s6.24-1.37,6.24-1.37A108.15,108.15,0,0,0,529,235Z"/><path class="cls-46" d="M484.05,317.33c-4-3.54-8.9-9.45-13.74-19.13-9.67-19.34-12.45-32.25-12.9-34.51l2.3-3.54,3.08-29.75,2.87-1.72a121.74,121.74,0,0,0,18.07-28.46,7.1,7.1,0,0,1,.39,1.24v0c1.58,6.18,4.81,29.33,7.82,37.6a18.93,18.93,0,0,0,7,9.47s-17.78,26.38-18.65,45.21C479.54,310.89,483.36,316.46,484.05,317.33Z"/><path class="cls-47" d="M378.47,372.34s-32.06-5.26-45.15-13.69c0,0,0,0,0,0a9.7,9.7,0,0,0,.16-2.14c-.28-7.22-6.52-13.62-7.38-17.72.14.39,1.08,2.56,5.63,6.46a96.67,96.67,0,0,0,13.75,9.5l.51.29c9.24,5.46,17.2,9.16,22.95,11.88l.1,0c5.18,2.43,8.53,4,9.42,5.39Z"/><path class="cls-48" d="M447,346.82c-.17,1.24-3,4-3.81,6.94,0,0-11.76,12.46-55.29,8.63.29-1.23,9.44.55,30.64-3.7C439.14,354.57,446.59,347.26,447,346.82Z"/><path class="cls-49" d="M454.28,178.33l-27.82,9-8.15,3.78,0,0H413l-7.16,0-4.48.36-2.37.17-6.75.53-3.39.28-33.37-12.08-6-2.15L322,168.35l2.5-1c18.41-7.3,36.49-16.15,36.49-16.15l6.93-8.53H371a101.92,101.92,0,0,0,5.78-16.13l1.83-8.25c.13-.79.19-1.23.19-1.23l9.83,5.19,33.12,26.49c0,1.81,0,3.43.13,4.8l.48,3.33c.08-.65.11-1,.11-1l3.2.95,2.18,5.2s3.69,5.75,18.34,12.2A86.76,86.76,0,0,1,454.28,178.33Z"/><path class="cls-50" d="M433.09,153a45.33,45.33,0,0,1-27.29-4c-14.32-6.94-26.35-27.38-27.09-32.48s5.48-18.43,5.48-28.83-5.1-28.29,3.46-38,48-11.12,60.78,1.29c0,0,4,9.94,4,15.56a41.4,41.4,0,0,1-.61,5.65c-.12.85-.27,1.76-.42,2.7-1.14,6.8-2.71,15.11-2,18.75a18.66,18.66,0,0,0,1.14,3.55v0c1.58,3.64,3.92,6.54,4.34,9.69C455.41,111,449.89,140.18,433.09,153Z"/><path class="cls-51" d="M384.08,84.69s-3.54-8.88-12.43-9c0,0-5.21,2.06-6,6,0,0,1.92,14.37,4.11,21.08S380,108.51,380,108.51,386.94,97.81,384.08,84.69Z"/><path class="cls-52" d="M418.27,114s3-.23,4.24.73,5.93,5.47,11.82,6.7,9.83-3.78,11.08-4,2.63,1.51,2.63,1.51-.54-2-3.6-3c0,0-1.24,4.72-9.77,3.11s-12.16-5.41-12.16-5.41l-.43-.77A22.88,22.88,0,0,0,418.27,114Z"/><path class="cls-53" d="M405.68,69.76l.12-.92s8.51-14.93,25.34-15.34,20.64,10.14,20.64,10.14l3.11-4.73-7.1-14.44-49.46-.82-12,9.71-1.52,23.79,5.35,31.4,13,7,3.68-3.26c-1.36-10.52-9.18-20.13-9.18-20.13l5.7-4s14.64,7.09,23.11,5c0,0,6.36-18.57,6-32.33C432.46,60.79,410.76,64,405.68,69.76Z"/><path class="cls-54" d="M404.93,70.86s.82-5.38,9.9-7.53c10.11-2.4,18.33-4.42,18.33-4.42S431.37,64.8,428,67c0,0-10.7-.39-16.12.84S404.93,70.86,404.93,70.86Z"/><path class="cls-54" d="M451.78,63.64s-5.14,4-8.63,13.4c0,0,3.36-4.38,6.43-4.31a1.76,1.76,0,0,1,1.78,2.13A19.71,19.71,0,0,0,451.78,63.64Z"/><path class="cls-55" d="M408.32,86.07s.55-11.36,11.64-14.23c0,0,4,5.13,4.37,11C424.33,82.79,418.45,81.69,408.32,86.07Z"/><path class="cls-56" d="M440.07,90.59s.9-9,6.09-12.39c0,0,3.54,2.66,3.18,10.23C449.34,88.43,446.23,87.31,440.07,90.59Z"/><path class="cls-57" d="M408.32,86.07s3.61,4.43,13.69,5.3c0,0,1.92-2.93,1.73-8.65C423.74,82.72,414.48,81.83,408.32,86.07Z"/><path class="cls-57" d="M440.07,90.59v1.32s1.55,3.24,7.12,3.79a15.57,15.57,0,0,0,1.94-7.33S445.59,87.49,440.07,90.59Z"/><path class="cls-58" d="M419.1,82.48a12.49,12.49,0,0,0-2.33,8,38.26,38.26,0,0,0,5.24.87s2.2-3.08,1.73-8.65A14,14,0,0,0,419.1,82.48Z"/><path class="cls-58" d="M445.36,88.53s-1.45,1.55-1.73,6.3a10.93,10.93,0,0,0,3.56.87,13.16,13.16,0,0,0,1.94-7.33A6.31,6.31,0,0,0,445.36,88.53Z"/><path class="cls-54" d="M418.27,90.84s-.91-6.14,2.6-8.49l2.87.37s1,4.86-1.73,8.65C422,91.37,419.15,91,418.27,90.84Z"/><path class="cls-54" d="M446.63,88.26a26.33,26.33,0,0,0-1.91,7,8,8,0,0,0,2.47.47s2-2.41,1.94-7.33A5.77,5.77,0,0,0,446.63,88.26Z"/><path class="cls-59" d="M408.32,86.07s6.71-3.9,18.14-1.67l-2.13-1.61A19.12,19.12,0,0,0,408.32,86.07Z"/><path class="cls-59" d="M440.07,90.59a18.06,18.06,0,0,1,11.65-1.34l-2.58-1.92S444.93,86.69,440.07,90.59Z"/><path class="cls-60" d="M415.58,86.07A4,4,0,0,1,419,87.33,3.15,3.15,0,0,1,415.58,86.07Z"/><path class="cls-60" d="M442.54,91.37s2.86-.56,3.84.74C446.38,92.11,444.85,93.17,442.54,91.37Z"/><path class="cls-61" d="M409,86.74a26.28,26.28,0,0,0,13.56,6.38l.21-3L422,91.37S414,90.89,409,86.74Z"/><path class="cls-61" d="M440.07,91.91s.93,3.33,7.72,4.84l-.22-1.63-.38.58S442.37,95.08,440.07,91.91Z"/><path class="cls-62" d="M426.46,105.23a24.48,24.48,0,0,1,7.18,0c4.65.55,9.89,1.83,12.74,0,0,0-3.79,3.81-7.08,4.38s-8.3-2.31-8.3-2.31l-2.19,0A6,6,0,0,1,426.46,105.23Z"/><path class="cls-63" d="M429.13,107.33a3.49,3.49,0,0,1,2.09-.55c1,.19,1.94,1.58,1.94,1.58A9.62,9.62,0,0,0,429.13,107.33Z"/><path class="cls-64" d="M446.38,105.23c1.22-1.18-5.07-12.4-8.09-12.81S432.46,105,432.46,105s4.18.59,8.24,1.13S446.38,105.23,446.38,105.23Z"/><path class="cls-65" d="M450.88,69.93c-1.7-.22-7.72,7.11-7.72,7.11s-3.83,11.86-3.08,15.37,10.05,5.39,10.05,5.39l.39-.62v0a18.66,18.66,0,0,1-1.14-3.55c-.73-3.64.84-12,2-18.75a13.62,13.62,0,0,0,.42-2.7C451.82,71.06,451.66,70,450.88,69.93Z"/><path class="cls-66" d="M450.61,118.09c-1.92-4-.74-6.11-17.42-8.29-23.62-3.1-25.64,4.1-29.66,3-.14,0-.32-.11-.48-.18-4.34-1.69-14.59-11.76-14.85-25.32-.27-14.1,9.18-24.1,9.18-24.1-3.43-2.87-4.8-11.21-1.1-14.78s10-2.73,25.45-1.09S437.2,48,437.2,48c4.92,1.26,7.73,5.87,8.53,7.34a5,5,0,0,1,.23.46l1.92-1.78a25.2,25.2,0,0,1,4.25,15.74s8.48-17.25,7.51-19.69c-1.76-4.51-6.66-11.08-7-11.5l0,0s-1.37-13.13-5.47-13.13-21.63,4-21.63,4a25,25,0,0,0,1.65-9.71l-.07.07c-5.73,5.13-11.32,5.7-19.23,9.37a19.93,19.93,0,0,0-7.41,5.37l-.54.63-.56.68c-.55.7-1.11,1.4-1.79,2.13a.3.3,0,0,1-.09.08l0,0a23.46,23.46,0,0,1-2.3,2.15c-5.2,4.23-16.64,7.06-18,11.54s1.73,10.58,3.38,16.87a34.33,34.33,0,0,1,.88,11.86,23.36,23.36,0,0,1,3.64,17.3c-1.6,9.2-5.12,10.7-5.12,10.7a15.76,15.76,0,0,0-1.3,9.81c5.06,20.11,26,32.08,26,32.08,18.6,6.94,30.84,3.92,30.84,3.92v0c13.54-8.82,18.18-38,18.38-39.39C453.63,115.26,451.12,119.16,450.61,118.09Zm-8.35,18.62c-3.28-.55-4-8.85-5.06-10s-7-.63-7-.63-5.48,6.21-7.66,6.38-13.87-4.56-11.34-11.67,11.34-8,11.34-8a21.45,21.45,0,0,0,11.4,4.27c6.85.45,9.32-.81,10.13-1.17s5.23,1.63,5.11,7.85C449.08,128.08,445.55,137.26,442.26,136.71Z"/><path class="cls-67" d="M441.41,94.91s5.9,7.33,5.34,10.08c-.62,3-7.45,4.62-7.45,4.62s5.48-1.89,6.6-4.62A36.45,36.45,0,0,0,441.41,94.91Z"/><path class="cls-68" d="M452.13,69.79a25.2,25.2,0,0,0-4.25-15.74,42.09,42.09,0,0,0,4.78-15.47l0,0c1.41,3.48,2.22,10.25,2.22,10.25l4.74,1.25C460.61,52.54,452.13,69.79,452.13,69.79Z"/><path class="cls-69" d="M445.73,55.37c-.8-1.47-3.61-6.08-8.53-7.34,0,0,0,.95-15.47-.69S400,44.88,396.28,48.43s-2.33,11.91,1.1,14.78c0,0-9.45,10-9.18,24.1.26,13.56,10.51,23.63,14.85,25.32l-.2,1.51s.77,31.05,8.32,33.52,23.2,1.19,24.66,2.65-.2,3.77-.35,4v0s-12.24,3-30.84-3.92c0,0-20.92-12-26-32.08a15.76,15.76,0,0,1,1.3-9.81s3.52-1.5,5.12-10.7a23.36,23.36,0,0,0-3.64-17.3,34.33,34.33,0,0,0-.88-11.86c-1.65-6.29-4.76-12.4-3.38-16.87a19.71,19.71,0,0,0,14.5-3.19s1.53-2.12,8.31-3.22S434,47,434,47s-2.73-2.26-8.48-3.77c-5.43-1.43-24,.24-26,.39,2.12-.37,23.16-4,25.55-3.26,2.55.75,11.65,4.93,11.65,4.93-.83-4.18-9-14.23-9-14.23s-11.5.2-19,1.77A24.47,24.47,0,0,0,397.61,38l1.79-2.13.56-.68.54-.63,2.63-.45,13.2-5.33c4.43-2.37,10.11-8.23,10.81-9l.07-.07a25,25,0,0,1-1.65,9.71c11.15-1.37,14.92-.68,14.92-.68C445.55,35.91,445.73,55.37,445.73,55.37Z"/><path class="cls-70" d="M404.63,150.39a69.45,69.45,0,0,1,17.15-1.2c10.32.41,16.25.46,13.69,5.12C435.47,154.31,422.51,157.24,404.63,150.39Z"/><path class="cls-71" d="M440.48,28.73s6.28-2.45,8.75-2a4.88,4.88,0,0,0-2-1.59c-1-.27-21.66,4.31-21.66,4.31S438.43,27.91,440.48,28.73Z"/><path class="cls-72" d="M427.76,31.06s-.5,6.83-2.68,9.3l-25.55,3.26L392,42.3a18.88,18.88,0,0,0,6.09-5C401.31,33.62,418,30,427.76,31.06Z"/><path class="cls-73" d="M452.66,38.58s2.08,6.72,2.24,10.27l4.74,1.25S458.2,45,452.66,38.58Z"/><path class="cls-74" d="M383,96.75s-1.8-8.62-6.2-12.89A10.39,10.39,0,0,0,367.4,81s1.37,16,2.81,19.89,3.63,4.93,3.63,4.93a12.32,12.32,0,0,1-3.49-8c-.42-5.28-.55-12.74.61-13.63s5.87,2.58,5.87,2.58-1.49,1.82-2.38,6.53,2.4,8.13,3.63,8.06-.07-5.45.13-7S381.16,93.12,383,96.75Z"/><path class="cls-75" d="M378.63,86a10.77,10.77,0,0,0-4.29,9.64c.52,6.48,4.23,6.2,4.24,4.84s-.71-4.86-.33-6.84,3.57-1.09,3.57-1.09S379.72,87.44,378.63,86Z"/><path class="cls-76" d="M453.86,114.9s-6,27.26-18.39,39.41C435.47,154.31,449.63,148.75,453.86,114.9Z"/><path class="cls-76" d="M447.22,25.1s3.16,2.45,3.76,11-3.1,18-3.1,18,4.74-7.07,5.19-14.83S449.72,26.08,447.22,25.1Z"/><path class="cls-77" d="M409,43a74.15,74.15,0,0,0,15.29,3.19c8,.7,9.65.86,9.65.86s-3.21-3.12-10.06-4A69.38,69.38,0,0,0,409,43Z"/><path class="cls-78" d="M444.29,115.5s3.49,0,4.86,4.38a36.06,36.06,0,0,1,1.4,6.5l1.24-4.8s-1.62-6.08-3.29-7.45c-1.21-1-3.29-2-4.28-1.75Z"/><path class="cls-79" d="M434.88,111.12l.59,5.2s4.25.34,7.07-.82l.5-3.15S437.62,111,434.88,111.12Z"/><path class="cls-76" d="M454.28,178.33s24.88,18.18,28.11,24.43,4.54,25.86,8.91,34.35c0,0-3-13.88-5.08-24.77s-1.59-11-2.76-13.7S463.71,183.07,454.28,178.33Z"/><path class="cls-76" d="M449.82,279.52s-12,51.34-11.45,54.81,8.31,10.54,8.67,12.49c0,0-5.93,7.94-5.66,9.7s10.4,12.89,10.13,16.34c-.08,1-6.65,11.83-6.65,11.83s7.42-10.65,7.79-12.35-9.1-15.93-9.37-17.37c-.72-3.75,4.72-6.5,4.9-9s-7.36-8.48-7.42-12.5S449.82,279.52,449.82,279.52Z"/><path class="cls-76" d="M452.26,401.91s25.93,58.7,34.77,117.4C487,519.31,485.55,462,452.26,401.91Z"/><path class="cls-64" d="M287.85,166.54s-6.71-1.43-9.49-7.28-1-14.33-1-14.33,5.25,10.08,7.87,13.52S288.58,165.81,287.85,166.54Z"/><path class="cls-80" d="M497.76,135.94l4.66,132.61a9.77,9.77,0,0,0,9.76,9.43H740.62a9.78,9.78,0,0,0,9.77-9.54l3.19-134.16a9.77,9.77,0,0,0-9.83-10l-236.28,1.55A9.77,9.77,0,0,0,497.76,135.94Z"/><path class="cls-81" d="M740.62,278.34H512.18a10.11,10.11,0,0,1-10.13-9.78L497.4,136a10.15,10.15,0,0,1,10.06-10.48l236.29-1.56a10.22,10.22,0,0,1,7.29,3,10,10,0,0,1,2.9,7.34l-3.19,134.16A10.08,10.08,0,0,1,740.62,278.34Zm3.2-153.7h-.07l-236.28,1.55a9.4,9.4,0,0,0-9.34,9.74l4.65,132.61a9.38,9.38,0,0,0,9.4,9.08H740.62a9.47,9.47,0,0,0,9.4-9.19l3.2-134.16a9.39,9.39,0,0,0-9.4-9.63Z"/><path class="cls-82" d="M498.11,142.69h255.2l.41-7A10.71,10.71,0,0,0,743,124.37l-236.2,1.86a8.87,8.87,0,0,0-8.79,9Z"/><polygon class="cls-83" points="510.94 153.39 510.94 230.13 589.05 230.13 589.05 152.99 510.94 153.39"/><rect class="cls-84" x="664.55" y="158.54" width="33.98" height="33.98"/><rect class="cls-85" x="704.64" y="158.54" width="33.98" height="33.98"/><rect class="cls-86" x="623.78" y="158.54" width="33.98" height="33.98"/><rect class="cls-87" x="651.72" y="212.34" width="86.9" height="8.14"/><rect class="cls-87" x="629.99" y="224.72" width="108.63" height="2.52"/><rect class="cls-87" x="631.01" y="196.86" width="20.78" height="2.52"/><rect class="cls-87" x="671.15" y="196.86" width="20.78" height="2.52"/><rect class="cls-87" x="711.24" y="196.86" width="20.78" height="2.52"/><rect class="cls-87" x="623.78" y="228.82" width="34.94" height="2.52"/><rect class="cls-87" x="629.99" y="232.86" width="108.63" height="2.52"/><rect class="cls-87" x="623.78" y="236.91" width="114.84" height="2.52"/><rect class="cls-87" x="623.78" y="240.96" width="114.84" height="2.52"/><rect class="cls-87" x="629.99" y="257.31" width="108.63" height="2.52"/><rect class="cls-87" x="623.78" y="261.36" width="114.84" height="2.52"/><rect class="cls-87" x="623.78" y="265.41" width="114.84" height="2.52"/><rect class="cls-87" x="623.78" y="245" width="110.22" height="2.52"/><rect class="cls-87" x="629.99" y="249.05" width="108.63" height="2.52"/><rect class="cls-87" x="623.78" y="253.09" width="93.04" height="2.52"/><g class="cls-88"><path class="cls-89" d="M532.82,214.75A22.23,22.23,0,1,1,555,192.52,22.25,22.25,0,0,1,532.82,214.75Zm0-43a20.78,20.78,0,1,0,20.78,20.77A20.8,20.8,0,0,0,532.82,171.75Z"/></g><circle class="cls-60" cx="532.82" cy="192.52" r="12.08"/><g class="cls-88"><path class="cls-89" d="M589.05,175.21A22.22,22.22,0,1,1,611.28,153,22.25,22.25,0,0,1,589.05,175.21Zm0-43A20.78,20.78,0,1,0,609.83,153,20.8,20.8,0,0,0,589.05,132.21Z"/></g><circle class="cls-60" cx="589.05" cy="152.99" r="11.36"/><g class="cls-88"><polygon class="cls-60" points="507.05 132.28 508.67 129.82 517.45 137.51 516.1 139.39 507.05 132.28"/><polygon class="cls-60" points="517.68 132.28 516.05 129.82 507.27 137.51 508.62 139.39 517.68 132.28"/></g><rect class="cls-60" x="668.49" y="131.49" width="78.65" height="3.94"/><polygon class="cls-90" points="254.63 74.56 254.63 108.68 295.44 109.03 296 73.46 254.63 74.56"/><polygon class="cls-91" points="296 73.46 298.66 77.95 297.33 109 295.44 109.03 296 73.46"/><polygon class="cls-60" points="261.92 86.08 265.69 80.6 286.07 97.71 282.94 101.88 261.92 86.08"/><polygon class="cls-60" points="286.59 86.08 282.82 80.6 262.44 97.71 265.57 101.88 286.59 86.08"/><path class="cls-92" d="M114.7,108H13.89a8.26,8.26,0,0,1-8.26-8.07L3.75,17.23A8.25,8.25,0,0,1,12,8.78H117a8.26,8.26,0,0,1,8.26,8.49L123,100A8.25,8.25,0,0,1,114.7,108Z"/><path class="cls-93" d="M114.7,108.24H13.89a8.57,8.57,0,0,1-8.52-8.32L3.49,17.23A8.5,8.5,0,0,1,12,8.52H117a8.52,8.52,0,0,1,8.52,8.75L123.21,100A8.47,8.47,0,0,1,114.7,108.24ZM12,9a8,8,0,0,0-8,8.18L5.89,99.91a8,8,0,0,0,8,7.81H114.7a8,8,0,0,0,8-7.77L125,17.26A8,8,0,0,0,117,9Z"/><rect class="cls-60" x="30.92" y="25.7" width="53.02" height="2.27"/><rect class="cls-60" x="30.92" y="31.22" width="26.51" height="2.27"/><rect class="cls-60" x="30.92" y="35.83" width="26.51" height="2.27"/><rect class="cls-60" x="60.41" y="35.83" width="21.09" height="2.27"/><rect class="cls-60" x="30.92" y="40.44" width="42.74" height="2.27"/><rect class="cls-60" x="30.92" y="45.05" width="15.21" height="2.27"/><rect class="cls-60" x="49.26" y="58.87" width="26.31" height="2.27"/><rect class="cls-60" x="30.92" y="49.66" width="47.68" height="2.27"/><rect class="cls-60" x="30.92" y="54.26" width="36.68" height="2.27"/><rect class="cls-60" x="30.92" y="58.87" width="17.25" height="2.27"/><rect class="cls-60" x="30.92" y="63.48" width="26.51" height="2.27"/><rect class="cls-60" x="30.92" y="68.09" width="7.61" height="2.27"/><rect class="cls-60" x="41.66" y="68.09" width="27.59" height="2.27"/><rect class="cls-60" x="49.26" y="72.57" width="26.31" height="2.27"/><rect class="cls-60" x="30.92" y="72.57" width="17.25" height="2.27"/><rect class="cls-60" x="30.92" y="77.18" width="26.51" height="2.27"/><rect class="cls-60" x="30.92" y="81.79" width="7.61" height="2.27"/><rect class="cls-60" x="41.66" y="81.79" width="27.59" height="2.27"/><path class="cls-94" d="M12.53,320.76a6.52,6.52,0,1,1-3.48-8.54A6.52,6.52,0,0,1,12.53,320.76Z"/><path class="cls-95" d="M184.9,473.14a3.7,3.7,0,1,1-2-4.85A3.71,3.71,0,0,1,184.9,473.14Z"/><path class="cls-96" d="M582.16,67.79a3.31,3.31,0,1,1-.35-4.68A3.32,3.32,0,0,1,582.16,67.79Z"/><path class="cls-97" d="M764.13,465.6h-70.5a10.52,10.52,0,0,1-10.51-10.17l-1.57-46.36a10.53,10.53,0,0,1,10.52-10.88h73.48A10.52,10.52,0,0,1,776.06,409l-1.41,46.37A10.53,10.53,0,0,1,764.13,465.6Z"/><path class="cls-98" d="M764.13,466h-70.5a10.84,10.84,0,0,1-10.87-10.51l-1.57-46.37a10.9,10.9,0,0,1,10.88-11.25h73.48A10.86,10.86,0,0,1,776.42,409L775,455.41A10.83,10.83,0,0,1,764.13,466Zm-72.06-67.41a10.16,10.16,0,0,0-10.15,10.5l1.56,46.37a10.12,10.12,0,0,0,10.15,9.82h70.5a10.12,10.12,0,0,0,10.16-9.85L775.7,409a10.16,10.16,0,0,0-10.15-10.47Z"/><polygon class="cls-60" points="712.43 414.85 695.05 435 712.75 450.02 712.75 442.27 702.51 433.4 712.02 422.65 712.43 414.85"/><polygon class="cls-60" points="742.98 415.75 760.36 435.9 742.66 450.93 742.66 443.17 752.9 434.31 741.51 422.25 742.98 415.75"/><polygon class="cls-60" points="716.22 450.02 731.36 416.66 738.48 416.66 721.33 450.02 716.22 450.02"/><path class="cls-99" d="M131.63,445.38H43.44a13.16,13.16,0,0,1-13.15-12.72l-2-58a13.16,13.16,0,0,1,13.16-13.6H133.4a13.16,13.16,0,0,1,13.16,13.56l-1.77,58A13.17,13.17,0,0,1,131.63,445.38Z"/><path class="cls-98" d="M131.63,445.74H43.44a13.46,13.46,0,0,1-13.51-13.06l-2-58a13.53,13.53,0,0,1,13.51-14H133.4a13.53,13.53,0,0,1,13.52,13.94l-1.77,58A13.46,13.46,0,0,1,131.63,445.74ZM41.48,361.42a12.79,12.79,0,0,0-12.79,13.23l2,58A12.74,12.74,0,0,0,43.44,445h88.19a12.75,12.75,0,0,0,12.8-12.41l1.77-58a12.79,12.79,0,0,0-12.8-13.19Z"/><rect class="cls-87" x="46" y="370.39" width="80.77" height="47.97"/><polygon class="cls-60" points="79.23 382.3 79.23 406.46 99.87 393.27 79.23 382.3"/><rect class="cls-87" x="46" y="427.2" width="80.77" height="4.39"/><rect class="cls-60" x="46" y="427.2" width="20.91" height="4.39"/><path class="cls-100" d="M97.51,209.47,93.3,221.53C95.62,214.86,99,210.54,97.51,209.47ZM93.3,221.53l-4.23,12.05C90.13,233.27,91,228.19,93.3,221.53Zm4.21-12.06L93.3,221.53C95.62,214.86,99,210.54,97.51,209.47ZM93.3,221.53l-4.23,12.05C90.13,233.27,91,228.19,93.3,221.53ZM105.46,232l4.1,2.33L114,222.23l-4.74-.79c.09-.45.17-.9.23-1.34a31.13,31.13,0,0,0,.4-6l4.95-3.11-2.25-10.63-4.75,4.54a13.78,13.78,0,0,0-2.43-3.54,10.28,10.28,0,0,0-.82-.8l2.9-6.7-7.72-2.52h0l-1.86,6.76a12.86,12.86,0,0,0-5.23,1.22l-.85-6.38-8.51,6.43,2,5.66a32.48,32.48,0,0,0-4.15,6L77,208.75,72.6,220.82l4.74.79a32.53,32.53,0,0,0-.63,7.35l-4.95,3.11L74,242.7l4.75-4.54A13.44,13.44,0,0,0,82,242.49l-2.9,6.71,7.6,3,1.18-4.29.8-2.92a12.87,12.87,0,0,0,5.24-1.22l.84,6.38,8.51-6.43-2-5.66a31.93,31.93,0,0,0,3.35-4.63C104.94,232.93,105.2,232.46,105.46,232ZM93.3,221.53c-2.34,6.66,0,13.53-4.23,12.05s-5.78-8.08-3.44-14.73,7.65-10.86,11.88-9.38S95.62,214.86,93.3,221.53Zm4.21-12.06L93.3,221.53C95.62,214.86,99,210.54,97.51,209.47ZM93.3,221.53l-4.23,12.05C90.13,233.27,91,228.19,93.3,221.53Z"/><path class="cls-101" d="M109.56,234.3,114,222.23l-4.51-2.13-.73-.34.48-6.65,5-2.44-1.65-10.32-10.9-3.55,2,4.79,3.8-7.74-7.72-2.52-3.18-1-7.61-3-1.42,5.19-6.63-3.15-8.5,6.44,2.58,7-8,22L63.1,239.15l7.56.82-2.46,5.68,7.61,3,10.9,3.55L85,248.67l-1.1-2.1,4,1.31,6.88,2.24,8.51-6.43L98,237.49l6.64-4.09ZM85.63,218.85c2.33-6.67,7.65-10.86,11.88-9.38L93.3,221.53l-4.23,12.05C84.84,232.09,83.29,225.5,85.63,218.85Z"/><path class="cls-102" d="M98.66,230.74l4.42-12.07-4.74-.79a33,33,0,0,0,.63-7.34l5-3.11-2.26-10.63-4.75,4.54A13.48,13.48,0,0,0,93.67,197l2.9-6.7-7.61-3-2,7.2a13,13,0,0,0-5.23,1.22l-.85-6.38-8.5,6.44,2,5.66a32.75,32.75,0,0,0-4.16,6.05l-4.09-2.32L61.7,217.27l4.74.79a33,33,0,0,0-.63,7.34l-5,3.11,2.26,10.63,4.75-4.54a13.2,13.2,0,0,0,3.25,4.34l-2.91,6.71,7.61,3,2-7.2A13,13,0,0,0,83,240.19l.84,6.38,8.51-6.44-2-5.66a32.63,32.63,0,0,0,4.15-6ZM78.17,230c-4.24-1.49-5.78-8.08-3.44-14.74s7.65-10.86,11.88-9.38,5.77,8.09,3.44,14.74S82.4,231.51,78.17,230Z"/><polygon class="cls-103" points="114.82 210.98 103.92 207.43 98.97 210.54 109.87 214.09 114.82 210.98"/><polygon class="cls-104" points="103.28 243.69 92.37 240.13 90.41 234.47 101.31 238.03 103.28 243.69"/><polygon class="cls-103" points="93.67 197 99.64 198.73 101.67 196.8 105.63 198.09 107.47 193.85 96.57 190.3 93.67 197"/><path class="cls-103" d="M77.79,241.41l5.71,2.38-.48-3.6S80,241.81,77.79,241.41Z"/><path class="cls-103" d="M78.67,208.73l9.61,5.08a14.84,14.84,0,0,1,2.47-2.62S88.25,200.59,78.67,208.73Z"/><polygon class="cls-105" points="501.44 373.04 510.7 391.61 504.51 394.42 495.85 377.37 501.44 373.04"/><polygon class="cls-106" points="529.72 62.45 529.99 72.78 534.12 72.18 533.88 62.41 529.72 62.45"/><polygon class="cls-107" points="639.31 381.43 630.67 386.67 627.21 380.11 636.65 374.59 639.31 381.43"/><polygon class="cls-108" points="624.2 62.38 622.11 13.76 685.77 13.76 683.15 62.24 624.2 62.38"/><polygon class="cls-109" points="622.11 13.76 620.2 16.63 622.11 62.38 624.2 62.38 622.11 13.76"/><polygon class="cls-60" points="643.24 23.47 633.25 22.4 634.62 55.72 643.24 54.87 643.24 51.42 638.25 51.54 637.68 25.85 643.24 26.01 643.24 23.47"/><polygon class="cls-60" points="663.7 23.47 673.69 22.4 672.33 55.72 663.7 54.87 663.7 51.42 668.7 51.54 669.27 25.85 663.7 26.01 663.7 23.47"/><path class="cls-81" d="M597.82,429.94l-10.64-27.83,27.58,5.76Zm-9.49-26.85,9.7,25.39,15.46-20.14Z"/><polygon class="cls-81" points="154.87 91.32 150.28 71.77 150.85 71.64 155.44 91.18 154.87 91.32"/><rect class="cls-81" x="142.82" y="81.18" width="20.08" height="0.59" transform="translate(-13.5 33.21) rotate(-11.88)"/><rect class="cls-81" x="32.3" y="294.41" width="0.59" height="11.89" transform="translate(-183.47 89.19) rotate(-39.47)"/><rect class="cls-81" x="218.07" y="436.84" width="0.59" height="12.2" transform="translate(-27.63 14.73) rotate(-3.63)"/><path class="cls-110" d="M441.89,519.31h36.8c2.67-13.44,1.32-33.08-4.53-54-10-35.58-29.22-61.29-43-57.43s-16.85,35.83-6.88,71.4C428.74,495.2,435.05,509.11,441.89,519.31Z"/><path class="cls-111" d="M338.69,519.31c6.3-10.48,11.89-24.57,15.57-40.52,8.31-36,3.75-67.8-10.19-71s-32,23.36-40.27,59.37c-4.64,20.12-5.26,38.93-2.47,52.16Z"/></g></g></g></svg>