<svg xmlns="http://www.w3.org/2000/svg" height="200px" width="300px" viewBox="0 0 1540 490"><defs><style>.cls-1{fill:#fff;}</style></defs><g id="Camada_2" data-name="Camada 2"><g id="Camada_1-2" data-name="Camada 1"><path class="cls-1" d="M1431.26,374.43c1.65,3.13,4.14,4.38,7.74,4,2.63-.29,5.33.15,8,0,3-.14,4.87.08,4.7,4.13s-2.25,3.34-4.88,3.28q-57.69-1.37-115.4-2.55c-25-.47-50-.55-75-1.05-4.48-.09-4.8,1.09-3.44,4.93,3,8.46,5.58,17.06,8.2,25.64.4,1.33,1.81,3.43-.86,4.08-2.41.58-1.95-1.81-2.34-3-3.12-9.48-6.21-19-9.07-28.51-.76-2.55-1.92-3.24-4.48-3.22-9.15.06-18.32,0-27.47-.35-3.56-.16-3.35,1.21-2.7,3.71q3.51,13.5,6.81,27.06c.35,1.41,1.67,3.55-.86,4.16-2.73.67-2.12-2.08-2.45-3.35q-3.69-14-7-28.07c-.63-2.69-1.67-3.7-4.64-3.68q-36.24.24-72.47.05c-2.9,0-3.91.78-4.45,3.74-1.78,9.63-4,19.19-6.12,28.76-.25,1.13,0,3-2.14,2.61s-1.56-2-1.24-3.52c2-9.42,3.89-18.88,6.15-28.25.68-2.83-.28-2.83-2.52-3.09-5.08-.6-7.69.79-8.65,6.39-1.48,8.67-4,17.16-6.1,25.71-.29,1.14,0,3.06-2,2.79-2.41-.32-1.55-2.17-1.23-3.51,2.17-9.22,4.31-18.45,6.7-27.62.78-2.95.16-4.06-2.87-3.64-.17,0-.34,0-.5,0-4.43.68-10.1-1.76-13,1s-3,8.2-4.18,12.51c-1.75,6.24-3.39,12.51-5.1,18.76-.32,1.17-.1,3-2.22,2.47-2.44-.57-1.27-2.14-.9-3.5,2.37-8.83,4.52-17.72,7.18-26.46,1.15-3.83.56-4.67-3.52-4.65-35.81.24-71.62,1.11-107.42,2-50.29,1.23-100.55,3.27-150.75,6.41-45.86,2.86-91.65,6.71-137.21,12.87-22.91,3.1-45.75,6.79-68.24,12.27-3.49.86-4.54,0-5.43-3.26-1.12-4.1,2-3.6,3.89-4,36.73-8.32,74-13.4,111.39-17.22,3.81-.38,7.61-.9,11.43-1.1a8.85,8.85,0,0,0,5.29-2.41c4.78-3.87,9.6-7.67,14.41-11.5l1.15,1.09-13.93,12c11.52-1,21.74-2,32-2.78,2-.15,3.26-1.39,4.77-2.33,1,.43.85,2.13,2.3,2,5.81-.48,11.6-1.24,17.41-1.38,6.38-.15,12-1.51,16.29-6.65l1.18,1.12c-.8,1.48-2.89,2-3.35,4.42,7.23-.46,14-1.6,20.78-1.16,11.67.75,19.94-3.8,28.27-12Q1003,241.24,1135.56,112.48c6.67-6.5,6.75-6.94,2.54-15.77l-23.47,20.91-1.24-1.11c1.67-1.6,3.31-3.23,5-4.78,6-5.45,12-10.83,18-16.33,3.28-3,.53-6.31-.48-9-.78-2-2,1.23-3.35,1.16l-1.17-1.07a19.42,19.42,0,0,0,2.79-2.8c1.53-2.24,1.31-4.14-1.59-5.1l-1.26-1.21c2.36-1.44,1.87-3.38,1.3-5.62-4.86-19.12-9.61-38.28-14.75-58.89,8,6.44,15.33,11.64,21.66,17.89,2.52,2.49,2.78,7.31,4,11.09,1.73,5.37,3.56,10.71,5,16.15.92,3.4,2.05,4.15,4.68,1.4a33.16,33.16,0,0,1,3.89-3.06l1.24,1.19c-1.76,1.51-3.53,3-5.27,4.53-2.35,2.08-2.34,2.09-.7,5.61l4.88-3.36c-.31,3-2.26,3.67-3.31,4.94-2.34,2.86-.16,5.51,1,7.67s2.08-1,3.41-1.21c.77-.1.73.38,1,.64-3.82,5.37-3.62,9.55.59,12.81l1.15.93c-2,3.53-.81,7.85,2.57,9.25,1,.4,1.49.91.73,1.69-2.66,2.73-.06,5,.52,7.45,1.19-2.82,3.76-7.64,1.9-8.3-5.41-1.91-.84-3.5-.12-4.11,4.2-3.58,4.36-8.73,5.64-13.43.31-1.15.1-2.45-1.76-1.87l-1.18-1c6.15-4.76,7.13-11.79,9.09-19.77-2.07,1.85-3.13,2.88-4.28,3.81-5.07,4.11-9.22,9.32-15,12.63-1.48-1.66.44-2.11,1.14-2.76,5.57-5.16,11.13-10.34,16.88-15.3,3.92-3.39,3.78-8.18,4.82-12.56.18-.75-1-.1-1.54-.1l-1.45-.52c1.27-2.87,6-3.5,5-8.23l-8.7,6.56-1.19-1.14a51,51,0,0,1,5.31-4.48c4.88-3.15,7.86-7.41,8.61-13.21a7,7,0,0,1,2-4.47L1212.4,0c-1.59,7.51-2.54,14-4.42,20.2-1.59,5.25-1.18,9.61,2.48,13.71a20.15,20.15,0,0,1,2,3.4l-1.13,1.18-5.88-8.15c0,4.55-2.11,7.42-.91,10.8-.09.87-.19,1.75-.28,2.63-3,2.14-2.54,4.83-1.1,7.57,2.08,4,4.25,7.87,6.39,11.81l-1.16,1.3-7-11.78c-1.92,5.16-2.46,9.38.16,13.53l-1.1,1.25c-.8-.63-1.43-3.69-2.52-.2-1.36,4.35-1.81,8.68.68,12.85l-1.17,1.35c-.61-.67-.56-1.89-2.18-2.28-.22,4.18-3,8-.91,12.3-1.21.36-2.63.41-2.95,2,.78,2.72-.09,5.33-.87,7.82-1.32,4.2-.67,8,.81,12.06q45.47,124.71,90.74,249.49c1.47,4.05,2,9.56,4.94,11.64s8.3.76,12.61.81c7.9.08,7.9,0,5.48-7.52l1.17-1.39c.86,2,1.7,3.95,2.58,5.9.65,1.44.82,3.27,3.13,3.25,7.36-.06,14.71,0,22.3,0-1.47-3.41-2.83-6.57-4.2-9.73l1.22-1.41c2.43,10.89,9.8,13.5,19.78,11.91a29.58,29.58,0,0,1,5,0c1.22,0,1.15-.85,1.14-1.68.37-.42.75-.83,1.12-1.24.89.94,1.08,2.84,2.54,2.87,7.65.13,15.31.06,23.2.06l-3.88-7.67c.36-.42.73-.83,1.1-1.25,1.41,2.41,2.83,4.81,4.24,7.23.85,1.46,1.73,2.6,3.78,2.58,5.27-.07,10.55,0,15.83.2,3.23.09,1.25-1.61,1-2.73l1.18-1.3c1.7,1.25,1.55,4.28,4.8,4.19,5.41-.16,10.84.17,16.26.38,1.8.07,2.48-.48,1.74-2.26C1430.51,375.29,1430.88,374.86,1431.26,374.43ZM1145.34,103.35c0,.71,0,1.42,0,2.13-.73,3.73,1,6.92,1.93,10.28,2.12-.55,2.55-3.28,6.21-2.77-7.46,4.43-5.29,9.83-3,15.35l3.74-2.92c2,2-.57,2.54-1.24,3.57-.89,1.37-2.21,2.41-1.66,4.39,1.15,4.12,2.16,8.29,3.23,12.44l.87,0c2.36-8.73,4.72-17.46,7.19-26.62-2.58,1.12-3.37,3.33-5,4.57-1,.74-1.2,3.39-3.43,1.74,1.34-3.29,4.27-5.33,6.39-8,2.36-3,2.16-8.9-1-10.7-1.54-.88-1.43-.8-1-2.45.77-3.28.51-6.73-3.13-8.67,0-.71,0-1.41,0-2.12.7-3.64-1.48-6.58-2.2-9.8-2.45.16-3,3.78-5.88,2.73,5.36-7.56,5.39-7.73,1.88-12.82-2.47,1.28-4,4.17-7.19,4.38a32.08,32.08,0,0,1,5.59-5.86,3,3,0,0,0,.47-4.44c-1.2-1.5-2.08.64-3.16,1-2,.69-2.64,4-5.56,2.62.58-1.92,2.32-2.82,3.79-3.71,3.42-2.07,4-4.45,2.54-8.19-2.27-5.89-4.66-11.88-5.71-18-1.6-9.43-8.68-13.48-15.56-18.55a10.35,10.35,0,0,0,0,1.9c3.74,15.16,7.59,30.29,11.18,45.49.83,3.52,2.42,1.19,3.8,1,1.61.92.33,1.77-.27,2.13-1.94,1.17-2,2.72-1.55,4.66.73,3.32,3.14-.87,4.27,1.29-4.58,3.49-2.26,7.28-.65,11,2.38-.4,2.77-3.26,5.18-3,1.61,2.1-.91,2.36-1.63,3.1A9,9,0,0,0,1145.34,103.35Zm-16,136.17c1.83.13.67-1.24,1-1.88.5-1.48,0-2.25-1.59-2.33.67-1.68,1.29-3.39,2-5,3.32-7.37,6.83-14.67,7.72-22.85.3-.67.61-1.33.91-2l.84-1.49-.6-.27c-.07.6-.13,1.19-.2,1.79a2.54,2.54,0,0,1-2.21-1.32,58.34,58.34,0,0,0,8.51-24.29l-3.29,3.61-1.14-1.2c6.93-8.49,10.33-18.32,11.74-28.9l-1.17-.79-2.37,2.93-1.16-1.16c.81-2.21,4-3.24,3.24-6.2-.91-3.81-1.91-7.6-2.85-11.41-.55-2.21-1.47-.83-2.33-.28l-1.15-1.26c4.33-4.36.46-8.37-.19-13.41-81.61,86.13-162.59,171.62-244.33,257.9,8.17-.36,15-1,21.79-.84,6.18.18,11.41-.86,14.89-6.46l1.11,1.17-2.91,3.95c7.42,0,14.78-.36,22.09.12,5.94.38,10.52-1.08,13.66-6.27l1.12,1.14c-.56,1.66-2.64,2.46-2.66,3.94,9.39,0,18.66-.17,27.91.08,3.81.1,6.75-.69,8.61-4.16l1.17,1.19c-1.28,1.81-1.45,2.9,1.41,2.77,4.47-.21,9-.74,13.41-.15,10.61,1.42,18.17-1.82,21.73-12.42,0-.14.24-.23.36-.34.38.4.76.81,1.13,1.22l-5.83,10.72c5.15,0,9.78-.51,14.26.11,9.59,1.31,16.23-1.32,18.19-11.63,0-.15.18-.28.27-.41l1.19,1.33c-1.32,3.35-2.64,6.69-4,10.24,6.81,0,13.27-.23,19.7.09,3.64.18,4.72-1.29,5.59-4.56,11.32-42.23,22.82-84.41,34.19-126.63.38-1.41,1.62-3,.28-4.56Zm45.92,2.13c-.4-2.47-.39-5.09-2.58-7.61-.42,2.85.46,4.94.95,7.08.75,5.58,1.52,11.16,2.25,16.74,4.56,35.11,9.2,70.2,13.62,105.32,1.44,11.39,1.18,11.43,12.52,11.41a12.13,12.13,0,0,1,2,0c3.34.56,4-.8,3.2-3.88q-11.15-44.19-22.13-88.43C1181.71,268.76,1178.52,255.2,1175.24,241.65Zm87.23,129.77h1.8c1.06,1.42.71,3.93,3.76,3.77,5.26-.27,10.55-.07,16.35-.07l-95.86-263.86c-1.73,9-4.93,16.23-1.35,24.48,3.22,7.43,5.1,15.44,7.57,23.19l-1.26,1.49-9.57-28.3c-1.5,7.11-2.54,12.67-3.88,18.16a12.66,12.66,0,0,0,.24,7.26q33,103.77,65.82,207.59c3.33,10.5,3.3,10.34,14.17,10C1263.74,375,1263.1,373.46,1262.47,371.42Zm-399.94,10c11.88-.55,22.48-1.11,33.08-1.49,2.38-.09,3.54-1.61,4.89-3q119.24-125.8,238.58-251.48c4.94-5.19,5.61-9.6,2.33-15.86Zm315.72-218.86-.85,0c-2.33,10.67-4.68,21.33-7,32-.93,4.36-1.69,8.53-.48,13.21,7.3,28.31,14.24,56.71,21.3,85.08q9.68,38.94,19.39,77.87c.38,1.49,0,3.83,2.92,3.8,10.46-.09,20.92,0,31.89,0Zm-23.32-1c-.74,2.41-1,3.18-1.22,4q-26.6,98.34-53.14,196.68c-1.09,4-4.51,9.48-2.09,11.9,2.16,2.18,8.16.4,12.45.63,2.74.14,3.9-.5,4.62-3.53,13.44-56.05,27.12-112,40.59-168.1,1.58-6.58,4.7-13.11,3.95-19.9S1156.94,169.67,1154.93,161.55Zm13.43,53.72-.94.27v10q0,72.38-.08,144.75c0,3.46.76,4.66,4.33,4.41a116.27,116.27,0,0,1,14,0c2.77.14,3.32-.71,3-3.35-1.82-13.17-3.48-26.36-5.16-39.55q-6.11-47.72-12.19-95.44C1170.35,229.29,1169.33,222.28,1168.36,215.27ZM1206.82,9.85c-4.6,4.18-8,7.46-11.67,10.54a12.5,12.5,0,0,0-4,6.65q-11.36,42.39-22.87,84.72c-.43,1.59-1.21,3.43-.79,4.85,2.88,9.84,6,19.59,9.12,29.37l.87-.17C1187.14,101,1196.82,56.18,1206.82,9.85Zm-41.5,213.35-1,.14q-2,16.28-3.94,32.57-4.32,35.64-8.65,71.27c-1.77,14.52-3.46,29.05-5.33,43.56-.39,3,.24,4.19,3.51,3.92a58.26,58.26,0,0,1,11,0c4,.43,4.52-1.24,4.51-4.75q-.18-63.65-.07-127.3Zm-3.57-28.62q-15.23,62.94-30.45,125.87-6.15,25.44-12.21,50.89c-.26,1.08-1.65,2.42.44,3.31a7,7,0,0,0,9.68-4.66q17.6-81.89,35.3-163.74C1165.48,201.81,1164.08,198.32,1161.75,194.58Zm-3.24,59.73h-1q-12.15,56.51-24.28,113c-1.53,7.2-1.35,7,5.76,7.35,4,.22,5.23-.94,5.69-5,3.25-28.44,6.82-56.84,10.27-85.25C1156.2,274.4,1157.34,264.35,1158.51,254.31Zm7-131.72c-1.41,4.87-2.47,8.65-3.61,12.41-3.41,11.29-6.37,22.37-1.72,34.31,3,7.64,4.23,16,6.25,24,3.16-11,5.57-22,7.85-33,.53-2.55,1.73-5,.82-7.82C1172,142.91,1169,133.34,1165.52,122.59Zm-19.88,57.08c-.06.12-.2.26-.17.34.17.48.42.49.63,0,0-.08,0-.26-.14-.34S1145.75,179.68,1145.64,179.67Z"/><path class="cls-1" d="M733.15,424.32q364.44,0,728.9-.1c4,0,5.33,1.11,4.85,5-.51,4.09,1.72,9.37-.84,12s-7.9.86-12,.86q-716.41.08-1432.81,0c-3.73,0-6.25-.07-5.82,5.07.29,3.56,1.21,4.3,4.58,4.28,29.83-.13,59.66-.07,89.49-.07q655.41,0,1310.82-.11c4.23,0,5.53,1.12,5.13,5.26-.44,4.6,1.4,10.66-.92,13.51-2.49,3.07-8.77.93-13.38.93q-671.91.09-1343.82,0c-2,0-5.6,1.52-5.64-1.52,0-2.17,3.63-1,5.57-1q674.16-.1,1348.32-.07c7.06,0,7.06,0,7.06-7a44.83,44.83,0,0,1,0-4.49c.23-2.29-.79-2.89-2.88-2.73-1.82.14-3.67,0-5.5,0q-698.16,0-1396.31.1c-4.06,0-5-1.18-4.89-5,.27-9.69.1-9.69,10.07-9.69q716.4,0,1432.81,0c2.71,0,6.79,1.44,7.88-.92,1.32-2.91.42-6.84.42-10.33,0-1.69-1.28-1.65-2.48-1.65h-5.5q-724.39,0-1448.8-.06c-2.62,0-7.73.7-7.45-.88.57-3.13,4.72-1.29,7.23-1.29Q370.2,424.27,733.15,424.32Z"/><path class="cls-1" d="M528.11,216.34c-.22,3.47.95,5,4.31,4.74,2.81-.24,5.66-.08,8.49,0,1.12,0,2.46-.19,2.47,1.62s-1.26,1.65-2.42,1.65c-3.47,0-7,0-10.75,0,2.5,8.67,1.43,17.18,1.45,25.61q.15,68.22.06,136.45c0,1.16,0,2.33,0,3.49a1.41,1.41,0,0,1-1.51,1.54c-1.25.09-1.83-.48-1.83-1.71s0-2.66,0-4c0-49.32-.09-98.63.11-147.95,0-6.36-1.72-12.13-3.46-18q-12.48-42.33-25.14-84.6c-1-3.24-7.2-5.7-9.85-3.87-1,.69-.69,1.79-.7,2.76,0,2.33,0,4.66,0,7V388c0,1,0,2,0,3a1.45,1.45,0,0,1-1.56,1.53c-1.13.06-1.95-.3-2-1.61,0-1,0-2,0-3q0-127.2-.15-254.39c0-4.93,1.33-6,6.06-6q51,.33,102,0c4.21,0,5.17,1.09,5.16,5.21q-.18,127.68-.09,255.36c0,.84,0,1.67,0,2.5,0,1.1-.2,1.95-1.64,1.85s-1.53-1-1.54-2v-3.5q0-124.93.09-249.86c0-4.61-.73-6.35-5.8-6-8.1.52-8,.18-10.33,8.13q-13,44.27-26.23,88.46a27,27,0,0,0-1,7.86q0,75.48,0,151c0,1,0,2,0,3s-.33,1.91-1.65,2c-1.62.09-2-.85-2-2.19v-3c0-49.65.1-99.3-.08-149,0-8.94,3.39-16.88,5.77-25.12q11.06-38.32,22.64-76.48c1.23-4.06.39-4.63-3.55-4.6-22.16.19-44.32.15-66.48,0-3.25,0-4.8-.09-3.47,4.12,4,12.76,3.83,12.82,17.45,12.82,14.5,0,29,0,43.49.07,1.37,0,3.87-1.15,3.88,1.54s-2.47,1.61-3.88,1.62c-17.16.07-34.33,0-51.49.11-1.38,0-4.06-1.54-4.06,1.63,0,2.82,2.05,3.18,4.54,3.16q23.75-.14,47.49,0c1.34,0,3.75-1.22,3.8,1.65s-2.44,1.6-3.7,1.61c-14.83.11-29.66,0-44.49.17-1.66,0-4.8-1.82-5,1.66s2.8,2.91,5.07,2.91c14.17,0,28.33,0,42.49.07,1.33,0,3.78-1.25,3.77,1.64s-2.47,1.52-3.76,1.53c-13.83.11-27.66,0-41.49.16-1.27,0-3.72-1.45-3.85,1.33-.13,2.59,1.47,3.53,4.2,3.5,13.16-.14,26.33-.1,39.49,0,1.32,0,3.84-1.27,3.76,1.58s-2.57,1.51-3.92,1.52c-12.5.11-25,0-37.49.1-1.3,0-3.66-1.14-3.65,1.53,0,2.23,1.3,3.31,3.9,3.27,11.83-.16,23.66-.11,35.49,0,1.38,0,3.82-1.24,4,1.43.19,3.15-2.58,1.91-4,1.93-11.16.09-22.33,0-33.49,0-1.15,0-3.34-1.2-3.37,1.44,0,2.13,1,3.16,3.45,3.12,10.16-.12,20.33-.07,30.49,0,1.27,0,3.36-.91,3.41,1.59s-1.95,1.79-3.32,1.8c-9.5,0-19,0-28.49.06-1.23,0-3.47-.9-3.23,1.59.16,1.68.84,3.29,3.45,3.22,8.16-.21,16.33-.11,24.5,0,1.33,0,3.41-.74,3.53,1.56.14,2.82-2.27,1.85-3.67,1.87-7.17.1-14.33,0-21.5.12-1.28,0-3.71-1.43-3.76,1.54-.05,2.77,1.94,2.94,4.14,2.91q9.75-.12,19.49,0c1.3,0,3.34-.86,3.51,1.54.19,2.83-2.11,2-3.56,2-6,.08-12,0-18,.11-1.15,0-3.39-1.13-3.29,1.44.06,1.88.92,3.41,3.42,3.33,4.83-.15,9.66-.1,14.49,0,1.32,0,3.37-.79,3.36,1.67s-2.16,1.53-3.39,1.56C538.35,216.4,533.21,216.34,528.11,216.34Z"/><path class="cls-1" d="M451.16,393.6c-1.4-2.58-.86-4.76-.86-6.8q-.06-93.19-.11-186.39c0-1.76,1.62-5.17-1.79-5.08s-7.55-2.45-10.19,3.11c-5.13,10.77-7,21.73-6.9,33.68.43,51,.19,101.95.19,152.93,0,1.16,0,2.33,0,3.49,0,.88-.21,1.62-1.32,1.7s-1.67-.22-2.06-1.47c-4.14-13.5-8.43-27-12.58-40.46a17.31,17.31,0,0,1-.44-4.95q0-64,0-127.94a7.21,7.21,0,0,1,3.26-6.64c5.51-4,10.8-8.35,16.93-13.14H378.87c5.81,4.58,11.1,9,16.62,13a7.78,7.78,0,0,1,3.62,7c-.1,42.48,0,85-.11,127.44,0,8-4,15-6.08,22.54s-4.6,14.92-6.84,22.39c-.35,1.17-.34,2.32-2,2.23s-1.52-1.41-1.52-2.52c0-6.33,0-12.66,0-19q0-74.46,0-148.93c0-8.73-4.79-15.8-8-23.32-1.34-3.1-5.77-1.24-8.74-1.21s-1.57,2.83-1.57,4.28q-.14,105.63-.08,211.27c0,1.33,0,2.67,0,4s-.62,2.2-2.11,2.11-1.5-1.05-1.51-2.11,0-2,0-3q0-107.44-.09-214.89c0-4.51,1.18-5.45,5.5-5.42q44.48.3,89,0c4.67,0,5.33,1.48,5.32,5.65-.13,63.8-.08,127.61-.17,191.41,0,1.74,1.65,5.11-1.9,5-3.12-.07-1.53-3.22-1.54-4.85q-.13-94.22-.08-188.42c0-1.16,0-2.33,0-3.49.05-1.75-1.14-1.68-2.34-1.7s-1.88.38-1.86,1.68,0,2.66,0,4q0,93.45,0,186.91C452.31,389.45,453,391.33,451.16,393.6Zm-68.07-190-1.4-.92a1.35,1.35,0,0,0,.54,1.93c4.14,8,3.85,16.6,3.83,25.26q-.15,68.93,0,137.85c0,1.48.15,3,.24,4.46,1.84-2.89,2.7-5.87,3.82-8.74,4.46-11.46,5.9-23.23,5.73-35.57-.47-33.46-.68-66.94.13-100.39.27-10.86-2.33-18.49-12-23.45Zm43.83,169.87c1.58-.66,1.17-1.41,1.17-2,0-47.63.05-95.26-.09-142.89,0-8.54-.16-17,4.29-24.66.16-.27-.12-.79-.24-1.45-3,2.3-5.56,4.74-8.54,6.48-4.29,2.51-5.3,5.91-5.28,10.71.19,39.47.31,78.94,0,118.41C418.12,350.88,424.53,361.51,426.92,373.51Z"/><path class="cls-1" d="M675.11,227.07c-4,13.54-8.8,26.52-8.53,41,.73,39.13.25,78.29.25,117.44a8.8,8.8,0,0,1,0,2c-.35,1.37,1.15,3.82-1.68,3.79s-1.61-2.48-1.61-3.82q-.09-66.22,0-132.44c0-6,2.72-11.6,4.13-17.38,2.53-10.45,6.8-20.46,7.79-31.32.11-1.2,1.16-2.34,1.85-3.46,2.42-3.92,4.86-7.82,7.59-12.2H627.81c0,.41-.17.84,0,1,9.64,11.24,10.09,25.9,14.55,39.05.85,2.51,1.35,5.15,2.24,7.64,3.61,10.2,4,20.71,4,31.42-.22,38.81-.09,77.63-.09,116.45,0,1.33,0,2.66-.1,4a1.21,1.21,0,0,1-1.32,1.15c-.92,0-1.68-.19-1.74-1.26-.06-1.33,0-2.66,0-4,0-43,.14-86-.16-128.94-.06-9.78-4.58-18.76-6.81-28.17l-1.67.13v13.4q0,66.72,0,133.43a24.89,24.89,0,0,1-.05,4.49c-.29,1.52,1.29,4.27-1.66,4.26s-1.6-2.75-1.6-4.2c-.07-55.8-.19-111.6.11-167.4.05-9.4-6-15.28-10.57-21.87-1.86-2.7-7.57-1.12-11.41-.52-1.68.27-.79,2.95-.79,4.51q-.06,64.22,0,128.44,0,31,0,62c0,1.16,0,2.33,0,3.49s-.13,2.3-1.85,2.22c-1.45-.07-1.49-1-1.51-2s0-2,0-3V244.45c0-17.81.08-35.62-.07-53.43,0-3.22.76-4.21,4.12-4.2q44.46.19,88.93,0c3.21,0,4.19.86,4.18,4.21q-.17,96.69-.09,193.38c0,1,0,2-.08,3a1.48,1.48,0,0,1-1.68,1.43c-.85,0-1.69-.29-1.75-1.35-.08-1.33-.08-2.66-.08-4q0-94.2.1-188.39c0-4.07-1.27-4.65-5-4.85-4.94-.26-7.25,1.95-10.37,5.53-8.57,9.86-6.78,21.35-6.79,32.63q-.11,75.95,0,151.89c0,.83.06,1.67,0,2.5s0,2.07-1.42,2.13-2-.8-2-2.18,0-2.67,0-4q0-75.21.05-150.41A7.13,7.13,0,0,0,675.11,227.07Z"/><path class="cls-1" d="M80.45,305.92c0-22.66-.07-45.32.08-68,0-3.45-.76-4.83-4.36-4.36-4.07.52-9.53-1.79-11.91.95-2,2.31-.71,7.6-.71,11.57q0,64-.08,128c0,1.54,1.3,3.95-1.33,4.6S58,378.6,58,375.17c.19-16.33.08-32.65.08-49,0-29.48,0-59,.06-88.45,0-3.12-.62-4.28-4.07-4.29-3.63,0-3.64,1.78-3.5,4.29.08,1.33,0,2.67,0,4,0,7.3,0,7.51-7.29,7.69-3.25.07-2.85,1.84-2.85,3.86q0,15.49,0,31c0,29.66.05,59.32-.11,89,0,1.83,2.24,5.39-2.49,5.5-4.56.1-2.86-3.3-2.87-5.32Q34.88,314.21,35,255c0-5.15-2.72-7-7.72-5.46-1.26.39-1.44,1.16-1.45,2.2s0,2.33,0,3.5q0,58.72,0,117.47c0,1.33,0,2.66,0,4,0,1.08-.23,1.93-1.57,2-1.73.13-1.82-1-1.81-2.23,0-.83,0-1.66,0-2.5,0-41,.05-82-.1-123,0-3.92,1-5.45,4.91-4.81,1.46.24,3-.11,4.49.06,2.72.31,3.53-.86,3.27-3.43-.19-2,.09-4,0-6-.16-2.45,1.27-2.59,3.14-2.63,2-.05,2.56.87,2.44,2.71s.1,3.67,0,5.5c-.2,2.52.16,4,3.36,3.94,3-.06,3.56-1.1,3.55-3.81,0-3.94-1.78-9.18.71-11.51,2.69-2.52,7.92-.69,12-.76,7.66-.13,15.33.07,23-.1,2.78-.06,3.92.73,3.6,3.59a50.24,50.24,0,0,0,0,5.49c0,8.1,2.52,10,10.57,8.16,1.65-.37,1.65-1.22,1.65-2.42,0-2.17.06-4.34,0-6.5s1-2.5,2.84-2.49,2.9.32,2.72,2.45c-.12,1.48.15,3,0,4.49-.44,3.32.51,5.11,4.21,4.44,2.47-.45,3.08.75,3.07,3.06-.08,18.67,0,37.33-.08,56,0,1.15.7,2.9-1.47,3-2.62.14-1.79-1.95-1.8-3.19,0-16.66,0-33.32,0-50,0-1,0-2,0-3,.08-1.54-.29-2.62-2.14-2.6s-1.73,1.19-1.73,2.4v2.5c0,20.66.07,41.33-.12,62,0,1.93,2.35,5.81-2.74,5.72-4.62-.08-2.59-3.63-2.6-5.51-.18-20.65-.25-41.3,0-62,0-4.15-.89-5.46-5.16-5.24-7.59.4-7.63.13-7.63,7.61q0,58-.06,115.94c0,1.56,1.25,4-1.52,4.56-2.92.61-4.29-.22-4.26-3.81C80.55,351.91,80.45,328.92,80.45,305.92Z"/><path class="cls-1" d="M770.13,306.2c0-15.49-.07-31,.07-46.48,0-2.85-.64-4.11-3.67-4.53-8.24-1.15-16.45-2.54-24.62-4.09-2.9-.56-3.62.44-3.33,3a2.78,2.78,0,0,1,0,.5c-.2,10.92-.2,10.92,10.72,10.93,2.66,0,5.33,0,8,0,1.25,0,2.93-.44,2.76,1.75-.14,1.68-1.51,1.48-2.65,1.49-5,0-10,.19-15-.05-3.15-.15-3.89,1-3.93,4s.68,4.13,3.86,3.94c4.65-.27,9.32-.13,14,0,1.46,0,3.84-.84,3.73,1.86s-2.47,1.66-3.92,1.7c-4.83.11-9.67.21-14.49,0-3-.15-3.15,1.36-3.1,3.64s-.29,4.29,3.17,4.13c5.15-.25,10.33-.12,15.49-.08,1.24,0,2.86-.3,2.87,1.79s-1.47,1.81-2.79,1.81c-5.17,0-10.34.2-15.49-.06-3.39-.18-3.22,1.68-3.27,4,0,2.48.13,4.07,3.37,3.91,5.15-.27,10.33-.09,15.49-.05,1.07,0,2.53-.39,2.68,1.37.16,2-1.23,2-2.65,2-5,0-10,.18-15-.08-3-.15-4,.64-3.95,3.8s.84,4.36,4.18,4.17c4.81-.28,9.66-.09,14.49-.06,1.24,0,2.92-.48,2.89,1.65s-1.72,1.67-2.95,1.68c-5,0-10,.24-15-.07-3.6-.22-3.48,1.69-3.59,4.26-.12,2.88.86,3.71,3.67,3.59,5-.21,10-.07,15,0,1.25,0,2.88-.41,2.9,1.69s-1.52,1.85-2.84,1.86c-4.83,0-9.66.1-14.49,0-2.56,0-4.49-.12-4.26,3.55.18,3,.49,4.58,4.08,4.29a134.84,134.84,0,0,1,13.49-.07c1.47,0,3.89-.92,4,1.6.1,3.06-2.64,1.79-4.16,1.85-4.66.17-9.34.27-14,0-3.27-.2-3.39,1.46-3.32,3.92.06,2.28-.26,4.23,3.18,4.06,5.16-.26,10.33-.08,15.5,0,1.24,0,2.88-.45,2.84,1.71s-1.76,1.59-2.94,1.61c-5.16.06-10.34.2-15.49-.05-3.56-.17-3.06,2-3.09,4.2s-.19,3.93,3,3.77c4.82-.25,9.67-.18,14.49,0,1.36.05,3.93-1.29,3.94,1.4,0,3-2.73,1.66-4.26,1.72a132,132,0,0,1-13.49,0c-3.42-.22-3.65,1.44-3.72,4.17-.09,3,.6,4.18,3.83,4,5-.27,10-.08,15-.08,1.38,0,2.9,0,2.76,1.91-.12,1.61-1.54,1.48-2.69,1.48-4.83,0-9.68.25-14.49-.06-3.57-.23-4.84,1-4.33,4.44a21.53,21.53,0,0,1,0,3.5c0,.91-.34,1.54-1.41,1.6s-1.91-.33-1.9-1.62a2.75,2.75,0,0,0,0-.5c-.56-2.4,1.58-5.77-1.4-7.1-2.09-.93-4.91-.23-7.41-.24-3,0-6,0-9,0-1.23,0-2.92.42-3-1.61s1.62-1.73,2.86-1.75c4.83,0,9.67-.2,14.49,0,3,.17,3.67-1.08,3.54-3.76-.12-2.42.3-4.63-3.45-4.41-5,.29-10,.08-15,.06-1.12,0-2.47.25-2.46-1.58s1.3-1.64,2.45-1.65c5,0,10-.18,15,.07,3.08.15,3.49-1.16,3.46-3.79s-.1-4.43-3.62-4.2c-4.82.31-9.66.1-14.49.06-1.22,0-2.87.48-2.79-1.75s1.78-1.55,2.93-1.57c5-.07,10-.2,15,0,3.73.16,2.76-2.29,2.92-4.32.19-2.3-.07-3.77-3.06-3.63-5,.22-10,.08-15,0-1.25,0-2.82.36-2.79-1.78s1.64-1.7,2.86-1.71c5-.06,10-.22,15,0,3.61.16,2.84-2.16,3-4.25.2-2.43-.3-3.71-3.17-3.58-4.65.22-9.33.14-14,0-1.44,0-3.82.9-3.68-1.89s2.49-1.58,3.88-1.62c4.49-.15,9-.22,13.49,0,3,.15,3.61-1.15,3.48-3.8-.11-2.32.05-4.19-3.28-4-4.82.24-9.66.08-14.49,0-1.18,0-3,.62-3.1-1.44-.13-2.47,1.89-1.83,3.24-1.85,4.5-.07,9-.27,13.49,0,3.33.23,4.2-.85,4.22-4.1s-1-4-4-3.85c-4.31.25-8.66.16-13,0-1.38-.05-3.76,1.13-3.9-1.55-.15-2.88,2.33-1.69,3.69-1.73,4.66-.15,9.34-.25,14,0,3.56.2,3-2,3.11-4.18s.06-3.87-3-3.72c-5,.23-10,.09-15,0-1.21,0-2.81.5-2.86-1.68s1.45-1.88,2.75-1.88c5,0,10-.15,15,.05,2.87.11,3.31-1.19,3.16-3.61-.14-2.17.44-4.33-3.09-4.16-5,.24-10,.08-15,0-1.27,0-2.82.32-2.79-1.8s1.57-1.78,2.84-1.79c5,0,10-.19,15,.06,3.61.18,2.92-2.08,3-4.2s0-3.88-3.06-3.74c-4.65.21-9.33.16-14,0-1.37,0-3.9,1.13-3.75-1.7.14-2.65,2.58-1.42,4-1.47,4.49-.17,9-.22,13.49,0,2.67.12,3.3-.81,3.37-3.39.32-11.66.41-11.65-10.67-8.67-2.4.64-4.8,1.31-7.22,1.9-1.24.31-2.69,1-3.13-1.12s1.35-1.81,2.46-2.22c12.44-4.58,25-5.83,38-2.41A125.67,125.67,0,0,0,770,252.27c2.67.35,3.57,1.42,3.57,4.16-.1,32.16-.06,64.31-.12,96.46,0,1.24,1,3.41-1.49,3.49-2.87.09-1.79-2.33-1.79-3.7C770.11,337.19,770.13,321.7,770.13,306.2Z"/><path class="cls-1" d="M278.46,238.44l-7.95-3.24V241q0,74.48,0,149c0,1.16,0,2.33,0,3.5s-.26,1.93-1.59,2-1.78-.69-1.83-1.82c0-1.33,0-2.66,0-4q0-76.41,0-152.82c0-6.74,0-6.74,6.28-4.34a9.63,9.63,0,0,0,1.41.33c1.69-8.33,1.69-8.36-6.08-10.39-3.36-.87-7.53-3.78-9.84-2.15s-.78,6.5-.72,9.92c.05,2.57-.7,3.46-3.37,3.5-3.56.06-8.42-1.8-10.36.91-1.76,2.46-.63,7-.63,10.69q0,69.18,0,138.36c0,1,0,2,0,3,0,1.31-.35,2.27-1.95,2.19-1.44-.07-1.41-1.09-1.43-2.09,0-1.33,0-2.67,0-4q0-66.22,0-132.45c0-1.55.91-3.53-.78-4.59a5.12,5.12,0,0,0-3.41-.14c-1.91.4-1.22,2.09-1.23,3.29,0,9,0,18,0,27,0,1.39,1,3.79-1.86,3.67-2.4-.1-1.51-2.21-1.52-3.49-.07-10.16.07-20.32-.11-30.48,0-2.88.83-4,3.62-3.52,4.3.74,5.82-.76,5.5-5.33-.45-6.43-.11-6.45,6.44-6.46a33.32,33.32,0,0,1,4,0c2.74.33,4-.53,3.72-3.52-.25-2.81.1-5.67-.09-8.48s.82-3.25,3.45-2.52c12,3.36,24.05,6.57,36.1,9.74,2.55.67,3.24,2,3.24,4.6-.08,37.48,0,75-.09,112.46,0,1.39,1,3.81-1.85,3.67-2.66-.13-1.7-2.45-1.7-3.89-.05-35.82-.16-71.64.11-107.46,0-4.86-1.49-6.51-5.95-7.46-9.14-1.95-9.08-2.19-9.2,7.45C278.64,235.87,278.55,236.86,278.46,238.44Z"/><path class="cls-1" d="M1131.32,77.39l1.26,1.21c-6.39,5.3-12.75,10.65-19.19,15.9Q963.3,216.71,813.2,338.89c-15.87,12.91-31.85,25.68-47.78,38.51l-1.15-1.09c17.35-14.26,34.65-28.59,52.07-42.77q121.39-98.88,242.85-197.69,35.05-28.54,70.07-57.1A23.64,23.64,0,0,1,1131.32,77.39Z"/><path class="cls-1" d="M1431.26,374.43c-.38.43-.75.86-1.13,1.28-7.66-11.65-15.39-23.26-23-35q-81.78-125.94-163.5-251.91c-10.85-16.73-21.54-33.57-32.31-50.35l1.13-1.18c11.66,17.78,23.38,35.52,35,53.36q76.47,117.73,152.85,235.53C1410.69,342.23,1420.94,358.35,1431.26,374.43Z"/><path class="cls-1" d="M191.1,345.32c0-22.48.07-45-.07-67.45,0-3.1.76-4,3.87-3.91,6.48.23,13,.13,19.48,0,2.45,0,3.89.55,3.4,3.32s1.12,3.51,3.46,3.13c3.55-.58,4.9.91,4.28,4.33-.69,3.81,1.29,4.62,4.49,4.08,4-.69,4.94,1.08,4.92,5-.14,39.46-.06,78.92-.16,118.38,0,1.6,1.57,4.71-1.79,4.61-2.77-.08-1.49-2.89-1.49-4.44q-.12-57.69,0-115.39c0-4-1.12-5.41-4.94-4.71s-5.14-1.13-4.53-4.73c.51-3-.92-3.89-3.64-3.54s-4.69-.1-4.07-3.58c.47-2.62-1-3-3.22-3a123.88,123.88,0,0,1-12.49,0c-3.56-.27-4.38,1-4.36,4.43.16,25.48.08,51,.09,76.45v53c0,1,0,2,0,3,0,1.35-.12,2.93-1.89,2.81-1.46-.1-1.41-1.6-1.41-2.78q0-9,0-18v-51Z"/><path class="cls-1" d="M167.44,336.23q0-37.44,0-74.9c0-2.83-.65-5.81,4-5.21,1.37.18,2-1.52,3-2.44a13.51,13.51,0,0,0,2.28-2.64c5-9,13.11-10,22.15-9.08a6,6,0,0,1,4.17,2.25c2.76,3.11,5.56,6.18,8.35,9.26.67.74,1.36,1.46,2,2.24,1.15,1.41,4.19-.8,4.38,2,.23,3.48,0,7,0,10.48,0,1.06-.85,1.25-1.76,1.22-.74,0-1.27-.31-1.4-1.06-.09-.49-.05-1-.1-1.49-.69-7.28-.69-7.28-7.91-7.28-10.15,0-20.31.21-30.46-.1-4.12-.13-5.24,1-5.22,5.16.15,47.44.09,94.88.09,142.31,0,2.17.1,4.34,0,6.49-.09,1.27.85,3.28-1.67,3.36s-1.65-2-1.67-3.2c-.08-8.49-.05-17-.05-25.46Zm40.73-80.06c-4.5-8.66-11.07-12.84-20.31-10.58-5.19,1.27-6.93,6.69-11.2,10.58Z"/><path class="cls-1" d="M317,368.68c12,0,24,.1,36-.05,3,0,4,.67,4,3.84-.16,13.65,0,27.3-.1,40.95,0,1.28.77,3.43-1.61,3.43s-1.6-2.11-1.62-3.42c-.06-7.82-.15-15.65,0-23.47.07-2.85-.85-3.66-3.65-3.57-6.65.19-13.32.2-20,0-2.75-.08-3.39.92-3.31,3.44.16,5.16.15,10.33,0,15.48-.06,1.49,1.35,4.33-1.74,4.18-2.89-.14-1.44-2.87-1.5-4.38a149.7,149.7,0,0,1,0-15c.2-3.27-1.06-3.82-4-3.78-12.81.14-25.64.1-38.46,0-1.33,0-3.77,1.22-3.76-1.64s2.44-1.68,3.79-1.69c12.49-.1,25-.21,37.46,0,3.83.07,5.57-.78,4.95-4.86-.16-1.07-.74-2.91,1.41-3,2.48-.15,2.08,1.82,1.85,3.14-.76,4.33,1.4,4.92,5.06,4.76,6-.27,12-.28,18,0,3.07.13,4-.7,3.94-3.83-.12-6.92.06-6.93-6.7-6.93q-32.71,0-65.43,0a15.92,15.92,0,0,1-3.89-.46c-.29-.08-.54-1.22-.42-1.78.41-1.92,2.08-1.31,3.27-1.31C292.64,368.66,304.79,368.68,317,368.68Z"/><path class="cls-1" d="M528.94,399.11h94.48c1.17,0,2.33,0,3.5,0s1.7.72,1.64,1.9-.71,1.38-1.63,1.38c-1.33,0-2.66,0-4,0q-92.22,0-184.44-.1c-4.46,0-6.42,1-5.71,5.67a39,39,0,0,1,0,6.49c0,1.13.17,2.37-1.62,2.45s-1.77-1.1-1.78-2.28c0-4.17.19-8.34-.06-12.49-.17-3,1.32-3.12,3.61-3.1,11.5.08,23,0,34.49,0Z"/><path class="cls-1" d="M329.76,315.52c7.5,0,15,0,22.49,0,1.17,0,2.92-.66,3.13,1.42s-1.44,1.93-2.71,1.81c-2.73-.26-2.88,1.34-2.85,3.41.08,5.66.06,11.33,0,17,0,1.33.78,3.3-1.62,3.43-2.58.14-1.73-2-1.75-3.23-.08-5.82,0-11.65,0-17.48,0-1.51.26-3.07-2.08-3.11s-2,1.67-2,3.08c0,5.83,0,11.66,0,17.49,0,1.33.65,3.33-1.82,3.27s-1.75-2-1.77-3.36c-.06-5.66,0-11.32-.05-17,0-1.49.71-3.55-2.14-3.46s-1.92,2.2-1.94,3.63c-.09,5.67,0,11.33-.07,17,0,1.31.75,3.3-1.81,3.17-2.12-.1-1.53-1.84-1.54-3-.08-5.83,0-11.66-.06-17.49,0-1.41.51-3.15-1.87-3.3-2.54-.15-2.48,1.49-2.47,3.27,0,5.83,0,11.66,0,17.49,0,1.15.69,2.91-1.46,3-2.54.14-1.84-1.84-1.85-3.16-.07-5.83-.13-11.66,0-17.49.06-2.32-.55-3.1-3-3.24-13-.75-13-.83-13,12.2,0,3,0,6,0,9,0,1.3.26,2.82-1.86,2.73-1.65-.07-1.74-1.17-1.73-2.42,0-7.32.09-14.65,0-22,0-2.77,1.54-2.76,3.53-2.75,7.49,0,15,0,22.48,0Z"/><path class="cls-1" d="M102.46,372c0-13.48,0-27,0-40.44,0-2.43-.28-4.81,3.4-4.21,2,.33,2.6-.8,2.49-2.64-.1-1.49.15-3,0-4.49-.45-3.22.71-4.66,4-4.09,4.1.71,6.42-.41,5.52-5.15-.54-2.86,1.25-3.19,3.57-3.18,12.15.07,24.3,0,36.45,0,1.23,0,3-.53,3.14,1.44.2,2.39-1.75,1.92-3.16,1.93-10.82,0-21.64.11-32.46,0-3,0-4.81.43-4.17,3.93.73,3.94-1.23,5.05-4.74,4.43-4-.7-5.25.89-4.87,4.86.29,2.91,1.6,6.86-4.27,6.4-2.74-.22-1.57,2.82-1.57,4.36-.09,24.8-.06,49.59-.07,74.39,0,1.33.08,2.67,0,4s.83,3.36-1.59,3.33-1.54-2.19-1.55-3.42c-.07-13.82,0-27.63,0-41.44Z"/><path class="cls-1" d="M857.8,269.06c0-4.66.06-9.32,0-14,0-2.55.5-3.76,3.59-3.78,10.84-.1,10.84-.25,10.68-11.33,0-1.16.06-2.33.08-3.49.19-11.62.18-11.62,12.06-11.61,4.49,0,9,.1,13.48,0,2.4-.07,3.18.84,3.15,3.19-.09,8.66,0,17.31,0,26,0,1.28.27,2.87-1.83,2.71-1.74-.14-1.42-1.52-1.42-2.63,0-7.49-.14-15,0-22.46.06-2.63-.72-3.44-3.33-3.35-5.15.18-10.32.17-15.48,0-2.53-.09-3.48.5-3.38,3.27.22,6.48,0,13,.12,19.47.07,2.64-.44,3.79-3.46,3.8-3.52,0-8.25-1.78-10.28,1-1.68,2.31-.51,6.72-.54,10.2,0,6,0,12,0,18,0,1.36.13,2.88-1.89,2.73-1.69-.13-1.44-1.53-1.45-2.66,0-5,0-10,0-15Z"/><path class="cls-1" d="M782,325.76c0-7.67.1-15.33,0-23-.05-2.63.41-3.89,3.46-3.85,12.82.15,25.65.12,38.48.05,2.08,0,3.06.49,3,2.77-.15,3.16,0,6.33-.05,9.49,0,1.3.24,2.92-1.81,2.83-1.62-.06-1.43-1.41-1.61-2.57-.46-3,1.74-7.15-1-8.8-2.36-1.4-6.16-.37-9.33-.37-7.33,0-14.67.24-22-.1-4.32-.2-5.91.71-5.78,5.51.38,13.81.18,27.65.08,41.47,0,1.39,1.24,3.83-1.31,4.06-3.14.27-1.93-2.51-2-4-.12-7.82,0-15.65,0-23.48Z"/><path class="cls-1" d="M187.75,339.38c0,18.48,0,37-.05,55.43,0,1.56,1.22,4.38-1.41,4.46-3.35.1-1.69-3.07-1.69-4.62q-.16-55.42-.08-110.86c0-1,0-2,0-3s.72-1.37,1.66-1.38,1.45.62,1.48,1.54c0,1.17,0,2.33,0,3.5Z"/><path class="cls-1" d="M55,383c12.14,0,24.29,0,36.42.05,1.36,0,3.83-.93,3.59,1.92-.2,2.31-2.3,1.4-3.58,1.41-23,.06-45.92.14-68.88-.05-3.67,0-4.93.75-4.77,4.59.3,7.47.12,15,.06,22.45,0,1.33.74,3.35-1.64,3.44-2.53.09-1.66-2.07-1.67-3.3-.08-9,.09-18-.09-26.95-.06-2.89.84-3.64,3.64-3.61C30.42,383.1,42.73,383,55,383Z"/><path class="cls-1" d="M313.78,348c11.59.16,21.21.86,30.52,3.68,4.46,1.36,8.82,3.14,11.51,7.36.79,1.23,1.83,3,.46,4-1.53,1.1-2.42-.43-3.22-1.86-2.22-4-6.34-5.36-10.33-6.37-15.69-4-31.55-4.8-47.44-1.31-5.89,1.3-11.4,3.7-15.43,8.52-1,1.16-1.92,2.06-3.29,1-1.77-1.4.08-2.35.77-3.19,5.17-6.28,12.43-8.69,20-10.28A69.69,69.69,0,0,1,313.78,348Z"/><path class="cls-1" d="M825,284.47c-6,0-12,.31-18-.11-4-.28-5,1.28-4.53,4.78a24.17,24.17,0,0,1,0,4c0,1.06-.73,1.3-1.68,1.32s-1.56-.46-1.58-1.43c0-3.33,0-6.66,0-10,0-2.08,1.53-1.81,2.83-1.81H848.5c1.65,0,2.9.11,2.83,2.33-.12,3.82,0,7.65,0,11.48,0,1.28-.25,2.32-1.89,2.27s-1.66-1.27-1.71-2.45c0-.33,0-.66,0-1-.4-9.39-.4-9.39-9.67-9.41H825Z"/><path class="cls-1" d="M296.94,394.3c-5.67,0-11.33,0-17,0-1.27,0-2.83.38-2.95-1.68-.15-2.34,1.52-2.12,3-2.12q16.75,0,33.49,0c1.29,0,2.85-.27,3,1.7.17,2.39-1.62,2.08-3.07,2.08C307.94,394.31,302.44,394.29,296.94,394.3Z"/><path class="cls-1" d="M805.09,308.58c-4.15,0-8.3,0-12.45,0-1.11,0-2.54.28-2.34-1.6.15-1.4,1.29-1.28,2.27-1.28q12.45,0,24.9,0c1.16,0,2.55-.09,2.39,1.65-.12,1.35-1.34,1.21-2.32,1.22Z"/><path class="cls-1" d="M296.35,401.75c-5.47,0-10.94,0-16.41,0-1.35,0-2.84.25-2.82-1.76s1.69-1.64,2.91-1.64q16.65,0,33.31,0c1.19,0,2.89-.54,3,1.51.18,2.52-1.81,1.87-3.13,1.88-5.63.06-11.27,0-16.9,0Z"/><path class="cls-1" d="M296.47,406.13c5.66,0,11.32,0,17,0,1.14,0,2.87-.69,2.95,1.54s-1.56,1.78-2.8,1.78q-16.74,0-33.48,0c-1.18,0-2.87.58-2.95-1.59s1.61-1.71,2.81-1.72C285.47,406.11,291,406.13,296.47,406.13Z"/><path class="cls-1" d="M804.91,319.37c4.16,0,8.31,0,12.47,0,1.1,0,2.56-.25,2.52,1.52,0,1.32-1.1,1.41-2.16,1.41q-12.72,0-25.43,0c-1.08,0-2-.22-2-1.58s1.17-1.34,2.14-1.35C796.6,319.36,800.76,319.37,804.91,319.37Z"/><path class="cls-1" d="M805.14,315.45H792.65c-1.14,0-2.49.17-2.34-1.66.12-1.41,1.23-1.32,2.2-1.33l25,0c1.2,0,2.54,0,2.38,1.69s-1.66,1.31-2.74,1.32C813.13,315.48,809.14,315.45,805.14,315.45Z"/><path class="cls-1" d="M152.68,393.1c-1.8,0-3.61-.05-5.42,0-1.44.06-2.1-.54-2.17-2-.07-1.61.82-1.89,2.16-1.87,3.12,0,6.25,0,9.37,0,1.16,0,2.77-.6,2.9,1.58s-1.34,2.23-2.89,2.21c-1.32,0-2.63,0-3.95,0Z"/><path class="cls-1" d="M152.31,405.85c1.65,0,3.31,0,5,0,1.25,0,2.25.23,2.26,1.89s-1,1.82-2.24,1.82c-3.15,0-6.29,0-9.44,0-1.25,0-2.79.35-2.76-1.79,0-2,1.39-1.92,2.75-1.92h4.47Z"/><path class="cls-1" d="M153,347.82c1.76,1.13,6.13-2,6.17,1.71,0,4-4.34,1.43-6.7,2-1.73.4-3.63.05-5.46,0-1.1,0-2-.28-2-1.64s.49-2.18,2.06-2.1C149,347.88,150.79,347.82,153,347.82Z"/><path class="cls-1" d="M152.24,331.31h5.45c1.13,0,1.84.37,1.83,1.69s-.37,2.22-1.92,2.21c-3.3,0-6.6,0-9.9,0-1.49,0-2.56-.22-2.6-2.08,0-2.11,1.41-1.81,2.68-1.84,1.49,0,3,0,4.46,0Z"/><path class="cls-1" d="M152.31,401.41c-1.48,0-3,0-4.44,0-1.21,0-2.74.44-2.75-1.71,0-1.84,1-2.16,2.51-2.13,3.12.05,6.25.05,9.38,0,1.47,0,2.56.16,2.51,2.08-.06,2.13-1.54,1.69-2.77,1.73C155.27,401.44,153.79,401.41,152.31,401.41Z"/><path class="cls-1" d="M151.58,376.43c-1.75-1.11-6,2-6.13-1.56-.21-4.38,4.19-1.67,6.49-2.21,1.72-.41,3.6,0,5.41-.07,1.35,0,2.14.39,2.18,1.94s-.84,1.92-2.14,1.91C155.58,376.42,153.78,376.43,151.58,376.43Z"/><path class="cls-1" d="M153.15,364.44c1.71,1.05,6-2,6.06,1.71.09,4.22-4.27,1.5-6.58,2.06-1.7.41-3.59,0-5.4.09-1.42,0-2.08-.51-2.1-2s.88-1.89,2.18-1.87C149.12,364.46,150.92,364.44,153.15,364.44Z"/><path class="cls-1" d="M152.39,343.28c-1.82,0-3.63,0-5.45,0-1.21,0-1.76-.51-1.81-1.73-.06-1.38.34-2.14,1.91-2.12,3.46.06,6.92,0,10.39,0,1.37,0,2.13.41,2.1,2s-.86,1.93-2.2,1.9c-1.65,0-3.3,0-4.94,0Z"/><path class="cls-1" d="M1174.33,42.42l1.19,1.14-17.13,14-1.24-1.19A197.55,197.55,0,0,1,1174.33,42.42Z"/><path class="cls-1" d="M797.63,335.51c-1.66,0-3.31,0-5,0-1,0-2.5.47-2.38-1.48.09-1.38,1-1.43,2.09-1.42,3.63,0,7.26,0,10.9,0,1,0,2.11.07,2.21,1.38.14,1.89-1.34,1.48-2.41,1.5C801.26,335.54,799.44,335.51,797.63,335.51Z"/><path class="cls-1" d="M802,326.14h9.49c.83,0,1.77,0,1.9,1.09.19,1.45-.92,1.53-1.93,1.53-6.5,0-13,0-19.49,0-.91,0-1.65-.28-1.66-1.37s.82-1.27,1.69-1.27h10Z"/><path class="cls-1" d="M152.22,359.78c-1.48,0-3,0-4.46,0s-2.73,0-2.66-2,1.6-1.71,2.87-1.71c3,0,5.95,0,8.92,0,1.36,0,2.7-.08,2.62,2s-1.6,1.62-2.83,1.64c-1.48,0-3,0-4.46,0Z"/><path class="cls-1" d="M152.29,384.74h-5.44c-1.23,0-1.72-.69-1.72-1.86s.6-1.75,1.82-1.74c3.46,0,6.92,0,10.37,0,1.33,0,2.23.24,2.2,1.86s-1,1.83-2.29,1.81h-4.94Z"/><path class="cls-1" d="M152,326.67c-1.66,0-3.32-.05-5,0-1.25.05-1.84-.5-1.87-1.7s.71-1.74,1.86-1.74H157.4c1,0,2,0,2.09,1.42.13,1.6-.76,2-2.08,2Z"/><path class="cls-1" d="M49.7,275.65c1.14,0,2.29,0,3.44,0s1.64,1,1.51,2c-.35,2.6-2.53,1.81-3.86,1.62-2.17-.3-5,1.6-6.39-1.52a1.47,1.47,0,0,1,1.37-2.09c1.3-.1,2.62,0,3.93,0Z"/><path class="cls-1" d="M516.36,410c-.68,1.63,1.16,4.31-1.61,4.61-3,.33-2-2.47-1.93-4s-1.41-4.6,1.93-4.52C517.31,406.19,515.75,408.75,516.36,410Z"/><path class="cls-1" d="M49.22,330.26c-.67,0-1.34,0-2,0-1.36.06-2.71.26-2.82-1.78s1.21-2,2.6-2c1.67,0,3.33,0,5,0,1.43,0,2.69.07,2.6,2.05-.08,1.65-1.13,1.78-2.39,1.75-1,0-2,0-3,0Z"/><path class="cls-1" d="M49.1,290.22h-3c-1.63,0-1.85-1.13-1.69-2.36.29-2.37,2.28-1.53,3.43-1.39,2.23.26,5-1.44,6.59,1.23A1.61,1.61,0,0,1,53,290.18c-1.31.08-2.63,0-3.94,0Z"/><path class="cls-1" d="M609.37,410.12c-.68,1.64,1.17,4.28-1.83,4.51-2.48.18-1.77-2.13-1.53-3.32.35-1.76-1.46-4.69,1.31-5.1C610.45,405.75,608.59,408.86,609.37,410.12Z"/><path class="cls-1" d="M568.58,410.27c.61-1.6-.92-4.27,1.75-4s1.22,2.93,1.28,4.48c0,1.3,1.22,3.95-1.48,3.72C567.24,414.21,569.66,411.39,568.58,410.27Z"/><path class="cls-1" d="M460.32,410.55c-.62,1.35,1.16,4-1.5,4-3,0-1.46-2.78-1.53-4.27s-1.3-4,1.3-4C461.63,406.25,459.66,409.1,460.32,410.55Z"/><path class="cls-1" d="M49.77,254.38h2.49c1.18,0,2.33,0,2.33,1.73,0,1.53-.76,2-2.15,2-1.65,0-3.31,0-5,0s-3.12.19-3.06-2.11,1.7-1.51,2.88-1.62C48.11,254.33,48.94,254.39,49.77,254.38Z"/><path class="cls-1" d="M475.43,410.47c.75-1.41-1.27-4.27,1.77-4.24s1.39,2.82,1.51,4.31c.1,1.34,1.24,3.81-1.33,4C474.13,414.71,476.18,411.85,475.43,410.47Z"/><path class="cls-1" d="M564.88,306c.58-1.24-1.18-3.67,1.56-3.78s1.74,2.29,1.71,3.65,1.12,3.72-1.74,3.6C564,309.4,565.21,307.33,564.88,306Z"/><path class="cls-1" d="M580.89,202.28c.45-1.3-1-3.78,1.77-3.7s1.55,2.45,1.63,3.86.74,3.43-1.48,3.55C580.07,206.14,581.16,203.78,580.89,202.28Z"/><path class="cls-1" d="M506.28,335.38c-.23,1.83.52,4.14-2.13,3.83-2.49-.29-1.39-2.57-1.44-4s-.69-3.79,2-3.5S505.64,334.39,506.28,335.38Z"/><path class="cls-1" d="M502.53,217.27c.41-1.64-.68-4,2.05-3.82,2.55.18,1.55,2.44,1.61,3.87s.77,3.7-1.9,3.56S503.26,218.29,502.53,217.27Z"/><path class="cls-1" d="M625.61,278.47c.34-1.39-.86-3.8,1.82-3.74s1.57,2.44,1.64,3.87.7,3.4-1.53,3.52C624.82,282.27,625.85,279.94,625.61,278.47Z"/><path class="cls-1" d="M568.26,217.32c-.34,1.31.7,3.45-1.53,3.53-2.66.1-1.79-2.24-1.75-3.66s-1-3.79,1.67-3.69S567.75,216,568.26,217.32Z"/><path class="cls-1" d="M686.36,367.37c-.39,1.26.84,3.47-1.59,3.46-2.71,0-1.66-2.39-1.69-3.8,0-1.26-.85-3.43,1.52-3.43C687.39,363.61,685.86,366.05,686.36,367.37Z"/><path class="cls-1" d="M584.36,276.5c-.18,1.43.61,3.59-1.69,3.47-2.89-.16-1.55-2.77-1.75-4.32-.18-1.31-.54-3.44,1.88-3.11C585.37,272.88,583.9,275.19,584.36,276.5Z"/><path class="cls-1" d="M568.33,275.76c-.39,1.61.77,3.91-1.58,4.22s-2-1.77-1.8-3.16-1.21-4.07,1.63-4.26C568.86,272.4,567.94,274.65,568.33,275.76Z"/><path class="cls-1" d="M560.85,276.37c-.35,1.33.8,3.53-1.59,3.54-2.76,0-1.61-2.39-1.66-3.81s-.79-3.48,1.53-3.48C561.91,272.62,560.35,275.08,560.85,276.37Z"/><path class="cls-1" d="M436.76,220.53c.14-1.48-.64-3.52,1.82-3.36s1.48,2.21,1.5,3.52.71,3.51-1.52,3.54C435.86,224.27,437.16,221.81,436.76,220.53Z"/><path class="cls-1" d="M374.49,398.14c.42-1.24-.83-3.39,1.49-3.56,2.94-.21,1.62,2.3,1.79,3.64s.9,3.44-1.32,3.6C373.7,402,374.89,399.56,374.49,398.14Z"/><path class="cls-1" d="M518.72,276.1c.36-1.38-.76-3.78,2-3.55,2.17.17,1.42,2.25,1.39,3.55s.79,3.84-1.65,3.84S519.05,277.53,518.72,276.1Z"/><path class="cls-1" d="M514.76,276.4c-.35,1.33.69,3.56-1.68,3.49-2.74-.08-1.42-2.53-1.53-3.9-.1-1.21-1-3.44,1.5-3.38C515.84,272.69,514.23,275.12,514.76,276.4Z"/><path class="cls-1" d="M506.28,276.22c-.28,1.45.87,3.75-1.79,3.77s-1.79-2.27-1.81-3.72-.83-3.72,1.76-3.74S505.93,274.85,506.28,276.22Z"/><path class="cls-1" d="M629.2,352.53c-.25,1.4.54,3.5-1.72,3.54-2.76.06-1.67-2.35-1.8-3.77s-.71-3.43,1.57-3.48C629.94,348.75,628.82,351.16,629.2,352.53Z"/><path class="cls-1" d="M686.44,352.65c-.33,1.27.74,3.31-1.58,3.44-2.7.15-1.94-2.12-1.93-3.54s-.77-3.75,1.79-3.69S685.93,351.33,686.44,352.65Z"/><path class="cls-1" d="M560.89,335.32c-.48,1.29,1,3.68-1.6,3.8s-1.66-2.3-1.68-3.66-1-3.74,1.74-3.65C561.67,331.89,560.56,334,560.89,335.32Z"/><path class="cls-1" d="M502.63,364.84c.08-1.84-.34-3.89,2-3.49,2.77.46,1.29,2.92,1.53,4.51.2,1.26.35,2.95-1.7,2.84C501.19,368.51,503.46,365.78,502.63,364.84Z"/><path class="cls-1" d="M522.16,364.79c-.38,1.37,1,3.65-1.61,3.89-2.37.22-1.9-1.9-1.73-3.18.2-1.5-1.29-4.11,1.74-4.15C522.85,361.31,521.86,363.48,522.16,364.79Z"/><path class="cls-1" d="M625.55,263.74c.39-1.64-.77-4.12,2-3.85,2.45.23,1.5,2.58,1.55,4.05s.61,3.41-1.71,3.38C624.55,267.28,626.15,264.83,625.55,263.74Z"/><path class="cls-1" d="M518.68,335.81c.37-1.67-.8-4,1.79-4.07,2.25-.06,1.72,2.06,1.58,3.39s1.14,3.74-1.4,4C517.74,339.45,519.34,336.82,518.68,335.81Z"/><path class="cls-1" d="M686.4,263.41c-.39,1.62.83,4.06-2,3.81-2.26-.19-1.27-2.34-1.35-3.63s-.75-3.44,1.43-3.6C687.42,259.76,685.77,262.35,686.4,263.41Z"/><path class="cls-1" d="M440.21,368.64c-.47,1.33.89,3.79-1.8,3.69-2.53-.1-1.45-2.46-1.56-3.87s-.76-3.35,1.47-3.45C441,364.89,439.83,367.25,440.21,368.64Z"/><path class="cls-1" d="M506.26,262c-.18,1.45.46,3.52-1.9,3.28-2.9-.3-1.49-2.77-1.68-4.32-.14-1.19-.48-2.95,1.57-2.93C507.4,258,505.79,260.59,506.26,262Z"/><path class="cls-1" d="M374.51,235.34c.46-1.27-.84-3.48,1.46-3.62,2.78-.18,1.81,2.24,1.81,3.66s.85,3.46-1.4,3.6C373.54,239.16,375,236.65,374.51,235.34Z"/><path class="cls-1" d="M436.72,235.36c.4-1.37-.92-3.85,1.84-3.7s1.36,2.54,1.51,4,.76,3.42-1.49,3.49C435.85,239.17,437.06,236.79,436.72,235.36Z"/><path class="cls-1" d="M522.17,261.63c-.37,1.34.76,3.71-1.91,3.58-2.19-.11-1.48-2.2-1.46-3.48s-.95-3.16,1.59-3.23S521.9,260.37,522.17,261.63Z"/><path class="cls-1" d="M576.85,350.35c-.4,1.39.94,3.81-1.77,3.75-2.17-.05-1.57-2.16-1.48-3.49s-1-3.8,1.48-3.95C577.85,346.5,576.23,349.1,576.85,350.35Z"/><path class="cls-1" d="M625.59,367c.29-1.33-.68-3.51,1.61-3.51,3,0,1.65,2.62,1.86,4.17s.39,3.43-1.82,3.26C624.64,370.76,625.94,368.44,625.59,367Z"/><path class="cls-1" d="M436.74,383.21c.23-1.35-.59-3.5,1.74-3.36,2.51.16,1.59,2.45,1.63,3.91s.65,3.43-1.7,3.3C435.75,386.92,437.16,384.57,436.74,383.21Z"/><path class="cls-1" d="M374.44,383.37c.3-1.36-.7-3.5,1.65-3.54,2.75-.05,1.71,2.32,1.82,3.76s.66,3.41-1.61,3.47C373.42,387.14,375,384.65,374.44,383.37Z"/><path class="cls-1" d="M440.21,250.42c-.29,1.37.61,3.54-1.77,3.39-2.63-.16-1.53-2.48-1.59-3.91s-.66-3.48,1.68-3.35C441.16,246.71,439.67,249.13,440.21,250.42Z"/><path class="cls-1" d="M506.27,320.92c-.17,1.41.55,3.37-1.75,3.4-2.72,0-1.77-2.23-1.82-3.64s-.73-3.76,1.91-3.59S505.84,319.61,506.27,320.92Z"/><path class="cls-1" d="M506.29,246.81c-.37,1.38.78,3.81-2,3.66s-1.52-2.5-1.62-3.93-.71-3.38,1.63-3.44C507.12,243,506,245.35,506.29,246.81Z"/><path class="cls-1" d="M522.16,247.09c-.26,1.31.66,3.45-1.63,3.37-3-.1-1.5-2.69-1.73-4.19-.21-1.34-.46-3.41,1.79-3.15C523.05,243.41,521.74,245.7,522.16,247.09Z"/><path class="cls-1" d="M522.13,320.94c-.21,1.37.6,3.48-1.73,3.34-2.56-.15-1.44-2.47-1.59-3.88s-.65-3.39,1.67-3.26C523.12,317.28,521.75,319.6,522.13,320.94Z"/><path class="cls-1" d="M568.27,246.88c-.37,1.39.83,3.78-1.93,3.59-2.21-.16-1.45-2.2-1.37-3.49s-1-3.79,1.58-3.83S567.93,245.51,568.27,246.88Z"/><path class="cls-1" d="M568.26,350.3c-.31,1.47.77,3.91-1.83,3.75-2.45-.14-1.39-2.54-1.44-4,0-1.26-.82-3.43,1.46-3.46C569.1,346.58,568,348.93,568.26,350.3Z"/><path class="cls-1" d="M560.85,350.17c-.5,1.35,1.07,3.85-1.71,3.86-2.25,0-1.61-2.16-1.55-3.5s-1-3.82,1.7-3.83C561.7,346.69,560.57,348.87,560.85,350.17Z"/><path class="cls-1" d="M584.38,350.69c-.13,1.48.41,3.53-1.84,3.41-2.66-.15-1.52-2.51-1.56-3.91s-.85-3.9,1.92-3.54C585.35,347,583.94,349.34,584.38,350.69Z"/><path class="cls-1" d="M440.18,295c-.26,1.35.55,3.54-1.85,3.3-2.56-.25-1.43-2.56-1.51-4s-.56-3.54,1.76-3.32C441.12,291.21,439.75,293.59,440.18,295Z"/><path class="cls-1" d="M584.44,187.53c-.34,1.57.56,3.73-1.85,3.56-2.58-.18-1.53-2.49-1.67-3.93s-.52-3.39,1.8-3.26C585.53,184,583.64,186.55,584.44,187.53Z"/><path class="cls-1" d="M522.23,350c-.4,1.69.8,4-1.82,4.1-2.24.05-1.69-2.06-1.6-3.4s-1-3.81,1.42-4.07C523,346.32,521.61,349,522.23,350Z"/><path class="cls-1" d="M511.43,349.74c.28-1.23-.52-3.23,1.58-3,2.87.29,1.44,2.78,1.63,4.32.14,1.17.52,3.15-1.49,3C510.19,353.74,512,351.14,511.43,349.74Z"/><path class="cls-1" d="M502.57,350.46c.28-1.66-.7-4,2-3.87s1.65,2.38,1.64,3.83.83,3.79-1.82,3.7S503,351.64,502.57,350.46Z"/><path class="cls-1" d="M514.76,335.8c-.5,1.19.9,3.5-1.7,3.31s-1.45-2.52-1.51-3.93c-.05-1.25-.91-3.51,1.58-3.34C515.79,332,514.24,334.44,514.76,335.8Z"/><path class="cls-1" d="M506.29,202.25c-.33,1.42.76,3.76-1.84,3.76s-1.77-2.29-1.74-3.73-.95-3.71,1.71-3.73S506,200.82,506.29,202.25Z"/><path class="cls-1" d="M440.23,338.85c-.32,1.73.69,4-2,3.82-2.24-.17-1.41-2.24-1.36-3.51s-1-3.76,1.6-3.78S439.5,337.9,440.23,338.85Z"/><path class="cls-1" d="M440.16,324.24c-.25,1.41.64,3.58-1.6,3.6-2.61,0-1.68-2.4-1.74-3.84s-.78-3.46,1.53-3.47C441.08,320.51,439.77,322.92,440.16,324.24Z"/><path class="cls-1" d="M374.42,309.44c.45-1.37-1-3.79,1.81-3.74s1.65,2.39,1.68,3.8,1,3.74-1.74,3.71S374.93,310.76,374.42,309.44Z"/><path class="cls-1" d="M440.18,309.37c-.46,1.35.89,3.82-1.73,3.82s-1.56-2.42-1.63-3.84-.73-3.46,1.39-3.63C440.9,305.5,439.86,307.91,440.18,309.37Z"/><path class="cls-1" d="M506.29,305.8c-.41,1.38.87,3.79-1.92,3.69s-1.57-2.46-1.66-3.85-.86-3.3,1.57-3.42C507.14,302.09,506,304.4,506.29,305.8Z"/><path class="cls-1" d="M584.39,335.48c-.5,1.33,1,3.79-1.84,3.73-2.29,0-1.72-2.13-1.62-3.44s-.93-3.84,1.59-4C585.29,331.6,584,334.1,584.39,335.48Z"/><path class="cls-1" d="M576.85,335.48c-.45,1.32,1,3.74-1.76,3.69-2.36,0-1.52-2.18-1.47-3.45,0-1.44-1-3.84,1.46-4C577.85,331.57,576.39,334.12,576.85,335.48Z"/><path class="cls-1" d="M564.88,335.14c.25-1.39-.56-3.62,1.76-3.36,2.79.31,1.35,2.84,1.52,4.4.11,1.11.7,3.06-1.36,3C563.7,339.14,565.42,336.52,564.88,335.14Z"/><path class="cls-1" d="M564.93,320.65c.31-1.27-.91-3.39,1.42-3.52,2.69-.15,1.84,2.18,1.82,3.62s.8,3.42-1.4,3.54C564,324.45,565.26,322,564.93,320.65Z"/><path class="cls-1" d="M557.42,261.78c.49-1.41-.81-3.49,1.58-3.65,2.81-.18,1.86,2.21,1.82,3.52s.81,3.36-1.42,3.5C556.57,265.34,558,262.85,557.42,261.78Z"/><path class="cls-1" d="M568.3,261.64c-.45,1.29.87,3.76-1.91,3.57-2.22-.15-1.43-2.26-1.42-3.56s-.88-3.79,1.84-3.62C569.09,258.17,567.91,260.32,568.3,261.64Z"/><path class="cls-1" d="M573.61,261.79c.45-1.31-1.07-3.73,1.78-3.66,2.08.05,1.39,2,1.25,3.08-.17,1.36,1.17,3.74-1.43,3.91C572.77,265.27,574,263,573.61,261.79Z"/><path class="cls-1" d="M584.4,261.68c-.42,1.24.74,3.41-1.57,3.54-2.75.15-1.89-2.19-1.88-3.66,0-1.31-.85-3.4,1.48-3.55C585.3,257.83,584,260.3,584.4,261.68Z"/><path class="cls-1" d="M576.78,321c-.48,1.19.84,3.56-1.7,3.24s-1.29-2.6-1.42-4c-.1-1.15-.66-3,1.44-2.94C578,317.3,576,319.78,576.78,321Z"/><path class="cls-1" d="M576.91,364.92c-.68,1.45.85,3.76-1.8,3.64-2.48-.11-1.43-2.28-1.41-3.51s-1-3.47,1.33-3.59C578.15,361.3,575.7,364.14,576.91,364.92Z"/><path class="cls-1" d="M581,320.55c.33-1.32-.82-3.49,1.74-3.35,2.4.13,1.47,2.21,1.45,3.48s.88,3.45-1.43,3.53C579.9,324.31,581.54,321.78,581,320.55Z"/><path class="cls-1" d="M568.16,365.18c-.27,1.33.8,3.51-1.68,3.37s-1.36-2.3-1.36-3.56-1-3.49,1.32-3.55C569.22,361.37,567.7,363.88,568.16,365.18Z"/><path class="cls-1" d="M560.89,365.19c-.48,1.24.94,3.46-1.69,3.38-2.93-.08-1.45-2.46-1.57-3.79s-.94-3.43,1.54-3.36C562,361.5,560.4,363.91,560.89,365.19Z"/><path class="cls-1" d="M436.77,265.16c.45-1.35-1-3.76,1.76-3.79,2.42,0,1.57,2.17,1.56,3.43s1.06,3.77-1.69,3.79C435.92,268.62,437.18,266.41,436.77,265.16Z"/><path class="cls-1" d="M576.76,276.28c-.48,1.26.79,3.52-1.4,3.6-2.61.1-1.66-2.28-1.68-3.72s-.78-3.46,1.37-3.54C577.84,272.5,576.23,275,576.76,276.28Z"/><path class="cls-1" d="M440.17,280.27c-.11,1.52.38,3.61-2,3.16s-1.13-2.71-1.34-4.17-.42-3.43,1.95-3C441.31,276.7,439.66,279,440.17,280.27Z"/><path class="cls-1" d="M498.75,187.54c-.4,1.22.84,3.38-1.41,3.56-2.78.22-1.79-2.2-1.81-3.6s-.95-3.8,1.81-3.59C499.64,184.09,498.32,186.26,498.75,187.54Z"/><path class="cls-1" d="M576.85,217c-.54,1.51.8,3.86-1.72,3.66s-1.29-2.62-1.45-4c-.13-1.16-.67-3.07,1.38-3.1C578.17,213.51,575.74,216.23,576.85,217Z"/><path class="cls-1" d="M584.3,217.15c-.56,1.17,1,3.35-1.38,3.55-2.83.23-1.83-2.18-1.83-3.56s-1-3.4,1.31-3.59C585.26,213.31,583.85,215.8,584.3,217.15Z"/><path class="cls-1" d="M374.52,294.51c.29-1.32-.76-3.44,1.64-3.43,2.77,0,1.53,2.43,1.65,3.79s.86,3.39-1.52,3.37C373.53,298.21,375,295.82,374.52,294.51Z"/><path class="cls-1" d="M629.2,233.73c-.42,1.7.71,4.12-2.07,3.86s-1.29-2.56-1.45-3.94-.65-3.34,1.65-3.35C630.18,230.29,628.53,232.77,629.2,233.73Z"/><path class="cls-1" d="M686.43,293.1c-.49,1.46.83,3.68-1.7,3.61-2.77-.07-1.58-2.43-1.63-3.82s-.91-3.42,1.54-3.38C687.56,289.56,685.58,292.12,686.43,293.1Z"/><path class="cls-1" d="M506.28,291c-.25,1.5.76,3.72-2,3.62-2.41-.1-1.59-2.11-1.56-3.37s-1-3.71,1.64-3.83S505.9,289.69,506.28,291Z"/><path class="cls-1" d="M498.78,335c-.74,1.49,1,3.93-1.64,4.09-2.36.14-1.64-2.09-1.52-3.32s-1.24-3.73,1.43-3.9S498,334.09,498.78,335Z"/><path class="cls-1" d="M374.47,324.28c.47-1.4-.81-3.53,1.56-3.67,2.83-.16,1.78,2.24,1.77,3.59s.93,3.39-1.39,3.53C373.55,327.91,375,325.43,374.47,324.28Z"/><path class="cls-1" d="M629.16,293c-.41,1.39.92,3.74-1.8,3.82-2.32.07-1.84-2-1.72-3.32s-1-3.77,1.5-4.06C630,289.15,628.76,291.66,629.16,293Z"/><path class="cls-1" d="M584.26,365c-.44,1.21,1,3.35-1.35,3.54-2.8.23-1.8-2.18-1.8-3.55s-.89-3.38,1.28-3.57C585.22,361.2,583.86,363.66,584.26,365Z"/><path class="cls-1" d="M522.23,305.48c-.51,1.6.93,4-1.9,4-2.41,0-1.53-2.22-1.54-3.48s-1-3.78,1.77-3.76C523.11,302.25,521.48,304.58,522.23,305.48Z"/><path class="cls-1" d="M518.74,291c.35-1.3-.74-3.43,1.49-3.58,2.74-.19,1.81,2.2,1.83,3.62s.83,3.79-1.92,3.53C517.86,294.37,519.13,292.26,518.74,291Z"/><path class="cls-1" d="M584.4,305.82c-.51,1.3,1,3.77-1.83,3.68s-1.55-2.45-1.6-3.84c0-1.23-1-3.3,1.45-3.43C585.28,302.08,584,304.44,584.4,305.82Z"/><path class="cls-1" d="M557.4,247c.52-1.49-.84-3.57,1.62-3.78s1.9,1.83,1.72,3.12,1.26,3.77-1.37,4C556.32,250.67,558.31,247.88,557.4,247Z"/><path class="cls-1" d="M377.92,338.91c-.57,1.27,1.06,3.75-1.81,3.71-2.47,0-1.53-2.19-1.46-3.43s-1.18-3.76,1.67-3.74C378.79,335.46,377.49,337.65,377.92,338.91Z"/><path class="cls-1" d="M686.34,338.22c-.27,1.24.6,3.19-1.52,3.08-3-.16-1.54-2.67-1.74-4.18-.15-1.16-.57-3.08,1.45-3C687.68,334.23,685.67,336.91,686.34,338.22Z"/><path class="cls-1" d="M576.75,246.61c-.56,1.27,1.14,3.81-1.66,3.74-2.17-.06-1.46-2.28-1.4-3.6s-1-3.4,1.42-3.5C577.75,243.13,576.28,245.39,576.75,246.61Z"/><path class="cls-1" d="M584.3,247c-.43,1.24.86,3.44-1.61,3.41-2.71-.05-1.65-2.35-1.61-3.74,0-1.23-.91-3.41,1.51-3.4C585.38,243.26,583.83,245.66,584.3,247Z"/><path class="cls-1" d="M625.6,248.74c.31-1.28-.86-3.36,1.56-3.49,2.81-.16,1.9,2.19,1.92,3.62s.86,3.38-1.51,3.51C624.72,252.54,626,250.15,625.6,248.74Z"/><path class="cls-1" d="M625.59,337.72c.33-1.42-.93-3.76,1.85-3.74,2.34,0,1.72,2.1,1.66,3.41s.94,3.79-1.58,4C624.76,341.57,625.91,339.14,625.59,337.72Z"/><path class="cls-1" d="M377.9,368.82c-.48,1.19.87,3.4-1.56,3.45-2.83.07-1.63-2.33-1.7-3.7s-.87-3.43,1.44-3.5C378.9,365,377.41,367.47,377.9,368.82Z"/><path class="cls-1" d="M377.88,250.1c-.41,1.38.94,3.83-1.86,3.66-2.25-.14-1.45-2.24-1.39-3.52s-1-3.78,1.78-3.62C378.76,246.75,377.46,248.9,377.88,250.1Z"/><path class="cls-1" d="M560.87,320.84c-.38,1.25.86,3.4-1.57,3.39-2.69,0-1.66-2.34-1.7-3.73,0-1.22-1-3.3,1.53-3.3C562.06,317.2,560.34,319.59,560.87,320.84Z"/><path class="cls-1" d="M573.44,202.62c.46-1.54-.85-3.85,1.7-4.06s1.68,2,1.57,3.22c-.13,1.5,1.3,4.12-1.67,4.17C572.74,206,573.93,203.71,573.44,202.62Z"/><path class="cls-1" d="M95.34,407.66c-.18,1.65.46,3.7-1.87,3.53-3-.21-1.48-2.71-1.71-4.24s-.33-3.3,2-3C96.4,404.31,94.74,406.62,95.34,407.66Z"/><path class="cls-1" d="M573.5,291.28c.57-1.42-.85-3.63,1.55-3.71,2.85-.08,1.49,2.36,1.57,3.67s1,3.36-1.53,3.26S574.27,292.16,573.5,291.28Z"/><path class="cls-1" d="M511.44,261.45c.38-1.23-.92-3.36,1.57-3.37,2.82,0,1.56,2.37,1.63,3.69s.92,3.37-1.46,3.37C510.41,265.15,511.91,262.75,511.44,261.45Z"/><path class="cls-1" d="M506.28,232.15c-.28,1.3.77,3.28-1.63,3.42-2.8.17-2-2.07-1.95-3.49s-.9-3.72,1.8-3.67S505.85,230.82,506.28,232.15Z"/><path class="cls-1" d="M49.16,340.74c-1,0-2,0-3,0-1.22,0-1.8-.48-1.77-1.76s.86-1.59,2-1.59c1.82,0,3.64-.07,5.46,0,1.24,0,2.86-.41,2.75,1.76s-1.71,1.56-2.93,1.65c-.82.06-1.66,0-2.48,0Z"/><path class="cls-1" d="M560.85,306c-.39,1.28,1,3.45-1.6,3.42-2.83,0-1.59-2.4-1.64-3.75s-.94-3.41,1.54-3.36C562,302.38,560.5,304.71,560.85,306Z"/><path class="cls-1" d="M440.19,354.08c-.31,1.35.64,3.51-1.79,3.34-2.65-.2-1.42-2.51-1.51-3.91s-.78-3.4,1.7-3.22C441.37,350.48,439.62,352.85,440.19,354.08Z"/><path class="cls-1" d="M629.17,323.3c-.2,1.46.4,3.59-2,3.16-2.71-.5-1.24-2.94-1.52-4.51-.22-1.24-.32-2.94,1.7-2.78C630.43,319.42,628.62,322,629.17,323.3Z"/><path class="cls-1" d="M522.14,232.15c-.28,1.31.83,3.43-1.63,3.39-2.76,0-1.58-2.39-1.66-3.77s-.85-3.4,1.54-3.36C523.14,228.46,521.69,230.85,522.14,232.15Z"/><path class="cls-1" d="M584.29,291.42c-.29,1.18.66,3.06-1.46,3.1-2.91.06-1.63-2.36-1.73-3.7s-.92-3.46,1.58-3.29C585.39,287.72,583.74,290.13,584.29,291.42Z"/><path class="cls-1" d="M49.59,265a23.39,23.39,0,0,1,4.29.32c.89.24.92,1.41.64,2.14-.84,2.2-2.84,1.14-4.24,1.08-1.94-.07-4.31,1.22-5.77-1.05-.36-.54-.35-1.91.58-2.11A29.23,29.23,0,0,1,49.59,265Z"/><path class="cls-1" d="M686.38,278.22c-.31,1.53.66,3.66-1.46,3.82-2.63.19-1.84-2.17-1.85-3.63s-.8-3.39,1.37-3.57C687.26,274.61,685.89,277.1,686.38,278.22Z"/><path class="cls-1" d="M377.89,221c-.35,1.3.57,3.56-2,3.1s-1.14-2.68-1.33-4.12c-.17-1.23-.41-3,1.66-2.8C379.07,217.43,377.37,219.75,377.89,221Z"/><path class="cls-1" d="M49,319.57c-1,0-2,0-3,0-1.23,0-1.93-.72-1.6-1.87.88-3,3.49-1.57,5.24-1.57s4.15-1.64,4.84,1.51c.25,1.14-.29,1.89-1.56,1.91S50.36,319.56,49,319.57Z"/><path class="cls-1" d="M27.43,407.75c-.32,1.28.75,3.35-1.6,3.46-2.65.12-2-2.1-2-3.57S23,403.9,25.68,404,27,406.4,27.43,407.75Z"/><path class="cls-1" d="M568.27,291.21c-.35,1.25.84,3.38-1.62,3.38-2.84,0-1.58-2.39-1.66-3.74s-.87-3.41,1.52-3.4C569.28,287.46,567.81,289.87,568.27,291.21Z"/><path class="cls-1" d="M49.23,351.66h-3c-1.14,0-1.78-.39-1.83-1.72-.07-1.62.73-2,2.1-1.92,1.82.05,3.65,0,5.48,0,1.38,0,2.69-.06,2.63,2,0,1.75-1.22,1.67-2.4,1.69C51.23,351.68,50.23,351.67,49.23,351.66Z"/><path class="cls-1" d="M498.68,276.28c-.47,1.26.89,3.48-1.43,3.56-2.79.11-1.57-2.34-1.62-3.69s-.94-3.44,1.31-3.53C499.8,272.49,498.06,275.05,498.68,276.28Z"/><path class="cls-1" d="M498.68,350.39c-.45,1.29.81,3.53-1.43,3.6-2.65.08-1.61-2.35-1.63-3.74s-1-3.44,1.31-3.52C499.71,346.63,498.13,349.14,498.68,350.39Z"/><path class="cls-1" d="M131.27,357.93c0,1.92-1.32,2-2.68,1.95s-3,0-2.67-1.94c.32-2.06,2.39-1,3.62-1.5S131.4,356.59,131.27,357.93Z"/><path class="cls-1" d="M34.13,407.59c-.38,1.55.58,3.71-1.82,3.59-2.73-.14-1.36-2.48-1.53-3.85s-.76-3.4,1.59-3.33C35.17,404.09,33.32,406.62,34.13,407.59Z"/><path class="cls-1" d="M34.07,394.62c-.39,1.51.81,3.63-1.63,3.72s-1.76-2-1.67-3.33-1.12-3.83,1.74-3.7C34.94,391.41,33.45,393.67,34.07,394.62Z"/><path class="cls-1" d="M560.92,231.86c-.57,1.2.89,3.43-1.51,3.58-2.91.18-1.71-2.27-1.79-3.65s-.9-3.37,1.59-3.34S560.42,230.66,560.92,231.86Z"/><path class="cls-1" d="M576.75,305.72c-.67,1.2,1.25,3.8-1.71,3.67-2.29-.1-1.38-2.28-1.35-3.55s-1-3.38,1.43-3.47S576.28,304.51,576.75,305.72Z"/><path class="cls-1" d="M95.32,395.2c0,1.61.21,3.52-2.11,3.16-2.54-.4-1.31-2.61-1.47-4.06s-.33-3.38,2-3C96.29,391.64,94.88,393.93,95.32,395.2Z"/><path class="cls-1" d="M625.55,308.3c.41-1.54-.88-3.8,1.75-3.95,2.32-.14,1.9,1.92,1.77,3.2-.14,1.5,1,4.08-1.94,4C624.76,311.53,626.06,309.34,625.55,308.3Z"/><path class="cls-1" d="M580.91,232.15c.48-1.53-.82-3.92,2.05-3.68,2.3.2,1.37,2.25,1.41,3.48.06,1.39.82,3.72-1.92,3.5C580.1,235.27,581.57,233.1,580.91,232.15Z"/><path class="cls-1" d="M576.78,232c-.6,1.14,1,3.33-1.48,3.44s-1.68-2-1.6-3.25-1.13-3.79,1.63-3.69C577.61,228.58,576.28,230.8,576.78,232Z"/><path class="cls-1" d="M377.87,265c-.44,1.23.93,3.36-1.43,3.54-2.85.22-1.82-2.21-1.79-3.56s-1-3.37,1.31-3.55C378.83,261.19,377.47,263.62,377.87,265Z"/><path class="cls-1" d="M27.42,395c-.22,1.38.61,3.45-1.83,3.33-2.7-.14-1.67-2.4-1.73-3.85s-.61-3.38,1.8-3.27C28.44,391.38,27,393.73,27.42,395Z"/><path class="cls-1" d="M557.51,290.75c.26-1.4-.6-3.61,1.91-3.21s1.2,2.68,1.36,4.1c.14,1.13.57,3-1.6,2.87C556.35,294.32,558.05,292,557.51,290.75Z"/><path class="cls-1" d="M686.35,308.16c-.39,1.22.87,3.39-1.61,3.32-2.7-.07-1.6-2.36-1.63-3.75s-.89-3.35,1.57-3.28C687.52,304.52,685.81,306.9,686.35,308.16Z"/><path class="cls-1" d="M564.82,231.89c.43-1.5-.64-3.69,1.85-3.46s1.42,2.48,1.49,3.89.71,3.38-1.69,3.2C563.72,235.31,565.67,232.85,564.82,231.89Z"/><path class="cls-1" d="M377.89,353.86c-.43,1.23.87,3.43-1.57,3.48-2.86.06-1.58-2.37-1.68-3.74s-.84-3.37,1.69-3.23S377.4,352.66,377.89,353.86Z"/><path class="cls-1" d="M377.88,279.86c-.43,1.22.9,3.33-1.43,3.51-2.81.21-1.8-2.14-1.79-3.52s-1-3.3,1.28-3.51C378.8,276.07,377.38,278.57,377.88,279.86Z"/><path class="cls-1" d="M686.45,322.69c-.47,1.51.8,3.63-1.64,3.67-2.79,0-1.66-2.27-1.72-3.65s-.78-3.32,1.53-3.39C687.63,319.23,685.52,321.85,686.45,322.69Z"/><path class="cls-1" d="M794.56,342.57c-1.32-.86-4.32,1.32-4.14-1.78.16-2.66,2.92-1.32,4.45-1.32s4.37-1.29,4.24,1.53S796.13,341.85,794.56,342.57Z"/><path class="cls-1" d="M514.78,320.66c-.58,1.24,1,3.73-1.86,3.56-2.34-.14-1.41-2.24-1.36-3.46s-1.19-3.71,1.71-3.55C515.71,317.34,514.27,319.47,514.78,320.66Z"/><path class="cls-1" d="M534.76,410.15c-.77,1.63,1,4.17-1.5,4.29-3.11.15-1.57-2.68-1.62-4.13s-1.26-3.92,1.24-4C536.21,406.12,533.49,409.21,534.76,410.15Z"/><path class="cls-1" d="M511.39,216.94c.29-1.63-.55-3.82,2-3.4s1.14,2.68,1.31,4.09.7,3.45-1.81,3.07C510.12,220.29,512.35,217.85,511.39,216.94Z"/><path class="cls-1" d="M550.14,410.1c.69-1.32-1.1-4,1.66-3.82s1.37,2.86,1.45,4.4c.08,1.36,1.09,4-1.55,3.76S550.87,411.51,550.14,410.1Z"/><path class="cls-1" d="M497.59,410.59c-.61,1.57.86,4.28-1.94,3.84-2.47-.39-1.17-3-1.22-4.52-.05-1.29-1.19-4,1.63-3.61S496.48,409.44,497.59,410.59Z"/><path class="cls-1" d="M590.61,410.73c-.55,1.41,1,4-1.72,3.75s-1.3-2.81-1.37-4.29-1.12-3.94,1.32-3.91C592.18,406.33,589.72,409.36,590.61,410.73Z"/><path class="cls-1" d="M495.52,202.2c.33-1.3-.79-3.48,1.55-3.54s1.54,2.19,1.46,3.39,1.25,3.88-1.6,3.76C494.6,205.71,496,203.44,495.52,202.2Z"/><path class="cls-1" d="M498.67,217c-.5,1.26.93,3.39-1.27,3.71-2.44.36-1.89-1.8-1.79-3.13s-1.08-3.82,1.49-4S498.2,215.77,498.67,217Z"/><path class="cls-1" d="M693.51,219.14c-.51,1.18,1,3.3-1.45,3.49-2.58.19-1.67-2-1.61-3.18.08-1.36-1.14-3.78,1.56-3.78C694.34,215.68,693.05,217.92,693.51,219.14Z"/><path class="cls-1" d="M370.53,235.38c-.44,1.22.92,3.39-1.33,3.57-2.83.22-1.68-2.26-1.7-3.59s-1.1-3.8,1.72-3.57C371.5,232,370.06,234.15,370.53,235.38Z"/><path class="cls-1" d="M447.6,235.18c-.49,1.56.91,4-1.88,3.87-2.27-.09-1.47-2.23-1.39-3.47s-1.16-3.76,1.43-3.89C448.56,231.54,446.94,234.12,447.6,235.18Z"/><path class="cls-1" d="M495.53,246.36c.26-1.24-.61-3.29,1.46-3.11,2.95.24,1.33,2.81,1.55,4.33.16,1.08.67,3.14-1.57,2.78C494.38,250,496,247.67,495.53,246.36Z"/><path class="cls-1" d="M370.55,250.34c-.41,1.21.81,3.5-1.58,3.4-2.63-.11-1.37-2.55-1.49-3.93-.11-1.19-.84-3.47,1.71-3.14C371.45,247,370.1,249.07,370.55,250.34Z"/><path class="cls-1" d="M444.29,250.31c.43-1.25-.89-3.45,1.33-3.63,2.81-.24,1.68,2.26,1.73,3.62s.86,3.44-1.48,3.45S444.69,251.55,444.29,250.31Z"/><path class="cls-1" d="M91.55,254.36c1.15.21,2.79-.46,2.86,1.7.07,2.35-1.63,2.08-3.08,2.07-1.26,0-2.73.3-2.84-1.77C88.36,253.83,90.2,254.54,91.55,254.36Z"/><path class="cls-1" d="M498.68,261.64c-.43,1.23.77,3.46-1.49,3.46-2.61,0-1.46-2.4-1.57-3.79s-.76-3.37,1.65-3.18S498.16,260.46,498.68,261.64Z"/><path class="cls-1" d="M621.67,263.34c-.51,1.51.77,3.69-1.44,3.83-2.71.18-1.69-2.24-1.7-3.62s-1-3.39,1.27-3.56C622.74,259.78,620.79,262.46,621.67,263.34Z"/><path class="cls-1" d="M690.35,263.18c.31-1.28-.73-3.53,1.78-3.14s1.12,2.65,1.25,4c.11,1.19.84,3.48-1.66,3.09S690.86,264.49,690.35,263.18Z"/><path class="cls-1" d="M621.63,278.41c-.35,1.57.58,3.77-1.81,3.53-2.16-.22-1.3-2.31-1.29-3.62s-.87-3.49,1.41-3.47C622.7,274.87,620.82,277.46,621.63,278.41Z"/><path class="cls-1" d="M693.48,278.35c-.33,1.33.78,3.49-1.47,3.64s-1.68-2.07-1.57-3.33-1.15-3.85,1.58-3.82C694.31,274.87,693.16,277.1,693.48,278.35Z"/><path class="cls-1" d="M367.37,294.65c.43-1.25-.91-3.43,1.47-3.55s1.71,2.08,1.59,3.32,1.14,3.84-1.61,3.77C366.52,298.12,367.79,295.88,367.37,294.65Z"/><path class="cls-1" d="M447.47,294.71c-.34,1.29.75,3.52-1.55,3.49-2.68-.05-1.39-2.49-1.5-3.86-.09-1.21-.89-3.45,1.65-3.21C448.42,291.36,447,293.5,447.47,294.71Z"/><path class="cls-1" d="M621.58,293.15c-.52,1.21,1,3.41-1.44,3.56s-1.7-2.07-1.6-3.32-1.16-3.87,1.6-3.81C622.48,289.63,621.11,291.92,621.58,293.15Z"/><path class="cls-1" d="M367.36,309.45c.47-1.33-1-3.86,1.87-3.61,2.24.2,1.2,2.38,1.18,3.62s1.08,3.44-1.2,3.62C366.37,313.3,367.83,310.78,367.36,309.45Z"/><path class="cls-1" d="M447.45,309.53c-.3,1.32.77,3.49-1.48,3.54-2.73.06-1.48-2.39-1.55-3.73s-1-3.44,1.29-3.51C448.43,305.75,447,308.2,447.45,309.53Z"/><path class="cls-1" d="M498.68,320.74c-.52,1.18.91,3.44-1.46,3.44-2.67,0-1.52-2.39-1.6-3.78-.07-1.24-.83-3.37,1.66-3.17S498.12,319.58,498.68,320.74Z"/><path class="cls-1" d="M128.27,343.38c-1.35.13-2.42-.15-2.44-2s1.15-2,2.59-2c1.61,0,3,.08,2.87,2.29C131.15,343.57,129.74,343.39,128.27,343.38Z"/><path class="cls-1" d="M370.65,323.69c-.63,1.47,1,3.88-1.73,4.05-2.07.13-1.55-1.8-1.44-3,.13-1.45-1.12-3.73,1.27-4.13C371.32,320.21,370,322.7,370.65,323.69Z"/><path class="cls-1" d="M444.28,324.09c.44-1.21-.79-3.5,1.53-3.46,2.63.05,1.49,2.45,1.54,3.85,0,1.24.9,3.45-1.63,3.22C443.41,327.49,444.77,325.33,444.28,324.09Z"/><path class="cls-1" d="M128.45,331.2c1.31.14,2.79-.28,2.84,1.86s-1.3,2.23-2.92,2.26-2.51-.37-2.55-2.16C125.78,331.08,127.2,331.28,128.45,331.2Z"/><path class="cls-1" d="M621.61,337.88c-.49,1.23.86,3.6-1.66,3.38s-1.27-2.6-1.42-4c-.12-1.15-.75-3.09,1.34-3.09C622.81,334.12,621,336.63,621.61,337.88Z"/><path class="cls-1" d="M621.58,352.49c-.4,1.22.84,3.43-1.45,3.48-2.73.06-1.48-2.36-1.59-3.73s-.8-3.4,1.57-3.27S621.22,351.22,621.58,352.49Z"/><path class="cls-1" d="M693.57,352.4c-.44,1.32,1,3.76-1.82,3.66-2.36-.09-1.38-2.25-1.36-3.49s-1.11-3.78,1.66-3.7C694.36,348.94,693.23,351.1,693.57,352.4Z"/><path class="cls-1" d="M621.67,367.21c-.51,1.46.74,3.71-1.63,3.63-2.59-.09-1.45-2.46-1.52-3.85s-.8-3.44,1.49-3.38C622.78,363.69,620.76,366.26,621.67,367.21Z"/><path class="cls-1" d="M690.27,367.19c.38-1.6-.66-3.92,1.87-3.5s1.09,2.71,1.23,4.16c.12,1.13.71,3.08-1.45,2.94C689,370.61,691.23,368.06,690.27,367.19Z"/><path class="cls-1" d="M131.37,367.4c0,.43-.83,1.06-2.48,1-1.45-.07-3.12.36-3-2,0-1.44.67-2.18,2.13-2C129.28,364.51,131.16,363.68,131.37,367.4Z"/><path class="cls-1" d="M141.15,366.35c.06,2.31-1.66,1.95-3.08,2s-2.57-.17-2.57-2c0-2.37,1.67-1.9,3.08-2S141.24,364.46,141.15,366.35Z"/><path class="cls-1" d="M447.53,368.42c-.5,1.43.8,3.67-1.46,3.8-2.85.17-1.58-2.35-1.65-3.71s-.95-3.45,1.48-3.43S446.93,367.39,447.53,368.42Z"/><path class="cls-1" d="M128.7,372.53c1.54-.09,2.6.22,2.59,2.09,0,2.47-1.83,1.78-3.15,1.87s-2.3-.05-2.32-1.74C125.8,372.62,127.1,372.38,128.7,372.53Z"/><path class="cls-1" d="M141.28,373.46c-.27,3.66-2.1,2.92-3.42,3.05-1.55.15-2.5-.4-2.35-2.19.19-2.31,1.91-1.73,3.28-1.8C140.36,372.44,141.33,373,141.28,373.46Z"/><path class="cls-1" d="M370.61,383.34c-.5,1.28,1.09,3.72-1.74,3.68-2.35,0-1.5-2.19-1.45-3.45s-1.13-3.78,1.65-3.73C371.42,379.88,370.25,382.05,370.61,383.34Z"/><path class="cls-1" d="M447.54,383.55c-.4,1.26.83,3.43-1.54,3.48-2.76.06-1.6-2.34-1.68-3.7s-.81-3.42,1.46-3.48C448.58,379.78,447.06,382.24,447.54,383.55Z"/><path class="cls-1" d="M141.13,390.84c-.13,2.9-1.93,2.24-3.26,2.34-1.57.12-2.44-.51-2.35-2.24.13-2.42,1.95-1.58,3.24-1.72C140.34,389.05,141.27,389.65,141.13,390.84Z"/><path class="cls-1" d="M370.5,398.37c-.16,1.44.61,3.61-1.55,3.52-2.5-.11-1.4-2.52-1.47-3.92-.06-1.22-.88-3.45,1.48-3.35C371.62,394.74,370,397.15,370.5,398.37Z"/><path class="cls-1" d="M131.41,408.78c.05.65-1.18.91-2.59.86-1.2-.06-2.78.4-3-1.56-.15-1.56.45-2.51,2.19-2.38C129.43,405.8,131.14,405.32,131.41,408.78Z"/><path class="cls-1" d="M693.53,293.33c-.58,1.14,1,3.38-1.55,3.34-2.82-.05-1.44-2.42-1.52-3.73s-.94-3.43,1.42-3.39C694.58,289.6,693,292,693.53,293.33Z"/><path class="cls-1" d="M441.72,410.6c-.65,1.34,1.11,3.88-1.59,3.91-3.08,0-1.59-2.71-1.59-4.14s-1.44-4.27,1.59-4.1C442.93,406.42,441,409.18,441.72,410.6Z"/><path class="cls-1" d="M118.89,347.88c1.3.09,2.61,0,2.51,2s-1.65,1.53-2.81,1.64c-1.39.13-2.64.07-2.49-1.93S117.56,347.81,118.89,347.88Z"/><path class="cls-1" d="M141.15,408c-.18,2.4-2.09,1.53-3.38,1.67s-2.3-.14-2.27-1.81c0-2.31,1.65-2.06,3.14-2.08S141.33,406,141.15,408Z"/><path class="cls-1" d="M138.05,351.68c-1.58,0-2.71-.23-2.55-2.11.2-2.26,1.88-1.79,3.26-1.85s2.51.45,2.42,2.21C141.06,352.38,139.14,351.36,138.05,351.68Z"/><path class="cls-1" d="M118.8,409.67c-1.22-.15-2.74.27-2.81-1.79-.08-2.24,1.37-2.18,2.93-2.17s2.54.22,2.55,2.08C121.49,409.85,120.08,409.6,118.8,409.67Z"/><path class="cls-1" d="M141.15,341.54c-.16,2.27-1.88,1.75-3.28,1.86-1.61.12-2.43-.47-2.35-2.22.11-2.43,1.9-1.69,3.22-1.81C140.31,339.22,141.28,339.79,141.15,341.54Z"/><path class="cls-1" d="M367.33,220.49c.35-1.45-.62-3.43,1.59-3.25,2.74.21,1.33,2.52,1.51,3.92.14,1.17.55,3.13-1.47,3C366.17,224,368.22,221.41,367.33,220.49Z"/><path class="cls-1" d="M141,399.45c.06,2.31-1.51,1.91-2.79,2s-2.7,0-2.6-2,1.47-1.83,2.82-1.87S141.15,397.67,141,399.45Z"/><path class="cls-1" d="M370.56,368.67c-.46,1.24.89,3.4-1.37,3.57-2.82.22-1.69-2.25-1.69-3.57s-1-3.4,1.25-3.56C371.6,364.9,370.05,367.41,370.56,368.67Z"/><path class="cls-1" d="M131.33,399.79c.16,1.33-.89,1.85-2.43,1.7-1.17-.11-2.81.63-3-1.47-.15-1.55.33-2.6,2.11-2.52C129.36,397.57,131.12,397,131.33,399.79Z"/><path class="cls-1" d="M447.52,220.44c-.41,1.49.72,3.67-1.65,3.67s-1.48-2.2-1.46-3.45-1-3.4,1.47-3.42S446.87,219.51,447.52,220.44Z"/><path class="cls-1" d="M131.25,391c.09,1.93-1.09,2.14-2.54,2.17-1.66,0-2.93-.16-2.87-2.28s1.58-1.66,2.81-1.71S131.4,389.11,131.25,391Z"/><path class="cls-1" d="M118.84,393.18c-1.51.07-2.75,0-2.86-1.92-.13-2.41,1.53-2,3-2.06s2.6.18,2.51,2.08S120.17,393.3,118.84,393.18Z"/><path class="cls-1" d="M875.14,260.53c2,0,2,1.27,2,2.4s.41,2.86-1.45,3.08-1.63-1.23-1.58-2.36S873.7,261,875.14,260.53Z"/><path class="cls-1" d="M128.33,347.72c1.51.06,2.86,0,2.95,1.91.12,2.37-1.56,2-3,2s-2.56-.24-2.48-2.09S127.1,347.57,128.33,347.72Z"/><path class="cls-1" d="M131.16,382.93c0,2.22-1.57,1.75-2.8,1.86-1.57.14-2.58-.35-2.4-2.19s1.47-1.48,2.58-1.45C129.81,381.17,131.37,380.89,131.16,382.93Z"/><path class="cls-1" d="M119.14,376.43c-1.57,0-3.06.37-3-1.77,0-1.82,1-2.14,2.55-2.07,1.37.06,2.69-.12,2.78,1.84S120.29,376.52,119.14,376.43Z"/><path class="cls-1" d="M141.05,358c.12,1.73-1.18,1.84-2.59,1.74-1.23-.08-2.78.42-2.88-1.67s1.24-2.12,2.6-2C139.34,356.19,141,355.68,141.05,358Z"/><path class="cls-1" d="M877.2,272.53c.08,1.22,0,2.5-1.58,2.49s-1.61-1.38-1.49-2.53-.43-2.63,1.27-2.77C877.44,269.56,877.09,271.26,877.2,272.53Z"/><path class="cls-1" d="M141,382.92c0,2-1.39,1.85-2.72,1.84s-2.69.21-2.72-1.83,1.43-1.79,2.7-1.79S141.07,380.87,141,382.92Z"/><path class="cls-1" d="M686.36,234c-.36,1.28.86,3.45-1.46,3.53-2.66.09-1.77-2.24-1.8-3.7s-.72-3.42,1.48-3.51C687.4,230.25,685.87,232.73,686.36,234Z"/><path class="cls-1" d="M498.69,291.05c-.5,1.17.89,3.29-1.47,3.43s-1.68-2-1.61-3.23-1.06-3.77,1.65-3.68C499.58,287.64,498.15,289.86,498.69,291.05Z"/><path class="cls-1" d="M511.36,232.12c.41-1.51-.74-3.62,1.72-3.64s1.66,2.1,1.54,3.34,1.24,3.79-1.72,3.61C510.41,235.27,512.16,233,511.36,232.12Z"/><path class="cls-1" d="M40.75,394.79c-.52,1.19.9,3.43-1.54,3.46s-1.55-2.14-1.55-3.43-.86-3.41,1.53-3.43C41.75,391.36,40.19,393.63,40.75,394.79Z"/><path class="cls-1" d="M47.64,395.09c-.24,1.34.7,3.43-1.84,3.18-2.39-.23-1.29-2.3-1.34-3.51s-.91-3.43,1.48-3.39C48.67,391.4,47.18,393.81,47.64,395.09Z"/><path class="cls-1" d="M74.71,394.9c-.44,1.2.89,3.35-1.58,3.4s-1.71-2.07-1.61-3.32-1.14-3.79,1.74-3.61C75.61,391.52,74.23,393.69,74.71,394.9Z"/><path class="cls-1" d="M78.33,394.74c.37-1.28-.79-3.52,1.69-3.38s1.34,2.26,1.37,3.54.79,3.48-1.61,3.36S78.82,395.92,78.33,394.74Z"/><path class="cls-1" d="M370.54,353.93c-.45,1.21.84,3.46-1.54,3.41-2.65-.07-1.38-2.46-1.51-3.82-.12-1.21-.81-3.38,1.68-3.11C371.51,350.66,370,352.75,370.54,353.93Z"/><path class="cls-1" d="M693.59,322.56c-.59,1.43.87,3.64-1.48,3.75-2.84.14-1.58-2.34-1.65-3.68s-1-3.41,1.53-3.33S692.81,321.67,693.59,322.56Z"/><path class="cls-1" d="M88.43,395.14c-.27,1.32.62,3.52-1.84,3.1s-1.18-2.64-1.32-4.06c-.11-1.13-.58-3,1.53-2.82C89.46,391.58,88,393.86,88.43,395.14Z"/><path class="cls-1" d="M693.52,308c-.5,1.22.87,3.47-1.49,3.52-2.77.05-1.52-2.4-1.59-3.74s-.94-3.43,1.57-3.28S693.05,306.77,693.52,308Z"/><path class="cls-1" d="M690.32,337.63c.52-1.18-1-3.39,1.53-3.46s1.56,2.13,1.53,3.32c0,1.37,1.17,3.88-1.64,3.75C689.44,341.14,690.81,338.87,690.32,337.63Z"/><path class="cls-1" d="M447.47,353.91c-.38,1.24.8,3.34-1.54,3.42s-1.61-2.06-1.51-3.24-1.25-3.75,1.57-3.64C448.23,350.53,447.08,352.68,447.47,353.91Z"/><path class="cls-1" d="M370.53,338.93c-.49,1.26,1.09,3.67-1.69,3.63-2.36,0-1.43-2.24-1.35-3.39s-1.23-3.75,1.55-3.7C371.36,335.5,370.14,337.67,370.53,338.93Z"/><path class="cls-1" d="M621.64,307.88c-.49,1.43.82,3.6-1.59,3.6s-1.57-2.11-1.51-3.4-1-3.82,1.76-3.58C622.61,304.7,620.83,307,621.64,307.88Z"/><path class="cls-1" d="M514.78,305.88c-.56,1.18,1,3.33-1.42,3.52-2.82.23-1.8-2.16-1.83-3.51s-.93-3.74,1.82-3.53C515.63,302.54,514.31,304.67,514.78,305.88Z"/><path class="cls-1" d="M447.5,339.32c-.43,1.24.7,3.61-1.84,3.21s-1.12-2.69-1.25-4.12c-.11-1.1-.75-3.09,1.41-3C448.56,335.62,446.93,338,447.5,339.32Z"/><path class="cls-1" d="M498.68,232.34c-.43,1.1.74,3-1.35,3.07-2.77.08-1.65-2.26-1.72-3.61s-.78-3.45,1.56-3.29C499.77,228.69,498.14,231.06,498.68,232.34Z"/><path class="cls-1" d="M686.26,219.37c.32,1.84.35,3.35-1.57,3.24-2.66-.15-1.63-2.47-1.72-3.86s-.48-3.47,2-3.08C687.56,216.09,685.56,218.51,686.26,219.37Z"/><path class="cls-1" d="M447.47,264.94c-.42,1.24.83,3.46-1.48,3.53-2.83.08-1.51-2.42-1.57-3.74s-1-3.43,1.55-3.3C448.41,261.56,447,263.72,447.47,264.94Z"/><path class="cls-1" d="M498.68,305.79c-.58,1.19,1,3.34-1.34,3.59s-1.84-1.86-1.72-3.16-1.11-3.8,1.55-3.85C499.57,302.32,498.18,304.61,498.68,305.79Z"/><path class="cls-1" d="M618.41,219.45c.33-1.59-.73-3.75,1.53-3.78,2.63,0,1.49,2.44,1.63,3.78s.61,3.31-1.81,3.15C617,222.41,619.45,220.12,618.41,219.45Z"/><path class="cls-1" d="M40.76,407.64c-.46,1.23.74,3.47-1.63,3.42s-1.46-2.22-1.48-3.51-.82-3.47,1.6-3.4S40.19,406.49,40.76,407.64Z"/><path class="cls-1" d="M47.65,407.52c-.38,1.26.79,3.44-1.51,3.54-2.84.12-1.58-2.33-1.67-3.69s-.89-3.38,1.62-3.29S47.23,406.3,47.65,407.52Z"/><path class="cls-1" d="M498.78,364.65c-.67,1.42.91,3.64-1.41,3.85-2.86.26-1.7-2.26-1.76-3.61s-.86-3.43,1.5-3.46C499.67,361.4,498,363.77,498.78,364.65Z"/><path class="cls-1" d="M370.55,265.09c-.51,1.18.92,3.42-1.57,3.4s-1.57-2.17-1.47-3.41-1.23-3.85,1.69-3.61C371.47,261.66,370.05,263.86,370.55,265.09Z"/><path class="cls-1" d="M514.76,365c-.48,1.23.91,3.36-1.45,3.53-2.88.19-1.7-2.23-1.76-3.56s-.94-3.35,1.35-3.51C515.77,361.25,514.26,363.74,514.76,365Z"/><path class="cls-1" d="M78.32,407.62c.48-1.21-.89-3.32,1.42-3.51s1.73,1.91,1.65,3.18,1,3.76-1.59,3.76C77.47,411.06,78.8,408.81,78.32,407.62Z"/><path class="cls-1" d="M85.19,407.46c.35-1.24-.81-3.37,1.59-3.36s1.64,2.08,1.57,3.36,1,3.81-1.78,3.58C84.43,410.86,85.54,408.73,85.19,407.46Z"/><path class="cls-1" d="M621.72,234c-.48,1.19.87,3.42-1.51,3.48-2.83.08-1.58-2.36-1.69-3.74s-.76-3.41,1.68-3.28S621.29,232.71,621.72,234Z"/><path class="cls-1" d="M621.59,323c-.48,1.17.9,3.4-1.57,3.36-2.3-.05-1.54-2.13-1.49-3.42s-1-3.83,1.77-3.56C622.51,319.57,621.12,321.75,621.59,323Z"/><path class="cls-1" d="M71.4,407.57c.5-1.22-1.11-3.66,1.82-3.47,2.36.15,1.38,2.21,1.36,3.42s1,3.31-1.2,3.55C70.61,411.37,71.76,409,71.4,407.57Z"/><path class="cls-1" d="M693.52,249.13c-.34,1.28.65,3.54-1.83,3.14s-1.09-2.67-1.27-4.07c-.13-1.07-.63-3,1.49-2.85C694.63,245.55,692.91,247.91,693.52,249.13Z"/><path class="cls-1" d="M683,248.69c.25-1.38-.69-3.46,1.77-3.35s1.48,2.2,1.51,3.45.8,3.42-1.46,3.49C682.09,252.37,683.37,250,683,248.69Z"/><path class="cls-1" d="M621.7,248.55c-.61,1.45.69,3.73-1.6,3.72-2.65,0-1.52-2.43-1.56-3.82,0-1.2-.91-3.39,1.63-3.19S620.79,247.72,621.7,248.55Z"/><path class="cls-1" d="M447.52,279.61c-.44,1.5.78,3.63-1.59,3.74s-1.57-2.1-1.5-3.27-1.31-3.77,1.54-3.72C448.43,276.4,446.78,278.73,447.52,279.61Z"/><path class="cls-1" d="M370.61,279.57c-.47,1.55.78,3.78-1.58,3.78-2.71,0-1.45-2.46-1.53-3.82-.08-1.16-1-3.38,1.63-3.17S369.66,278.83,370.61,279.57Z"/><path class="cls-1" d="M511.36,247c.47-1.47-.74-3.6,1.54-3.76,2.84-.21,1.71,2.26,1.74,3.57s1,3.37-1.32,3.55C510.44,250.6,512,248.06,511.36,247Z"/><path class="cls-1" d="M514.78,291.29c-.44,1.21.78,3.42-1.81,3.21-2.37-.2-1.41-2.25-1.43-3.5s-.88-3.44,1.48-3.45C515.79,287.54,514.21,290,514.78,291.29Z"/><path class="cls-1" d="M690.18,234.1c.71-1.21-1.2-3.72,1.7-3.68,2.32,0,1.57,2.16,1.5,3.42s1.13,3.74-1.69,3.68C689.19,237.47,690.83,235.23,690.18,234.1Z"/><path class="cls-1" d="M121.38,341.27c.18,1.74-.88,2.09-2.44,2-1.31-.05-2.72.26-2.84-1.74-.11-1.81.86-2.26,2.44-2.13C119.8,339.53,121.34,339.09,121.38,341.27Z"/><path class="cls-1" d="M121.37,366.37c.07,1.95-1.25,1.92-2.64,1.94s-2.6-.11-2.61-2,1.27-1.86,2.65-1.88S121.45,364.44,121.37,366.37Z"/><path class="cls-1" d="M94.39,288c.15,1.77-.86,2.22-2.4,2.2-1.33,0-2.6.11-2.76-1.81s.89-2.18,2.37-2.06C92.8,286.46,94.37,286,94.39,288Z"/><path class="cls-1" d="M128.69,323.13c1.4,0,2.68.1,2.6,2-.1,2-1.71,1.54-2.89,1.66-1.4.13-2.64-.07-2.56-2S127.49,323.26,128.69,323.13Z"/><path class="cls-1" d="M118.62,397.61c1.36-.07,2.63-.13,2.76,1.83s-1.13,2-2.52,2c-1.24,0-2.7.44-2.72-1.71C116.12,397.84,117.06,397.44,118.62,397.61Z"/><path class="cls-1" d="M94.45,328.51c-.07,1.92-1.41,1.86-2.81,1.89-1.56,0-2.56-.28-2.5-2.16.06-2.08,1.45-1.79,2.77-1.82S94.65,326.53,94.45,328.51Z"/><path class="cls-1" d="M121.37,333c.19,1.93-.87,2.25-2.46,2.22-1.39,0-2.63.13-2.81-1.83s1-2.18,2.46-2.09C119.8,331.37,121.41,330.91,121.37,333Z"/><path class="cls-1" d="M92,279.38c-1.27,0-2.73.3-2.82-1.69-.07-1.73.88-2.22,2.46-2.1,1.27.1,2.7-.21,2.85,1.73S93.42,279.43,92,279.38Z"/><path class="cls-1" d="M256.07,238.78c1.1,0,1.4.9,1.39,2.24,0,1.72-1.18,1.67-2.36,1.67s-1.59-.79-1.62-1.92C253.45,239.24,254.26,238.77,256.07,238.78Z"/><path class="cls-1" d="M817.19,293.33c-1.57.13-1.94-.75-1.79-1.84s-.82-2.83,1.08-3.31c1.55-.38,2,.65,1.88,2C818.23,291.38,819,293,817.19,293.33Z"/><path class="cls-1" d="M868,275c-1.77,0-1.75-1.18-1.66-2.38s-.45-2.9,1.65-2.88c1.33,0,1.47,1.13,1.4,2.15C869.26,273.07,870,274.67,868,275Z"/><path class="cls-1" d="M141,324.7c.2,1.66-.8,2.08-2.11,1.95s-2.85.69-3.26-1.22.8-2.32,2.33-2.19C139.17,323.34,140.78,322.68,141,324.7Z"/><path class="cls-1" d="M834.55,293.35c-2.07,0-2-1.26-2-2.39s-.47-2.84,1.6-2.85c1.39,0,1.36,1.12,1.36,2.1C835.49,291.43,835.86,292.83,834.55,293.35Z"/><path class="cls-1" d="M841.23,291c.25-1.18-.46-2.68,1.26-2.89s1.9.88,1.81,2.2.42,2.89-1.54,3C841,293.45,841.51,291.84,841.23,291Z"/><path class="cls-1" d="M892.59,263.36c-.18,1,.41,2.54-1.32,2.64s-1.76-1.19-1.66-2.42-.36-3,1.65-2.95C893,260.66,892.49,262.23,892.59,263.36Z"/><path class="cls-1" d="M868.06,260.58c1.77.4,1.24,1.91,1.31,3.11s-.18,2.48-1.73,2.3c-2-.23-1.23-1.94-1.33-3.11S866.26,260.52,868.06,260.58Z"/><path class="cls-1" d="M809.51,291c-.09,1.15.13,2.61-1.66,2.25s-1.09-2-1.24-3.21.29-2,1.52-1.94C810.29,288.24,809.29,290,809.51,291Z"/><path class="cls-1" d="M890.78,238.8a2.09,2.09,0,0,1,1.62,2.59c-.15,1,.55,2.57-1.2,2.7s-1.53-1.36-1.52-2.46S889.26,239.26,890.78,238.8Z"/><path class="cls-1" d="M219.76,313.37c-1.45.1-2.09-.57-2.1-2s.77-2,2.15-2,1.77.56,1.78,1.78S221.42,313.49,219.76,313.37Z"/><path class="cls-1" d="M212.93,309.38c1.66-.1,1.75,1.05,1.74,2.3s-.67,1.71-1.88,1.72c-1.46,0-2.13-.64-2.14-2.09S211.48,309.27,212.93,309.38Z"/><path class="cls-1" d="M201.27,311.18c.08,1.31-.37,2.13-1.85,2.21s-2.13-.38-2.14-1.85c0-1.26.2-2.23,1.8-2.18C200.33,309.4,201.35,309.6,201.27,311.18Z"/><path class="cls-1" d="M178.58,337.16c0,1.33-.34,2.22-1.91,2.14-1.37-.08-2.11-.68-2.09-2.12a1.64,1.64,0,0,1,1.78-1.82C177.72,335.26,178.62,335.6,178.58,337.16Z"/><path class="cls-1" d="M250.57,338.65c.1,1.41-.73,1.86-2.12,1.79-1.14-.06-1.81-.47-1.86-1.73s.44-2.16,1.93-2.19S250.67,337.06,250.57,338.65Z"/><path class="cls-1" d="M255.14,336.53c1.63-.14,2.28.51,2.31,2s-.71,2-2.1,2c-1.12,0-1.86-.45-1.85-1.71S253.7,336.4,255.14,336.53Z"/><path class="cls-1" d="M219.9,304.45c-1.34.09-2.2-.38-2.24-1.88s.5-2.14,2-2.14c1.15,0,1.88.42,1.93,1.64S221.55,304.43,219.9,304.45Z"/><path class="cls-1" d="M226.35,300.46c1.37-.09,2.08.48,2.1,1.94s-.53,2.05-2,2.07-2.06-.47-2.06-1.94S224.87,300.38,226.35,300.46Z"/><path class="cls-1" d="M214.66,302.65c.08,1.59-.91,1.87-2.22,1.81a1.69,1.69,0,0,1-1.75-1.91c0-1.41.61-2.07,2.07-2.1S214.72,301.3,214.66,302.65Z"/><path class="cls-1" d="M176.87,346.48c-1.28.07-2.31-.15-2.3-1.81,0-1.39.5-2.19,2-2.17,1.16,0,2,.4,2,1.65S178.71,346.63,176.87,346.48Z"/><path class="cls-1" d="M255.63,345.44c1.62,0,1.84,1,1.82,2.29,0,1.69-1.18,1.75-2.39,1.69s-1.55-.91-1.57-2C253.47,345.9,254.21,345.32,255.63,345.44Z"/><path class="cls-1" d="M260.37,347.38c-.08-1.42.61-2,2-1.94s2,.69,2,2.08-.76,1.9-2.11,1.92S260.26,348.77,260.37,347.38Z"/><path class="cls-1" d="M199.34,304.42c-1.53.23-2.07-.58-2-2,0-1.05.15-2,1.58-2,1.26,0,2.31.05,2.37,1.74C201.32,303.6,200.91,304.45,199.34,304.42Z"/><path class="cls-1" d="M177,297.21c-1.66.17-2.27-.59-2.33-2-.05-1.25.53-1.78,1.75-1.85,1.44-.09,2.22.43,2.1,2C178.45,296.38,178.27,297.35,177,297.21Z"/><path class="cls-1" d="M212.91,291.52c1.73-.1,1.77,1.11,1.79,2.32s-.74,1.67-1.91,1.69c-1.45,0-2.16-.56-2.12-2S211.51,291.43,212.91,291.52Z"/><path class="cls-1" d="M199.27,291.54c1.5-.05,2,.77,2,2.17,0,1.71-1,1.78-2.29,1.81s-1.71-.68-1.73-1.85C197.25,292.3,197.7,291.41,199.27,291.54Z"/><path class="cls-1" d="M262.07,287.07c-1.72.05-1.67-1.14-1.7-2.34,0-1.42.89-1.52,1.94-1.55,1.42-.05,2.11.55,2.05,2S263.4,287.16,262.07,287.07Z"/><path class="cls-1" d="M176.82,279.14c1.69-.09,1.83,1,1.78,2.28a1.61,1.61,0,0,1-1.91,1.71c-1.35-.06-2.13-.62-2.12-2.11S175.51,279.09,176.82,279.14Z"/><path class="cls-1" d="M262.25,274.32c1.48-.05,2.2.59,2.14,2s-1,1.88-2.3,1.85-1.67-.75-1.74-1.88C260.27,274.91,260.81,274.15,262.25,274.32Z"/><path class="cls-1" d="M257.42,276.09c.05,1.65-.73,2.16-2.11,2.12-1.55,0-1.83-1-1.81-2.26s.8-1.61,1.89-1.65C256.77,274.25,257.58,274.76,257.42,276.09Z"/><path class="cls-1" d="M178.6,351.75c.11,1.63-1,1.79-2.26,1.75s-1.75-.67-1.74-1.89c0-1.42.58-2.12,2.07-2.14S178.64,350.37,178.6,351.75Z"/><path class="cls-1" d="M257.43,267.64c0,1.61-1.06,1.82-2.31,1.74-1.61-.09-1.66-1.25-1.58-2.45s1-1.47,2.05-1.49C257.13,265.42,257.55,266.31,257.43,267.64Z"/><path class="cls-1" d="M248.73,269.39c-1.74.07-2.19-.79-2.14-2.17.07-1.59,1.09-1.79,2.36-1.77s1.61.86,1.63,1.95C250.61,268.8,250.05,269.61,248.73,269.39Z"/><path class="cls-1" d="M248.78,354.37c1.47-.16,1.86.74,1.81,2.12-.05,1.17-.47,1.84-1.75,1.88s-2.21-.4-2.28-1.91S247.27,354.37,248.78,354.37Z"/><path class="cls-1" d="M257.43,356.57c.07,1.59-.95,1.83-2.25,1.8s-1.65-.76-1.69-1.9c-.05-1.43.55-2.12,2-2.11S257.55,355.15,257.43,356.57Z"/><path class="cls-1" d="M264.38,357.07c0,.9-.86,1.33-2.25,1.31-1.7,0-1.78-1.15-1.77-2.37s.77-1.66,1.94-1.65C263.73,354.36,264.47,355,264.38,357.07Z"/><path class="cls-1" d="M260.36,258.28c0-1.54,1-1.81,2.31-1.74,1.61.08,1.77,1.21,1.68,2.46s-1,1.5-2.09,1.53C260.7,260.58,260.23,259.74,260.36,258.28Z"/><path class="cls-1" d="M228.46,320.15c.07,1.41-.52,2.14-2,2.15s-2.06-.72-2-2.13c0-1.19.46-1.84,1.74-1.87S228.46,318.57,228.46,320.15Z"/><path class="cls-1" d="M212.84,371.43c1.53-.15,1.87.8,1.83,2.15,0,1.16-.43,1.84-1.74,1.87s-2.24-.39-2.26-1.92S211.29,371.37,212.84,371.43Z"/><path class="cls-1" d="M221.59,373.78c0,1.49-1,1.71-2.28,1.63s-1.62-.85-1.64-2c0-1.45.65-2,2.09-2C221.37,371.42,221.65,372.37,221.59,373.78Z"/><path class="cls-1" d="M178.59,386.42c.08,1.51-.75,2-2.14,1.95-1.55,0-1.93-.93-1.87-2.26s.82-1.61,1.95-1.69C178,384.32,178.65,385,178.59,386.42Z"/><path class="cls-1" d="M264.36,320.55c.13,1.5-.63,2.08-2.05,2-1.08,0-2-.21-1.94-1.59,0-1.19,0-2.36,1.73-2.35C263.43,318.66,264.38,319,264.36,320.55Z"/><path class="cls-1" d="M253.52,329.69c0-1.9,1-2.27,2.28-2.17,1.61.12,1.66,1.27,1.62,2.5,0,1.4-1,1.47-2,1.49C253.91,331.54,253.22,330.87,253.52,329.69Z"/><path class="cls-1" d="M226.62,375.4c-1.54.15-2.19-.46-2.2-1.91s.44-2.1,1.94-2.08,2.11.46,2.1,1.94S228,375.51,226.62,375.4Z"/><path class="cls-1" d="M199.25,393.28c-1.43.16-2-.63-2-2,0-1.11.27-2,1.63-2,1.18,0,2.41,0,2.37,1.73C201.24,392.32,200.92,393.31,199.25,393.28Z"/><path class="cls-1" d="M212.6,393.29c-1.56,0-1.94-.9-1.93-2.25,0-1.67,1.13-1.76,2.38-1.75s1.61.85,1.63,1.95C214.71,392.67,214.11,393.43,212.6,393.29Z"/><path class="cls-1" d="M221.57,391.07c.1,1.38-.28,2.25-1.87,2.22s-2-.75-2-2.14a1.59,1.59,0,0,1,1.73-1.86C220.72,389.22,221.71,389.48,221.57,391.07Z"/><path class="cls-1" d="M250.58,249.82c.11,1.46-.8,1.8-2.14,1.72-1.13-.08-1.82-.49-1.86-1.74a1.84,1.84,0,0,1,2-2.17C250.07,247.54,250.63,248.32,250.58,249.82Z"/><path class="cls-1" d="M226.65,362.6c1.58,0,1.85,1,1.78,2.3-.1,1.62-1.26,1.66-2.46,1.6s-1.52-.95-1.54-2C224.4,362.93,225.34,362.55,226.65,362.6Z"/><path class="cls-1" d="M214.63,329.26c0,1.57-.88,2-2.21,1.94-1.54-.1-1.81-1.15-1.73-2.42s1-1.46,2.05-1.55C214.32,327.1,214.75,327.93,214.63,329.26Z"/><path class="cls-1" d="M220,327.24c1.63-.14,1.67,1,1.63,2.23s-.74,1.7-1.89,1.74c-1.48,0-2-.72-2-2.11C217.6,327.47,218.57,327.21,220,327.24Z"/><path class="cls-1" d="M219.86,318.32c1.61-.1,1.78,1,1.73,2.24s-.66,1.73-1.85,1.75c-1.48,0-2-.71-2.05-2.11C217.61,318.58,218.49,318.24,219.86,318.32Z"/><path class="cls-1" d="M178.58,379.33c.07,1.46-.58,2.12-2.08,2s-1.95-.94-1.91-2.29.81-1.64,1.94-1.72C178,377.25,178.71,377.84,178.58,379.33Z"/><path class="cls-1" d="M226.34,331.21c-1.5,0-2-.86-1.94-2.25s.66-1.71,1.85-1.75c1.37,0,2.21.39,2.22,1.93S227.75,331.24,226.34,331.21Z"/><path class="cls-1" d="M262,238.76c1.32-.07,2.23.3,2.34,1.85s-.64,2-2,2.07c-1.09,0-2-.13-2-1.51C260.39,240,260.26,238.72,262,238.76Z"/><path class="cls-1" d="M178.62,394.22c.08,1.25-1.07,1.29-2.32,1.26s-1.71-.72-1.71-1.91c0-1.45.67-2.1,2.11-2.1C178.3,391.46,178.62,392.44,178.62,394.22Z"/><path class="cls-1" d="M176.86,332.17c-1.4.17-2.16-.37-2.27-1.85s.62-2.05,2-2c1.09,0,2,.23,2,1.56C178.57,331,178.59,332.25,176.86,332.17Z"/><path class="cls-1" d="M264.35,249.8c0,1.65-1.12,1.71-2.33,1.74s-1.64-.72-1.66-1.85c0-1.39.5-2.15,2-2.06S264.46,248.36,264.35,249.8Z"/><path class="cls-1" d="M248.49,256.55c1.49-.15,2.11.59,2.11,2,0,1.1-.26,1.94-1.6,2s-2.34-.08-2.41-1.72C246.52,257.42,247,256.56,248.49,256.55Z"/><path class="cls-1" d="M255.18,260.52c-1.58,0-1.76-1-1.68-2.31s.81-1.62,2-1.66c1.52-.05,2,.73,2,2.12C257.5,260.29,256.56,260.6,255.18,260.52Z"/><path class="cls-1" d="M213,402.16c-1.77,0-2.32-.72-2.28-2.15.05-1.66,1.13-1.76,2.34-1.8s1.68.73,1.64,1.87C214.62,401.38,214.29,402.39,213,402.16Z"/><path class="cls-1" d="M219.87,402.18c-1.77,0-2.24-.78-2.22-2.18,0-1.68,1.1-1.76,2.33-1.79s1.65.69,1.63,1.87C221.59,401.46,221.18,402.34,219.87,402.18Z"/><path class="cls-1" d="M228.44,400.37c-.06,1.54-1,1.89-2.35,1.8-1.66-.11-1.69-1.26-1.65-2.46,0-1.37,1-1.47,2.07-1.5C228,398.16,228.57,399,228.44,400.37Z"/><path class="cls-1" d="M178.56,287.69c.11,1.65-.21,2.6-1.81,2.63-1.44,0-2.15-.58-2.18-2,0-1.16.38-1.92,1.65-1.95S178.71,286.18,178.56,287.69Z"/><path class="cls-1" d="M248.59,331.5c-1.49.08-2.07-.64-2-2.1s1-1.88,2.32-1.87,1.59.85,1.67,1.93C250.67,330.91,250.1,331.66,248.59,331.5Z"/><path class="cls-1" d="M201.25,382.42c0,1.52-.81,2-2.2,1.95-1.71,0-1.76-1.15-1.75-2.38s.77-1.65,1.94-1.66C200.7,380.31,201.4,380.93,201.25,382.42Z"/><path class="cls-1" d="M219.61,384.34c-1.51.07-2-.8-1.92-2.14,0-1.51,1-1.88,2.27-1.85s1.58.85,1.62,1.92C221.64,383.65,221.1,384.44,219.61,384.34Z"/><path class="cls-1" d="M262.32,336.51c1.8,0,2.11,1.07,2,2.32-.08,1.63-1.29,1.64-2.47,1.6s-1.53-.94-1.53-2C260.34,336.91,261.21,336.44,262.32,336.51Z"/><path class="cls-1" d="M226.44,380.38c1.5-.08,2,.7,2,2.13,0,1.6-.95,1.91-2.28,1.86s-1.71-.72-1.75-1.9C224.37,381,224.92,380.26,226.44,380.38Z"/><path class="cls-1" d="M214.65,364.62c.17,1.6-.8,1.95-2.1,1.91-1.1,0-1.86-.44-1.87-1.72s.44-2.15,1.92-2.22S214.68,363.23,214.65,364.62Z"/><path class="cls-1" d="M201.29,365.11c.1,1.23-.93,1.4-2.22,1.39s-1.8-.46-1.79-1.71.41-2.21,1.94-2.19S201.31,363.29,201.29,365.11Z"/><path class="cls-1" d="M262.3,309.76c1.69,0,2.11.93,2.08,2.27-.05,1.74-1.3,1.61-2.46,1.61-1.31,0-1.57-.84-1.57-1.95C260.35,310.22,261,309.56,262.3,309.76Z"/><path class="cls-1" d="M199.37,318.31c1.61-.06,2,.82,1.92,2.21-.1,1.62-1.2,1.8-2.43,1.76s-1.51-1-1.57-2.06C197.21,318.67,198,318.17,199.37,318.31Z"/><path class="cls-1" d="M257.46,312c.12,1.34-.83,1.7-2.14,1.65-1.09-.05-1.83-.41-1.84-1.72s.42-2.18,1.9-2.21S257.49,310.36,257.46,312Z"/><path class="cls-1" d="M201.25,408.87c.08,2-1.05,2.2-2.27,2.21-1.67,0-1.67-1.23-1.67-2.42,0-1.34.85-1.56,2-1.55C200.68,407.14,201.43,407.73,201.25,408.87Z"/><path class="cls-1" d="M228.46,408.9c0,1.63-.78,2.16-2.16,2.14-1.53,0-1.9-.91-1.88-2.26s.72-1.65,1.87-1.65C227.62,407.13,228.57,407.46,228.46,408.9Z"/><path class="cls-1" d="M91.71,265c1.28.11,2.8-.16,2.65,2-.13,1.74-1.38,1.56-2.51,1.6-1.35,0-2.75.16-2.61-1.93C89.36,265,90.53,265,91.71,265Z"/><path class="cls-1" d="M94.35,339.14c-.13,2-1.67,1.54-2.89,1.63s-2.26-.14-2.21-1.79c.08-2.15,1.66-1.54,2.84-1.6S94.49,337.37,94.35,339.14Z"/><path class="cls-1" d="M121.38,382.87c-.11,2.23-1.62,1.8-2.88,1.88-1.58.1-2.58-.39-2.33-2.19.29-2.09,1.92-1.3,3.08-1.38S121.59,381.4,121.38,382.87Z"/><path class="cls-1" d="M118.67,356.17c1.62,0,2.93.06,2.68,2s-1.8,1.48-3,1.56-2.21-.18-2.2-1.84C116.14,355.74,117.68,356.29,118.67,356.17Z"/><path class="cls-1" d="M89.27,317.63c0-2.07,1.64-1.53,2.8-1.63,1.51-.13,2.54.38,2.26,2.17-.31,2-1.91,1.25-3,1.39C89.88,319.73,89.13,319.11,89.27,317.63Z"/><path class="cls-1" d="M121.35,325.42c-.28,1.7-1.87,1.16-3.07,1.24s-2.32-.27-2.15-1.91c.21-2.11,1.85-1.39,3-1.49S121.46,323.55,121.35,325.42Z"/><path class="cls-1" d="M94.47,349.18c-.26,2.79-1.75,2.42-3,2.49-1.63.09-2.46-.54-2.21-2.28.3-2.14,1.94-1.18,3.06-1.3C93.66,348,94.57,348.46,94.47,349.18Z"/><path class="cls-1" d="M1132.55,87.57c-17.76,15.56-35.47,31.18-53.3,46.67Q947.13,249,815,363.65q-11.31,9.81-22.57,19.68c-.88.77-2.68,1.13-1.85,3-1.45.09-1.31-1.61-2.3-2,15.89-13.92,31.73-27.89,47.68-41.74Q980.73,216.82,1125.58,91.14c1.87-1.62,3.87-3.1,5.8-4.64Z"/><path class="cls-1" d="M824.24,378.3c17.09-15.59,34.14-31.24,51.28-46.77q81.62-74,163.3-147.87,35.91-32.53,71.83-65.06c.85-.77,1.83-1.4,2.74-2.09l1.24,1.11q-27.11,24.67-54.21,49.34-101,91.47-201.93,182.89c-11,9.93-22,19.72-33.07,29.57Z"/><path class="cls-1" d="M1406.15,374.7c-11.08-17.95-22.24-35.87-33.24-53.88q-56.82-93.06-113.57-186.17Q1233,91.39,1206.59,48.14c-.86-1.4-1.55-2.91-2.32-4.37.09-.88.19-1.76.28-2.63q21.93,35.7,43.86,71.41,78.83,129.07,157.6,258.19c.51.84.88,1.77,1.32,2.66Z"/><path class="cls-1" d="M1209.56,63.15c11,19.33,22.1,38.63,33,58q51.5,91.14,102.89,182.36,18,31.89,35.77,63.9c-.37.42-.74.83-1.1,1.25-8.92-15.55-17.91-31.06-26.73-46.67q-45-79.62-89.91-159.31-26.6-47.11-53.17-94.23c-.73-1.29-1.31-2.67-2-4Z"/><path class="cls-1" d="M1357.19,374.65c-9.25-16.13-17.17-32.94-25.64-49.47q-45.79-89.43-91.29-179-20-39.31-39.83-78.72l1.1-1.25c8,15.32,16,30.58,23.85,46q63.48,124.35,126.85,248.74c2.1,4.13,4,8.34,6.08,12.52C1357.94,373.82,1357.56,374.23,1357.19,374.65Z"/><path class="cls-1" d="M937.37,372.38c15.38-17.69,30.7-35.43,46.15-53.06q73.34-83.73,146.76-167.4c4.93-5.62,10-11.15,14.93-16.73l1.15,1.26q-29.67,34-59.35,68.05-72.66,83-145.39,165.89c-1,1.12-2.09,2.11-3.14,3.16Z"/><path class="cls-1" d="M1198.59,80.1c7.24,15.28,14.57,30.51,21.73,45.84q49.62,106.34,99.16,212.72c4,8.56,7.87,17.17,11.81,25.75l-1.22,1.41c-8.78-18.61-17.64-37.18-26.34-55.82q-52.56-112.67-105-225.35c-.48-1-.84-2.13-1.26-3.2Z"/><path class="cls-1" d="M1305.09,367.81c-7.35-17.8-14.77-35.57-22-53.4q-44.44-109-88.89-218c-.45-1.08.1-3.86-2.78-2.89.32-1.63,1.74-1.68,2.95-2,8.08,19.66,16.22,39.29,24.24,59Q1262,257,1305.39,363.59c.37.91.58,1.89.87,2.83Z"/><path class="cls-1" d="M1149.46,155.5c-11.6,14.36-23.14,28.77-34.81,43.08Q1044.76,284.3,974.82,370c-.73.89-1.58,1.67-2.38,2.51l-1.12-1.14c12.43-15.4,24.79-30.86,37.3-46.2q67.65-83,135.4-166c1.36-1.67,2.85-3.22,4.28-4.83Z"/><path class="cls-1" d="M1142.4,183.46c-11.83,16.84-23.61,33.72-35.51,50.51q-48.26,68.1-96.62,136.12c-.86,1.21-1.87,2.3-2.8,3.45l-1.17-1.19c10.49-14.94,20.91-29.93,31.47-44.82q51-71.94,102.16-143.83a13.92,13.92,0,0,1,1.33-1.44Z"/><path class="cls-1" d="M1262.47,371.42q-13.42-40.67-26.84-81.31Q1214.75,226.48,1194,162.8a23.6,23.6,0,0,1-.52-2.39l1.26-1.49c5.84,17.46,11.76,34.89,17.5,52.38q25.62,78.1,51.12,156.26c.41,1.25.61,2.57.91,3.85Z"/><path class="cls-1" d="M1138.44,207.42c-4.16,3.52-5.94,8.64-8.57,13.13q-41.82,71.42-83.41,143a8.21,8.21,0,0,1-1,1.11c-.37-.41-.75-.82-1.13-1.22q16-27.82,32.12-55.65,29.57-50.85,59.24-101.65a21,21,0,0,1,1.44-2,2.54,2.54,0,0,0,2.21,1.32l0,0C1139.05,206.09,1138.74,206.75,1138.44,207.42Z"/><path class="cls-1" d="M1129.3,239.32q-20.92,47.32-41.84,94.64c-4.56,10.29-9.25,20.52-13.87,30.78l-1.19-1.33q14.73-33.78,29.46-67.54c8.88-20.21,17.87-40.37,26.82-60.56,1.54.08,2.09.85,1.59,2.33-1,.26-.77,1.18-1,1.88Z"/><path class="cls-1" d="M1145.34,103.35a59.86,59.86,0,0,1,10.05-9.82c0,.71,0,1.41,0,2.12a66.59,66.59,0,0,1-10,9.83C1145.37,104.77,1145.35,104.06,1145.34,103.35Z"/><path class="cls-1" d="M1175.24,241.65l-1.63-.53c-.49-2.14-1.37-4.23-.95-7.08C1174.85,236.56,1174.84,239.18,1175.24,241.65Z"/><path class="cls-1" d="M1139.39,205.46c.07-.6.13-1.19.2-1.79l.6.27-.84,1.49Z"/><path class="cls-1" d="M1129.32,239.52c.18-.7-.09-1.62,1-1.88C1130,238.28,1131.15,239.65,1129.32,239.52Z"/><path class="cls-1" d="M1145.64,179.67c.11,0,.26,0,.32,0s.18.26.14.34c-.21.46-.46.45-.63,0C1145.44,179.93,1145.58,179.79,1145.64,179.67Z"/><path class="cls-1" d="M382.23,204.65a1.35,1.35,0,0,1-.54-1.93l1.4.92Z"/><path class="cls-1" d="M1179.58,46.7a35.49,35.49,0,0,1-6.93,6.07l-1.28-1a32.5,32.5,0,0,1,7.8-6.51C1179.31,45.77,1179.44,46.23,1179.58,46.7Z"/><path class="cls-1" d="M1172.65,52.77l-7.25,6.51c.4-4,3.49-5.44,6-7.46Z"/><path class="cls-1" d="M1157.18,65.08a14.39,14.39,0,0,1,7.25-6.43C1163.08,62,1160.47,63.92,1157.18,65.08Z"/><path class="cls-1" d="M1180.64,45.75l-1.06,1c-.14-.47-.27-.93-.41-1.39l0-.08C1179.67,45.41,1180.15,45.58,1180.64,45.75Z"/><path class="cls-1" d="M1160,89.17a10,10,0,0,1,5-4.4c-.09,3-2.39,3.86-3.83,5.33Z"/><path class="cls-1" d="M1170.67,80.78c-.72.75-1.33,2.45-2.54,1.12-.78-.85.56-1.58,1.36-2.1Z"/><path class="cls-1" d="M1157.41,107.87a7.16,7.16,0,0,1-1.26.47c-.1,0-.28-.45-.43-.69l1.25-.75C1157.1,107.17,1157.22,107.45,1157.41,107.87Z"/><path class="cls-1" d="M1147.4,86.42c.11.37.43.83.31,1.08-.38.78-.92.32-1.39,0C1146,86.49,1146.5,86.25,1147.4,86.42Z"/></g></g></svg>