<svg xmlns="http://www.w3.org/2000/svg" viewBox="0 0 1020.18 1020.18"><defs><style>.cls-1{fill:#fbae17;}.cls-2{fill:#444394;}.cls-3{fill:#fff;}</style></defs><g id="Camada_2" data-name="Camada 2"><g id="Camada_1-2" data-name="Camada 1"><rect class="cls-1" x="54.95" y="54.95" width="910.28" height="910.28" rx="92.17" transform="translate(-31.74 33.85) rotate(-3.69)"/><rect class="cls-2" x="54.95" y="54.95" width="910.28" height="910.28" rx="92.17" transform="translate(-77.2 928.99) rotate(-80.5)"/><path class="cls-3" d="M383.78,563V721.19L211.66,623.47V610.24l-.06,0V368.06h7.52s-1.89,23.53,5.25,58.86,25.18,65,65,94.71S383.78,563,383.78,563Z"/><g id="a6558fe5-ccb8-47c7-a172-7ececf87f5b0"><path class="cls-3" d="M853.27,509.19q0,109.74-43.78,188a290.82,290.82,0,0,1-126.07,120,381.79,381.79,0,0,1-118.22,36,563.35,563.35,0,0,1-78.4,5.5H227.53a15.86,15.86,0,0,1-15.87-15.87V784.7S293.15,823,375.08,838.45,557,852,632.14,821.16s120.27-92.83,118.77-184.9-80.43-136.34-80.43-136.34l.84-2.91v0a29.28,29.28,0,0,0,.37-7.12q-.53-11-1.79-22-1.12-9.93-3-19.79c-1.17-6.22-2.56-12.4-4.23-18.5-1.58-5.81-3.4-11.56-5.48-17.2a168.51,168.51,0,0,0-6.78-15.87,157.07,157.07,0,0,0-8-14.61,146.73,146.73,0,0,0-9.35-13.32,140.23,140.23,0,0,0-22.61-22.73,146.55,146.55,0,0,0-12.18-8.71c-37.4-28.76-103.63-38.8-154.24-25.46V161.45H484.1q115.47,0,197.84,41.59a294.76,294.76,0,0,1,126.68,119.6Q852.66,400.48,853.27,509.19Z"/><path class="cls-1" d="M401.08,164.11v151H211.66V180a15.86,15.86,0,0,1,15.86-15.88Z"/><path class="cls-3" d="M400.92,315.1H230.63l-.21-.29c5.81-16,13.76-26.09,23.63-39.91,24.59-33.48,57.71-54.81,95.9-71.15a295.75,295.75,0,0,1,46.61-16.44l4.47-1.12Z"/><path class="cls-3" d="M216.79,368.06h170a52.94,52.94,0,0,0-.43,6.66,41.55,41.55,0,0,0,9.84,26.94A88.89,88.89,0,0,0,434,424.55a592.47,592.47,0,0,0,84.75,22.91A604,604,0,0,1,633.93,481a333.28,333.28,0,0,1,35.7,17.27,200.82,200.82,0,0,1,36.92,26.56,140.7,140.7,0,0,1,37.83,55,192.28,192.28,0,0,1,11.44,67,184.89,184.89,0,0,1-33.86,111,212.25,212.25,0,0,1-97.88,71.86q-64.26,25.07-156.55,25.06a552.82,552.82,0,0,1-98.88-8.59A506.39,506.39,0,0,1,276,820.75a332.3,332.3,0,0,1-64.3-31.83V610.19c27,24.37,58.39,43.84,90.25,61.23,24.58,13.45,49.59,26.32,75.75,36.45q5.23,2,10.52,3.73c23.4,7.56,47.48,10.44,72.4,9.42h8.8q57,0,86.38-15.81a61.4,61.4,0,0,0,14.86-10.8,42,42,0,0,0,14.25-32,44.45,44.45,0,0,0-10.46-28.08,93.8,93.8,0,0,0-38.27-23.19A555.65,555.65,0,0,0,456,589.29c-27.64-5.45-52.56-11.5-74.72-18-16.24-4.84-30.92-9.85-44.14-15.21a237.59,237.59,0,0,1-73.26-43.54A136,136,0,0,1,226.53,457,207.59,207.59,0,0,1,215.63,388Z"/></g></g></g></svg>