<svg xmlns="http://www.w3.org/2000/svg" xmlns:xlink="http://www.w3.org/1999/xlink" viewBox="0 0 1017.2 1028"><defs><style>.cls-1{fill:#fff;}.cls-2{fill:url(#Gradiente_sem_nome_6);}.cls-3{fill:url(#Gradiente_sem_nome_6-2);}.cls-4{fill:url(#Gradiente_sem_nome_6-3);}.cls-5{fill:#ffc30f;}.cls-6{fill:url(#Gradiente_sem_nome_6-5);}.cls-7{fill:url(#Gradiente_sem_nome_6-6);}</style><linearGradient id="Gradiente_sem_nome_6" x1="148.05" y1="-360.92" x2="253.17" y2="-360.92" gradientTransform="matrix(1, 0, 0, -1, 0, 2.33)" gradientUnits="userSpaceOnUse"><stop offset="0" stop-color="#668c0a"/><stop offset="1" stop-color="#87c30f"/></linearGradient><linearGradient id="Gradiente_sem_nome_6-2" x1="218.42" y1="-228.28" x2="412.64" y2="-228.28" xlink:href="#Gradiente_sem_nome_6"/><linearGradient id="Gradiente_sem_nome_6-3" x1="218.42" y1="-225.41" x2="410.35" y2="-225.41" xlink:href="#Gradiente_sem_nome_6"/><linearGradient id="Gradiente_sem_nome_6-5" x1="-337.55" y1="-629.99" x2="2869.41" y2="-645.99" xlink:href="#Gradiente_sem_nome_6"/><linearGradient id="Gradiente_sem_nome_6-6" x1="-337.27" y1="-578.24" x2="2869.74" y2="-594.17" xlink:href="#Gradiente_sem_nome_6"/></defs><g id="Camada_2" data-name="Camada 2"><g id="Camada_1-2" data-name="Camada 1"><path class="cls-1" d="M807.45,1027.1,86.52,929.37C31.91,922-6.43,871.22.9,816L97.6,87.44C104.92,32.25,155.14-6.5,209.75.91L930.68,98.63c54.61,7.41,93,58.16,85.62,113.35L919.6,940.56C912.28,995.76,862.06,1034.5,807.45,1027.1Z"/><g id="Camada_2-2" data-name="Camada 2"><g id="Camada_1-2-2" data-name="Camada 1-2"><path class="cls-2" d="M253.31,385.71H253a135.62,135.62,0,0,0-50.38-11c-45.4-1.41-53.54-28.86-54.53-32.62h0c1.22-.06,2.44-.06,3.65,0C252.19,331.81,253.31,385.71,253.31,385.71Z"/><path class="cls-3" d="M242.92,346C136.83,158.7,409.65,100,409.65,100S436,174.45,332.46,259.33c-63.71,52.13-81.26,101.91-81.26,101.91l-8-15.25"/><path class="cls-4" d="M409.65,100a7,7,0,0,0,.7,2.41c-2.67,1.84-6.17,3.83-9.68,5.81C316.46,158.49,265.8,188.35,245,268.77c-12.14,46.8-2.6,65.52,2.95,86.73l-5-9.51C136.83,158.77,409.65,100,409.65,100Z"/><path class="cls-2" d="M253.31,385.71H253c-40.42-38.3-91.29-39.72-104.91-43.62h0c1.22-.06,2.44-.06,3.65,0C252.19,331.81,253.31,385.71,253.31,385.71Z"/><path class="cls-5" d="M694.05,318.12l-2.38-2a213.32,213.32,0,0,0-28.7-20.5Q598.34,256,508.59,256c-75.92,0-152.9,29.22-204.76,86.23-13.26,14.54-24.28,24.12-34.31,40.71,7.93,2.41,14.45,14.18,18.8,21.28a439.25,439.25,0,0,0,48.56,73.11,468.46,468.46,0,0,0,58.52,52.34c12.28,10,29.83,17.09,29.83,35.45V593a33.44,33.44,0,0,1-11.16,25c-8,7.09-25.12,24.75-28.07,47.58h0c0,4.9-1.61,24.75,4.21,27.38,4.49,2,11.51-7.1,14.39-9.37,5.19-4.6,12-10.21,19.36-15.88,23.65-18.65,52.91-39.36,52.91-39.36-1.75-10.71,15-91.34,21.26-102.26a22,22,0,0,0,.71-21.27s-39.72-68.65-36.14-91.2a11.72,11.72,0,0,1,.42-2.84,88.39,88.39,0,0,1,44.14-8.44h5.89a97.56,97.56,0,0,1,62.94,20.92h0l2.53,2.06a93.7,93.7,0,0,1,28.07,44H772.15C761.34,405.63,735.31,353.72,694.05,318.12Z"/><path class="cls-6" d="M549.15,531.08V659.44H623.6C604.3,729.29,509,741.56,457.3,702c-1.83-1.35-26-20.63-24.21-22.12L417.65,693c-9.4,8-19,22-33.12,16.8-12.7-4.61-15.16-21.7-15.86-33.4a82.65,82.65,0,0,1,13.68-46.73c7-10.71,26.25-23.62,26.25-36.95V565.12a12.28,12.28,0,0,0-7-11l-.56-.28C342.15,528.18,304.81,466.69,273.94,413a17,17,0,0,0-14.6-8.58,16.14,16.14,0,0,0-8.42,2.27l-8,4.68a17.12,17.12,0,0,0-6.18,23.24v0l51.64,89.57a9.52,9.52,0,0,1-4.63,9.57A9.21,9.21,0,0,1,271,530.63c-.07-.11-.13-.22-.19-.33l-5.12-9.07L221.1,443.72a16.79,16.79,0,0,0-14.59-8.51c-14,0-30.81,15.88-22.67,30.28l57.82,101a7.11,7.11,0,0,1-3.37,5.82,6.64,6.64,0,0,1-3.37.92,7,7,0,0,1-5.12-2.41L193,506.33a14.63,14.63,0,0,0-12.63-7.09c-11.79,0-22.94,13-16.42,24.33,18.18,31.84,36.42,63.82,53.33,96.09l.49.78,8.84-7.09a22,22,0,0,1,13.55-4.61,22.35,22.35,0,0,1,6,.85A22.08,22.08,0,0,1,258,618.1l3.86,5a22.45,22.45,0,0,1,.91,25.89l.91-.64a25.13,25.13,0,0,1,8.5-4.54,27.68,27.68,0,0,1,8.13-1.28,27.3,27.3,0,0,1,22.11,10.64l1.05,1.42a27.55,27.55,0,0,1,5.4,20.42,27.06,27.06,0,0,1-10.31,18.23,18.27,18.27,0,0,1,4.77-.57h0a21.54,21.54,0,0,1,15.5,35.8,21.57,21.57,0,0,1-2.94,2.71l-28.84,22.41,3.86,7.09c20.07,36.45,59.22,65.24,96,82.05A283.14,283.14,0,0,0,530.34,866a197.75,197.75,0,0,0,65-17.8c30-14.18,54.45-37.58,77.19-61.13V855H790.33V531.08Z"/><path class="cls-7" d="M185.31,596.4l-14.45,11.42-20.49-35.89a9.05,9.05,0,0,1,3.29-12.29l.08,0a8.56,8.56,0,0,1,4.49-1.27,8.83,8.83,0,0,1,7.72,4.53Z"/><path class="cls-5" d="M310.57,724.05l-27.72,21.27L265.24,759.5a12.37,12.37,0,0,1-7.58,2.63,12,12,0,0,1-9.75-4.89A12.49,12.49,0,0,1,250,739.82l.12-.1,21-16.38,24.21-19.15a12.49,12.49,0,0,1,15.16,19.86Z"/><path class="cls-5" d="M291.69,685,263,707.31l-29.47,22.91a16.8,16.8,0,0,1-10.24,3.54,16.58,16.58,0,0,1-13.41-7.09l-1.12-1.35a17.35,17.35,0,0,1,3.16-24l34.38-26.24,23.79-18.58a17.29,17.29,0,0,1,10.24-3.4,16.73,16.73,0,0,1,13.41,6.67l1,1.42a17.07,17.07,0,0,1-3,23.77Z"/><path class="cls-5" d="M251.06,645.54l-14,11.14-46.87,36.23a11.14,11.14,0,0,1-15.58-2l-4.21-5.6a11.29,11.29,0,0,1,2-15.68l50.67-39.28,10.38-8.09a10.84,10.84,0,0,1,7-2.34,11.07,11.07,0,0,1,8.84,4.4l4.21,5.53A11.35,11.35,0,0,1,251.06,645.54Z"/><path class="cls-5" d="M205.87,609.3a6.72,6.72,0,0,1-1.24,9.35l0,0L165.88,648.8a6.9,6.9,0,0,1-4,1.35,6.38,6.38,0,0,1-5.2-2.62l-2.94-3.83a6.71,6.71,0,0,1,1.3-9.34l0,0,38.66-30.14a7,7,0,0,1,3.93-1.28,6.47,6.47,0,0,1,5.27,2.56Z"/></g></g></g></g></svg>