<svg xmlns="http://www.w3.org/2000/svg" viewBox="0 0 1024 1024"><defs><style>.cls-1{fill:#f2f2fc;}.cls-2{fill:#d3b124;}.cls-3{fill:#6a5acd;}</style></defs><g id="Camada_2" data-name="Camada 2"><g id="Camada_1-2" data-name="Camada 1"><rect class="cls-1" width="1024" height="1024" rx="217.21"/><path class="cls-2" d="M766.83,686a27.93,27.93,0,0,1-22.6-44.31A284.26,284.26,0,0,0,798.43,474c0-158-128.5-286.46-286.45-286.46S225.54,316,225.54,474a284.26,284.26,0,0,0,54.2,167.7,27.93,27.93,0,1,1-45.26,32.75A339.79,339.79,0,0,1,169.68,474c0-188.76,153.55-342.33,342.3-342.33S854.29,285.23,854.29,474a339.8,339.8,0,0,1-64.81,200.45A27.88,27.88,0,0,1,766.83,686Z"/><path class="cls-3" d="M512,588.15C438,588.15,377.81,528,377.81,454S438,319.81,512,319.81,646.15,380,646.15,454,586,588.15,512,588.15Zm0-212.48A78.31,78.31,0,1,0,590.29,454,78.39,78.39,0,0,0,512,375.67Z"/><path class="cls-3" d="M512,816.3a345.62,345.62,0,0,1-49.44-3.55A341.61,341.61,0,0,1,301.61,744h0a27.93,27.93,0,0,1-1.68-42.62h0a312.29,312.29,0,0,1,163.6-78.67A314.5,314.5,0,0,1,724,701.4h0A27.93,27.93,0,0,1,722.37,744h0A338.91,338.91,0,0,1,512,816.3Zm-146.32-96a286.8,286.8,0,0,0,292.68.05A257.48,257.48,0,0,0,512,674.86a260.8,260.8,0,0,0-39.91,3.07A256.13,256.13,0,0,0,365.66,720.27Z"/><path class="cls-3" d="M558.66,788.36l-38.19,98.17a9.1,9.1,0,0,1-17,0l-38.19-98.17,1.24-3.26,32.63-85.18a9,9,0,0,0-1.15-8.51l-30.24-41.09a290.62,290.62,0,0,1,88.39,0l-30.25,41.09a9,9,0,0,0-1.15,8.51l32.64,85.18Z"/></g></g></svg>