<svg xmlns="http://www.w3.org/2000/svg" xmlns:xlink="http://www.w3.org/1999/xlink" viewBox="0 0 187.43 199.65"><defs><style>.cls-1{fill:#fff;}.cls-2{fill:url(#Gradiente_sem_nome_2);}.cls-3{fill:url(#Gradiente_sem_nome_2-2);}.cls-4{fill:#1e1e1e;}.cls-5{fill:url(#Gradiente_sem_nome_3);}.cls-6{opacity:0.49;}.cls-6,.cls-8{isolation:isolate;}.cls-7{fill:#06f903;}.cls-8{opacity:0.51;}</style><linearGradient id="Gradiente_sem_nome_2" x1="155.38" y1="66.91" x2="167.06" y2="58.75" gradientTransform="matrix(1, 0, 0, -1, 0, 199.94)" gradientUnits="userSpaceOnUse"><stop offset="0" stop-color="#00f700"/><stop offset="1" stop-color="#009d00"/></linearGradient><linearGradient id="Gradiente_sem_nome_2-2" x1="80.16" y1="171.2" x2="146.47" y2="98.06" xlink:href="#Gradiente_sem_nome_2"/><linearGradient id="Gradiente_sem_nome_3" x1="199.16" y1="39.07" x2="184.5" y2="73.17" gradientTransform="matrix(1, 0, 0, -1, 0, 199.94)" gradientUnits="userSpaceOnUse"><stop offset="0" stop-color="lime"/><stop offset="1" stop-color="#009d00"/></linearGradient></defs><g id="Camada_2" data-name="Camada 2"><g id="Camada_1-2" data-name="Camada 1"><polygon class="cls-1" points="2.31 72.53 43.22 189.43 72.78 196.22 174.62 162.6 184.72 134.38 176.17 103.28 2.31 72.53"/><g id="Camada_2-2" data-name="Camada 2"><g id="Camada_1-2-2" data-name="Camada 1-2"><path class="cls-2" d="M174.62,162.6l-5.3,1.46,1.47-.48,2.35-.79a17.53,17.53,0,0,0,11.39-22l-.12-.36-3.11-8.78h2.57l2.8,9A17.55,17.55,0,0,1,175,162.5Z"/><path class="cls-3" d="M179.59,113.92h-4.42l-32.3-92.59a18.2,18.2,0,0,0-22.94-11L12.2,46.16A18.34,18.34,0,0,1,17.41,43L123,1.32a18.18,18.18,0,0,1,23.5,9.7Z"/><path class="cls-4" d="M134,132.68l20.53-.52L147,171.51l-35.84,11.93L123.6,118a2.31,2.31,0,0,0-.52-2,2.36,2.36,0,0,0-1.87-.75l-15.59.4a3.49,3.49,0,0,0-2.16.85,3.16,3.16,0,0,0-1.22,2.06L88.41,191l-23,7.65a18.16,18.16,0,0,1-22.93-11L39.79,180l2.32-12,33.24-.85a3.52,3.52,0,0,0,2.28-.91,2.87,2.87,0,0,0,1.12-2L81,152.87a2.56,2.56,0,0,0-.46-2.07,2.22,2.22,0,0,0-1.93-.8l-33.24.85,3.14-16.67,35.55-.9a3.78,3.78,0,0,0,2.29-.85,3.21,3.21,0,0,0,1.21-2L89.63,119a2.44,2.44,0,0,0-.46-2,2.32,2.32,0,0,0-1.92-.74l-53.1,1.35a3.6,3.6,0,0,0-2.17.85,3.16,3.16,0,0,0-1.22,2.06l-4.11,21.8L14.83,108.41l-.55-1.56-2.52-7.23-.31-.88-1.33-3.81L8.79,91.11,4.2,78,3.27,75.3,1,68.56A17.55,17.55,0,0,1,11.88,46.28l.35-.12L120,10.31a18.53,18.53,0,0,1,6.53-.94h1.8l.49.07.49.09.67.14.67.17.67.2.65.22c.22.07.43.15.64.24l.48.2.36.16a8.48,8.48,0,0,1,1,.5l.22.12c.15.08.3.16.44.25l.2.12c.31.18.61.38.9.58h.06a18.8,18.8,0,0,1,2.33,1.93l.24.24.15.15c.26.26.5.53.73.81l.05.06c.1.11.19.23.28.34l.23.29.11.15c.06.07.11.15.16.22s.15.21.22.31c.23.33.45.67.65,1l.23.4a.7.7,0,0,1,.09.17l.08.14v.09c.07.13.14.26.2.4a20.54,20.54,0,0,1,.83,2l32.3,92.59-37.91,1a3.54,3.54,0,0,0-2.22.85,3.22,3.22,0,0,0-1.16,2.07l-2.34,12.13a2.3,2.3,0,0,0,2.39,2.75Z"/><path class="cls-5" d="M175.17,113.92l-32.3-92.59A18,18,0,0,0,127.31,9.42a18.11,18.11,0,0,1,18.56,11.91l30.3,92.59Z"/><path class="cls-4" d="M173.14,162.79,169.32,164l6.15-32.44h5.83l3.12,8.78a17.56,17.56,0,0,1-10.91,22.31Z"/><path class="cls-6" d="M33.82,94a1,1,0,0,0-.79-.3h-.77l-6.8.17a2,2,0,0,0-1.14.32,3.24,3.24,0,0,0-.87,1.14,8,8,0,0,1-3.28,4,9.72,9.72,0,0,1-4.59,1.2,5.94,5.94,0,0,1-3.82-1l2.52,7.23.55,1.56h.24a25.43,25.43,0,0,0,7.09-1.07,18.92,18.92,0,0,0,5.57-2.75,15.84,15.84,0,0,0,4-4.24A17.68,17.68,0,0,0,34,94.78.92.92,0,0,0,33.82,94ZM36,76.34a10.15,10.15,0,0,0-3.23-4,14.83,14.83,0,0,0-5.25-2.44,24.4,24.4,0,0,0-6.65-.71,23.17,23.17,0,0,0-9.21,2A16.57,16.57,0,0,0,5.27,76.3c-.4.55-.77,1.12-1.11,1.7L8.79,91.11l1.33,3.82a10.93,10.93,0,0,1,.15-1.39c.48-3.13,1.07-6.2,1.77-9.17a9.34,9.34,0,0,1,3-5.6A8.63,8.63,0,0,1,20.29,77a7.59,7.59,0,0,1,3.55.65,3.51,3.51,0,0,1,.6.33A4.36,4.36,0,0,1,26,81.72v.15a1.63,1.63,0,0,0,.5,1.1,1.59,1.59,0,0,0,1.1.28l7.55-.2a1.24,1.24,0,0,0,.85-.34,1.63,1.63,0,0,0,.46-.83A9.56,9.56,0,0,0,36,76.34Z"/><path class="cls-6" d="M72.71,104.76,66.33,70a1.8,1.8,0,0,0-.5-1,1.57,1.57,0,0,0-1.13-.41h-.25l-8.56.22a2.49,2.49,0,0,0-1.54.5,3.29,3.29,0,0,0-.92,1.08L33.74,105.76v.06a1,1,0,0,0,0,1,1,1,0,0,0,1,.52l7.22-.18a2,2,0,0,0,1.3-.42A3.92,3.92,0,0,0,44,106l3.19-5.63L60.63,100H62l1,5.1.06.31a1.77,1.77,0,0,0,.49.86,1.6,1.6,0,0,0,1.21.35l6.72-.18a1.38,1.38,0,0,0,1-.46A1.2,1.2,0,0,0,72.71,104.76ZM50.85,92.45l.86-1.59,6-11,1-1.92,2.44,14.28Z"/><path class="cls-6" d="M114.66,77a1.92,1.92,0,0,1-.65,1.26,2,2,0,0,1-1.26.57l-7.56.19a1.15,1.15,0,0,1-.55-.1,1,1,0,0,1-.4-.24,6,6,0,0,1-1.63-1.09,9,9,0,0,0-1.77-1.23,5.78,5.78,0,0,0-2.78-.49,5.7,5.7,0,0,0-3.21.93,3.51,3.51,0,0,0-1.5,2.2,2.32,2.32,0,0,0,.26,1.69,4.16,4.16,0,0,0,2.26,1.37,44.71,44.71,0,0,0,5.73,1.27A27.2,27.2,0,0,1,105,84a14.19,14.19,0,0,1,4,1.67,8.28,8.28,0,0,1,3.49,4,9.21,9.21,0,0,1,.42,4.85,11.84,11.84,0,0,1-3.25,6.12,18,18,0,0,1-7,4.26q-.87.31-1.83.57l-.84,4.37a2.15,2.15,0,0,1-2,1.82l-9.8.25a1.54,1.54,0,0,1-1.25-.46,1.42,1.42,0,0,1-.33-1.27l.73-3.83a16.89,16.89,0,0,1-2.63-.57,14.22,14.22,0,0,1-4.89-2.4,8,8,0,0,1-2.48-3,5,5,0,0,1-.51-2.73,2.21,2.21,0,0,1,.73-1.32,2,2,0,0,1,1.26-.57l8.28-.21a1.39,1.39,0,0,1,.4.06.79.79,0,0,1,.33.27,10.75,10.75,0,0,1,1.33,1l.3.25a7.89,7.89,0,0,0,2,1.27,6.18,6.18,0,0,0,2.88.49A7.92,7.92,0,0,0,98,97.93a3.14,3.14,0,0,0,1.83-2.38,2.14,2.14,0,0,0-.31-1.88,5.61,5.61,0,0,0-2.39-1.39A35.2,35.2,0,0,0,91.34,91l-1-.23a22.16,22.16,0,0,1-5.17-1.85,7.84,7.84,0,0,1-3.62-3.53A8.67,8.67,0,0,1,81,80,12.4,12.4,0,0,1,84,74.45,17.85,17.85,0,0,1,90.24,70a21.68,21.68,0,0,1,4.32-1.36l.92-4.83a2.07,2.07,0,0,1,.77-1.3A2.3,2.3,0,0,1,97.61,62l9.81-.25a1.53,1.53,0,0,1,1.18.47,1.46,1.46,0,0,1,.32,1.27l-1.11,5.79a13.56,13.56,0,0,1,3.64,1.94,9.35,9.35,0,0,1,2.63,3A4.82,4.82,0,0,1,114.66,77Z"/><path class="cls-7" d="M34.34,74.82a9.36,9.36,0,0,0-1.58-2.53,13,13,0,0,0-1.63-1.52,14.77,14.77,0,0,0-5.27-2.45,24.68,24.68,0,0,0-6.63-.69,23.23,23.23,0,0,0-9.22,2,16.4,16.4,0,0,0-6.34,5.15c-.14.18-.27.38-.4.57L4.2,78,8.79,91.11q.66-4.22,1.6-8.27a9.39,9.39,0,0,1,3-5.59,8.61,8.61,0,0,1,5.24-1.78,7,7,0,0,1,4.13,1,3.09,3.09,0,0,1,1,1.19,5.81,5.81,0,0,1,.56,2.69A1.7,1.7,0,0,0,25,81.42a1.65,1.65,0,0,0,1.08.26h0l7.52-.19a1.19,1.19,0,0,0,.85-.35,1.57,1.57,0,0,0,.46-.81A9.54,9.54,0,0,0,34.34,74.82ZM32.18,92.5a1,1,0,0,0-.79-.31l-7.56.2a2.06,2.06,0,0,0-1.16.33,3.08,3.08,0,0,0-.85,1.14,8.11,8.11,0,0,1-3.28,4A9.68,9.68,0,0,1,14,99a7.29,7.29,0,0,1-2.5-.32l.31.88,2.52,7.23a24.94,24.94,0,0,0,6.24-1,19.48,19.48,0,0,0,5.58-2.75,15.84,15.84,0,0,0,4-4.24,16.49,16.49,0,0,0,2.16-5.09c0-.14.07-.28.1-.43A.86.86,0,0,0,32.18,92.5Z"/><path class="cls-7" d="M71.07,103.25,64.7,68.59v-.06a1.84,1.84,0,0,0-.5-1A1.77,1.77,0,0,0,62.82,67l-8.56.22a2.52,2.52,0,0,0-1.55.5,3.37,3.37,0,0,0-.91,1.08L32.11,104.24a1,1,0,0,0,0,1.09,1,1,0,0,0,1,.51h.67l6.55-.16a2,2,0,0,0,1.3-.41,3.86,3.86,0,0,0,.73-.78l3.19-5.62,14.84-.38L60.7,100l.78,3.86a1.77,1.77,0,0,0,.49.86,1.48,1.48,0,0,0,1.09.35h.12l6.73-.17a1.38,1.38,0,0,0,1-.46A1.19,1.19,0,0,0,71.07,103.25Zm-14-26.86.58,3.43,1.9,10.84-7.84.2-2.49.07Z"/><path class="cls-7" d="M113,75.48a1.91,1.91,0,0,1-.66,1.26,2,2,0,0,1-1.26.57l-7.55.19a1.28,1.28,0,0,1-.55-.09,1.14,1.14,0,0,1-.41-.24,6,6,0,0,1-1.63-1.1,9,9,0,0,0-1.77-1.23,5.78,5.78,0,0,0-2.78-.49,5.7,5.7,0,0,0-3.21.93,3.52,3.52,0,0,0-1.5,2.24,2.29,2.29,0,0,0,.24,1.7,4.06,4.06,0,0,0,2.25,1.36A45.39,45.39,0,0,0,100,81.85a28.18,28.18,0,0,1,3.39.66,14.56,14.56,0,0,1,4.06,1.67,8.32,8.32,0,0,1,3.48,4A9.18,9.18,0,0,1,111.3,93a11.66,11.66,0,0,1-3.25,6.12,18,18,0,0,1-7,4.26c-.59.21-1.2.4-1.84.58l-.83,4.36a2.12,2.12,0,0,1-.72,1.3,2.16,2.16,0,0,1-1.34.52l-9.8.25a1.54,1.54,0,0,1-1.25-.46,1.43,1.43,0,0,1-.32-1.27l.72-3.82a19.55,19.55,0,0,1-2.63-.57,14.4,14.4,0,0,1-4.89-2.4,8.38,8.38,0,0,1-2.48-3,5,5,0,0,1-.51-2.72A2.21,2.21,0,0,1,76,94.78a2,2,0,0,1,1.26-.57L85.47,94a1.39,1.39,0,0,1,.4.06,1,1,0,0,1,.33.27,12,12,0,0,1,1.34,1c.09.09.2.17.3.26a7.85,7.85,0,0,0,2,1.26,6.22,6.22,0,0,0,2.89.49,8,8,0,0,0,3.61-.87A3.18,3.18,0,0,0,98.11,94a2.12,2.12,0,0,0-.3-1.87,5.6,5.6,0,0,0-2.4-1.4,34.88,34.88,0,0,0-5.71-1.27l-1-.23a22.07,22.07,0,0,1-5.18-1.85,7.79,7.79,0,0,1-3.62-3.53,8.66,8.66,0,0,1-.5-5.41,12.3,12.3,0,0,1,2.9-5.54,17.79,17.79,0,0,1,6.31-4.46A22.73,22.73,0,0,1,93,67.11l.92-4.83a2.08,2.08,0,0,1,.76-1.3A2.27,2.27,0,0,1,96,60.45l9.8-.25a1.46,1.46,0,0,1,1.18.47,1.41,1.41,0,0,1,.32,1.27l-1.11,5.79a13.71,13.71,0,0,1,3.64,1.94,9.24,9.24,0,0,1,2.63,3A4.94,4.94,0,0,1,113,75.48Z"/><path class="cls-8" d="M157.37,66.59a1.25,1.25,0,0,0-1-.36H156l-6.69.18a1.75,1.75,0,0,0-1.08.4,1.59,1.59,0,0,0-.55,1L145.13,81l-13.73.35.3-1.57L134,68.16a1.14,1.14,0,0,0-.25-1,1.23,1.23,0,0,0-1-.35h-.48l-6.69.17a1.74,1.74,0,0,0-1,.41,1.52,1.52,0,0,0-.58,1l-6.69,35.28v.2a1.07,1.07,0,0,0,.25,1,1.1,1.1,0,0,0,.9.36l7.17-.18a1.7,1.7,0,0,0,1.07-.41,1.63,1.63,0,0,0,.56-1L129.8,90l11.73-.3h1.94L141,103.1v.2a1.13,1.13,0,0,0,.22,1,1.09,1.09,0,0,0,.93.36l7.16-.19a1.66,1.66,0,0,0,1.08-.4,1.63,1.63,0,0,0,.56-1l6.78-35.48A1.12,1.12,0,0,0,157.37,66.59Z"/><path class="cls-7" d="M155.73,65.07a1.14,1.14,0,0,0-.95-.35l-7.17.18a1.7,1.7,0,0,0-1.08.41,1.59,1.59,0,0,0-.55,1l-2.49,13.15-11.79.3h-1.94l2.5-13v-.2a1.17,1.17,0,0,0-.24-1,1.23,1.23,0,0,0-1-.35l-7.17.18a1.82,1.82,0,0,0-1,.41,1.52,1.52,0,0,0-.58,1l-6.73,35.48a1.07,1.07,0,0,0,.25,1,1.1,1.1,0,0,0,.9.36h.53l6.64-.17a1.64,1.64,0,0,0,1.07-.41,1.52,1.52,0,0,0,.56-1l2.64-13.59,13.67-.35-.3,1.56-2.28,12a1.13,1.13,0,0,0,.22,1,1.09,1.09,0,0,0,.93.36H141l6.64-.17a1.7,1.7,0,0,0,1.07-.41,1.52,1.52,0,0,0,.56-1L156,66.24V66A1.07,1.07,0,0,0,155.73,65.07Z"/></g></g></g></g></svg>