<svg xmlns="http://www.w3.org/2000/svg" viewBox="0 0 1018.75 1023.08"><defs><style>.cls-1{fill:#FFF;}</style></defs><g id="Camada_2" data-name="Camada 2"><g id="Camada_1-2" data-name="Camada 1"><path class="cls-1" d="M120.51,932l649,89.76c76.43,10.57,147-43.15,157.63-120l90.23-652.43C1028,172.51,974.68,101.65,898.24,91.08l-649-89.75c-76.43-10.57-147,43.14-157.64,120L1.35,773.73C-9.28,850.56,44.07,921.42,120.51,932ZM694.39,135.31C900.9,238.14,985.13,489.88,882.52,697.57A418.61,418.61,0,0,1,585.35,923.75ZM566.59,96.22a459.61,459.61,0,0,1,86,21.28C623,328.22,396.58,474.3,187.21,445.35l-87.6-12.12C144,218.6,346.45,65.77,566.59,96.22ZM181.22,488.68c209.37,28.95,387.77,230.24,358.62,441A475,475,0,0,1,451.27,927c-219.78-30.72-379.12-234-357.65-450.39Z"/></g></g></svg>