<svg xmlns="http://www.w3.org/2000/svg" viewBox="0 0 1027.05 1023.86"><defs><style>.cls-1{fill:#6a5acd;}.cls-2,.cls-3{fill:#f6f6f6;}.cls-3{font-size:179.88px;font-family:Montserrat-Black, Montserrat;font-weight:800;letter-spacing:0.15em;}</style></defs><g id="Camada_2" data-name="Camada 2"><g id="Camada_1-2" data-name="Camada 1"><rect class="cls-1" x="36.34" y="36.34" width="951.17" height="951.17" rx="190.05" transform="translate(74.71 -65.12) rotate(7.85)"/><path class="cls-2" d="M884,680.6q62.75-37.47,93.1-96.61t23.77-134.61Q994,371,951.27,316.21t-115-80q-72.19-25.23-166.48-17L412.83,241.59a26.47,26.47,0,0,0-24.07,28.66l20.45,234.68-196,18.5L192.75,288.75a26.47,26.47,0,0,0-28.66-24.07L43.28,275.21a26.46,26.46,0,0,0-24.06,28.66L75.16,946A26.47,26.47,0,0,0,103.83,970l120.8-10.52a26.47,26.47,0,0,0,24.07-28.67L227.38,686.24l196-18.5,21.32,244.61a26.46,26.46,0,0,0,28.66,24.07h0A235.43,235.43,0,0,1,640.79,693.63L677.65,717,674.7,888.27l35.81,30,.34.29.32-.41L741,879.3l-32.25-165L739.81,686c105.64,14.27,191.25,99.4,202.32,209.58l60.71-5.29c21.22-1.85,31.67-26.73,18.14-43.18ZM682.26,610.41A133.24,133.24,0,0,1,536.73,488.15C531.08,416,584.82,352,656.82,345.13a133.26,133.26,0,0,1,145.59,122.2C808,538.36,753.19,603.64,682.26,610.41Z"/><text class="cls-3" transform="translate(20.76 200.71) rotate(-4.98)">MY</text></g></g></svg>