<svg xmlns="http://www.w3.org/2000/svg" viewBox="0 0 988.35 914.53"><defs><style>.cls-1{fill:#fff;}.cls-2{fill:#feb688;}.cls-3{fill:#bf8c55;}.cls-4{fill:#93632a;}.cls-5{fill:#278f51;}.cls-6{fill:#32b768;}.cls-7{fill:#bb8b7f;}.cls-8{fill:#fee7d8;}</style></defs><g id="Camada_2" data-name="Camada 2"><g id="Camada_1-2" data-name="Camada 1"><path class="cls-1" d="M987.52,190.44,901.07,835A91.79,91.79,0,0,1,797.9,913.71l-216.13-29L153.4,827.26a91.78,91.78,0,0,1-79.54-88.33c0-.56,0-1.12,0-1.69a91.5,91.5,0,0,1,.82-13.15l1-7.2,5.46-40.62L93.44,583.9l3.94-29.28,44.36-330.79L161.08,79.6A91.8,91.8,0,0,1,264.26.82L908.75,87.28A91.77,91.77,0,0,1,987.52,190.44Z"/><path class="cls-2" d="M876.38,657Q741.26,723.51,606,789.83c-32.07,15.76-64.14,15.85-96.95,1.76-61.5-26.41-123.36-52-184.84-78.38-22.61-9.71-45-12.82-68.93-5.52-9.38,2.87-110.23,26.43-216.5,53.07A31.2,31.2,0,0,1,.29,726.35L1,720.87l12.84-95.73a31.2,31.2,0,0,1,23-26c127.81-33.48,256.06-64.86,279.22-71.27,23.5-6.5,46.77-4,69.72,3.67,19,6.34,38.22,12.24,57.32,18.33,18.6.62,34.74,9.43,51.5,15.9,11.19,4.33,22.17,7.14,34.39,6.22,28.22-2.14,56.45-4,84.63-6.64,3.92-.36,7.86-.34,11.77-.72,35.32-3.35,63.52,21,57.36,60.53-1.39,8.9,2,8.9,8.94,7,43.33-11.62,86.45-24,129.7-35.93,11.77-3.24,23.46-6.16,35.72-6.26,22-2,36.75,6.57,41.84,24.13C904,631.41,895.79,647.44,876.38,657Z"/><path class="cls-3" d="M690.19,625.59a18.32,18.32,0,0,0,.5-3.05c1.52-19-3.34-35.19-14-46.78-11.22-12.15-28.32-18.57-49.46-18.57a121.48,121.48,0,0,0-14,.85c-23.83,2.79-48.29,4.58-72,6.31-8.27.61-16.54,1.21-24.81,1.86a21.91,21.91,0,0,1-3.56-1.12c-15.4-5.8-31-11.75-46.24-17.54.41-.65.8-1.33,1.15-2,3.56-7.14,3-15.77-1.71-26.36-7.86-17.66-5-31.59,8.59-42.58a27.53,27.53,0,0,1,17.52-6.54c7.29,0,15.1,2.89,23.21,8.6,6.33,4.46,12.64,6.73,18.76,6.73,5.5,0,19-2.14,25.29-21.9,7.22-22.62,24.76-36.13,46.91-36.13h.76c22,.29,39.55,14.89,45.93,38.08,1.22,4.41,4.91,17.82,20,20.73a33.15,33.15,0,0,0,6.24.62c8.86,0,16.45-3.89,22.54-11.56,8.52-10.7,17.26-15.91,26.72-15.91a35.66,35.66,0,0,1,13.09,2.79c14,5.58,20.84,18.89,19.17,37.47-.82,9,1.2,16.21,6,21.45,5.11,5.6,12.65,8.32,23,8.32.8,0,1.62,0,2.47-.05s1.67,0,2.48,0c12.71,0,29.06,4,34.73,22.8,1.24,4.1,1,8.7.83,14,0,.84-.07,1.68-.1,2.52-.24,7.15.5,12.79,2.52,17.26l-15.48,4.31c-40.23,11.21-81.83,22.79-122.8,34A40.42,40.42,0,0,0,690.19,625.59Z"/><path class="cls-4" d="M606.37,437.85H607c17.09.23,30.87,11.87,36,30.37,5.48,19.92,18.31,26.36,28.1,28.25a44.13,44.13,0,0,0,8.23.81c8.4,0,20.56-2.7,30.76-15.52,8.52-10.71,14.64-11.95,18.5-11.95a25.45,25.45,0,0,1,9.21,2c12,4.76,13.45,17.19,12.59,26.78-1.36,15,4,24.32,8.69,29.47,7.12,7.79,17.48,11.74,30.79,11.74q1.41,0,2.88-.06c.7,0,1.39,0,2.07,0,18,0,22.7,8.75,24.68,15.33.72,2.41.57,6.2.39,10.58,0,.85-.07,1.71-.1,2.57a66.32,66.32,0,0,0,.37,10.25L814.51,580c-37.08,10.33-75.33,21-113.16,31.32-.85-16.9-6.63-31.51-17-42.72-9.25-10-26.67-21.95-57.18-21.95h0a131.24,131.24,0,0,0-15.18.92c-23.6,2.76-48,4.55-71.5,6.27-7.54.55-15.31,1.12-23,1.72l-.91-.34c-12.13-4.56-24.39-9.22-36.49-13.83,2.12-11.84-2.62-22.5-4.42-26.53-7.39-16.62-1.32-24.56,5.59-30.13a17.08,17.08,0,0,1,10.93-4.22c5,0,10.94,2.31,17.16,6.69,8.14,5.73,16.49,8.64,24.81,8.64,16.26,0,29.46-10.92,35.3-29.2,2.93-9.2,7.9-16.67,14.36-21.6a36.23,36.23,0,0,1,22.54-7.23m0-21c-26.87,0-48.24,16.29-56.91,43.44-3.07,9.62-8.47,14.59-15.29,14.59-3.84,0-8.14-1.59-12.72-4.81-10-7-19.86-10.52-29.25-10.52a37.84,37.84,0,0,0-24.11,8.87c-17.35,14-21.37,33-11.59,55,6.68,15,2.79,22.71-13.36,26.4q33,12.57,66.05,25.08a21.86,21.86,0,0,0,7.29,1.8c.23,0,.46,0,.68,0,32.45-2.54,65-4.43,97.28-8.21a110.39,110.39,0,0,1,12.75-.78c36.88,0,55.64,21.31,53,54-.47,5.85-8.25,12.6-2,16.61a6.76,6.76,0,0,0,3.74,1c4.7,0,10.29-3.75,15.24-5.1,53.37-14.55,106.64-29.48,159.94-44.29-14.06-3.13-16.93-6.81-16.44-21,.23-6.68.81-13.34-1.17-19.93-5.85-19.41-21.9-30.28-44.79-30.28-1,0-1.91,0-2.89.06-.7,0-1.39,0-2.06,0-13.8,0-19.69-5.84-18.57-18.32,2.09-23.15-7.38-40.88-25.74-48.18a45.92,45.92,0,0,0-17-3.53c-12.74,0-24.3,6.5-34.93,19.87-4.1,5.16-8.75,7.6-14.33,7.6a23,23,0,0,1-4.26-.43c-7.1-1.37-10-6.69-11.82-13.2-7.61-27.63-29.47-45.45-55.92-45.8Z"/><path class="cls-5" d="M632.18,277c.21,6.75-5.78,6-9.3,6.66-60.12,11.76-120.07,14.11-179.66-3.61C377.63,260.52,331.33,218.94,303,157.27,281.48,110.52,272.4,60.83,270.64,9.65c4.16-.13,5.09,3.34,6.27,6,15.16,34.9,43.67,55.89,75.88,73,40.37,21.47,83.09,37.85,124.56,56.95,41,18.9,80,41.11,112.78,72.36C607.59,234.71,624.74,252.66,632.18,277Z"/><path class="cls-6" d="M632.18,277c-10.57-14.07-19.54-29.16-31.22-42.62-23.35-26.89-52-46.29-82.35-63.8-53.26-30.74-112-49.83-166.33-78.34-26-13.67-49.59-30.28-67.11-54.39-6.29-8.64-9.66-18.8-14.53-28.17-.81-5.34-1.41-9.57,6.71-6.28,46.87,19,97,22.25,146.23,29.92,30.72,4.79,61.22,10.17,90.36,21.6,47.91,18.78,80.47,52.4,98.15,100.59C626.48,194.71,631.85,235.42,632.18,277Z"/><path class="cls-5" d="M876.12,173.19c6.22,21.54,1.88,42.39-4.72,62.87-15.8,49.06-65.18,69.36-104.79,72.62-4.19.35-6.05-1.2-6-5,0-5-1.31-10.23,1.73-14.91,3.29,1.74,2.4,5.54,4.43,8.89,20.14-22.79,39.31-46,58.85-68.92,13.53-15.84,27.34-31.48,40.2-47.89C868.61,177.26,872.34,175.27,876.12,173.19Z"/><path class="cls-6" d="M876.12,173.19l-112.74,134c-.49-8.58-.77-13.5-1-18.42C764.59,222.44,812.48,180.39,876.12,173.19Z"/><path class="cls-7" d="M455.19,672c23.23-.46,46.06-.36,68.81.63,47.74,2.09,92.45-12,137.79-23.2,2.47-.61,4.92-4,7.4-1.25s.46,5.91-.73,8.81c-6.16,15.06-16.26,25.72-32.37,30.32-20.78,5.91-41.31,13-62.92,15.13-12.67,1.27-24.83-2.61-36.9-6.26C509.27,688.06,482.22,680.09,455.19,672Z"/><path class="cls-8" d="M656.19,612.12c.29,7.73-3.22,13.61-9.06,18.18-10.15,7.94-19,5.5-23.35-6.59-1.56-4.36-3.08-9.08-3-13.61.13-8.09-4.89-19.17,9.85-20.58,12-1.15,23.16,6.64,25.24,17.93A42.41,42.41,0,0,1,656.19,612.12Z"/></g></g></svg>