<svg xmlns="http://www.w3.org/2000/svg" viewBox="0 0 945.12 981.84"><defs><style>.cls-1{fill:#9146ff;}.cls-2{fill:#541bc1;}.cls-3{fill:#fff;}</style></defs><g id="Camada_2" data-name="Camada 2"><g id="Camada_1-2" data-name="Camada 1"><path class="cls-1" d="M943.91,249.35,856.7,885.46c-8.14,59.41-55.16,102.26-105,95.72L76.75,892.6c-49.87-6.55-83.68-60-75.54-119.41L88.42,137.08c8.14-59.4,55.16-102.26,105-95.72l674.93,88.58c39,5.13,68.23,39,75.16,82A122.59,122.59,0,0,1,945.11,230,130.55,130.55,0,0,1,943.91,249.35Z"/><path class="cls-2" d="M192.26,856.33l-13.45-644.7c-.48-101.29,118-159.16,200.42-97.89l507.5,320c65.38,48.59,65.84,144.64.93,193.86l-494,324.74C311.77,1014.35,192.75,957.62,192.26,856.33Z"/><path class="cls-3" d="M161.56,799.38l-14-671.3C147.05,22.6,270.41-37.65,356.25,26.15L884.7,359.3c68.07,50.6,68.55,150.61,1,201.86L371.23,899.31C286,963.93,162.07,904.86,161.56,799.38Z"/></g></g></svg>