<svg xmlns="http://www.w3.org/2000/svg" viewBox="0 0 1024 1028.85"><defs><style>.cls-1{fill:#314019;}.cls-2{fill:#c19c75;}.cls-3{fill:#c19c75;}</style></defs><g id="Camada_2" data-name="Camada 2"><g id="Camada_1-2" data-name="Camada 1"><path class="cls-1" d="M785.55,1027.66l-672-90.57C41.86,927.44-8.43,861.26,1.18,789.27L91.32,114c9.61-72,75.48-122.51,147.13-112.86L910.5,91.75c71.64,9.66,121.93,75.84,112.32,147.83L932.68,914.81C923.07,986.79,857.2,1037.32,785.55,1027.66Z"/><g id="Camada_2-2" data-name="Camada 2"><g id="Camada_1-2-2" data-name="Camada 1-2"><path class="cls-2" d="M289.34,796.07a70.36,70.36,0,0,0-64,0A57,57,0,0,0,203,817.42a61.19,61.19,0,0,0,0,60.77,56.91,56.91,0,0,0,22.36,21.36,70.77,70.77,0,0,0,64-.18,61.42,61.42,0,0,0,7.27-4.61v-94A57,57,0,0,0,289.34,796.07Zm-.89,70.72a33.37,33.37,0,0,1-12.76,13,38.16,38.16,0,0,1-36.51,0,33.34,33.34,0,0,1-12.75-13,40.93,40.93,0,0,1,0-38A33.52,33.52,0,0,1,239.18,816a38.09,38.09,0,0,1,36.51,0,33.62,33.62,0,0,1,12.76,12.81A41.34,41.34,0,0,1,288.45,866.79Z"/><path class="cls-2" d="M369.21,905.14l-22-31.94H323v31.94H296.61V790.47H346a63.57,63.57,0,0,1,26.35,5,39.53,39.53,0,0,1-.25,72.6L397.6,905Zm-6.59-87.72a27.55,27.55,0,0,0-18.07-5.17H323v40h21.55A27.24,27.24,0,0,0,362.62,847,20.7,20.7,0,0,0,363,817.8Z"/><path class="cls-2" d="M494.55,884.43l10.25,21.35H416.43V791.07h96.1l-7.77,21.35H442.7v24.9h37.95V858H442.7v26.52Z"/><path class="cls-2" d="M525.84,791.07h26.39V905.74H525.84Z"/><path class="cls-2" d="M684,791.07V905.74H662.49l-57.12-69.66v69.66H579.31V791.07h21.85l56.7,69.61V791.07Z"/><path class="cls-2" d="M734.24,900a56.55,56.55,0,0,1-22.31-21.35,61.19,61.19,0,0,1,0-60.77,56.64,56.64,0,0,1,22.31-21.36,70.49,70.49,0,0,1,64,0,57.88,57.88,0,0,1,22.31,21.36,58.58,58.58,0,0,1-19.41,80.29c-.95.58-1.92,1.13-2.9,1.66a70.12,70.12,0,0,1-64,0Zm50.29-19.56a33.66,33.66,0,0,0,12.75-13,41.34,41.34,0,0,0,0-38,33.68,33.68,0,0,0-12.75-13,38.12,38.12,0,0,0-36.52,0,33.68,33.68,0,0,0-12.75,13,41.34,41.34,0,0,0,0,38,33.59,33.59,0,0,0,12.75,13A38.07,38.07,0,0,0,784.53,880.41Z"/><path class="cls-3" d="M666.74,648.64c-22.1-13.71-48.66-21.35-76.08-29.89-29.75-9.65-31.24-12.81-14.28-41.73a173.21,173.21,0,0,0,24.18-104.29,102.63,102.63,0,0,0-6.08-26.09q-13.89,2.57-27.88,4.27A81.27,81.27,0,0,1,572,466.54c6.93,29,2,57.61-11.48,85.42-4.25,9.22-10.33,17.76-14.62,27.24-14.45,31.18-6.42,52.19,24.69,62.23,25.89,8.11,51,15.8,72.6,27.88,6.46,3.59,15.82,5.38,12.76,16.62s-13.14,8.54-19.73,10a498.53,498.53,0,0,1-121.73,13.75,508,508,0,0,1-121.74-14.43c-5.65-1.37-13.73.38-16.7-7.94-3.79-10.25,4-12.82,10-16.45,20.36-11.74,43.82-19.13,68.3-26.56,42-13.41,49.73-35.92,25.5-76.87C462,536.54,453.15,504.68,459,470.56a77.34,77.34,0,0,1,6-19.9q-13.9-1.61-27.63-4.28a120.56,120.56,0,0,0-6.42,52,195.89,195.89,0,0,0,25.84,80.33c15.69,27.59,14.33,30.88-12.75,39.25a694.29,694.29,0,0,0-67.2,23.66c-20.32,8.54-30.56,21-28.1,48.13,1.36,14.61,3.45,20.8,18.41,25.24a540.36,540.36,0,0,0,147,21.35,490.78,490.78,0,0,0,151.24-22.12c5.23-1.66,12.45.3,15.73-10.12C687.23,686.18,679.5,656.8,666.74,648.64Z"/><path class="cls-2" d="M615.27,198.77c-15.81,16.49-26,18.92-39.06-1.75-14.2-22.51-32.14-42.71-47.31-65.6-9.1-13.66-15.73-13.28-24.57,0-14.2,21.36-30.82,40.36-43.74,61.71-15.13,25.16-28.56,21.36-46.37,1.58s-37-39.71-63.12-55.51c6.12,64.06,11.56,126.24,17,190,.94,11,8.5,14.18,15.94,16.79a402,402,0,0,0,263.53,1c9.74-3.33,16.62-7.43,17.73-21.35,5.14-62.95,11.22-124.45,17.64-187.44C655.57,154.44,636,177.2,615.27,198.77Zm23.51,106.51c-.34,10.55-7.57,14.22-15.65,16.1a468,468,0,0,1-211.84,0c-9.31-2.18-15.26-5.64-16.2-18.06-2.17-29.9-5.4-59.28-8.75-93.7,15.47,14.9,28.56,25.62,39.19,38.86,14.32,17.94,23.76,14.82,34.81-1.11,14.49-20.84,31.2-40.7,45.61-62.82,8.5-13.28,13.43-12.13,21.76.51,16,24.39,34,46.55,50.5,68.89,7.77,10.59,13.64,12.21,23.59.47,11.81-13.88,25.5-26,41.69-42.07C646.94,246.09,639.75,275.81,638.78,305.28Z"/><path class="cls-3" d="M350.21,593.55a289.5,289.5,0,0,0-55.81,31.09c-3.57,2.48-9.27,4.27-6.89,10.76,2,5.21,7.35,4.28,11.39,4.79s9.31,1.11,13.94,1.28a69.09,69.09,0,0,0-16.53,24.77,17.53,17.53,0,0,1-5.74-1c-10.07-4-26.35,1.71-28.9-13.53-2.81-17.09-7-37.07,9.82-46.64,20.19-11.91,43.22-22.46,67.75-34.51s24.31-13.62,10.58-34.59c-18.66-29.47-26.48-63.21-17.25-99.59.63-2.61,4.59-15.16,7.69-24.64a106.09,106.09,0,0,0,23,13.75c-6.75,11.27-9.69,25.62-8.5,43.69a94.88,94.88,0,0,0,18.32,50.69C392.46,544.44,387.65,576.64,350.21,593.55Z"/><path class="cls-3" d="M739,665.3a70.94,70.94,0,0,0-16.45-24.09l1.62-.42c7-1.88,17.85,3.67,20.19-7,2-8.54-8.5-10.55-14.75-14.44C713.5,609,695.18,600.51,676.82,590c-31.5-19.09-37.58-40.79-20-66.16,12.75-19,21.55-40.57,20-66.92a73,73,0,0,0-8.5-31.34,104.83,104.83,0,0,0,25.25-16.15,333.87,333.87,0,0,1,8.71,42.45c2.47,30.92-2.93,60.6-20.74,84.39-10.84,14-10.84,24.52,9.94,33.57a437,437,0,0,1,61.21,30.41c8.5,5.25,17.51,8.54,18.32,21.78C773,653.94,774.07,659,739,665.3Z"/><path class="cls-2" d="M473.51,403.17a68.84,68.84,0,0,0-7.82,7.55A449.76,449.76,0,0,1,352.2,377.8a4.27,4.27,0,0,1,3-8l.3.13A450.86,450.86,0,0,0,473.51,403.17Z"/><path class="cls-2" d="M678.56,377.88c-.68.22-43.61,21.91-112.38,31.52a69.11,69.11,0,0,0-8.25-7.52c71-8.84,116.72-31.64,117.4-31.94a4.29,4.29,0,0,1,3.23,7.94Z"/><path class="cls-2" d="M543.9,420.25l-2.21,2.22a23.71,23.71,0,0,0-4-.39,19.43,19.43,0,0,0-19.38,19.48v0a24,24,0,0,0,.38,4h0l-2.25,2.27-2.3-2a25.48,25.48,0,0,0,.38-4.27,19.42,19.42,0,0,0-19.38-19.47,26.43,26.43,0,0,0-4.25.38L489,420.25l2.08-2.14a21.65,21.65,0,0,0,4.25.43A19.47,19.47,0,0,0,514.7,399a25.68,25.68,0,0,0-.38-4l2.29-2.31,2.26,2.31h0a23.58,23.58,0,0,0-.39,3.93,19.47,19.47,0,0,0,19.39,19.51,20.15,20.15,0,0,0,4-.42h0Z"/></g></g></g></g></svg>