<svg xmlns="http://www.w3.org/2000/svg" viewBox="0 0 921.12 1018.48"><defs><style>.cls-1{fill:#f2f2fc;}.cls-2{fill:#d3b124;}.cls-3{fill:#6a5acd;}</style></defs><g id="Camada_2" data-name="Camada 2"><g id="Camada_1-2" data-name="Camada 1"><rect class="cls-1" x="48.57" y="66.71" width="831.18" height="831.18" rx="136.38" transform="translate(68.24 -57.43) rotate(7.64)"/><path class="cls-2" d="M762.47,788.83a37.58,37.58,0,0,1-22.22-63.12A382.37,382.37,0,0,0,842.51,511.8c28.26-210.62-120.1-405-330.7-433.19S106.9,198.72,78.65,409.34a382.47,382.47,0,0,0,42.27,233.3,37.57,37.57,0,0,1-66.19,35.57A457.15,457.15,0,0,1,4.16,399.34c33.76-251.68,266-429,517.64-395.22s429,266,395.2,517.67A457.23,457.23,0,0,1,794.74,777.47,37.52,37.52,0,0,1,762.47,788.83Z"/><path class="cls-3" d="M440.16,612.77C341.52,599.54,272,508.53,285.26,409.88S389.51,241.75,488.15,255s168.14,104.25,154.91,202.9S538.81,626,440.16,612.77Zm38-283.31a105.35,105.35,0,1,0,90.41,118.42A105.47,105.47,0,0,0,478.16,329.46Z"/><path class="cls-3" d="M399.36,917A459.18,459.18,0,0,1,131.78,783h0a37.57,37.57,0,0,1,5.38-57.12h0a420.13,420.13,0,0,1,232.19-75.65,428.59,428.59,0,0,1,65.29,3.7,421.42,421.42,0,0,1,268,147.8h0a37.57,37.57,0,0,1-9.86,56.52h0C603.54,910.44,502.07,930.76,399.36,917ZM221.44,762.78a384.16,384.16,0,0,0,133.21,68.35,389.4,389.4,0,0,0,54.7,11.37c69.77,9.36,138.85-.08,202.32-27.32a346.37,346.37,0,0,0-187-86.78,352,352,0,0,0-53.76-3.06A344.64,344.64,0,0,0,221.44,762.78Z"/><path class="cls-3" d="M466.59,888.08l-68.48,124.07a12.24,12.24,0,0,1-22.62-3L342.12,871.39l2.24-4.13,58.75-107.73a12,12,0,0,0,0-11.56l-33-60.2A391.08,391.08,0,0,1,488,703.58L440.3,753a12,12,0,0,0-3.06,11.14l28.28,119.42Z"/></g></g></svg>