<svg xmlns="http://www.w3.org/2000/svg" fill="none" width="200" height="80" viewBox="0 0 1024 1024"><defs><style>.cls-1{fill:#444394;}.cls-2{fill:#fbae17;}.cls-3{fill:#fff;}</style></defs><g id="Camada_2" data-name="Camada 2"><g id="Camada_1-2" data-name="Camada 1"><g id="Camada_2-2" data-name="Camada 2"><g id="Camada_1-2-2" data-name="Camada 1-2"><rect class="cls-1" width="1024" height="1024" rx="103.68"/><g id="b17a9f4f-c408-47a9-bf5f-efd386225291"><g id="a6558fe5-ccb8-47c7-a172-7ececf87f5b0"><path class="cls-2" d="M426,146.29V300.54H235V162.3a16,16,0,0,1,16-16Z"/><path class="cls-3" d="M234.94,353.94V598.08l.06,0V832.68a16,16,0,0,0,16,16H512.43a568.08,568.08,0,0,0,79.05-5.54,385.15,385.15,0,0,0,119.2-36.3,293.29,293.29,0,0,0,127.12-121q44.15-78.95,44.14-189.6-.62-109.62-45-188.1a297.23,297.23,0,0,0-127.73-120.6q-83.07-41.92-199.48-41.93H469.3V297.06c51-13.45,117.81-3.33,155.52,25.67a147.27,147.27,0,0,1,12.28,8.78,142,142,0,0,1,12.06,10.81,140.15,140.15,0,0,1,10.74,12.11,147.19,147.19,0,0,1,9.43,13.43,159.7,159.7,0,0,1,8.11,14.73,168.61,168.61,0,0,1,6.83,16c2.1,5.69,3.94,11.49,5.53,17.35,1.68,6.15,3.08,12.38,4.26,18.65q1.86,9.95,3,20,1.28,11.08,1.8,22.21a29.68,29.68,0,0,1-.46,7.7,3.66,3.66,0,0,0-.24,1.31.6.6,0,0,0,.16.33q4.09,2.34,8.07,4.87-2.46-1.56-4.95-3c-.83-.5-1.67-1-2.5-1.47a2.21,2.21,0,0,1-.62-.4l-1.54-.87a338.93,338.93,0,0,0-36-17.42A609.07,609.07,0,0,0,544.68,434a598,598,0,0,1-85.45-23.1,89.69,89.69,0,0,1-38.15-23.08,41.9,41.9,0,0,1-9.93-27.17,53.87,53.87,0,0,1,.44-6.71ZM596.94,683a62,62,0,0,1-15,10.89q-29.62,15.95-87.1,15.94H486c-25.13,1-49.41-1.88-73-9.5-1.48-.49-3-1-4.44-1.51V559.61c21.7,6.26,46,12.11,72.8,17.39a561.09,561.09,0,0,1,80.83,22,94.56,94.56,0,0,1,38.59,23.38,44.83,44.83,0,0,1,10.54,28.31A42.36,42.36,0,0,1,596.94,683Z"/><path class="cls-3" d="M706.39,491q-2.46-1.56-4.95-3c-.83-.5-1.67-1-2.5-1.47a2.21,2.21,0,0,1-.62-.4Q702.42,488.43,706.39,491Z"/><path class="cls-3" d="M425.83,300.54H254.13l-.21-.3A189.25,189.25,0,0,1,277.74,255a234.43,234.43,0,0,1,96.7-76.74,298.69,298.69,0,0,1,47-16.58l4.51-1.13Z"/><path class="cls-3" d="M698.32,486.09a2.21,2.21,0,0,0,.62.4c.83.47,1.67,1,2.5,1.47q2.49,1.44,4.95,3Q702.42,488.42,698.32,486.09Z"/></g></g></g></g></g></g></svg>