<svg xmlns="http://www.w3.org/2000/svg" fill="none" width="200" height="80" viewBox="0 0 1024 1024"><defs><style>.cls-1{fill:#e9edff;}.cls-2{fill:#444394;}.cls-3{fill:#fbae17;}.cls-4{fill:#5d58a1;}</style></defs><g id="Camada_2" data-name="Camada 2"><g id="Camada_1-2" data-name="Camada 1"><rect class="cls-1" width="1024" height="1024" rx="103.68"/><path class="cls-2" d="M408.55,549.46V709L235,610.47V597.13l-.06,0V352.94h7.58s-1.9,23.72,5.3,59.34,25.39,65.56,65.56,95.5S408.55,549.46,408.55,549.46Z"/><g id="a6558fe5-ccb8-47c7-a172-7ececf87f5b0"><path class="cls-2" d="M881.94,495.24q0,110.65-44.14,189.6a293.29,293.29,0,0,1-127.12,121,385.15,385.15,0,0,1-119.2,36.3,568.08,568.08,0,0,1-79.05,5.54H251a16,16,0,0,1-16-16V773s82.17,38.65,164.78,54.19S583.19,840.87,659,809.8s121.26-93.6,119.75-186.44-81.1-137.47-81.1-137.47l.85-2.93v0a29.28,29.28,0,0,0,.37-7.18q-.52-11.13-1.8-22.21-1.14-10-3-20c-1.18-6.27-2.58-12.5-4.26-18.65-1.59-5.86-3.43-11.66-5.53-17.35a168.61,168.61,0,0,0-6.83-16,159.7,159.7,0,0,0-8.11-14.73,147.19,147.19,0,0,0-9.43-13.43,140.15,140.15,0,0,0-10.74-12.11,142,142,0,0,0-12.06-10.81,147.27,147.27,0,0,0-12.28-8.78c-37.71-29-104.49-39.12-155.52-25.67V144.61h40.41q116.42,0,199.48,41.93a297.23,297.23,0,0,1,127.73,120.6Q881.34,385.62,881.94,495.24Z"/><path class="cls-3" d="M426,147.29V299.54H235V163.3a16,16,0,0,1,16-16Z"/><path class="cls-4" d="M425.83,299.54H254.13l-.21-.3c5.86-16.09,13.87-26.31,23.82-40.24,24.8-33.76,58.19-55.26,96.7-71.74a298.69,298.69,0,0,1,47-16.58l4.51-1.13Z"/><path class="cls-4" d="M240.17,352.94H411.59a53.87,53.87,0,0,0-.44,6.71,41.9,41.9,0,0,0,9.93,27.17,89.69,89.69,0,0,0,38.15,23.08A598,598,0,0,0,544.68,433a609.07,609.07,0,0,1,116.1,33.8,338.93,338.93,0,0,1,36,17.42A202.35,202.35,0,0,1,734,511a141.86,141.86,0,0,1,38.15,55.48A193.75,193.75,0,0,1,783.68,634a186.4,186.4,0,0,1-34.14,111.93,214,214,0,0,1-98.69,72.46Q586.05,843.67,493,843.66A557.28,557.28,0,0,1,393.3,835a511.15,511.15,0,0,1-93.46-25.61A335,335,0,0,1,235,777.29V597.08c27.23,24.57,58.88,44.2,91,61.74,24.79,13.56,50,26.54,76.38,36.75q5.28,2,10.61,3.76c23.59,7.62,47.87,10.53,73,9.5h8.87q57.48,0,87.1-15.94a62,62,0,0,0,15-10.89,42.36,42.36,0,0,0,14.37-32.31,44.83,44.83,0,0,0-10.54-28.31A94.56,94.56,0,0,0,562.18,598a561.09,561.09,0,0,0-80.83-22c-27.87-5.49-53-11.59-75.34-18.12C389.64,553,374.83,548,361.5,542.55a239.31,239.31,0,0,1-73.86-43.9,137.21,137.21,0,0,1-37.64-56A209.27,209.27,0,0,1,239,373Z"/></g></g></g></svg>