<svg xmlns="http://www.w3.org/2000/svg" fill="none" width="200" height="80" viewBox="0 0 1024 1024"><defs><style>.cls-1{fill:#444394;}.cls-2{fill:#e9edff;}.cls-3{fill:#fbae17;}.cls-4{fill:#5d58a1;}</style></defs><g id="Camada_2" data-name="Camada 2"><g id="Camada_1-2" data-name="Camada 1"><rect class="cls-1" x="55.15" y="55.15" width="913.69" height="913.69" rx="92.51" transform="translate(-31.86 33.98) rotate(-3.69)"/><rect class="cls-2" x="55.15" y="55.15" width="913.69" height="913.69" rx="92.51" transform="translate(-77.49 932.47) rotate(-80.5)"/><path class="cls-1" d="M408.35,565.42V725.26L234.48,626.54V613.18l-.06,0V368.52H242s-1.9,23.77,5.31,59.46,25.44,65.68,65.69,95.68S408.35,565.42,408.35,565.42Z"/><g id="a6558fe5-ccb8-47c7-a172-7ececf87f5b0"><path class="cls-1" d="M882.64,511.09q0,110.87-44.23,190A293.77,293.77,0,0,1,711.05,822.28a386,386,0,0,1-119.42,36.37,570.24,570.24,0,0,1-79.2,5.55H250.51a16,16,0,0,1-16-16V789.42s82.32,38.72,165.09,54.29,183.75,13.67,259.69-17.46,121.49-93.78,120-186.79S698,501.73,698,501.73l.85-2.94v0a29.36,29.36,0,0,0,.37-7.19q-.53-11.16-1.8-22.26-1.14-10-3-20c-1.18-6.28-2.58-12.53-4.26-18.69-1.6-5.87-3.44-11.68-5.54-17.38a169.29,169.29,0,0,0-6.85-16,160.29,160.29,0,0,0-8.12-14.76A146.31,146.31,0,0,0,660.18,369a140.76,140.76,0,0,0-10.76-12.14,145.84,145.84,0,0,0-12.08-10.83A147.86,147.86,0,0,0,625,337.26c-37.78-29.06-104.68-39.2-155.81-25.72V159.8h40.49q116.63,0,199.85,42a297.76,297.76,0,0,1,128,120.83Q882,401.27,882.64,511.09Z"/><path class="cls-3" d="M425.84,162.49V315H234.48V178.53a16,16,0,0,1,16-16Z"/><path class="cls-4" d="M425.67,315h-172l-.21-.3c5.87-16.12,13.9-26.35,23.87-40.31,24.84-33.83,58.3-55.37,96.88-71.88a299.83,299.83,0,0,1,47.09-16.61l4.52-1.13Z"/><path class="cls-4" d="M239.66,368.52H411.4a54.07,54.07,0,0,0-.44,6.73,42,42,0,0,0,10,27.22,89.91,89.91,0,0,0,38.22,23.12,599.25,599.25,0,0,0,85.61,23.15A609.91,609.91,0,0,1,661.06,482.6a339.28,339.28,0,0,1,36.07,17.45,202.3,202.3,0,0,1,37.29,26.83,142.09,142.09,0,0,1,38.22,55.59,194,194,0,0,1,11.55,67.65A186.79,186.79,0,0,1,750,762.26a214.39,214.39,0,0,1-98.88,72.59Q586.19,860.17,493,860.17a558.37,558.37,0,0,1-99.88-8.68,511.27,511.27,0,0,1-93.64-25.65,336.26,336.26,0,0,1-65-32.16V613.13c27.28,24.61,59,44.28,91.17,61.85,24.84,13.59,50.09,26.59,76.52,36.82q5.29,2,10.63,3.77c23.64,7.63,48,10.55,73.14,9.52h8.89q57.59,0,87.26-16a62.52,62.52,0,0,0,15-10.91,42.45,42.45,0,0,0,14.4-32.38,45,45,0,0,0-10.56-28.36,94.75,94.75,0,0,0-38.67-23.42,559.88,559.88,0,0,0-81-22c-27.92-5.5-53.1-11.62-75.48-18.16-16.4-4.89-31.24-10-44.59-15.36a239.89,239.89,0,0,1-74-44,137.37,137.37,0,0,1-37.71-56.11,209.75,209.75,0,0,1-11-69.78Z"/></g></g></g></svg>