<svg xmlns="http://www.w3.org/2000/svg" xmlns:xlink="http://www.w3.org/1999/xlink" viewBox="0 0 2048.21 2267.41"><defs><style>.cls-1{fill:none;}.cls-2{isolation:isolate;}.cls-144,.cls-3{fill:#e7ecff;}.cls-4{fill:url(#Áåçûìÿííûé_ãðàäèåíò_22);}.cls-5{fill:url(#Áåçûìÿííûé_ãðàäèåíò_15);}.cls-6{fill:url(#Áåçûìÿííûé_ãðàäèåíò_15-2);}.cls-7{fill:url(#Áåçûìÿííûé_ãðàäèåíò_15-3);}.cls-8{fill:url(#Áåçûìÿííûé_ãðàäèåíò_15-4);}.cls-10,.cls-102,.cls-11,.cls-12,.cls-13,.cls-133,.cls-14,.cls-144,.cls-147,.cls-15,.cls-156,.cls-18,.cls-21,.cls-22,.cls-23,.cls-24,.cls-25,.cls-26,.cls-27,.cls-28,.cls-32,.cls-35,.cls-38,.cls-43,.cls-52,.cls-59,.cls-71,.cls-72,.cls-81,.cls-85,.cls-86,.cls-87,.cls-9{opacity:0.5;}.cls-10,.cls-100,.cls-101,.cls-102,.cls-103,.cls-104,.cls-105,.cls-106,.cls-108,.cls-109,.cls-11,.cls-113,.cls-116,.cls-117,.cls-118,.cls-119,.cls-12,.cls-122,.cls-124,.cls-125,.cls-126,.cls-127,.cls-128,.cls-13,.cls-131,.cls-133,.cls-14,.cls-142,.cls-143,.cls-145,.cls-146,.cls-147,.cls-148,.cls-149,.cls-15,.cls-153,.cls-154,.cls-155,.cls-157,.cls-16,.cls-161,.cls-18,.cls-19,.cls-20,.cls-21,.cls-22,.cls-23,.cls-24,.cls-25,.cls-26,.cls-27,.cls-28,.cls-29,.cls-30,.cls-31,.cls-32,.cls-33,.cls-38,.cls-39,.cls-40,.cls-41,.cls-42,.cls-43,.cls-48,.cls-52,.cls-54,.cls-59,.cls-62,.cls-71,.cls-73,.cls-74,.cls-76,.cls-77,.cls-78,.cls-80,.cls-81,.cls-85,.cls-86,.cls-87,.cls-89,.cls-9,.cls-96,.cls-97,.cls-98,.cls-99{mix-blend-mode:multiply;}.cls-9{fill:url(#Áåçûìÿííûé_ãðàäèåíò_126);}.cls-10{fill:url(#Áåçûìÿííûé_ãðàäèåíò_126-2);}.cls-11{fill:url(#Áåçûìÿííûé_ãðàäèåíò_126-3);}.cls-12{fill:url(#Áåçûìÿííûé_ãðàäèåíò_126-4);}.cls-13{fill:url(#Áåçûìÿííûé_ãðàäèåíò_126-5);}.cls-14{fill:url(#Áåçûìÿííûé_ãðàäèåíò_126-6);}.cls-15{fill:url(#Áåçûìÿííûé_ãðàäèåíò_14);}.cls-142,.cls-16,.cls-19,.cls-20,.cls-29,.cls-30,.cls-31,.cls-40,.cls-41,.cls-42,.cls-84{opacity:0.3;}.cls-16{fill:url(#Áåçûìÿííûé_ãðàäèåíò_14-2);}.cls-17{fill:url(#Áåçûìÿííûé_ãðàäèåíò_15-5);}.cls-18{fill:url(#Áåçûìÿííûé_ãðàäèåíò_14-3);}.cls-19{fill:url(#Áåçûìÿííûé_ãðàäèåíò_14-4);}.cls-20{fill:url(#Áåçûìÿííûé_ãðàäèåíò_14-5);}.cls-21{fill:url(#Áåçûìÿííûé_ãðàäèåíò_126-7);}.cls-22{fill:url(#Áåçûìÿííûé_ãðàäèåíò_14-6);}.cls-23{fill:url(#Áåçûìÿííûé_ãðàäèåíò_126-8);}.cls-24{fill:url(#Áåçûìÿííûé_ãðàäèåíò_14-7);}.cls-25{fill:url(#Áåçûìÿííûé_ãðàäèåíò_126-9);}.cls-26{fill:url(#Áåçûìÿííûé_ãðàäèåíò_14-8);}.cls-27{fill:url(#Áåçûìÿííûé_ãðàäèåíò_126-10);}.cls-28,.cls-33,.cls-39{fill:#ea8bc2;}.cls-29{fill:url(#Áåçûìÿííûé_ãðàäèåíò_126-11);}.cls-30{fill:url(#Áåçûìÿííûé_ãðàäèåíò_126-12);}.cls-31{fill:url(#Áåçûìÿííûé_ãðàäèåíò_14-9);}.cls-32{fill:url(#Áåçûìÿííûé_ãðàäèåíò_14-10);}.cls-100,.cls-101,.cls-103,.cls-104,.cls-105,.cls-106,.cls-109,.cls-161,.cls-33,.cls-96,.cls-97,.cls-98,.cls-99{opacity:0.8;}.cls-110,.cls-156,.cls-34,.cls-65,.cls-84{fill:#fff;}.cls-110,.cls-135,.cls-139,.cls-144,.cls-156,.cls-160,.cls-34,.cls-35,.cls-37,.cls-72,.cls-84,.cls-92{mix-blend-mode:soft-light;}.cls-36{fill:#ffd1a9;}.cls-37{opacity:0.78;}.cls-38{fill:url(#Áåçûìÿííûé_ãðàäèåíò_14-11);}.cls-40{fill:url(#Áåçûìÿííûé_ãðàäèåíò_463);}.cls-41{fill:url(#Áåçûìÿííûé_ãðàäèåíò_463-2);}.cls-42{fill:url(#Áåçûìÿííûé_ãðàäèåíò_285);}.cls-43{fill:url(#Áåçûìÿííûé_ãðàäèåíò_14-12);}.cls-44{fill:url(#Áåçûìÿííûé_ãðàäèåíò_81);}.cls-45{fill:#f33;}.cls-46{fill:#311f3d;}.cls-47{fill:url(#Áåçûìÿííûé_ãðàäèåíò_25);}.cls-48,.cls-52{fill:#b84ac0;}.cls-48{opacity:0.67;}.cls-49{fill:#6d093b;}.cls-50{fill:#45093b;}.cls-51{fill:#ff4f3b;}.cls-53{fill:#f94852;}.cls-53,.cls-56,.cls-57,.cls-59,.cls-60,.cls-61,.cls-64{fill-rule:evenodd;}.cls-54{opacity:0.57;}.cls-55{fill:#401734;}.cls-56{fill:url(#Áåçûìÿííûé_ãðàäèåíò_83);}.cls-57{fill:#ed3e52;}.cls-58{fill:#d1bfe8;}.cls-59{fill:#846a86;}.cls-60{fill:url(#Áåçûìÿííûé_ãðàäèåíò_3);}.cls-61{fill:url(#Áåçûìÿííûé_ãðàäèåíò_135);}.cls-110,.cls-157,.cls-62{opacity:0.2;}.cls-63,.cls-64{fill:#5e1765;}.cls-66{fill:#fbae17;}.cls-67{clip-path:url(#clip-path);}.cls-68{fill:url(#Áåçûìÿííûé_ãðàäèåíò_16);}.cls-69{fill:#4b81ee;}.cls-70{fill:url(#Áåçûìÿííûé_ãðàäèåíò_79);}.cls-106,.cls-157,.cls-71,.cls-76{fill:#e392ad;}.cls-72{fill:#ffbb9a;}.cls-73{fill:url(#Áåçûìÿííûé_ãðàäèåíò_82);}.cls-74{fill:url(#Áåçûìÿííûé_ãðàäèåíò_82-2);}.cls-75{fill:#444394;}.cls-77{fill:#d07cad;}.cls-78{fill:#b588ad;}.cls-79{fill:url(#Áåçûìÿííûé_ãðàäèåíò_41);}.cls-80{fill:url(#Áåçûìÿííûé_ãðàäèåíò_183);}.cls-81{fill:url(#Áåçûìÿííûé_ãðàäèåíò_98);}.cls-82{fill:#ffc4b1;}.cls-83{fill:#ffe4db;}.cls-85{fill:url(#Áåçûìÿííûé_ãðàäèåíò_183-2);}.cls-86{fill:url(#Áåçûìÿííûé_ãðàäèåíò_183-3);}.cls-87{fill:url(#Áåçûìÿííûé_ãðàäèåíò_183-4);}.cls-88{fill:url(#Áåçûìÿííûé_ãðàäèåíò_26);}.cls-89{fill:url(#Áåçûìÿííûé_ãðàäèåíò_116);}.cls-90{fill:url(#Áåçûìÿííûé_ãðàäèåíò_12);}.cls-91{fill:#c2096f;}.cls-92{fill:#a4a6ff;}.cls-93{fill:url(#Áåçûìÿííûé_ãðàäèåíò_79-2);}.cls-94{fill:#e33d6f;}.cls-95{fill:url(#Áåçûìÿííûé_ãðàäèåíò_79-3);}.cls-96{fill:url(#Áåçûìÿííûé_ãðàäèåíò_205);}.cls-97{fill:url(#Áåçûìÿííûé_ãðàäèåíò_205-2);}.cls-98{fill:url(#Áåçûìÿííûé_ãðàäèåíò_101);}.cls-99{fill:url(#Áåçûìÿííûé_ãðàäèåíò_101-2);}.cls-100{fill:url(#Áåçûìÿííûé_ãðàäèåíò_101-3);}.cls-101{fill:url(#Áåçûìÿííûé_ãðàäèåíò_205-3);}.cls-102{fill:url(#Áåçûìÿííûé_ãðàäèåíò_205-4);}.cls-103{fill:url(#Áåçûìÿííûé_ãðàäèåíò_101-4);}.cls-104{fill:url(#Áåçûìÿííûé_ãðàäèåíò_101-5);}.cls-105{fill:url(#Áåçûìÿííûé_ãðàäèåíò_205-5);}.cls-107{fill:#391861;}.cls-108,.cls-147{fill:#feb1c8;}.cls-109{fill:url(#Áåçûìÿííûé_ãðàäèåíò_101-6);}.cls-111{fill:url(#Áåçûìÿííûé_ãðàäèåíò_10);}.cls-112{fill:url(#Áåçûìÿííûé_ãðàäèåíò_148);}.cls-113{fill:url(#Áåçûìÿííûé_ãðàäèåíò_116-2);}.cls-114{fill:url(#Áåçûìÿííûé_ãðàäèåíò_6);}.cls-115{fill:url(#Áåçûìÿííûé_ãðàäèåíò_257);}.cls-116{fill:url(#Áåçûìÿííûé_ãðàäèåíò_116-3);}.cls-117{fill:url(#Áåçûìÿííûé_ãðàäèåíò_116-4);}.cls-118{fill:#bf7988;opacity:0.6;}.cls-119{fill:url(#Áåçûìÿííûé_ãðàäèåíò_18);}.cls-120{fill:#ffe4ec;}.cls-121{fill:#7f6186;}.cls-122{fill:url(#Áåçûìÿííûé_ãðàäèåíò_44);}.cls-123{fill:#6c2a51;}.cls-124{fill:url(#Áåçûìÿííûé_ãðàäèåíò_183-5);}.cls-125{fill:url(#Áåçûìÿííûé_ãðàäèåíò_44-2);}.cls-126{fill:url(#Áåçûìÿííûé_ãðàäèåíò_18-2);}.cls-127{fill:#ce7988;}.cls-128{fill:url(#Áåçûìÿííûé_ãðàäèåíò_116-5);}.cls-129{fill:url(#Áåçûìÿííûé_ãðàäèåíò_51);}.cls-130{fill:url(#Áåçûìÿííûé_ãðàäèåíò_51-2);}.cls-131{opacity:0.4;fill:url(#Áåçûìÿííûé_ãðàäèåíò_116-6);}.cls-132{fill:#8075ba;}.cls-133{fill:#e15153;}.cls-134{fill:url(#Áåçûìÿííûé_ãðàäèåíò_38);}.cls-135{fill:#cfc7b8;}.cls-136{fill:url(#Áåçûìÿííûé_ãðàäèåíò_38-2);}.cls-137{fill:#382a8d;}.cls-138{fill:url(#Áåçûìÿííûé_ãðàäèåíò_38-3);}.cls-139{fill:#5cf1ff;}.cls-140{fill:#fafbf9;}.cls-141{fill:url(#Áåçûìÿííûé_ãðàäèåíò_148-2);}.cls-142{fill:url(#Áåçûìÿííûé_ãðàäèåíò_20);}.cls-143{fill:url(#Áåçûìÿííûé_ãðàäèåíò_20-2);}.cls-145{fill:#d1a1c8;}.cls-146{fill:url(#Áåçûìÿííûé_ãðàäèåíò_98-2);}.cls-148{fill:url(#Áåçûìÿííûé_ãðàäèåíò_116-7);}.cls-149{fill:url(#Áåçûìÿííûé_ãðàäèåíò_116-8);}.cls-150{fill:url(#Áåçûìÿííûé_ãðàäèåíò_257-2);}.cls-151{fill:url(#Áåçûìÿííûé_ãðàäèåíò_257-3);}.cls-152{fill:url(#Áåçûìÿííûé_ãðàäèåíò_257-4);}.cls-153{fill:url(#Áåçûìÿííûé_ãðàäèåíò_101-7);}.cls-154{fill:url(#Áåçûìÿííûé_ãðàäèåíò_101-8);}.cls-155{fill:url(#Áåçûìÿííûé_ãðàäèåíò_101-9);}.cls-158{fill:#5e4fb8;}.cls-159{fill:#6a5cd4;}.cls-160{fill:#4bffff;}.cls-161{fill:#b892ad;}</style><linearGradient id="Áåçûìÿííûé_ãðàäèåíò_22" x1="6668.73" y1="1333.34" x2="6668.73" y2="753.08" gradientTransform="matrix(-0.91, 0.41, 0.41, 0.91, 7530.95, -2596.36)" gradientUnits="userSpaceOnUse"><stop offset="0.02" stop-color="#ffb88e"/><stop offset="1" stop-color="#ff7c7c"/></linearGradient><linearGradient id="Áåçûìÿííûé_ãðàäèåíò_15" x1="246.66" y1="1493.82" x2="246.66" y2="1460.48" gradientTransform="translate(1432.69 -512.8) rotate(-15.81)" gradientUnits="userSpaceOnUse"><stop offset="0" stop-color="#ffb698"/><stop offset="1" stop-color="#ffc293"/></linearGradient><linearGradient id="Áåçûìÿííûé_ãðàäèåíò_15-2" x1="218.04" y1="1408.17" x2="218.04" y2="1379.73" xlink:href="#Áåçûìÿííûé_ãðàäèåíò_15"/><linearGradient id="Áåçûìÿííûé_ãðàäèåíò_15-3" x1="246.22" y1="1559.89" x2="246.22" y2="1529.83" xlink:href="#Áåçûìÿííûé_ãðàäèåíò_15"/><linearGradient id="Áåçûìÿííûé_ãðàäèåíò_15-4" x1="211.44" y1="1611.79" x2="211.44" y2="1583.91" xlink:href="#Áåçûìÿííûé_ãðàäèåíò_15"/><linearGradient id="Áåçûìÿííûé_ãðàäèåíò_126" x1="220.25" y1="1407.69" x2="220.93" y2="1407.69" gradientTransform="translate(1432.69 -512.8) rotate(-15.81)" gradientUnits="userSpaceOnUse"><stop offset="0" stop-color="#e5658e"/><stop offset="1" stop-color="#ffe5e2"/></linearGradient><linearGradient id="Áåçûìÿííûé_ãðàäèåíò_126-2" x1="197.43" y1="1576.89" x2="205.34" y2="1576.89" xlink:href="#Áåçûìÿííûé_ãðàäèåíò_126"/><linearGradient id="Áåçûìÿííûé_ãðàäèåíò_126-3" x1="6688.65" y1="961.31" x2="6393.99" y2="918.53" gradientTransform="matrix(-0.91, 0.41, 0.41, 0.91, 7530.95, -2596.36)" xlink:href="#Áåçûìÿííûé_ãðàäèåíò_126"/><linearGradient id="Áåçûìÿííûé_ãðàäèåíò_126-4" x1="158.59" y1="1545.37" x2="235.03" y2="1545.37" xlink:href="#Áåçûìÿííûé_ãðàäèåíò_126"/><linearGradient id="Áåçûìÿííûé_ãðàäèåíò_126-5" x1="158.21" y1="1595.04" x2="202.21" y2="1595.04" xlink:href="#Áåçûìÿííûé_ãðàäèåíò_126"/><linearGradient id="Áåçûìÿííûé_ãðàäèåíò_126-6" x1="156.92" y1="1479.52" x2="226.95" y2="1479.52" xlink:href="#Áåçûìÿííûé_ãðàäèåíò_126"/><linearGradient id="Áåçûìÿííûé_ãðàäèåíò_14" x1="-12.82" y1="1580.79" x2="-12.82" y2="1473.76" gradientTransform="translate(1432.69 -512.8) rotate(-15.81)" gradientUnits="userSpaceOnUse"><stop offset="0" stop-color="#ffe5e2"/><stop offset="1" stop-color="#e5658e"/></linearGradient><linearGradient id="Áåçûìÿííûé_ãðàäèåíò_14-2" x1="-37.71" y1="1477.16" x2="-37.71" y2="1360.65" xlink:href="#Áåçûìÿííûé_ãðàäèåíò_14"/><linearGradient id="Áåçûìÿííûé_ãðàäèåíò_15-5" x1="-64.04" y1="1312.59" x2="-64.04" y2="1266.08" gradientTransform="matrix(0.95, -0.32, 0.32, 0.95, 1404.99, -406.84)" xlink:href="#Áåçûìÿííûé_ãðàäèåíò_15"/><linearGradient id="Áåçûìÿííûé_ãðàäèåíò_14-3" x1="-60.7" y1="1629.97" x2="-60.7" y2="1540.88" xlink:href="#Áåçûìÿííûé_ãðàäèåíò_14"/><linearGradient id="Áåçûìÿííûé_ãðàäèåíò_14-4" x1="2.79" y1="1504.31" x2="2.79" y2="1487.68" xlink:href="#Áåçûìÿííûé_ãðàäèåíò_14"/><linearGradient id="Áåçûìÿííûé_ãðàäèåíò_14-5" x1="-13.06" y1="1600.57" x2="-13.06" y2="1506.6" xlink:href="#Áåçûìÿííûé_ãðàäèåíò_14"/><linearGradient id="Áåçûìÿííûé_ãðàäèåíò_126-7" x1="74.71" y1="1488.19" x2="74.71" y2="1473.75" gradientTransform="translate(1139.68 -767.39) rotate(-15.81)" xlink:href="#Áåçûìÿííûé_ãðàäèåíò_126"/><linearGradient id="Áåçûìÿííûé_ãðàäèåíò_14-6" x1="84.62" y1="1508.26" x2="84.62" y2="1489.36" gradientTransform="translate(1139.68 -767.39) rotate(-15.81)" xlink:href="#Áåçûìÿííûé_ãðàäèåíò_14"/><linearGradient id="Áåçûìÿííûé_ãðàäèåíò_126-8" x1="96.72" y1="1526.08" x2="96.72" y2="1518.44" gradientTransform="translate(1139.68 -767.39) rotate(-15.81)" xlink:href="#Áåçûìÿííûé_ãðàäèåíò_126"/><linearGradient id="Áåçûìÿííûé_ãðàäèåíò_14-7" x1="99.86" y1="1545.37" x2="99.86" y2="1534.34" gradientTransform="translate(1139.68 -767.39) rotate(-15.81)" xlink:href="#Áåçûìÿííûé_ãðàäèåíò_14"/><linearGradient id="Áåçûìÿííûé_ãðàäèåíò_126-9" x1="102.57" y1="1570.2" x2="102.57" y2="1557.18" gradientTransform="translate(1139.68 -767.39) rotate(-15.81)" xlink:href="#Áåçûìÿííûé_ãðàäèåíò_126"/><linearGradient id="Áåçûìÿííûé_ãðàäèåíò_14-8" x1="105.5" y1="1585.42" x2="105.5" y2="1574.72" gradientTransform="translate(1139.68 -767.39) rotate(-15.81)" xlink:href="#Áåçûìÿííûé_ãðàäèåíò_14"/><linearGradient id="Áåçûìÿííûé_ãðàäèåíò_126-10" x1="109.16" y1="1608.36" x2="109.16" y2="1597.86" gradientTransform="translate(1139.68 -767.39) rotate(-15.81)" xlink:href="#Áåçûìÿííûé_ãðàäèåíò_126"/><linearGradient id="Áåçûìÿííûé_ãðàäèåíò_126-11" x1="-79.16" y1="1960.19" x2="-79.16" y2="1603.11" xlink:href="#Áåçûìÿííûé_ãðàäèåíò_126"/><linearGradient id="Áåçûìÿííûé_ãðàäèåíò_126-12" x1="37.36" y1="1552.61" x2="83.18" y2="1552.61" xlink:href="#Áåçûìÿííûé_ãðàäèåíò_126"/><linearGradient id="Áåçûìÿííûé_ãðàäèåíò_14-9" x1="-0.95" y1="1560.16" x2="33.69" y2="1560.16" gradientTransform="translate(1139.68 -767.39) rotate(-15.81)" xlink:href="#Áåçûìÿííûé_ãðàäèåíò_14"/><linearGradient id="Áåçûìÿííûé_ãðàäèåíò_14-10" x1="-53.2" y1="1462.17" x2="-53.2" y2="1399.92" xlink:href="#Áåçûìÿííûé_ãðàäèåíò_14"/><linearGradient id="Áåçûìÿííûé_ãðàäèåíò_14-11" x1="-27.15" y1="1472.04" x2="-27" y2="1472.04" xlink:href="#Áåçûìÿííûé_ãðàäèåíò_14"/><linearGradient id="Áåçûìÿííûé_ãðàäèåíò_463" x1="217.46" y1="1567.78" x2="217.46" y2="1542.19" gradientTransform="translate(1432.69 -512.8) rotate(-15.81)" gradientUnits="userSpaceOnUse"><stop offset="0" stop-color="#e5658e"/><stop offset="1" stop-color="#fff"/></linearGradient><linearGradient id="Áåçûìÿííûé_ãðàäèåíò_463-2" x1="216.36" y1="1503.38" x2="216.36" y2="1481.63" xlink:href="#Áåçûìÿííûé_ãðàäèåíò_463"/><linearGradient id="Áåçûìÿííûé_ãðàäèåíò_285" x1="-30.24" y1="1687.35" x2="-4.7" y2="1687.35" gradientTransform="translate(1139.68 -767.39) rotate(-15.81)" gradientUnits="userSpaceOnUse"><stop offset="0" stop-color="#fff"/><stop offset="1" stop-color="#e5658e"/></linearGradient><linearGradient id="Áåçûìÿííûé_ãðàäèåíò_14-12" x1="-64.9" y1="1292.5" x2="-55.37" y2="1292.5" gradientTransform="matrix(0.95, -0.32, 0.32, 0.95, 1404.99, -406.84)" xlink:href="#Áåçûìÿííûé_ãðàäèåíò_14"/><linearGradient id="Áåçûìÿííûé_ãðàäèåíò_81" x1="-628.34" y1="3223.61" x2="-628.34" y2="2880.63" gradientTransform="translate(2511.63 -2151.43) rotate(-0.45)" gradientUnits="userSpaceOnUse"><stop offset="0" stop-color="#dd0e24"/><stop offset="1" stop-color="#d33"/></linearGradient><linearGradient id="Áåçûìÿííûé_ãðàäèåíò_25" x1="-625.75" y1="3206.44" x2="-625.75" y2="2872.14" gradientTransform="translate(2511.63 -2151.43) rotate(-0.45)" gradientUnits="userSpaceOnUse"><stop offset="0" stop-color="#ece8ff"/><stop offset="1" stop-color="#fefefe"/></linearGradient><linearGradient id="Áåçûìÿííûé_ãðàäèåíò_83" x1="1913.77" y1="1022.88" x2="1913.77" y2="993.42" gradientTransform="translate(-484.64 569.64) rotate(-23.35)" gradientUnits="userSpaceOnUse"><stop offset="0" stop-color="#ff6e27"/><stop offset="1" stop-color="#e03347"/></linearGradient><linearGradient id="Áåçûìÿííûé_ãðàäèåíò_3" x1="1914.85" y1="1030.43" x2="1914.85" y2="986.74" gradientTransform="translate(-191.64 824.23) rotate(-23.35)" gradientUnits="userSpaceOnUse"><stop offset="0" stop-color="#e03347"/><stop offset="1" stop-color="#ff6e27"/></linearGradient><linearGradient id="Áåçûìÿííûé_ãðàäèåíò_135" x1="1895.57" y1="1022.88" x2="1895.57" y2="993.64" gradientTransform="translate(-191.64 824.23) rotate(-23.35)" gradientUnits="userSpaceOnUse"><stop offset="0" stop-color="#ffa700"/><stop offset="1" stop-color="#ffd328"/></linearGradient><clipPath id="clip-path" transform="translate(-293 -254.59)"><polyline class="cls-1" points="2520.03 2520.03 0 2520.03 0 0 2520.03 0"/></clipPath><linearGradient id="Áåçûìÿííûé_ãðàäèåíò_16" x1="1239.6" y1="2520.03" x2="1239.6" y2="2126.85" gradientUnits="userSpaceOnUse"><stop offset="0" stop-color="#c50b79"/><stop offset="1" stop-color="#c01160"/></linearGradient><linearGradient id="Áåçûìÿííûé_ãðàäèåíò_79" x1="1220.56" y1="2471.31" x2="1220.56" y2="1020.39" gradientUnits="userSpaceOnUse"><stop offset="0" stop-color="#ff6686"/><stop offset="1" stop-color="#ff7c89"/></linearGradient><linearGradient id="Áåçûìÿííûé_ãðàäèåíò_82" x1="1173.63" y1="2279.5" x2="1173.63" y2="1166.69" gradientUnits="userSpaceOnUse"><stop offset="0.02" stop-color="#fff"/><stop offset="0.99" stop-color="#ea8cc1"/></linearGradient><linearGradient id="Áåçûìÿííûé_ãðàäèåíò_82-2" x1="1266.06" y1="2450.19" x2="1266.06" y2="1252.52" xlink:href="#Áåçûìÿííûé_ãðàäèåíò_82"/><linearGradient id="Áåçûìÿííûé_ãðàäèåíò_41" x1="1215.04" y1="1760.18" x2="1215.04" y2="1156.1" gradientUnits="userSpaceOnUse"><stop offset="0" stop-color="#ffb595"/><stop offset="0.98" stop-color="#ffaea9"/></linearGradient><linearGradient id="Áåçûìÿííûé_ãðàäèåíò_183" x1="1268.02" y1="1274.97" x2="1456.01" y2="1274.97" gradientUnits="userSpaceOnUse"><stop offset="0.02" stop-color="#fff"/><stop offset="0.99" stop-color="#ea9dc8"/></linearGradient><linearGradient id="Áåçûìÿííûé_ãðàäèåíò_98" x1="1269.59" y1="1422.16" x2="1451.1" y2="1422.16" gradientUnits="userSpaceOnUse"><stop offset="0.01" stop-color="#ea9dc8"/><stop offset="0.98" stop-color="#ffdbd6"/></linearGradient><linearGradient id="Áåçûìÿííûé_ãðàäèåíò_183-2" x1="1271.9" y1="1343.32" x2="1288.38" y2="1343.32" xlink:href="#Áåçûìÿííûé_ãðàäèåíò_183"/><linearGradient id="Áåçûìÿííûé_ãðàäèåíò_183-3" x1="1294.88" y1="1370.98" x2="1319.67" y2="1370.98" xlink:href="#Áåçûìÿííûé_ãðàäèåíò_183"/><linearGradient id="Áåçûìÿííûé_ãðàäèåíò_183-4" x1="1314.05" y1="1408.87" x2="1337.27" y2="1408.87" xlink:href="#Áåçûìÿííûé_ãðàäèåíò_183"/><linearGradient id="Áåçûìÿííûé_ãðàäèåíò_26" x1="1161.4" y1="1209.09" x2="1161.4" y2="931.02" gradientUnits="userSpaceOnUse"><stop offset="0.02" stop-color="#ffa67f"/><stop offset="1" stop-color="#ff8b7c"/></linearGradient><linearGradient id="Áåçûìÿííûé_ãðàäèåíò_116" x1="1123.82" y1="1144.17" x2="1123.82" y2="935.4" gradientUnits="userSpaceOnUse"><stop offset="0.02" stop-color="#fff"/><stop offset="0.99" stop-color="#f29dc8"/></linearGradient><linearGradient id="Áåçûìÿííûé_ãðàäèåíò_12" x1="894.37" y1="1938.98" x2="894.37" y2="1557.4" gradientUnits="userSpaceOnUse"><stop offset="0" stop-color="#38328a"/><stop offset="1" stop-color="#4f349b"/></linearGradient><linearGradient id="Áåçûìÿííûé_ãðàäèåíò_79-2" x1="1823.67" y1="1452.29" x2="1823.67" y2="1173.26" xlink:href="#Áåçûìÿííûé_ãðàäèåíò_79"/><linearGradient id="Áåçûìÿííûé_ãðàäèåíò_79-3" x1="1053.63" y1="1789.66" x2="1053.63" y2="1484.15" xlink:href="#Áåçûìÿííûé_ãðàäèåíò_79"/><linearGradient id="Áåçûìÿííûé_ãðàäèåíò_205" x1="1592.54" y1="1535.43" x2="1592.54" y2="1204.86" gradientUnits="userSpaceOnUse"><stop offset="0.01" stop-color="#c2798b"/><stop offset="0.98" stop-color="#fff"/></linearGradient><linearGradient id="Áåçûìÿííûé_ãðàäèåíò_205-2" x1="898.29" y1="1597.12" x2="898.29" y2="1512.21" xlink:href="#Áåçûìÿííûé_ãðàäèåíò_205"/><linearGradient id="Áåçûìÿííûé_ãðàäèåíò_101" x1="752.67" y1="1591.12" x2="927.84" y2="1591.12" gradientUnits="userSpaceOnUse"><stop offset="0.02" stop-color="#fff"/><stop offset="0.99" stop-color="#c2798b"/></linearGradient><linearGradient id="Áåçûìÿííûé_ãðàäèåíò_101-2" x1="760.72" y1="1639.61" x2="899.61" y2="1639.61" xlink:href="#Áåçûìÿííûé_ãðàäèåíò_101"/><linearGradient id="Áåçûìÿííûé_ãðàäèåíò_101-3" x1="1610.57" y1="1399.09" x2="1720.45" y2="1399.09" xlink:href="#Áåçûìÿííûé_ãðàäèåíò_101"/><linearGradient id="Áåçûìÿííûé_ãðàäèåíò_205-3" x1="1678.42" y1="1629.76" x2="1888.79" y2="1629.76" xlink:href="#Áåçûìÿííûé_ãðàäèåíò_205"/><linearGradient id="Áåçûìÿííûé_ãðàäèåíò_205-4" x1="1479.63" y1="2399.59" x2="1479.63" y2="1411.01" xlink:href="#Áåçûìÿííûé_ãðàäèåíò_205"/><linearGradient id="Áåçûìÿííûé_ãðàäèåíò_101-4" x1="820.68" y1="2448.84" x2="820.68" y2="2403.67" xlink:href="#Áåçûìÿííûé_ãðàäèåíò_101"/><linearGradient id="Áåçûìÿííûé_ãðàäèåíò_101-5" x1="953.21" y1="2450.15" x2="953.21" y2="1708.77" xlink:href="#Áåçûìÿííûé_ãðàäèåíò_101"/><linearGradient id="Áåçûìÿííûé_ãðàäèåíò_205-5" x1="739.48" y1="1887.37" x2="947.59" y2="1887.37" xlink:href="#Áåçûìÿííûé_ãðàäèåíò_205"/><linearGradient id="Áåçûìÿííûé_ãðàäèåíò_101-6" x1="1604.52" y1="1576.46" x2="1737.07" y2="1346.87" xlink:href="#Áåçûìÿííûé_ãðàäèåíò_101"/><linearGradient id="Áåçûìÿííûé_ãðàäèåíò_10" x1="1241.77" y1="586.14" x2="1209.7" y2="383.64" gradientUnits="userSpaceOnUse"><stop offset="0" stop-color="#3e2987"/><stop offset="0.14" stop-color="#372987"/><stop offset="0.66" stop-color="#212885"/><stop offset="1" stop-color="#192885"/></linearGradient><linearGradient id="Áåçûìÿííûé_ãðàäèåíò_148" x1="1093.1" y1="950.67" x2="1093.1" y2="372.49" gradientUnits="userSpaceOnUse"><stop offset="0" stop-color="#ffb595"/><stop offset="0.98" stop-color="#ffc2a9"/></linearGradient><linearGradient id="Áåçûìÿííûé_ãðàäèåíò_116-2" x1="1068.7" y1="737.61" x2="1012.37" y2="381.97" xlink:href="#Áåçûìÿííûé_ãðàäèåíò_116"/><linearGradient id="Áåçûìÿííûé_ãðàäèåíò_6" x1="978.34" y1="893.9" x2="874.69" y2="751.25" gradientUnits="userSpaceOnUse"><stop offset="0" stop-color="#ffb595"/><stop offset="0.98" stop-color="#ff958d"/></linearGradient><linearGradient id="Áåçûìÿííûé_ãðàäèåíò_257" x1="861.54" y1="597.17" x2="843.76" y2="484.9" gradientUnits="userSpaceOnUse"><stop offset="0" stop-color="#3e2987"/><stop offset="0.57" stop-color="#2c2f90"/><stop offset="1" stop-color="#243294"/></linearGradient><linearGradient id="Áåçûìÿííûé_ãðàäèåíò_116-3" x1="918.68" y1="869.97" x2="918.68" y2="785.5" xlink:href="#Áåçûìÿííûé_ãðàäèåíò_116"/><linearGradient id="Áåçûìÿííûé_ãðàäèåíò_116-4" x1="1131.9" y1="760.65" x2="1131.9" y2="533.52" xlink:href="#Áåçûìÿííûé_ãðàäèåíò_116"/><linearGradient id="Áåçûìÿííûé_ãðàäèåíò_18" x1="1027.43" y1="676.84" x2="1129.06" y2="676.84" gradientUnits="userSpaceOnUse"><stop offset="0.01" stop-color="#ea9dc8"/><stop offset="0.98" stop-color="#fff"/></linearGradient><linearGradient id="Áåçûìÿííûé_ãðàäèåíò_44" x1="1062.11" y1="714.17" x2="1062.11" y2="668.5" gradientUnits="userSpaceOnUse"><stop offset="0.02" stop-color="#e0b3d1"/><stop offset="0.99" stop-color="#c2798b"/></linearGradient><linearGradient id="Áåçûìÿííûé_ãðàäèåíò_183-5" x1="1212.48" y1="614.88" x2="1264.97" y2="614.88" xlink:href="#Áåçûìÿííûé_ãðàäèåíò_183"/><linearGradient id="Áåçûìÿííûé_ãðàäèåíò_44-2" x1="1231.63" y1="656.7" x2="1231.63" y2="611.04" xlink:href="#Áåçûìÿííûé_ãðàäèåíò_44"/><linearGradient id="Áåçûìÿííûé_ãðàäèåíò_18-2" x1="1173.57" y1="765.98" x2="1173.57" y2="727.62" xlink:href="#Áåçûìÿííûé_ãðàäèåíò_18"/><linearGradient id="Áåçûìÿííûé_ãðàäèåíò_116-5" x1="1052.04" y1="834.23" x2="1088.57" y2="834.23" gradientTransform="matrix(-0.79, 0.62, 0.62, 0.79, 1474.61, -503.9)" xlink:href="#Áåçûìÿííûé_ãðàäèåíò_116"/><linearGradient id="Áåçûìÿííûé_ãðàäèåíò_51" x1="1220.31" y1="574.5" x2="1220.31" y2="506.75" gradientUnits="userSpaceOnUse"><stop offset="0" stop-color="#b877b8"/><stop offset="0.23" stop-color="#9a6dba"/><stop offset="0.56" stop-color="#7762bb"/><stop offset="0.83" stop-color="#615bbd"/><stop offset="1" stop-color="#5958bd"/></linearGradient><linearGradient id="Áåçûìÿííûé_ãðàäèåíò_51-2" x1="989.58" y1="675.26" x2="989.58" y2="583.54" gradientTransform="translate(97.7 -95.68) rotate(4.63)" xlink:href="#Áåçûìÿííûé_ãðàäèåíò_51"/><linearGradient id="Áåçûìÿííûé_ãðàäèåíò_116-6" x1="1059.68" y1="929.07" x2="1059.68" y2="769.2" xlink:href="#Áåçûìÿííûé_ãðàäèåíò_116"/><linearGradient id="Áåçûìÿííûé_ãðàäèåíò_38" x1="1295.69" y1="711.05" x2="1295.69" y2="550.1" gradientTransform="matrix(1, 0, 0.06, 1.02, -73.63, -19.32)" gradientUnits="userSpaceOnUse"><stop offset="0" stop-color="#26258a"/><stop offset="1" stop-color="#3c2c95"/></linearGradient><linearGradient id="Áåçûìÿííûé_ãðàäèåíò_38-2" x1="1096.33" y1="779.09" x2="1096.33" y2="615.1" xlink:href="#Áåçûìÿííûé_ãðàäèåíò_38"/><linearGradient id="Áåçûìÿííûé_ãðàäèåíò_38-3" x1="974.03" y1="762.01" x2="974.03" y2="688.25" xlink:href="#Áåçûìÿííûé_ãðàäèåíò_38"/><linearGradient id="Áåçûìÿííûé_ãðàäèåíò_148-2" x1="1157.26" y1="704.38" x2="1261.51" y2="704.38" xlink:href="#Áåçûìÿííûé_ãðàäèåíò_148"/><linearGradient id="Áåçûìÿííûé_ãðàäèåíò_20" x1="1209.19" y1="763.74" x2="1209.19" y2="666.51" gradientUnits="userSpaceOnUse"><stop offset="0.01" stop-color="#f29dc8"/><stop offset="0.98" stop-color="#fff"/></linearGradient><linearGradient id="Áåçûìÿííûé_ãðàäèåíò_20-2" x1="1215.43" y1="765.05" x2="1215.43" y2="713.29" xlink:href="#Áåçûìÿííûé_ãðàäèåíò_20"/><linearGradient id="Áåçûìÿííûé_ãðàäèåíò_98-2" x1="1237.33" y1="719.61" x2="1264" y2="719.61" xlink:href="#Áåçûìÿííûé_ãðàäèåíò_98"/><linearGradient id="Áåçûìÿííûé_ãðàäèåíò_116-7" x1="939.07" y1="623.44" x2="1040.09" y2="623.44" gradientTransform="translate(97.7 -95.68) rotate(4.63)" xlink:href="#Áåçûìÿííûé_ãðàäèåíò_116"/><linearGradient id="Áåçûìÿííûé_ãðàäèåíò_116-8" x1="1227.19" y1="857.5" x2="1227.19" y2="823.38" xlink:href="#Áåçûìÿííûé_ãðàäèåíò_116"/><linearGradient id="Áåçûìÿííûé_ãðàäèåíò_257-2" x1="1082.46" y1="434.12" x2="1062.69" y2="309.26" xlink:href="#Áåçûìÿííûé_ãðàäèåíò_257"/><linearGradient id="Áåçûìÿííûé_ãðàäèåíò_257-3" x1="1087.28" y1="775.39" x2="1013.28" y2="308.2" xlink:href="#Áåçûìÿííûé_ãðàäèåíò_257"/><linearGradient id="Áåçûìÿííûé_ãðàäèåíò_257-4" x1="967.65" y1="469.36" x2="946.69" y2="336.97" xlink:href="#Áåçûìÿííûé_ãðàäèåíò_257"/><linearGradient id="Áåçûìÿííûé_ãðàäèåíò_101-7" x1="924.22" y1="428.56" x2="1273.43" y2="428.56" xlink:href="#Áåçûìÿííûé_ãðàäèåíò_101"/><linearGradient id="Áåçûìÿííûé_ãðàäèåíò_101-8" x1="889.14" y1="742.26" x2="889.14" y2="493.42" xlink:href="#Áåçûìÿííûé_ãðàäèåíò_101"/><linearGradient id="Áåçûìÿííûé_ãðàäèåíò_101-9" x1="907.19" y1="749.83" x2="907.19" y2="607.92" xlink:href="#Áåçûìÿííûé_ãðàäèåíò_101"/></defs><g class="cls-2"><g id="Camada_2" data-name="Camada 2"><g id="background"><path class="cls-3" d="M1340.67,398.88c-449.79-85.46-903,595.86-1036.33,1230.88s943.78,714.18,1428.84,639.79c273.79-42,291.4-608.71,221.24-1039.32-54.15-332.3-170.12-531-201.66-671.7C1680.36,235.49,1517.31,432.44,1340.67,398.88Z" transform="translate(-293 -254.59)"/><path class="cls-3" d="M1820,514c-51.46,43.09,208.12,634.57,183.76,1053.73s364.61,302.78,335.94-302.26S1924,384.48,1820,514,1871.46,470.92,1820,514Z" transform="translate(-293 -254.59)"/><path class="cls-3" d="M447.19,996.63c-159.63-5.48-111.09-509.81,0-671s452-5.62,495.49,52.67S655,733.87,575.47,863.34,488.76,998.06,447.19,996.63Z" transform="translate(-293 -254.59)"/></g><g id="Camada_3" data-name="Camada 3"><path class="cls-4" d="M1726.55,1456.94l132.07-58.54,18.1-326.1s17.08-3.34,30.47-11.45,61.39-50.29,68.42-55.82a19.87,19.87,0,0,1,5-2.32l.61-.21c.22-.08.47-.17.72-.24.67-.24,1.38-.45,2.12-.68,2.1-.64,4.48-1.31,7.1-2l3-.76c2.27-.55,4.68-1.11,7.15-1.68l1.29-.28c5.85-1.3,12.07-2.56,18.1-3.72l2.77-.51c2-.35,3.9-.72,5.79-1s4-.68,5.83-1c1-.17,2-.34,2.94-.48l1.11-.18,2.9-.44c2.28-.34,4.33-.61,6.08-.83l1.55-.17c1.27-.13,2.33-.21,3.15-.24,10.22-.41,14-1.9,14.57-2.17l.11,0s9-8.73,7.25-20c-1.56-10.35-12.8-16.23-14.61-17.1a2.28,2.28,0,0,0-.25-.14,63.13,63.13,0,0,0-7.68,1.2c-4.38.84-11.17,2.27-21.5,4.72-1.51.34-3.08.73-4.71,1.15-.8.19-1.61.39-2.45.61l-5,1.29c-3.43.89-7,1.86-10.59,2.84l-4.27,1.18-1.15.33c-3.47.94-6.92,1.92-10.26,2.87-1,.31-2,.6-3,.88-1.27.36-2.52.73-3.76,1.07l-1.23.37-1.15.32-1.25.37c-.77.22-1.54.46-2.3.67l-.35.1-2.33.69c-1.15.32-2.23.64-3.28,1l-2,.59a.44.44,0,0,1-.2.07c-.89.28-1.74.53-2.53.76l-1,.28c-.46.13-.88.25-1.3.39l-.81.24-1.59.48-1.67.5-.55.16-.44.14-1.78-4.2s45.1-19.24,56.61-22.21,33-5.82,50.29-10.72c8.42-2.39,14.58-5,18.72-7.88v0c4.39-3,6.52-6.22,6.78-9.6.46-6.6-3-26.2-10.75-29.59-4.32-1.9-14.44.13-26.82,4.21h-.08c-9.7,3.19-20.81,7.61-31.58,12.34-2.31,1-4.88,2.12-7.67,3.28a7.73,7.73,0,0,1-.77.32l-2.07.87-1.45.61-3,1.23-7.15,2.91c-.72.3-1.45.58-2.18.89l-10.16,4-4.76,1.87c-2.51,1-5,2-7.45,2.92L1972,927c-.25.09-.52.19-.76.3l-2.34.9-3.11,1.2c-.89.33-1.75.68-2.6,1-.53.19-1.07.39-1.58.6l-2.11.82-2.33.89c-.6.23-1.19.45-1.75.68l-4.63,1.76-1.88.71-4.62,1.77-.91.35c-.4.16-.62.23-.62.23s-4-5.65-3.56-8.39c0-.24.48-.74,1.29-1.45.4-.35.87-.74,1.44-1.19.79-.62,1.72-1.32,2.79-2.14l1.48-1.07,1.77-1.25.94-.67,1-.69c6.41-4.47,14.94-10.09,23.39-15.43.73-.47,1.46-.92,2.2-1.37,1-.65,2.06-1.3,3.07-1.92l2.22-1.36c.56-.34,1.11-.69,1.67-1s1.41-.86,2.11-1.28c2.47-1.49,4.85-2.89,7.05-4.14l3.17-1.8c1-.55,2-1.08,2.89-1.55.6-.33,1.18-.62,1.72-.9.27-.14.55-.26.8-.4l.75-.36.71-.33,0,0,.93-.39c.35-.15.67-.3,1-.4l.62-.21c8.7-2.72,33.33-9.4,52.5-16.11,3.4-1.19,6.61-2.35,9.53-3.53,10.3-4.09,15.15-39.93-11.3-46.17-.7-.16-4.07,1-9.06,3-1,.39-2.1.83-3.26,1.31-2.64,1.09-5.58,2.37-8.73,3.75-14.48,6.43-33.36,15.61-46.27,23.44l-1.57,1c-.9.55-1.78,1.11-2.6,1.64-21.58,14-68.15,45.76-68.15,45.76s-4.49-2.26-4.94-3.88,34.12-38,43.11-49.16,64.84-47.76,73.22-63.83c0-.05,0-.06,0-.09a27.67,27.67,0,0,0,1.5-3.39l0-.1c.14-.35.26-.74.4-1.12v0c4.45-13.83-4.35-24.25-15-23.35-5,.43-14.63,3.48-26.1,9.38-15.83,8.11-35.14,21.59-50.56,41-1.81,2.27-3.56,4.47-5.2,6.55-22.63,28.73-31.25,41.63-42.8,53.68-1.52,1.57-3.69,3.65-6.36,6v0c-18.91,17.1-61.66,51.22-61.66,51.22s-7.21-4.54-11.33-10.64a21.75,21.75,0,0,1-1.32-2.26c-1.74-3.47-1.14-12.52-.32-22.22v0c.87-10.39,2-21.53.78-27.27-2.33-11.08-7-41.49-37.82-57.45a26.19,26.19,0,0,0-7.58.71,38.82,38.82,0,0,0-5.42,1.65,49.09,49.09,0,0,0-14.74,9l1,1.91c4.71,9,24.67,47.47,30,67.66a38.5,38.5,0,0,1,.9,4.86v0c3.46,27-9,92.16-7.74,102.47,1.78,14.81,44.11,73.07,45.33,83.95S1726.55,1456.94,1726.55,1456.94Z" transform="translate(-293 -254.59)"/><path class="cls-5" d="M2063.64,826.39s22.37,6.29,9.71,31.9C2073.35,858.29,2078.81,839.42,2063.64,826.39Z" transform="translate(-293 -254.59)"/><path class="cls-6" d="M2007.93,758.67s10.07-5.29,19.12-1,6.19,18,1.25,24.36a18,18,0,0,0-.88-16.14C2023,757.94,2015,756.25,2007.93,758.67Z" transform="translate(-293 -254.59)"/><path class="cls-7" d="M2084.65,892.52s16.24,12.7,6.92,29.28C2091.57,921.8,2092.44,909.59,2084.65,892.52Z" transform="translate(-293 -254.59)"/><path class="cls-8" d="M2067.15,953.68s17.66,11.67,3.81,27.9C2071,981.58,2080.2,967.34,2067.15,953.68Z" transform="translate(-293 -254.59)"/><path class="cls-9" d="M2028.7,780.93c-.13.36-.25.74-.4,1.1A7.35,7.35,0,0,1,2028.7,780.93Z" transform="translate(-293 -254.59)"/><path class="cls-10" d="M2060.09,949l-7.91,1.08a59.24,59.24,0,0,1,7.66-1.21Z" transform="translate(-293 -254.59)"/><path class="cls-11" d="M1853.15,1068.08l23.57,4.22s17.08-3.34,30.47-11.45,61.39-50.29,68.42-55.82a19.87,19.87,0,0,1,5-2.32l.61-.21c.22-.08.47-.17.72-.24.67-.24,1.37-.45,2.12-.68,2.1-.64,4.48-1.31,7.1-2l3-.76c2.27-.55,4.68-1.11,7.15-1.68l1.29-.28c5.85-1.3,12.07-2.56,18.1-3.72.93-.16,1.86-.35,2.77-.51,2-.35,3.9-.72,5.79-1s4-.68,5.83-1l2.94-.48,1.11-.18,2.9-.44c2.28-.34,4.33-.61,6.08-.83l1.55-.17c1.27-.13,2.33-.21,3.15-.24,10.22-.41,14-1.9,14.57-2.17-4.74,1.85-14.91-8.19-16.86-20.57s1.68-15.5,1.68-15.5c-4.38.84-11.17,2.27-21.5,4.72-1.51.34-3.08.73-4.71,1.15h0l-2.42.6-5,1.29c-3.42.91-7,1.86-10.59,2.84l-4.27,1.18-1.15.33c-3.46,1-6.92,1.92-10.26,2.87-1,.31-2,.6-3,.88-1.27.36-2.52.73-3.76,1.07l-1.23.37-1.15.32-1.25.37c-.77.22-1.54.46-2.3.67l-.35.1c-.8.25-1.58.48-2.33.69-1.14.34-2.24.67-3.28,1l-2,.59a.44.44,0,0,1-.2.07c-.89.28-1.74.53-2.53.76l-1,.28c-.45.14-.89.28-1.3.39l-.81.24-1.59.48-1.67.5-.55.16-.44.14-1.78-4.2s45.1-19.24,56.61-22.21,33-5.82,50.29-10.72c8.42-2.39,14.58-5,18.72-7.88v0c-6.12,2.88-15.94,5-15.94,5s-10.7,1.66-15.52-12.85a41.11,41.11,0,0,1,.67-27.09h-.08c-9.7,3.19-20.81,7.61-31.58,12.34-2.31,1-4.88,2.12-7.67,3.28l-.64.27-.13,0-2.07.87-1.45.61c-1,.39-2,.82-3,1.23l-7.15,2.91c-.73.28-1.45.58-2.18.89l-10.16,4-4.76,1.87c-2.51,1-5,2-7.45,2.92L1972,927c-.25.09-.52.19-.76.3l-2.34.9-3.11,1.2-2.6,1c-.53.19-1.07.39-1.58.6l-2.11.82-2.33.89c-.6.23-1.19.45-1.75.68l-4.63,1.76c-.65.26-1.29.51-1.88.71l-4.62,1.77-.91.35c-.4.16-.62.23-.62.23s-4-5.65-3.56-8.39c0-.24.48-.74,1.29-1.45.4-.35.87-.74,1.44-1.19.79-.62,1.72-1.32,2.79-2.14l1.48-1.07,1.77-1.25.94-.67,1-.69c6.41-4.47,14.94-10.09,23.39-15.43.74-.45,1.46-.92,2.2-1.37,1-.65,2.06-1.3,3.07-1.92l2.22-1.36c.56-.34,1.11-.69,1.67-1,.71-.42,1.41-.86,2.11-1.28,2.47-1.49,4.85-2.89,7.05-4.14l3.17-1.8c1-.55,2-1.08,2.89-1.55l1.72-.9c.27-.14.55-.26.8-.4s.51-.25.75-.36l.71-.33,0,0,.93-.39c.35-.15.67-.3,1-.4l.62-.21c8.7-2.72,33.33-9.4,52.5-16.11-1-.11-14.68-4.78-19-18.83-4.12-13.32,6.56-26.06,8.21-27.9a1.8,1.8,0,0,1,.21-.24l-3.47,1.55c-15.41,6.95-42.25,19.6-55,27.19l-1.57,1c-.9.55-1.78,1.11-2.6,1.64-21.58,14-68.15,45.76-68.15,45.76s-4.49-2.26-4.94-3.88,34.12-38,43.11-49.16,64.84-47.76,73.22-63.83c-4.89,8.19-42.31,24.39-54.61,10.83-2.59-2.88-14.91-11.13,15.47-29.52-15.83,8.11-35.14,21.59-50.56,41-1.81,2.27-3.56,4.47-5.2,6.55-22.63,28.73-31.25,41.63-42.8,53.68-1.52,1.57-3.69,3.65-6.36,6v0s38.9,38.89,51,59,33.37,64.54,31.54,71.89c-4,16.14-48.09,47.13-71.07,56.28C1873.11,1069.71,1855.84,1068.36,1853.15,1068.08Z" transform="translate(-293 -254.59)"/><path class="cls-12" d="M2085.3,929.05h0c-4.14,2.83-10.3,5.49-18.72,7.88-17.3,4.9-38.78,7.75-50.29,10.72,0,0-8.07-3.75-10-18.64-1.8-13.9,7-18.46,8.1-19l.12,0c3-1.26,5.82-2.46,8.31-3.55,10.77-4.74,21.87-9.16,31.57-12.34l.08,0a41.12,41.12,0,0,0-.66,27.08c4.81,14.52,15.51,12.86,15.51,12.86S2079.18,931.91,2085.3,929.05Z" transform="translate(-293 -254.59)"/><path class="cls-13" d="M2067.35,986.11c-.59.26-4.35,1.76-14.57,2.16-3.76.15-12.85,1.45-23.57,3.34a19.47,19.47,0,0,1-7.9-8.05c-5.58-10.76.36-26.25.36-26.25l4.25-1.39h0c1.63-.42,3.21-.8,4.71-1.15,10.32-2.44,17.11-3.88,21.52-4.71,0,0-3.67,3.1-1.73,15.49S2062.59,988,2067.35,986.11Z" transform="translate(-293 -254.59)"/><path class="cls-14" d="M2056.76,872.35c-19.18,6.72-43.8,13.4-52.52,16.12a21.18,21.18,0,0,0-2.53,1h0S1990,884,1986.3,865.63a27.57,27.57,0,0,1-.22-10.54c12.93-8,46.28-23.38,61.37-30.08,0,0-15,11.87-10.54,26.28C2041.26,865.34,2055.78,872.24,2056.76,872.35Z" transform="translate(-293 -254.59)"/><path class="cls-15" d="M1808.34,912.5l3.4,12s22.91,11.74,27.63,20.1,17.17,45.07,13.83,66.46c0,0,5.94-15.33.6-39.39s-8.17-28.84-8.17-28.84L1821,925.38Z" transform="translate(-293 -254.59)"/><path class="cls-16" d="M1807.68,910.37c.06.31.12.59.2.86a7.2,7.2,0,0,0,.46,1.27,21.72,21.72,0,0,0,1.34,2.24l-.41,1s-.52-1.74-1.46-4.38c-2.2-6.25-9.62-13.83-14.54-18.55-7-6.72-18-1.48-18-1.48v0a39.91,39.91,0,0,0-.91-4.86c-5.38-20.19-25.34-58.67-30.06-67.66l.07-.86,10.29-4.48,16.36-8a66.5,66.5,0,0,1,14.29,9.89h0c18.1,16.45,21.59,38.47,23.51,47.56,2,9.49-2.39,33.72-1.46,45a20.91,20.91,0,0,0,.31,2.24Z" transform="translate(-293 -254.59)"/><path class="cls-17" d="M1742.38,818l11-6.2s21.95,32.5,9.75,45.8Z" transform="translate(-293 -254.59)"/><path class="cls-18" d="M1767.5,993.82s25,20.7,35.22,31.35,42.39,39.27,42.39,39.27l-33.51,7.79s-11.72-16.75-27-42.94S1767.5,993.82,1767.5,993.82Z" transform="translate(-293 -254.59)"/><path class="cls-19" d="M1821,925.38s20.42,1.56,30,2.09,14.57.58,14.57.58-21.45-6.67-25.51-7.28-15.17,1.52-15.17,1.52Z" transform="translate(-293 -254.59)"/><path class="cls-20" d="M1845.63,942.8l-11-3.61s8.6,31.19,9.22,50-.91,45.35-.91,45.35,18-30,12.24-55.47S1845.63,942.8,1845.63,942.8Z" transform="translate(-293 -254.59)"/><polygon class="cls-21" points="1617.4 644 1605.31 632.43 1623.37 636.41 1617.4 644"/><polygon class="cls-22" points="1622.33 647.89 1632.12 660.7 1632.61 640.91 1622.33 647.89"/><polygon class="cls-23" points="1646.23 675.22 1640.54 668.89 1653.51 669.19 1646.23 675.22"/><polygon class="cls-24" points="1649.79 683.61 1652.58 693.47 1658.12 680.44 1649.79 683.61"/><polygon class="cls-25" points="1666.69 715.28 1657.06 704.48 1671.86 713.82 1666.69 715.28"/><polygon class="cls-26" points="1668.46 719.48 1670.38 730.05 1673.12 718.27 1668.46 719.48"/><polygon class="cls-27" points="1682.62 750.43 1675.43 741.55 1687.41 748.18 1682.62 750.43"/><path class="cls-28" d="M1882.65,874.17s67.16,65,90.19,133.13l-10.44-33.58-2.12-4.1-17.49-31.42-3.55-8.39-23.91-27.33-4.93-3.89Z" transform="translate(-293 -254.59)"/><path class="cls-29" d="M1852.93,1068.05l-7.82-3.61-23.53-21.26s3.36,62,15.07,122.59S1819,1415,1819,1415l39.6-16.64,18.11-326.08S1860.76,1071.66,1852.93,1068.05Z" transform="translate(-293 -254.59)"/><path class="cls-28" d="M1956.06,846.73l11.7-12.3,57.62-46.83s-3.29,6.68-22.47,21.78S1956.06,846.73,1956.06,846.73Z" transform="translate(-293 -254.59)"/><path class="cls-28" d="M2001.69,889.49s56.4-16.9,63-22.56c7.49-6.41,9.8-17,9.8-17s1,13.48-7.41,18.55C2060.32,872.53,2001.69,889.49,2001.69,889.49Z" transform="translate(-293 -254.59)"/><path class="cls-30" d="M1877.33,920.09s16.47,27,21.51,36.5,18.74,26.74,18.74,26.74l32.57,25.77-12.14-7.61-27.56-15.4-22.17-45Z" transform="translate(-293 -254.59)"/><polygon class="cls-31" points="1578.7 786.25 1588.36 726.09 1588.32 696.9 1582.41 672.22 1590.5 700.79 1588.39 746.26 1578.7 786.25"/><path class="cls-32" d="M1759.58,849.57s16.78,30.26,17.6,33.16-1.47,27-1.47,27,.21-16.2-1.38-23.21S1759.58,849.57,1759.58,849.57Z" transform="translate(-293 -254.59)"/><path class="cls-33" d="M2084.65,892.52s10.29,14.68,6.92,29.28C2091.57,921.8,2092.05,910.33,2084.65,892.52Z" transform="translate(-293 -254.59)"/><path class="cls-33" d="M2067.15,953.68s14.83,11.89,3.81,27.9C2071,981.58,2080.08,967.36,2067.15,953.68Z" transform="translate(-293 -254.59)"/><path class="cls-33" d="M2063.64,826.39s17.85,8,9.71,31.9C2073.35,858.29,2078.3,838.39,2063.64,826.39Z" transform="translate(-293 -254.59)"/><path class="cls-33" d="M2012,757.75s25.08-3.18,16.26,24.28C2028.3,782,2035.25,758.17,2012,757.75Z" transform="translate(-293 -254.59)"/><polygon class="cls-34" points="1451.7 567.83 1463.15 561.61 1460.41 557.2 1449.37 563.39 1451.7 567.83"/><g class="cls-35"><path class="cls-36" d="M1767.5,993.82l8.82,4.88a128.35,128.35,0,0,0,14.63-30c5.44-16.77-10.16-80.12-10.16-80.12l-5.55,2.77.56,15.47Z" transform="translate(-293 -254.59)"/></g><g class="cls-37"><path class="cls-36" d="M1931.83,814.43s24.06-21.61,39.26-33,36.84-22.79,36.84-22.79S1992.19,761,1966,780.25,1931.83,814.43,1931.83,814.43Z" transform="translate(-293 -254.59)"/></g><g class="cls-37"><path class="cls-36" d="M1824.87,922.29s16.73-4.09,19-5.38,36.85-37,36.85-37l1.92-5.78Z" transform="translate(-293 -254.59)"/></g><path class="cls-36" d="M1763.17,857.58l-5.78-11s5-6.64,9.24,3.35C1766.63,849.93,1766.35,855.57,1763.17,857.58Z" transform="translate(-293 -254.59)"/><path class="cls-38" d="M1807.81,911.39l-.13-1c.06.31.12.59.2.86Z" transform="translate(-293 -254.59)"/><path class="cls-39" d="M1808.81,863c2,9.49-2.39,33.72-1.46,45l-1.34-9.93s-2.18-19.66-5.8-40.29-14.93-42.37-14.93-42.37h0C1803.4,831.88,1806.89,853.9,1808.81,863Z" transform="translate(-293 -254.59)"/><path class="cls-40" d="M2082.51,930.77s-8.45,4.65-18,2.65-12.49-18.8-12.49-18.8a68.55,68.55,0,0,0,.15,13.25,62.71,62.71,0,0,0,3.2,11.89S2077.75,935.17,2082.51,930.77Z" transform="translate(-293 -254.59)"/><path class="cls-41" d="M2056.76,872.35s-12.26-2.72-18.33-16.83a37.53,37.53,0,0,0,9.92,19.8Z" transform="translate(-293 -254.59)"/><polygon class="cls-42" points="1564.47 813.72 1584.07 912.69 1583.72 817.72 1564.47 813.72"/><path class="cls-43" d="M1763.17,857.58l1.89,4.09s12.26-13.11-10.39-48.37C1754.67,813.3,1774.94,847.43,1763.17,857.58Z" transform="translate(-293 -254.59)"/><path class="cls-44" d="M1759,798l143,270a16.79,16.79,0,0,0,21.43,7.7l119.59-48c8.77-3.71,19.7-19.72,14.55-31.83l-129-252.19a16.79,16.79,0,0,0-17.76-9.43c-24,3.71-83.66-2-145.79,27.5C1753,767.41,1754.51,789.25,1759,798Z" transform="translate(-293 -254.59)"/><path class="cls-45" d="M1759.6,783.59l144.33,277.34a17,17,0,0,0,21.76,7.82l122.42-51.87a17,17,0,0,0,8.77-23L1931.8,728.38a17.06,17.06,0,0,0-18-9.58c-24.36,3.77-81,14.6-145.59,41.19A17,17,0,0,0,1759.6,783.59Z" transform="translate(-293 -254.59)"/><path class="cls-46" d="M1919.92,1065.62a13.73,13.73,0,0,1-12.35-7.43L1763.24,780.85a13.85,13.85,0,0,1-.72-11.13,13.56,13.56,0,0,1,7.64-8c65.33-26.87,123.07-37.61,144.86-41a15,15,0,0,1,2-.16,13.86,13.86,0,0,1,12.6,7.92L2054.7,994.07a13.79,13.79,0,0,1-7.09,18.58l-122.42,51.88a13.73,13.73,0,0,1-5.27,1.09Z" transform="translate(-293 -254.59)"/><path class="cls-47" d="M1920.68,1059.76a8.91,8.91,0,0,1-8-4.81L1768.58,778.6a9,9,0,0,1-.47-7.22,8.8,8.8,0,0,1,4.93-5.14c64.85-26.67,122.13-37.32,143.75-40.66a8.17,8.17,0,0,1,1.31-.11,9,9,0,0,1,8.15,5.12l125.07,265.55a8.92,8.92,0,0,1-4.59,12l-122.64,50.88A8.94,8.94,0,0,1,1920.68,1059.76Z" transform="translate(-293 -254.59)"/><polygon class="cls-48" points="1632.59 820.19 1632.69 814.16 1755.11 762.29 1751.47 772.74 1632.59 820.19"/><polygon class="cls-49" points="1688.29 795.13 1688.25 791.71 1713.41 781.23 1713.45 785.69 1688.29 795.13"/><polygon class="cls-50" points="1709.33 782.93 1709.34 785.11 1688.27 793.88 1688.25 791.71 1709.33 782.93"/><path class="cls-51" d="M1849.68,956.68l54.25,104.25s6,12.49,21.76,7.82l43.78-18.55-43.93,17.59s-10.18,2.85-20.59-7.31Z" transform="translate(-293 -254.59)"/><path class="cls-34" d="M1832.29,913.53l175.65,115.93-82.75,35.07s-12,4.54-17.62-6.34Z" transform="translate(-293 -254.59)"/><path class="cls-52" d="M1821,925.32a122.13,122.13,0,0,1,9,18.13l8.51,21.68s2,28.88,6.4,33.2,20.73,9.26,20.73,9.26l29,53.45,5.64,3.56L1825,922.16Z" transform="translate(-293 -254.59)"/><path class="cls-52" d="M1758,807.89c1.52,2,10.8,14.08,15.26,21.93,4.69,8.25,32.64,56.75,34.79,60.45v0l-44.62-84A38.82,38.82,0,0,0,1758,807.89Z" transform="translate(-293 -254.59)"/><path class="cls-53" d="M1768.31,778.15l19.47,37.27,146.88-67-8.78-18.57c-1.24-2.52-5.65-4.74-8.43-4.36-48.11,6.42-92.87,20.19-145.71,41.39C1768.54,768.2,1766.61,775.15,1768.31,778.15Z" transform="translate(-293 -254.59)"/><g class="cls-54"><polygon class="cls-55" points="1610 487.5 1611.6 483.1 1626.97 490.3 1626.17 492.5 1610 487.5"/><polygon class="cls-55" points="1619.47 479.41 1623.81 481.03 1616.71 496.65 1614.54 495.84 1619.47 479.41"/></g><polygon class="cls-56" points="1632.2 769.9 1620 743.74 1712.49 703.16 1722.4 730.32 1632.2 769.9"/><polygon class="cls-57" points="1613.34 739.48 1618.23 734.74 1706.92 694.62 1715.9 694.4 1613.34 739.48"/><path class="cls-58" d="M1930,976.32l-5.48,2.91-5.78-11.18-.22-.12,1.78-.95,2.12,3.65,1.65,3.19,1.18,2.54.18,0,3.45-2.25Z" transform="translate(-293 -254.59)"/><path class="cls-58" d="M1936.53,972.8l-5.9,3.13-3.74-7.25-.72-.93-.66-1.28,0-.23-.87-1.69,1.73-.82,4.09-2.17,3.78,7.31Zm-2.61-.65-2.61-5-1.64-2.81-.21-.13-2.34,1.25,1.53,2.55,0,.19.2.17,0,.2h.15l2.55,4.94Z" transform="translate(-293 -254.59)"/><path class="cls-58" d="M1942.4,970.09l-1.62-1.88-2.53,1.34.72,2.27-1.43.76-3.22-9,.06-.07-.36-1.16-.23-1.17-.39-1,1.47-.78.61-.38.28.28.16.36.13,0,.92,1,1.33,1.58,3.22,4.15,2.17,2.95Zm-2.89-3.55-3.59-4.34.57,1.11,1.22,4.18Z" transform="translate(-293 -254.59)"/><path class="cls-58" d="M1948.21,959.84l0,.1-.07.12,1.16,2.24.13.33.16.09.15.46.26.62.14.09.27.53-.2,1-.42.74-5.3,2.82-.12-.14-.56-.84-.42-.74,0-.15,0-.09,1.06-.46v-.17l-.25-.4-.11-.28-.12-.13-.26-.5-.08-.38-.26,0-.12-.23.12-.38-.22-.07-1.59-3.09-.37-.36-.23-.75-.37-.88-.1-.42-1.12.6-.08-.26-.3-.58-.2-.29.05-.2-.12-.08-.28-.43,4.11-2.19,1.07-.7,1.68.61,1.31,2.19.53.81,0,.11.16.09.09.45.46.89Zm-.2,4.46-.86-1.39-.05-.33-.72-.81-.12-.24,0-.16h0l-.34-.4.06-.11-.58-.88-1.57-3.05-1.49.8.59.68,1.32,2.56v.11l.64,1,1.73,3.34,1.58-.84-.05-.17Z" transform="translate(-293 -254.59)"/><path class="cls-58" d="M1958,961.4l-5.89,3.13-3.75-7.25-.72-.93-.66-1.28,0-.23-.87-1.69,1.73-.81,4.1-2.18,3.78,7.31Zm-2.6-.65-2.61-5-1.65-2.81-.2-.13-2.35,1.25,1.53,2.55,0,.19.21.17,0,.2h.14l2.56,4.94Z" transform="translate(-293 -254.59)"/><path class="cls-58" d="M1963,953.85v.09l1.24,2.4-.1.11.45.87.29.42-1.35.72-6.46-5.67,3.66,7.1-1.5.8-.68-.89,0-.15-1.71-2.65-.08-.35L1953.4,950l-.32-.42,1.18-.63,0-.12.23,0,.31-.27.94,1.07.33.11,1.13,1h.22l0,.14.53.39v.12l2.92,2.54.21.11-.42-.81-1.67-2.58,0-.13-.76-1.49h-.17l.07-.17-.8-1.55,1.61-.85,2,3.79.19.06,0,.28.22.12,1.41,2.73Z" transform="translate(-293 -254.59)"/><path class="cls-58" d="M1966.07,942.67l.26.51,1.21,2.9-1.63.87-.81-1.56-2,1v.51l3.67,7.1.34.32.29-.08.86-.46.23.14.23-.38h.14l.25-.13.06-.09-1.5-2.92-1.28.68-1.07-2.08,3-1.59,3.47,6.71-5.56,3-5.9-11.41Z" transform="translate(-293 -254.59)"/><path class="cls-58" d="M1975.05,951.67l-.38.84-.59.31-.48,0-.48-.18-.4-.32-.18-.35,0-.49.16-.51.28-.41.36-.19.49.06.46.23.39.39Z" transform="translate(-293 -254.59)"/><path class="cls-58" d="M1978.44,949.87l-.39.84-.58.31-.48,0-.48-.18-.41-.33-.17-.34,0-.5.17-.5.28-.41.35-.19.5.06.46.23.39.39Z" transform="translate(-293 -254.59)"/><path class="cls-58" d="M1981.83,948.06l-.39.85-.58.31-.48,0-.49-.18-.4-.32-.18-.34,0-.5.17-.51.28-.4.35-.19.5,0,.45.24.4.39Z" transform="translate(-293 -254.59)"/><polygon class="cls-59" points="1637.88 775.64 1642.99 781.51 1724.84 745.6 1724.22 737.82 1637.88 775.64"/><path class="cls-60" d="M1906.34,994.07l18.53,38.79,98.74-43.25L2008.91,949Zm109.07-9.16-90.21,39.58L1913,998.33l92.49-40.58Z" transform="translate(-293 -254.59)"/><path class="cls-61" d="M1913,998.33l59.31-26,10.54,26.89-57.66,25.3A202.86,202.86,0,0,1,1913,998.33Z" transform="translate(-293 -254.59)"/><g class="cls-62"><polygon class="cls-63" points="1623.06 538.23 1573.09 561.65 1571.47 558.1 1621.45 534.68 1623.06 538.23"/><polygon class="cls-63" points="1651.45 532.84 1576.05 568.17 1574.44 564.62 1649.84 529.29 1651.45 532.84"/><polygon class="cls-63" points="1620.22 531.97 1570.24 555.38 1568.63 551.83 1618.6 528.41 1620.22 531.97"/><polygon class="cls-63" points="1596.99 534.22 1567.01 548.27 1565.4 544.72 1595.38 530.67 1596.99 534.22"/><polygon class="cls-63" points="1599.59 564.94 1578.97 574.6 1577.36 571.05 1597.97 561.39 1599.59 564.94"/><polygon class="cls-63" points="1652.28 540.25 1612.75 558.78 1611.13 555.23 1650.66 536.7 1652.28 540.25"/><polygon class="cls-63" points="1610.36 559.9 1603.96 562.89 1602.35 559.34 1608.74 556.35 1610.36 559.9"/><polygon class="cls-63" points="1632.56 533.52 1626.16 536.52 1624.54 532.97 1630.94 529.97 1632.56 533.52"/><polygon class="cls-63" points="1631.69 557.22 1581.71 580.64 1580.1 577.09 1630.07 553.67 1631.69 557.22"/><polygon class="cls-63" points="1660.08 551.83 1584.67 587.16 1583.06 583.61 1658.46 548.28 1660.08 551.83"/><polygon class="cls-63" points="1608.21 583.93 1587.6 593.6 1585.98 590.04 1606.6 580.38 1608.21 583.93"/><polygon class="cls-63" points="1618.98 578.89 1612.58 581.89 1610.97 578.34 1617.37 575.34 1618.98 578.89"/><polygon class="cls-63" points="1630.77 518.39 1600.79 532.44 1599.17 528.89 1629.15 514.84 1630.77 518.39"/></g><g class="cls-62"><polygon class="cls-63" points="1620.68 662.01 1570.71 685.43 1569.09 681.88 1619.07 658.46 1620.68 662.01"/><polygon class="cls-63" points="1649.07 656.62 1573.67 691.96 1572.06 688.4 1647.46 653.07 1649.07 656.62"/><polygon class="cls-63" points="1617.84 655.75 1567.86 679.16 1566.25 675.61 1616.22 652.2 1617.84 655.75"/><polygon class="cls-63" points="1597.2 688.73 1576.59 698.39 1574.98 694.84 1595.59 685.17 1597.2 688.73"/><polygon class="cls-63" points="1649.9 664.04 1610.37 682.56 1608.76 679.01 1648.29 660.49 1649.9 664.04"/><polygon class="cls-63" points="1607.98 683.68 1601.58 686.68 1599.96 683.13 1606.36 680.13 1607.98 683.68"/><polygon class="cls-63" points="1630.17 657.31 1623.78 660.31 1622.16 656.75 1628.56 653.76 1630.17 657.31"/><polygon class="cls-63" points="1629.31 681.01 1579.33 704.42 1577.72 700.87 1627.69 677.45 1629.31 681.01"/><polygon class="cls-63" points="1657.7 675.62 1582.29 710.95 1580.68 707.39 1656.09 672.07 1657.7 675.62"/><polygon class="cls-63" points="1605.83 707.72 1585.21 717.38 1583.6 713.83 1604.22 704.17 1605.83 707.72"/><polygon class="cls-63" points="1616.6 702.67 1610.2 705.67 1608.59 702.12 1614.99 699.12 1616.6 702.67"/></g><g class="cls-62"><polygon class="cls-63" points="1599.97 616.44 1550 639.85 1548.38 636.3 1598.36 612.89 1599.97 616.44"/><polygon class="cls-63" points="1628.36 611.05 1552.96 646.38 1551.35 642.83 1626.75 607.5 1628.36 611.05"/><polygon class="cls-63" points="1597.13 610.17 1547.15 633.59 1545.54 630.04 1595.51 606.62 1597.13 610.17"/><polygon class="cls-63" points="1573.9 612.43 1543.92 626.47 1542.31 622.92 1572.28 608.88 1573.9 612.43"/><polygon class="cls-63" points="1576.49 643.15 1555.88 652.81 1554.27 649.26 1574.88 639.6 1576.49 643.15"/><polygon class="cls-63" points="1629.19 618.46 1589.66 636.98 1588.04 633.43 1627.57 614.91 1629.19 618.46"/><polygon class="cls-63" points="1587.27 638.1 1580.87 641.1 1579.25 637.55 1585.65 634.55 1587.27 638.1"/><polygon class="cls-63" points="1609.46 611.73 1603.07 614.73 1601.45 611.18 1607.85 608.18 1609.46 611.73"/><polygon class="cls-63" points="1608.6 635.43 1558.62 658.85 1557.01 655.29 1606.98 631.88 1608.6 635.43"/><polygon class="cls-63" points="1636.99 630.04 1561.58 665.37 1559.97 661.82 1635.37 626.49 1636.99 630.04"/><polygon class="cls-63" points="1607.67 596.6 1577.7 610.65 1576.08 607.1 1606.06 593.05 1607.67 596.6"/></g><polygon class="cls-64" points="1512.59 566.44 1537.11 617.25 1582.77 595.86 1559.43 544.49 1512.59 566.44"/><g id="Camada_2-2" data-name="Camada 2"><g id="Camada_1-2" data-name="Camada 1-2"><path class="cls-65" d="M1836.74,840.35l3.27,6.82-9.45-.66-.27-.57h0l-5-10.44.32-.16a11.61,11.61,0,0,0,1.44,2.43,7.2,7.2,0,0,0,4.76,2.75A13.51,13.51,0,0,0,1836.74,840.35Z" transform="translate(-293 -254.59)"/><g id="a6558fe5-ccb8-47c7-a172-7ececf87f5b0"><path class="cls-65" d="M1855.88,828.33a18.2,18.2,0,0,1,2,9,14,14,0,0,1-3,7.78,18.19,18.19,0,0,1-4.36,4,25.73,25.73,0,0,1-3.27,1.86l-11.18,5.35a.78.78,0,0,1-1-.35h0l-1.2-2.51a37.51,37.51,0,0,0,8.16-1.06c3.86-1,8.13-3.17,10.74-6a8.76,8.76,0,0,0,1.3-10.43,8,8,0,0,0-6.28-4.22l0-.14h0a1.27,1.27,0,0,0-.13-.32c-.16-.31-.34-.61-.53-.91s-.35-.54-.54-.79a8,8,0,0,0-.56-.71c-.19-.22-.39-.43-.59-.63s-.41-.38-.62-.55-.43-.32-.65-.46a6.52,6.52,0,0,0-.68-.38,6.7,6.7,0,0,0-1.44-.52c-.24,0-.47-.09-.71-.12a9.29,9.29,0,0,0-7.18,2.08l-3.1-6.48,1.73-.82a20.82,20.82,0,0,1,9.39-2.3,14.12,14.12,0,0,1,7.94,2.55A18.09,18.09,0,0,1,1855.88,828.33Z" transform="translate(-293 -254.59)"/><path class="cls-66" d="M1829.25,822.78l3.12,6.52-8.17,3.91-2.79-5.83a.75.75,0,0,1,.35-1h0Z" transform="translate(-293 -254.59)"/><path class="cls-65" d="M1832.36,829.3l-7.34,3.52h0a7.18,7.18,0,0,1,.2-2.21,10.49,10.49,0,0,1,2.66-5.05,14.63,14.63,0,0,1,1.67-1.67l.17-.14Z" transform="translate(-293 -254.59)"/><path class="cls-65" d="M1825.51,835.39l7.34-3.51a2.49,2.49,0,0,0,.11.29,2,2,0,0,0,1,1,4.17,4.17,0,0,0,2.1.21,29.12,29.12,0,0,0,4.13-.76,28.58,28.58,0,0,1,5.66-.93,13.4,13.4,0,0,1,1.9,0,9.25,9.25,0,0,1,2.14.38,6.88,6.88,0,0,1,2.77,1.59,9.3,9.3,0,0,1,1.87,2.65,8.84,8.84,0,0,1,.83,5.49,10,10,0,0,1-2.74,5.12,20.56,20.56,0,0,1-6.23,4.32,26.43,26.43,0,0,1-4.44,1.67,24.89,24.89,0,0,1-4.53.82,16.39,16.39,0,0,1-3.43-.05l-3.69-7.71a22.52,22.52,0,0,0,5.16.78,31.72,31.72,0,0,0,4,0l.53-.06a9.83,9.83,0,0,0,3.32-1.09l.38-.18a9,9,0,0,0,3.4-2.47,2.74,2.74,0,0,0,.42-.77,2,2,0,0,0,0-1.67,2.09,2.09,0,0,0-1-1,4.53,4.53,0,0,0-2.13-.21,27.16,27.16,0,0,0-3.91.71c-1.31.34-2.51.59-3.6.77a21.69,21.69,0,0,1-2.21.25,11.34,11.34,0,0,1-4.06-.36,6.42,6.42,0,0,1-2.76-1.63,10.08,10.08,0,0,1-1.9-2.75Z" transform="translate(-293 -254.59)"/></g></g></g></g><g id="illustration"><g class="cls-67"><path class="cls-68" d="M899.61,2411.73V2520h661.68s.94-221.07,18-360.71S941.4,2373.33,899.61,2411.73Z" transform="translate(-293 -254.59)"/><path class="cls-69" d="M1777.69,1238.64c-18.24,6.72-27.74,89.48-6.68,141.21s77.93,100.92,115.76,118.57-.79-168.71-38.19-213.27S1777.69,1238.64,1777.69,1238.64Z" transform="translate(-293 -254.59)"/><path class="cls-70" d="M1083.67,1079c-19,14.38-54.37,85.21-110.47,103.11s-96.77-11.66-121.2,27,128.36,316.79,151,612.83-108.63,626.69-108.63,626.69,177.36,15.76,250.68,21.49c163.14,12.73,355.72-77.6,446.44-119.37C1596,2298,1534.23,1457.84,1512,1270s-19.1-192.58-108.23-210.09-150.23-39.55-150.23-39.55Z" transform="translate(-293 -254.59)"/><path class="cls-71" d="M1082,2437.17c-13.3-5.27,98-125.84,154.58-236.85s93.54-238.74,105.48-244.71,88.38,242.32,101.49,352.14S1254.06,2486.61,1082,2437.17Z" transform="translate(-293 -254.59)"/><path class="cls-72" d="M1085.2,1230.23c-4,7.75,27.13,208.43,38.62,222.06s97.48-12.27,165.71-76,35-167.34,21.87-171.4-32.47,72.14-80.36,82.45C1151.91,1304.36,1092.35,1216.27,1085.2,1230.23Z" transform="translate(-293 -254.59)"/><path class="cls-73" d="M1069.27,1166.69s75.1,694.62,139.92,861.74,78,224.41,64.24,248.29-148.19-102-178.85-530.87S1069.27,1166.69,1069.27,1166.69Z" transform="translate(-293 -254.59)"/><path class="cls-74" d="M1151.91,2450.15c-72.55,3.61,135.45-273.7,204-584.07s-12.08-613.56-12.08-613.56,87.34,312.11,34.63,686.06S1200.9,2447.71,1151.91,2450.15Z" transform="translate(-293 -254.59)"/><path class="cls-75" d="M1706.12,1720.43c-21.48,3.59-106.21-87.13-144.46-185,0,0,8.82,77.55,24.7,186,0,.13.06.19,0,.26a.46.46,0,0,1,.06.18c3.85,26.53,8.19,55,12.92,84.55v.19c8.5,53.24,18.27,110.19,29.17,166.89,41.83,217.29-5.92,290.06-23.82,304.42s-99.1,27.47-201.79,95.51c-38.55,25.58-61.93,30.74-75.28,22.62a19.16,19.16,0,0,1-2.71-2c-4.16-3.46-7.19-8.44-9.2-14.74l-.19-.76c-7-22.49-2.14-60.41,5-100.67,15.5-87.13,80-339,72.83-631.46s-87.76-544.32-99.67-570-33.7-32.63-33.7-32.63l-6.56-23.38c16.57-5,125.56,34.53,137.53,32.64s136.09-44.8,225.23-33.08c0,0,35,20,37.36,175.27,0,0,40.64,85.93,66.85,142S1727.61,1716.9,1706.12,1720.43Z" transform="translate(-293 -254.59)"/><path class="cls-76" d="M1260,1043.79s31.5,48,57.76,144.68,44.84,868.68,44.84,868.68,53-292.73,34.74-537.24-78.79-445.33-96.29-476.12-47.58-23.4-47.58-23.4Z" transform="translate(-293 -254.59)"/><path class="cls-75" d="M1061,2335.94c-5.86,17.77-12.54,31.94-20.16,41.84-57.33,74.46-163.43,75-209.73,71.12a4.41,4.41,0,0,1-1-.06h-.06c-13.48-1.13-21.61-2.65-21.61-2.65a377,377,0,0,0,24.38-42.52c.06-.13.13-.32.19-.44,5.67-11.4,11.15-23.5,16.32-36.23,43.66-106,73-254.39,92.48-393.31l.19-1.32c2.77-19.72,5.36-39.19,7.69-58.28,21.29-171.43,27.72-315.51,28.16-326.66-1.83,14.74-30.62,250.87-56,277.46-26.27,27.46-174.32,82.34-186.23,69.23s-57.33-131.29-23.88-282.93,124.11-298.37,124.11-298.37c-25-91.92-19.46-143.71-19.46-143.71,85.17-56.2,175.08-45.74,194.17-57.64s59.66-103.45,68.35-98.22l4.73,25.7s-10.21,23.19-12.6,43.47-4.79,211.24,14.3,427.71C1102.58,1744.55,1113.29,2179.2,1061,2335.94Z" transform="translate(-293 -254.59)"/><path class="cls-76" d="M1079,1053.28s-29.29,92.89-27.33,211.32,20.34,742.34,22.29,904.68-53.43,230.28-53.43,230.28,77.29-29.74,95.78-286-43.51-842.41-46.76-925.11,21.24-103.26,21.24-103.26Z" transform="translate(-293 -254.59)"/><path class="cls-75" d="M1079,1053.28s-20.73,26.86-58.47,88-96.42,140.52-96.42,150.07c0,21.43,37.14,21.43,51.67,28s-24.19,64.86-27.2,105.45,61.67,421,83.16,552.28,35.21,258,37.23,260.22,14.5-436.89,1.17-674.44-29.15-384.37-16.46-444.05S1079,1053.28,1079,1053.28Z" transform="translate(-293 -254.59)"/><path class="cls-75" d="M1277,1022.37s92.51,34.39,168.12,94.87,62.86,82.63,63.66,91.85-53.32,40.25-57.3,43.43,42.9,67.65,57.66,152-124.51,649.37-139.63,692.35-33.7,105-33.7,105,74.29-314.21,75.88-613.47S1295.09,1072.34,1277,1022.37Z" transform="translate(-293 -254.59)"/><path class="cls-77" d="M943.75,1962.38c-5.19,40.75,138.24,4.42,257.84-317.08,42.52-114.29,137.67-52.18,184.63-73.66s57.32-140.86,57.32-140.86-157.75-6.83-228.5,33.36-267.32,251.54-267.32,251.54l-.13,199.17Z" transform="translate(-293 -254.59)"/><path class="cls-69" d="M935,1870.86c1.1,78.53,114.59-13.13,128.32-140.86,9.34-86.91,4.18-131.31,4.18-131.31s-17.31-45.36-60.28-26.26S934.4,1828.48,935,1870.86Z" transform="translate(-293 -254.59)"/><path class="cls-78" d="M1508.66,1194.51c.91,19.42-36.5,36.53-62,35.73s-93.67-10.49-93.67-10.49,1.42,6.45,1.36,6.2,39.39-1.42,60.87,6a117.77,117.77,0,0,1,36.21,20.56s45-13.53,62.07-27.06S1508.66,1194.51,1508.66,1194.51Z" transform="translate(-293 -254.59)"/><path class="cls-79" d="M1337.13,1315.83a3.12,3.12,0,0,0-.44.57l.19-.06.5-.13c7.18-1.32,68.55-12.85,78.06-11.78,10.14,1.2,17.32,30.43,17.7,34s-6.74,6.36-6.74,6.36a45.39,45.39,0,0,1,12.35.45c5.54,1.19,10.33,33,10,38.55a9.09,9.09,0,0,1-5.16,7.56s7.56,17.52,7.56,33.46-36.86,40.19-50,68.23c0,0-30.43,6.55-35.22-14.31,0,0-53.74,49.52-73.4,58.47-5.92,2.71-14,3.09-22.93,2.52-20.91-1.39-46.93-8.25-63.63-4.91-23.88,4.78-186.23,171.23-247.53,225.35,0,0-13.1-110.57,57.71-192.72,0,0,68-59.47,129-109.62s118.76-146.23,122.92-151,47.18-23.88,71.63-69.81c.06,0,.06,0,.12-.06,2.34-1.2,39.88-20.35,59.6-42.34,20.29-22.68,30.43-35.78,43.54-38.18s25.07,7.75,29.23,26.84c2.08,9.51-2.65,26.4-16.13,43.22s-35.47,33.45-68,42.71C1388,1269.21,1355.71,1289.82,1337.13,1315.83Z" transform="translate(-293 -254.59)"/><path class="cls-80" d="M1456,1226.5c-13.35,16.76-35.47,33.45-68,42.71,0,0-32.32,20.61-50.9,46.62l3.34-.63-3.09,1-.5.13-.19.06s-36,5.73-39.63,6.93a6.25,6.25,0,0,1-2,.06h-.12c-6.55-.88-23.38-8-26.9-16.56,4.22-4.79,47.18-23.88,71.63-69.81.06,0,.06,0,.12-.06,25.77-7.44,29.11,17.45,36.48,26.33S1456,1226.5,1456,1226.5Z" transform="translate(-293 -254.59)"/><path class="cls-81" d="M1451.1,1424.83c0,15.87-36.86,40.19-50,68.23,0,0-30.43,6.55-35.22-14.31,0,0-53.74,49.52-73.4,58.47-5.92,2.71-14,3.09-22.93,2.52,28.29,1.26,88-72.33,95.51-97.84s-9.58-35.79-15.5-40.2-11.09-37-22.24-41.76-14.74-26.28-20.35-29.8a110.79,110.79,0,0,0-12.28-6.68l.19-.07h.12l42.09-7.56,3.34-.63-3.09,1c7.18-1.32,68.55-12.85,78.06-11.78,10.14,1.2,17.32,30.43,17.7,34s-6.74,6.36-6.74,6.36a45.39,45.39,0,0,1,12.35.45c5.54,1.19,10.33,33,10,38.55a9.09,9.09,0,0,1-5.16,7.56S1451.1,1408.89,1451.1,1424.83Z" transform="translate(-293 -254.59)"/><path class="cls-76" d="M1405.28,1188s-8.52,9.63-6.53,19.38,40.67,3.18,57.26-8.36,13.9-25.85,3.92-31.51S1405.28,1188,1405.28,1188Z" transform="translate(-293 -254.59)"/><path class="cls-82" d="M1442,1158.22c-9.85-1.49-46.55,32.11-42.08,46.64s59.69-3.07,65.66-20.38S1442,1158.22,1442,1158.22Z" transform="translate(-293 -254.59)"/><path class="cls-83" d="M1433,1161.38s16.3,4.2,24.26,12.16,6.17,12.35,7.76,12.34,6.89-11.84-9-21S1433,1161.38,1433,1161.38Z" transform="translate(-293 -254.59)"/><path class="cls-83" d="M1400.46,1197.32s6.84-6.51,12-2.81,3.24,15.57,3.24,15.57S1395.17,1212.33,1400.46,1197.32Z" transform="translate(-293 -254.59)"/><path class="cls-71" d="M1367.91,1260c5.7,16.13-31.5-20.8-23.51-24.1S1363.54,1247.61,1367.91,1260Z" transform="translate(-293 -254.59)"/><path class="cls-76" d="M1433.14,1338.45s-61.25-2.37-109.39,15.54l102.65-9.18S1431.52,1341.22,1433.14,1338.45Z" transform="translate(-293 -254.59)"/><path class="cls-76" d="M1443.54,1391.37s-33-5.55-96,7.72Z" transform="translate(-293 -254.59)"/><path class="cls-76" d="M1365.92,1478.75s31-26.58,39.1-30.76,26.86-6,26.86-6-24.18,5.67-26,7.46,22.09,1.79,22.09,1.79-19,4-26.82,5.57-14.37,6.37-15.76,9.75.08,17-7,19.3S1365.92,1478.75,1365.92,1478.75Z" transform="translate(-293 -254.59)"/><path class="cls-84" d="M1139.12,1484.15c-5.26,44.58,72.29,38.26,120.9,28.06s85.42-75.83,87.5-93.17-9.85-40.58-23.77-55.5-24-26.44-39-40.1-41.53,28.41-69.71,66.78S1141.51,1463.9,1139.12,1484.15Z" transform="translate(-293 -254.59)"/><path class="cls-85" d="M1288.31,1330.27c-11.64,2-16.41,26.1-16.41,26.1S1289.58,1344.64,1288.31,1330.27Z" transform="translate(-293 -254.59)"/><path class="cls-86" d="M1319.67,1356.37s-23.88,5.67-24.77,24.47S1319.67,1356.37,1319.67,1356.37Z" transform="translate(-293 -254.59)"/><path class="cls-87" d="M1337.27,1397.56s-16.87,10.22-23.22,22.63C1329.12,1418.84,1337.27,1397.56,1337.27,1397.56Z" transform="translate(-293 -254.59)"/><path class="cls-88" d="M1046.41,931s34.11,91.12,46.7,217.65c0,0,50.39,65.65,117.23,60.08s66.06-103.45,66.06-103.45-27.57-107.81-45.22-157.36Z" transform="translate(-293 -254.59)"/><path class="cls-76" d="M1067.05,1000.21s60.46,43.35,123.76,69.84,56.44-71.31,56.44-71.31l-16.07-50.8s-92.52,9.35-184.8-16.91Z" transform="translate(-293 -254.59)"/><path class="cls-89" d="M1059.23,935.69c-30.8-7.53,56.21,135.72,106.66,186.65s24.71,4.54,0-55.14-52.05-121.6-64.18-123.91S1059.23,935.69,1059.23,935.69Z" transform="translate(-293 -254.59)"/><path class="cls-90" d="M1076,1649c-4.09,165-72.58,246.52-72.58,246.52-15.12,7-32.82,13.11-51.78,18.28-86.57,23.81-199.09,29.54-210.8,22.23-14.3-8.88-34.21-70.75-26.27-165.44s64.89-202.92,101.49-207.27,69.24,41,90.72,39,87.51-42.59,91.92-44.16a5.35,5.35,0,0,1,.63-.19c4.66-1.33,14.49.19,14.49.19l2.33,9.32c-44.54,59.47-90.72,312.17-39.75,311.35s84.54-215.09,84.54-215.09Z" transform="translate(-293 -254.59)"/><path class="cls-91" d="M1116.26,1610l23.08-21.58s-8,33.19-12.75,34.39S1116.26,1610,1116.26,1610Z" transform="translate(-293 -254.59)"/><path class="cls-75" d="M1930.53,1504.46q-1.69,3.78-3.78,7.75c-40.38,76.8-182.45,204.81-201.54,208.85-19.65,4.15-57.26-5.36-93.68-77.62s-18.52-262.59,16.13-293,57.27,15.5,79.95-23.31c13.29-22.74,24.88-54.56,34.52-75,6.81-14.56,12.6-23.31,17.26-19,0,0-15.18,42.53-7.24,95.07s101.12,177.47,117.81,156-33.45-177.85-33.45-177.85l.75-22.62C1911.63,1407.88,1930.53,1504.46,1930.53,1504.46Z" transform="translate(-293 -254.59)"/><path class="cls-92" d="M1930.53,1504.46q-1.69,3.78-3.78,7.75c-19.65-5.17-44.22-15.88-74.84-35.28-104.08-65.9-104.33-175.9-89.78-224.85,6.81-14.56,12.6-23.31,17.26-19,0,0-15.18,42.53-7.24,95.07s101.12,177.47,117.81,156-33.45-177.85-33.45-177.85l.75-22.62C1911.63,1407.88,1930.53,1504.46,1930.53,1504.46Z" transform="translate(-293 -254.59)"/><path class="cls-93" d="M1878.37,1222.47c-.13.44-.25.94-.38,1.38-9.51,32.26-35.53,228.44-35.53,228.44-113.21-101.11-66.22-208.21-66.22-208.21,5.67-35.35,6.87-63.76,7.5-67.35s9.58-3.47,9.58-3.47-2.33,17.33,2,24.32c22.49,37.05,76.8,22.68,76,10s-2.84-13-2.84-13l1-10.27S1887.06,1191.47,1878.37,1222.47Z" transform="translate(-293 -254.59)"/><path class="cls-94" d="M1868.42,1194.51l-2.93,19.81s6.4,1.88,8.55-8.8S1868.42,1194.51,1868.42,1194.51Z" transform="translate(-293 -254.59)"/><path class="cls-76" d="M1090.74,1127.32s39.23,81.83,104.88,78.25,78.66-91.51,75.54-120.36l5.24,22.87s11.54,97.49-67.25,107.84-115.11-58.25-116-67.25S1090.74,1127.32,1090.74,1127.32Z" transform="translate(-293 -254.59)"/><path class="cls-78" d="M1051.62,1264.6s-65.89,50.89-69.17,53-49.24-13.43-55.81-21.79,0,14,11.94,26.27,40.4,3.93,40.36,4.76-2.22,10.94-2.22,10.94,9.32-24.46,45.12-47.93c22.37-14.67,29.78-14.93,29.78-14.93Z" transform="translate(-293 -254.59)"/><path class="cls-76" d="M1076,1649c-4.09,165-72.58,246.52-72.58,246.52-15.12,7-32.82,13.11-51.78,18.28-4.79-5.55-9.14-13.49-13-24.26-24.64-68.17,46-287.35,60.73-331.57,4.66-1.33,14.49.19,14.49.19l2.33,9.32c-44.54,59.47-90.72,312.17-39.75,311.35s84.54-215.09,84.54-215.09Z" transform="translate(-293 -254.59)"/><path class="cls-95" d="M1151.91,1576.85s-16.45,44.48-29.11,61.11c-3,4-5.8,6.36-8.13,6.11-12-1.2-159.33,145.59-159.33,145.59s13.11-158.57,60.8-222.2c0,0,55.19-48.45,68.86-67.47,16.06-22.24,27-14.56,27-14.56s-31.31,65.52,9.27,133.56l18.08-30.61Z" transform="translate(-293 -254.59)"/><path class="cls-96" d="M1561.69,1535.43s-17.91-165.13,0-246.3,76.79-63.93,80.77-72.16-42.17-24.73-74.8,4.61S1535,1428.39,1561.69,1535.43Z" transform="translate(-293 -254.59)"/><path class="cls-76" d="M1653.6,1195.22c-34.61-7.16-54.91,52.53-87.14,49s28.89-204.69,49.74-224.22c31,33.11,35.88,131.69,36.39,143.6S1653.6,1195.22,1653.6,1195.22Z" transform="translate(-293 -254.59)"/><path class="cls-76" d="M816.44,1209.09c12.32-19.83,105.79,120,119.75,181.9s14.33,102.06,6,103.85-59.09-124.74-73.41-146.22-32.83,4.17-32.83,4.17S810.09,1255.18,816.44,1209.09Z" transform="translate(-293 -254.59)"/><path class="cls-97" d="M959.47,1579.87s-31.63-64.62-122.36-67.66c0,0,72,38,86.93,84.91Z" transform="translate(-293 -254.59)"/><path class="cls-98" d="M927.84,1595.51s-9.63,9.23-21.07,6.79-56.88-41.76-90.72-39-63.38,73.59-63.38,73.59,17.11-63.63,62.77-86.77S927.84,1595.51,927.84,1595.51Z" transform="translate(-293 -254.59)"/><path class="cls-99" d="M760.72,1689.42s34.27-87.64,138.89-88l-12.92-10.31S785.39,1570.84,760.72,1689.42Z" transform="translate(-293 -254.59)"/><path class="cls-100" d="M1720.45,1337.27c-11.74,6-84.75,49-89.53,152.8,0,0-.43-79.54,26.86-114.6s42.89-32,42.89-32-38.71-7.54-61.39,17.92-25.4,108.29-25.4,108.29-15.19-71.7,19.43-131.88,82.61-10.15,82.61-10.15Z" transform="translate(-293 -254.59)"/><path class="cls-76" d="M1561.69,1535.43s-36.21-44.17-38.6-103.06,34.17-124.26,34.17-124.26S1537.42,1415.66,1561.69,1535.43Z" transform="translate(-293 -254.59)"/><path class="cls-101" d="M1687.84,1712.91c-56.31-69.47,156.76-166.87,192.32-174.53s-46.79,100.83-100.87,141.75S1709.64,1730.89,1687.84,1712.91Z" transform="translate(-293 -254.59)"/><path class="cls-102" d="M1604.69,2277.92c-18,14.3-99.1,27.47-201.79,95.51-38.55,25.58-61.93,30.74-75.28,22.62a19.16,19.16,0,0,1-2.71-2,25.44,25.44,0,0,1-9.2-14.74l-.19-.76c-17-80.76,118.69-540.48,157.12-704.72s53.24-261.39,64-262.84,18.84,87.57,25,124.43c6,35.65,23.63,177.15,24.7,186,0,.13.06.19,0,.26-2-6-52.92-156.69-93,26.52-40.89,186.86-175.9,548.11-129.47,586.6s157.63-35,210.11-146.41c51.73-109.69,26.15-373.47,25.33-381.79,8.5,53.24,18.27,110.19,29.17,166.89C1670.34,2190.79,1622.59,2263.56,1604.69,2277.92Z" transform="translate(-293 -254.59)"/><path class="cls-103" d="M830.1,2448.84c-13.48-1.13-21.61-2.65-21.61-2.65a377,377,0,0,0,24.38-42.52C824.68,2424.77,818.76,2447.33,830.1,2448.84Z" transform="translate(-293 -254.59)"/><path class="cls-104" d="M1071.45,2178.82c7,51.79.89,106.72-10.45,157.12-5.86,17.77-12.54,31.94-20.16,41.84-57.33,74.46-163.43,75-209.73,71.12,25.64,1.33,211.3-46.74,209.73-125.43-1.58-79.82-4.16-442.27-113-252.89,5.11-19.59,10.33-61.48,14.05-96.89l.19-1.32c3.34-31.5,5.54-57.52,5.54-57.52l2.15-.76,53.67-18.59c61.93-81,68-186.73,68-186.73s13.17,96-9.13,135-46.94,34.53-41.83,70S1050.41,2022.83,1071.45,2178.82Z" transform="translate(-293 -254.59)"/><path class="cls-105" d="M740.83,1936c-18.31-19.79,156.36-86.53,175.07-98.58s16.44,65.7,31.69,77.42C947.59,1914.85,806.88,1947.85,740.83,1936Z" transform="translate(-293 -254.59)"/><path class="cls-106" d="M1151.91,1576.85s-16.45,44.48-29.11,61.11c-15.56-9.2-31.37-28.86-35.91-70.25-9.7-88.39,25.07-82.28,25.07-82.28s-31.31,65.52,9.27,133.56l18.08-30.61Z" transform="translate(-293 -254.59)"/><path class="cls-76" d="M1016.14,1567.46s-54.72,128.74-22.09,184.13l61.73-59s-45.36,136.08-67.95,148-32.49-51-32.49-51S961.2,1648.43,1016.14,1567.46Z" transform="translate(-293 -254.59)"/><path class="cls-76" d="M1777.69,1238.64s-15.72,68.73,11.6,128.08,56,64.16,56,64.16L1861,1320.71s14.24,45.89,10.66,90.31-21.87,49.59-21.87,49.59S1726.29,1387.69,1777.69,1238.64Z" transform="translate(-293 -254.59)"/><path class="cls-107" d="M1349.64,2154.78c-2.82-13,144.66-604.66,144.66-604.66s-31.85,233.6-72.35,405.49S1349.64,2154.78,1349.64,2154.78Z" transform="translate(-293 -254.59)"/><path class="cls-76" d="M1040.26,2002.29c-16.2-69.75,10.86,291.39,13.37,319.23s26.66-30.54,15.29-131.55S1040.26,2002.29,1040.26,2002.29Z" transform="translate(-293 -254.59)"/><path class="cls-108" d="M1139.31,1588.38s-39.58,3.43-27.35-103c0,0-29.31,50.45,4.3,124.53Z" transform="translate(-293 -254.59)"/><path class="cls-76" d="M1069.27,1166.69s74.62,121.13,160,97.91,82.12-146.11,82.12-146.11,4.76,131-84.5,156.48-157.33-102.22-157.33-102.22Z" transform="translate(-293 -254.59)"/><path class="cls-77" d="M1561.69,2426.25c-60.88-51.65-229.85,80.45-341.13,93.78s-206.78-45.16-250.35-58.29-70.6,9.57-70.6,9.57v-21.16s33.07-2.21,91.1,3.28c60.36,5.72,147.46,19,238.74,9.5,179.06-18.55,362.09-112.2,362.09-112.2l-28,14.92Z" transform="translate(-293 -254.59)"/><path class="cls-77" d="M1388.28,2382.58a513.19,513.19,0,0,0,99.8-13.55c52.52-12.73,103.45-45.59,103.45-45.59l-1.77-37.86s-55.85,13.42-99.85,33.31S1388.28,2382.58,1388.28,2382.58Z" transform="translate(-293 -254.59)"/><path class="cls-77" d="M899.6,2450.15s92.7,1.5,140.44-23.9,51.73-247.42,51.73-247.42-19.11,154.37-50.93,199S899.6,2450.15,899.6,2450.15Z" transform="translate(-293 -254.59)"/><path class="cls-109" d="M1720.45,1337.27s-63.48,107.19-70,220.13-28-35-17.09-105.13S1720.45,1337.27,1720.45,1337.27Z" transform="translate(-293 -254.59)"/><path class="cls-110" d="M1391,1053.06c-12.57,18.75,102,75.67,135.14,79.08s84.44-104.33,84.44-104.33S1573.63,1002.81,1391,1053.06Z" transform="translate(-293 -254.59)"/><path class="cls-110" d="M830.35,1204.38c-4.77,7.56,60.08,69.63,72.82,79.58s90.32-108.4,95.09-117.27S898.79,1157.82,830.35,1204.38Z" transform="translate(-293 -254.59)"/><path class="cls-110" d="M805,1633c-39.12,27.43-90.42,194.11-70.52,233.9s150.81-56.63,189.6-121-9.75-144.77-9.75-144.77S862.77,1592.47,805,1633Z" transform="translate(-293 -254.59)"/><path class="cls-71" d="M1737.52,1308.11s-55.33,107.91-72,168.81-19.71,161.76-11.93,177.28,110.44-93.11,123-125.93-49-140.26-45.36-168.31S1737.52,1308.11,1737.52,1308.11Z" transform="translate(-293 -254.59)"/><path class="cls-110" d="M1561.69,1611.35c-54.51-56.42-77.45,297-68.37,364.58s84.32,132.87,99.23,128.1,14.9-156-1-302.41S1561.69,1611.35,1561.69,1611.35Z" transform="translate(-293 -254.59)"/><path class="cls-110" d="M1586,2257.62c-23.08-21.49,20.69-127.13,34.22-178.16s30.44,65.88,13.53,125S1586,2257.62,1586,2257.62Z" transform="translate(-293 -254.59)"/><path class="cls-111" d="M1180.77,388.22s38.74,9.83,60,42.75S1260,583.25,1260,583.25Z" transform="translate(-293 -254.59)"/><path class="cls-112" d="M1340.59,833.56a2.36,2.36,0,0,1-.12.38c-10.08,44.8-42.72,90.66-80.45,106.6-48.89,20.73-171.43,5.61-213.64-9.51-15-5.36-29-20.16-42.9-39.69l-.13-.13c-25.14-35.34-49.9-86.12-79.07-124.55-5.54-7.25-10.77-14.24-15.75-21.11-35.78-49.27-57-89-65.45-142.38-9.52-60.92,81.39-139.42,93.11-152.84,98.91-112.83,204.12-82.34,254.27-37a206.2,206.2,0,0,1,38.69,47.82l.12.18c18.52,31.38,24.19,58.22,24.19,58.22s1.39,14.74,4.6,33.77c.44,2.89,1,5.92,1.58,9,1.89,10.2,6.49,25.64,9.38,35.84,4.86,17.08,20.86,50.59,38.31,91,1.89,4.34,3.78,8.75,5.67,13.1,14.62,34.78,27.66,69.68,30.24,93.05A117.2,117.2,0,0,1,1340.59,833.56Z" transform="translate(-293 -254.59)"/><path class="cls-113" d="M1229.27,461.35s-13.73,33.53-112.83,41.53-155.17-34.6-177.85-8.39S955.28,655.65,984,630.57c0,0-10.21,22.69-4.1,75.48S978,752.36,963.66,752.8c-5.35.19-28-2.46-55.13-7.25-35.78-49.27-57-89-65.45-142.38-9.52-60.92,81.39-139.42,93.11-152.84,98.91-112.83,204.12-82.34,254.27-37a206.2,206.2,0,0,1,38.69,47.82Z" transform="translate(-293 -254.59)"/><path class="cls-114" d="M939.77,765.49s-40-20.31-69.83-9.57S850.25,824,880.09,850.25s54.91,28.64,87.73,39.39S995.88,852,995.88,852,988.12,784,939.77,765.49Z" transform="translate(-293 -254.59)"/><path class="cls-115" d="M911.12,474.23c-7,20.29-87,31.44-105.48,65.85S790.7,599.4,796,606.64s16.25-42.48,64.52-74.32S911.12,474.23,911.12,474.23Z" transform="translate(-293 -254.59)"/><path class="cls-116" d="M957.47,806.87s-46.35-25.86-73.4-20.69-11.28,46.77,0,61.28,31,17.91,31,17.91-27.25-5.28-34.42-34.22,7.76-34.32,19.1-37,1.09,17.23,6,43.57,23.28,31.34,33.72,32.23-10.74-16.71-10.74-37.9,14,16.71,32.23,10.74S957.47,806.87,957.47,806.87Z" transform="translate(-293 -254.59)"/><path class="cls-117" d="M1093.11,591c59.14,2.61,87.66-16.49,87.66-16.49s42.16-30.24,56.56-39,19.37,14.22,19.37,14.22,9.2,54.55,34.74,103.32c0,0-39.46,26.32-67.17,20.13s-23.47-26.1-41.38-50.3c-32.63-17-37.4,14.49-37.4,14.49s11.14,53.77-6.77,83.78-96.21,54.39-135.24,28.68-30.28-92.37-30.28-92.37S1022,594,1093.11,591Z" transform="translate(-293 -254.59)"/><path class="cls-118" d="M929.73,794.14c-24.88-7.3-2.19,43.27,18.7,44.47s2.38-20.3.89-26.56,8.15-5.18,8.15-5.18S941.69,798.26,929.73,794.14Z" transform="translate(-293 -254.59)"/><path class="cls-119" d="M1031.16,714.17s-16-34,18.2-65.95,79.7,34.32,79.7,34.32Z" transform="translate(-293 -254.59)"/><path class="cls-76" d="M1032.21,719.69c4.72,17.65,79.69-18.26,95.77-25.41s-7.41-15.22-16.29-26-25.73-22.2-53.79-10S1028,704.09,1032.21,719.69Z" transform="translate(-293 -254.59)"/><path class="cls-120" d="M1120.43,695.62c-4.66,1.62-14.33,5.7-25.67,10.19-17.16,6.74-38,14.45-50.89,16.18-6,.81-10.31.29-11.63-2.3-1.1-2.13-1.79-6.28-1.62-11.52.35-16.69,9-44.5,39.38-51.18a7.51,7.51,0,0,1,1-.17C1110.13,649.05,1132.81,691.42,1120.43,695.62Z" transform="translate(-293 -254.59)"/><path class="cls-121" d="M1097.87,691.31a35.13,35.13,0,0,1-3.11,14.5c-17.16,6.74-38,14.45-50.89,16.18a35.15,35.15,0,0,1-13.25-13.82c.35-16.69,9-44.5,39.38-51.18a7.51,7.51,0,0,1,1-.17A35.53,35.53,0,0,1,1097.87,691.31Z" transform="translate(-293 -254.59)"/><path class="cls-122" d="M1084.94,691.33a22.84,22.84,0,1,1-22.83-22.83A22.83,22.83,0,0,1,1084.94,691.33Z" transform="translate(-293 -254.59)"/><path class="cls-123" d="M1119.89,678.31s-16.47-28.3-56.33-17.92-32,57.7-32,57.7-14.85-34.45,15.26-59.73C1078.74,631.58,1114.07,666.17,1119.89,678.31Z" transform="translate(-293 -254.59)"/><path class="cls-65" d="M1078.19,682.54s9.08-9.94,20.4-7.09Z" transform="translate(-293 -254.59)"/><path class="cls-124" d="M1219.58,652.72s-16.61-47.79,1-69.6,44.43,22,44.43,22Z" transform="translate(-293 -254.59)"/><path class="cls-76" d="M1219.56,658.15c-7.37-8.93-10.25-41.85,10.51-60.23s39.13,15.31,44.24,30.12-17,25-30.3,27.73S1220.79,659.65,1219.56,658.15Z" transform="translate(-293 -254.59)"/><path class="cls-120" d="M1268.86,639.25c-3.16,3.34-8.58,6.62-14.68,9.39a91,91,0,0,1-20.15,6.5c-5.24,1-9.73,1.15-12.26.06a3.44,3.44,0,0,1-2.19-2.48c-2.3-12.32-2.24-28.15,1.84-40,2.13-6.33,5.47-11.51,10.14-14.51a17.24,17.24,0,0,1,8.06-2.64C1260.34,593.83,1279.74,627.85,1268.86,639.25Z" transform="translate(-293 -254.59)"/><path class="cls-121" d="M1256.6,633.84a45.43,45.43,0,0,1-2.42,14.8,91,91,0,0,1-20.15,6.5,12.67,12.67,0,0,1-6.16,1.56,13.26,13.26,0,0,1-6.1-1.5,3.44,3.44,0,0,1-2.19-2.48c-2.3-12.32-2.24-28.15,1.84-40,2.13-6.33,5.47-11.51,10.14-14.51C1245.55,599.53,1256.6,615,1256.6,633.84Z" transform="translate(-293 -254.59)"/><path class="cls-125" d="M1245.2,633.84c0,9.73-4.66,18.08-11.17,21.3a12.67,12.67,0,0,1-6.16,1.56,13.26,13.26,0,0,1-6.1-1.5,3.44,3.44,0,0,1-2.19-2.48c-2.3-12.32-2.24-28.15,1.84-40a13.36,13.36,0,0,1,6.45-1.67C1237.43,611,1245.2,621.23,1245.2,633.84Z" transform="translate(-293 -254.59)"/><path class="cls-123" d="M1218.06,642s1.46-36.25,22.56-43.39S1272,625.7,1272,625.7s-7.72-35.78-23.8-37.06S1215.23,605.49,1218.06,642Z" transform="translate(-293 -254.59)"/><path class="cls-65" d="M1246.45,622.88s9.08-9.93,20.4-7.08Z" transform="translate(-293 -254.59)"/><path class="cls-126" d="M1161.59,727.62s-.39,26.53,3.79,33.4,25.43,1.71,25.43,1.71-17.87,7.84-29.41-.82S1161.59,727.62,1161.59,727.62Z" transform="translate(-293 -254.59)"/><path class="cls-127" d="M1139.12,816s108.63,16.3,149.21-37c0,0-17.15,34.73-65.65,43C1182.89,828.76,1139.12,816,1139.12,816Z" transform="translate(-293 -254.59)"/><path class="cls-128" d="M1154.51,793.42s-20,13.17-14.92,40C1139.59,833.42,1116.67,810.93,1154.51,793.42Z" transform="translate(-293 -254.59)"/><path class="cls-108" d="M954,885.4c13.8,4.24,40.46-11.92,40.46-11.92S990.9,890.76,979,891.2,954,885.4,954,885.4Z" transform="translate(-293 -254.59)"/><path class="cls-76" d="M1340.47,833.94c-10.08,44.8-42.72,90.66-80.45,106.6-48.89,20.73-171.43,5.61-213.64-9.51-15-5.36-29-20.16-42.9-39.69,3,2.7,52.35,46.43,140.11,48.57,90.66,2.27,153.91-35.09,167-48.7C1323,878.48,1338.58,838.86,1340.47,833.94Z" transform="translate(-293 -254.59)"/><path class="cls-129" d="M1184.69,574.5s-4.6-23.87,0-40.88V562s1.61-31.51,23.14-42.85l-18.48,34.49s29.19-39.71,44.19-46,22.23,21.65,23.85,25.87-.62,16.21-.62,16.21S1243.49,533.92,1184.69,574.5Z" transform="translate(-293 -254.59)"/><path class="cls-130" d="M1094.58,595.91s-21.93-24.32-46-29.06L1083.17,592s-32.38-24-49.47-20c0,0-12.21-1.25-27.47,13.74-19.52,19.17-36.54,66.7-36.54,66.7S1040.58,603.88,1094.58,595.91Z" transform="translate(-293 -254.59)"/><path class="cls-131" d="M976.78,777.43c29-37.4,106,62.07,152.28,109s-27.74,51.23-82.65,31.58S1001,842.5,986.09,816,976.78,777.43,976.78,777.43Z" transform="translate(-293 -254.59)"/><path class="cls-132" d="M1274.31,582.57l34.37-22s-.37-15.83-6.81-13.78-31.21,20.94-31.21,20.94Z" transform="translate(-293 -254.59)"/><path class="cls-133" d="M1304.35,681c-2.52,3.2-8.39,12.39-11.67,14.37-25.57,15.63-91.49,26.76-99.92-95.06-1.31-18.44,37.32-40.73,65.53-45.15-.76-3.13-1-6.4-1.64-9.35-35.23,6.08-76.55,35-77.57,47.14-.36,4.41.22,10.88,1.83,18.69l-.75-3.07s-34.5-11.91-57,20.29a43.9,43.9,0,0,0-4.2-5.82c-12-13.32-104.37-13.19-145.84,40.26-17.3,22.28,20.6,100.38,59,117,34.94,15.17,96.53-.84,108.33-45.9,8.55-32.46-.16-68.82-10.12-91.74,2.79-5.76,18.41-33.74,52.86-21.64,6.1,22.66,18.92,52.11,38.5,73.62,24.78,27.21,68.11,23.11,89.67,3.77C1309.2,694.07,1306.51,685.46,1304.35,681ZM1061,776.4c-45.86,4.16-95.4-67.48-80-102.37,19.49-44.1,112.74-61.45,128-36.55C1172.55,741.12,1097.08,773.2,1061,776.4Z" transform="translate(-293 -254.59)"/><path class="cls-134" d="M1301.87,546.83c-53.71-24.32-112.29,19.4-113.76,36.62s12.62,67.47,42.49,99.55,81.48,23.2,96.87-7.59S1324.28,557,1301.87,546.83Zm-.29,136.87c-25.59,15.3-91.52,26.18-99.8-93.08-2-28.68,65.5-58.26,100.06-30.79C1329.11,581.47,1334.16,664.18,1301.58,683.7Z" transform="translate(-293 -254.59)"/><path class="cls-135" d="M1301.58,683.7c-25.59,15.3-91.52,26.18-99.8-93.08-2-28.68,65.5-58.26,100.06-30.79C1329.11,581.47,1334.16,664.18,1301.58,683.7Z" transform="translate(-293 -254.59)"/><path class="cls-136" d="M1128,612.9c-12-13.06-104.36-12.93-145.91,39.37-17.31,21.83,20.48,98.26,58.84,114.59,34.92,14.85,96.55-.83,108.42-44.94S1139.93,626,1128,612.9ZM1069.84,763c-45.87,4.1-95.32-66.06-79.88-100.18,19.54-43.21,112.82-60.18,128-35.79C1181.39,728.45,1105.87,759.82,1069.84,763Z" transform="translate(-293 -254.59)"/><path class="cls-135" d="M1069.84,763c-45.87,4.1-95.32-66.06-79.88-100.18,19.54-43.21,112.82-60.18,128-35.79C1181.39,728.45,1105.87,759.82,1069.84,763Z" transform="translate(-293 -254.59)"/><path class="cls-137" d="M1138.79,633.18s15.15-35.39,53.37-22.25l-3-12.24s-34.6-11.67-57.1,20Z" transform="translate(-293 -254.59)"/><path class="cls-138" d="M978.89,680s-13.35,5.3-18.67,9.45-54,61.73-54,61.73L918.85,755s43.45-41.2,49.87-46.79,16.53-8.88,16.53-8.88Z" transform="translate(-293 -254.59)"/><path class="cls-139" d="M962,688.21c-5.42,4.52-3.36,11.88.94,15.31s19.52-5,20.74-7.65S980.53,680,980.53,680,965.87,685,962,688.21Z" transform="translate(-293 -254.59)"/><path class="cls-139" d="M1212.1,633.18c19.49-35,71.81,28,82,38.37s24.33-10.23,24.33-10.23-10.87,33.33-54,24.93S1212.1,633.18,1212.1,633.18Z" transform="translate(-293 -254.59)"/><path class="cls-139" d="M1004.15,707.36c19.49-35,71.8,28,82,38.37s24.33-10.23,24.33-10.23-10.87,33.32-54,24.93S1004.15,707.36,1004.15,707.36Z" transform="translate(-293 -254.59)"/><path class="cls-139" d="M1064.63,610.52c-2.47,1.47,34.34.36,46.06,9s25.5,34.06,31.38,32.64-5.25-29.76-19.21-39.77S1068.81,608,1064.63,610.52Z" transform="translate(-293 -254.59)"/><path class="cls-139" d="M1247.73,544.63c-3.6,2,25.71-1.67,44.55,6.36s27.19,34.72,29,35.18-4.58-31.08-19.81-38.66S1259.71,538.11,1247.73,544.63Z" transform="translate(-293 -254.59)"/><path class="cls-140" d="M1317.1,685.62c-9,2.9,3.13-20.43,7.66-27.65S1333.1,680.45,1317.1,685.62Z" transform="translate(-293 -254.59)"/><path class="cls-140" d="M1136.08,740.17c-7.74,2.5,2.69-17.59,6.6-23.8S1149.85,735.72,1136.08,740.17Z" transform="translate(-293 -254.59)"/><path class="cls-141" d="M1161.4,755.61c4.36,11,40.94,1,64.46-5.78s35.36-16.34,35.64-25.32-24.22-33.4-43.75-53.25-34.86-27.13-48-20.76S1153.84,736.57,1161.4,755.61Z" transform="translate(-293 -254.59)"/><path class="cls-142" d="M1253.49,741.1c20.52-9.83-6.94-38.87-19.67-46s-30.5-39-53-25.06-29.83,84.64-16.84,91.46,32.84-3.7,44.18-4.88,22.93,5.26,34.07-10.22Z" transform="translate(-293 -254.59)"/><path class="cls-143" d="M1244.35,745.69s20-8,22.34-18.09-9.45-8.52-31.4-13.25-36.58,7.07-48.59,20.58-23.71,20.22-22.77,26.53,24.69,3,30.15.06,6.83-5.66,14-4.94,19.54-2.81,25-6.92A19.6,19.6,0,0,1,1244.35,745.69Z" transform="translate(-293 -254.59)"/><path class="cls-144" d="M1247.57,710.27c-19.38-7.16-47.35,6.59-62.43,4.38s-8.83-23.29,0-35.32,29,5.48,39.91,14S1247.57,710.27,1247.57,710.27Z" transform="translate(-293 -254.59)"/><path class="cls-145" d="M1237.33,747.24c6.84-7.61,12.1-10.86,14.93-9.76,4.31,1.69-7.7,9.44-10.08,8.88A7.54,7.54,0,0,0,1237.33,747.24Z" transform="translate(-293 -254.59)"/><path class="cls-146" d="M1237.33,747.24s15.27-19.74,12.91-30.16S1237.91,692,1237.91,692s14.4,13.64,23,26.37-2.14,21.35-11.49,24.67S1237.33,747.24,1237.33,747.24Z" transform="translate(-293 -254.59)"/><path class="cls-147" d="M1161.4,758.93c11.14,11.34,37.6,30.15,65.66,26.57s36.94-61,36.94-61-3.52-.76-12.47-2.17-17.71-15.64-42.34-4.25C1190.2,726.87,1179.71,752,1161.4,758.93Z" transform="translate(-293 -254.59)"/><path class="cls-145" d="M1195,759.72s7.06-7.26,12.13-9.15,5.84,3.38,4.61,4.58-7.49.49-11.17,2.19S1195,759.72,1195,759.72Z" transform="translate(-293 -254.59)"/><path class="cls-148" d="M1085,596.72s-33.69-21.38-55.57-20.1S984,613.91,981.34,626.46s26-5.87,56.76-16S1085,596.72,1085,596.72Z" transform="translate(-293 -254.59)"/><path class="cls-76" d="M1190.2,570.77S1213,517.2,1232,510.84c17.47-5.88,19.19,20,14.64,29.78S1225.08,546.1,1190.2,570.77Z" transform="translate(-293 -254.59)"/><path class="cls-149" d="M1195,835s39.2,3.63,64.32-11.64c0,0-3.52,32.24-22,34S1195,835,1195,835Z" transform="translate(-293 -254.59)"/><path class="cls-150" d="M937.42,430s99.89-127.8,189.65-130S1226.58,406.72,1218,412.5s6.34-86-88.93-97.63C1055.33,305.9,958.61,399.15,937.42,430Z" transform="translate(-293 -254.59)"/><path class="cls-151" d="M1273.43,437.79c-32.25,28.67-48.32,16.89-48.32,16.89s-10.77,10-66.9,14.3-104.46,5.86-104.46,5.86c-.57,14.93-7.37,22.05-7.37,22.05-23.44-19.09-110.19-33.77-122.35,2.83s7.37,108.17,7.37,108.17-15.49,35.85-17.89,70.44,63.25,99.1,63.25,99.1L969,794.12c-14.94-23.87-67.1-40.38-67.1-40.38C834.19,699.06,824,635.36,816.81,576.9S905.57,500.48,924,449.57s69.05-148,147-149.62C1142.71,298.5,1181,380.08,1199.66,404a32.4,32.4,0,0,0,4.54,4.92C1221,422.67,1273.43,437.79,1273.43,437.79Z" transform="translate(-293 -254.59)"/><path class="cls-152" d="M940.39,439.37s-4.79-40.76,12.51-73.62,51.34-32.59,51.33-36c0,0-56.7-4.93-76.39,45.38s-10.15,81.87-16.72,99.6S940.39,439.37,940.39,439.37Z" transform="translate(-293 -254.59)"/><path class="cls-153" d="M1273.43,437.79c-32.25,28.67-48.32,16.89-48.32,16.89s-10.77,10-66.9,14.3-104.46,5.86-104.46,5.86c-62.37-43.47-125.94-26.34-129.53-25.33,42.4-25.26,112.71,14.36,141.38,15.18S1176,450.33,1176,450.33s-67.48-50.46-120.9-53.3-114.73,42.34-114.73,42.34,70.19-78.94,136.78-51.16,121.59,31.12,122.47,15.81a32.4,32.4,0,0,0,4.54,4.92C1221,422.67,1273.43,437.79,1273.43,437.79Z" transform="translate(-293 -254.59)"/><path class="cls-154" d="M927.17,493.42S859.72,569.57,852,633.51s36.66,108.75,36.66,108.75-26.48-83.94-9.17-144.06S927.17,493.42,927.17,493.42Z" transform="translate(-293 -254.59)"/><path class="cls-155" d="M931.42,607.92S898,637.16,886.65,668.5s7,78.3,7,78.3l5.09,3S877.7,672.38,931.42,607.92Z" transform="translate(-293 -254.59)"/><path class="cls-76" d="M947.76,431.85s58-69.83,113.06-83.56,83.31,83.56,83.31,83.56-44.54-35.06-98.19-34.84S947.76,431.85,947.76,431.85Z" transform="translate(-293 -254.59)"/><path class="cls-76" d="M927.17,493.42s7.23-29.93,46-38.89,73.18,42.36,73.18,42.36S998.73,475,927.17,493.42Z" transform="translate(-293 -254.59)"/><path class="cls-76" d="M796,606.64s17.15-59.2,46.4-86.25S904.1,491,904.1,491s-42,50-53,66.44-34.29,19.43-34.29,19.43-8.85,15.63-13.55,22.65S800,608.15,796,606.64Z" transform="translate(-293 -254.59)"/><path class="cls-156" d="M1047.78,303.37c45.76-1,64.28,16.87,73.83,36s-46,7.14-68.17,11.13,25-6.72,45.39-11.13S1096.11,299.63,1047.78,303.37Z" transform="translate(-293 -254.59)"/><path class="cls-156" d="M1023.86,399c34.49-1.94,13.14,25.75-6.89,36.65s-41.8,5.38-56.91,5.48,37.81-4.68,58.89-18.61S1023.86,399,1023.86,399Z" transform="translate(-293 -254.59)"/><path class="cls-157" d="M1008.56,776.77c-70.46-17.61-8.46,50.52,45.88,79.57S1058,789.12,1008.56,776.77Z" transform="translate(-293 -254.59)"/><path class="cls-156" d="M1190.34,1265.94c-37.16-14.43,40.61-42.31,62.74-71.43s26.3-80.46,31.67-79.86,25.07,51.33-3.58,106.24S1190.34,1265.94,1190.34,1265.94Z" transform="translate(-293 -254.59)"/><path class="cls-84" d="M995.88,1636.89c-10.28,72.69,33.85,35.22,59.9-6.56s29.77-110.9,29.4-118.12-41.77,29-57.48,45.19S999,1614.8,995.88,1636.89Z" transform="translate(-293 -254.59)"/><path class="cls-156" d="M1878.37,1222.47c-9.83,5.48-24.82,10-45.74,6.55-42.4-7.06-48.89-52.29-48.89-52.29.57-3.59,9.58-3.47,9.58-3.47s-2.33,17.33,2,24.32c22.49,37.05,76.8,22.68,76,10s-2.84-13-2.84-13l1-10.27S1887.06,1191.47,1878.37,1222.47Z" transform="translate(-293 -254.59)"/><path class="cls-76" d="M1792.74,1185.88s10.35,27.32,37.91,29.94,37.76-21.32,37.76-21.32l-2.92,21.52S1804.14,1241,1792.74,1185.88Z" transform="translate(-293 -254.59)"/><path class="cls-71" d="M914.31,1601.08s-52-10-117.17,38.53c-42.3,31.53,71.67-42.42,117.12-128.77,24.57-46.68-22.15-117.61-7.91-130.59,40.59-37,60.46,195.63,60.46,195.63Z" transform="translate(-293 -254.59)"/><path class="cls-110" d="M947.72,1278.33c1.75,19.1,34.23,19.55,66.86-5.12s37.8-167.12,40.19-173.48-44.31,58.27-64.15,87.74S946.51,1265.14,947.72,1278.33Z" transform="translate(-293 -254.59)"/><path class="cls-158" d="M1467.94,1287.31c-2.94,9.38,28.36,159.13,23.45,232.27s-49.06,240.6-49.06,240.6,77.5-270.51,66.8-355.66S1467.94,1287.31,1467.94,1287.31Z" transform="translate(-293 -254.59)"/><path class="cls-158" d="M963.68,1545.35s-3.32-103.79,3.13-150.7,27.54-82.08,27.54-82.08-33.42,51.13-41.14,86.52S963.68,1545.35,963.68,1545.35Z" transform="translate(-293 -254.59)"/><path class="cls-158" d="M926.64,1295.79c7.56-9.84,34.62,4.88,58.49,1.69s45-19.15,45-19.15-39.36,36.12-49.34,36.66S933.41,1300.07,926.64,1295.79Z" transform="translate(-293 -254.59)"/><path class="cls-159" d="M1765.17,1367.12s66.3,88.16,100.32,108.94,51.63,3.39,57.09,10.19,4.17,26,4.17,26S1805.91,1481.71,1765.17,1367.12Z" transform="translate(-293 -254.59)"/><path class="cls-72" d="M1167.77,1760.18c-15.15,11.42,35,248.56,71.83,319.28s107.09-201.28,110-277.84-73.2,95.5-115,80S1192.69,1741.4,1167.77,1760.18Z" transform="translate(-293 -254.59)"/><path class="cls-158" d="M1296.35,1030.28s134.53,85.92,176.26,113.89C1472.61,1144.17,1411.81,1067.47,1296.35,1030.28Z" transform="translate(-293 -254.59)"/><path class="cls-77" d="M899.61,2520s.37-49.93,4.35-57.1,20.1,59.06,20.1,59.06Z" transform="translate(-293 -254.59)"/><path class="cls-77" d="M1561.29,2520s0-83.36-6.36-88.93-22.13,90.46-22.13,90.46Z" transform="translate(-293 -254.59)"/><path class="cls-160" d="M730,1929.35S702.57,1788.66,718.94,1678s117-325.25,117-325.25S719.43,1545,704.86,1689.42,730,1929.35,730,1929.35Z" transform="translate(-293 -254.59)"/><path class="cls-160" d="M835.92,1352.79c7.16,2.39-4.77-31.65,26.26-43.57S842.36,1239.32,835,1217s75.63-47.73,75.63-47.73-58.88,13.59-91.24,38C819.35,1207.23,806.08,1225.07,835.92,1352.79Z" transform="translate(-293 -254.59)"/><path class="cls-160" d="M1513.79,1024s74.66-6.25,97.69,9.67,17.35,127.74,17.36,144.07,16.13,14,23,24c31,45.21,32.22,105.1,42.72,111s25.92,24.49,25.92,24.49l-66.85-142s1.6-145.22-37.4-175.27C1616.2,1020,1585,1014.05,1513.79,1024Z" transform="translate(-293 -254.59)"/><path class="cls-160" d="M849.36,2446.78c-30.27-17.55,46-164.49,70.52-250.44S935,2024.85,935,2024.85s-18.35,133-50.15,237-59.22,159.22-76.35,184.31C808.49,2446.19,838.53,2451.33,849.36,2446.78Z" transform="translate(-293 -254.59)"/><path class="cls-160" d="M1603.6,1616.05s67.27,87.33,110.27,85.3,182.45-143.66,182.45-143.66-119.19,141.89-171.11,163.37c0,0-19.47,6.28-44.94-13.28S1603.6,1616.05,1603.6,1616.05Z" transform="translate(-293 -254.59)"/><path class="cls-160" d="M1585.17,2279.5c-11.94-12.33,40.58-49.45,49.34-124.72s-11.59-210.92-11.59-210.92,28.54,119.81,20.06,230.21S1585.17,2279.5,1585.17,2279.5Z" transform="translate(-293 -254.59)"/><path class="cls-161" d="M1561.66,1535.46s45.7,126.5,92.7,126.5,128.37-132.63,122.93-155.49-55.47-135.77-61.53-150.1-58.35,42.72-58.35,42.72-7.19-57.12-30.57-13.51-36.5-131.86-59.18-133.06S1535.38,1429.24,1561.66,1535.46Z" transform="translate(-293 -254.59)"/></g></g></g></g></svg>