<svg xmlns="http://www.w3.org/2000/svg" xmlns:xlink="http://www.w3.org/1999/xlink" viewBox="0 0 2048.21 2267.41"><defs><style>.cls-1,.cls-55{isolation:isolate;}.cls-2{opacity:0.24;}.cls-144,.cls-3{fill:#e7ecff;}.cls-4{fill:url(#Áåçûìÿííûé_ãðàäèåíò_22);}.cls-5{fill:url(#Áåçûìÿííûé_ãðàäèåíò_15);}.cls-6{fill:url(#Áåçûìÿííûé_ãðàäèåíò_15-2);}.cls-7{fill:url(#Áåçûìÿííûé_ãðàäèåíò_15-3);}.cls-8{fill:url(#Áåçûìÿííûé_ãðàäèåíò_15-4);}.cls-10,.cls-102,.cls-11,.cls-12,.cls-13,.cls-133,.cls-14,.cls-144,.cls-147,.cls-15,.cls-156,.cls-18,.cls-21,.cls-22,.cls-23,.cls-24,.cls-25,.cls-26,.cls-27,.cls-28,.cls-32,.cls-35,.cls-38,.cls-43,.cls-55,.cls-67,.cls-71,.cls-72,.cls-81,.cls-85,.cls-86,.cls-87,.cls-9{opacity:0.5;}.cls-10,.cls-100,.cls-101,.cls-102,.cls-103,.cls-104,.cls-105,.cls-106,.cls-108,.cls-109,.cls-11,.cls-113,.cls-116,.cls-117,.cls-118,.cls-119,.cls-12,.cls-122,.cls-124,.cls-125,.cls-126,.cls-127,.cls-128,.cls-13,.cls-131,.cls-133,.cls-14,.cls-142,.cls-143,.cls-145,.cls-146,.cls-147,.cls-148,.cls-149,.cls-15,.cls-153,.cls-154,.cls-155,.cls-157,.cls-16,.cls-161,.cls-18,.cls-19,.cls-20,.cls-21,.cls-22,.cls-23,.cls-24,.cls-25,.cls-26,.cls-27,.cls-28,.cls-29,.cls-30,.cls-31,.cls-32,.cls-33,.cls-38,.cls-39,.cls-40,.cls-41,.cls-42,.cls-43,.cls-63,.cls-67,.cls-71,.cls-73,.cls-74,.cls-76,.cls-77,.cls-78,.cls-80,.cls-81,.cls-85,.cls-86,.cls-87,.cls-89,.cls-9,.cls-96,.cls-97,.cls-98,.cls-99{mix-blend-mode:multiply;}.cls-9{fill:url(#Áåçûìÿííûé_ãðàäèåíò_126);}.cls-10{fill:url(#Áåçûìÿííûé_ãðàäèåíò_126-2);}.cls-11{fill:url(#Áåçûìÿííûé_ãðàäèåíò_126-3);}.cls-12{fill:url(#Áåçûìÿííûé_ãðàäèåíò_126-4);}.cls-13{fill:url(#Áåçûìÿííûé_ãðàäèåíò_126-5);}.cls-14{fill:url(#Áåçûìÿííûé_ãðàäèåíò_126-6);}.cls-15{fill:url(#Áåçûìÿííûé_ãðàäèåíò_14);}.cls-142,.cls-16,.cls-19,.cls-20,.cls-29,.cls-30,.cls-31,.cls-40,.cls-41,.cls-42,.cls-84{opacity:0.3;}.cls-16{fill:url(#Áåçûìÿííûé_ãðàäèåíò_14-2);}.cls-17{fill:url(#Áåçûìÿííûé_ãðàäèåíò_15-5);}.cls-18{fill:url(#Áåçûìÿííûé_ãðàäèåíò_14-3);}.cls-19{fill:url(#Áåçûìÿííûé_ãðàäèåíò_14-4);}.cls-20{fill:url(#Áåçûìÿííûé_ãðàäèåíò_14-5);}.cls-21{fill:url(#Áåçûìÿííûé_ãðàäèåíò_126-7);}.cls-22{fill:url(#Áåçûìÿííûé_ãðàäèåíò_14-6);}.cls-23{fill:url(#Áåçûìÿííûé_ãðàäèåíò_126-8);}.cls-24{fill:url(#Áåçûìÿííûé_ãðàäèåíò_14-7);}.cls-25{fill:url(#Áåçûìÿííûé_ãðàäèåíò_126-9);}.cls-26{fill:url(#Áåçûìÿííûé_ãðàäèåíò_14-8);}.cls-27{fill:url(#Áåçûìÿííûé_ãðàäèåíò_126-10);}.cls-28,.cls-33,.cls-39{fill:#ea8bc2;}.cls-29{fill:url(#Áåçûìÿííûé_ãðàäèåíò_126-11);}.cls-30{fill:url(#Áåçûìÿííûé_ãðàäèåíò_126-12);}.cls-31{fill:url(#Áåçûìÿííûé_ãðàäèåíò_14-9);}.cls-32{fill:url(#Áåçûìÿííûé_ãðàäèåíò_14-10);}.cls-100,.cls-101,.cls-103,.cls-104,.cls-105,.cls-106,.cls-109,.cls-161,.cls-33,.cls-96,.cls-97,.cls-98,.cls-99{opacity:0.8;}.cls-110,.cls-156,.cls-34,.cls-61,.cls-84{fill:#fff;}.cls-110,.cls-135,.cls-139,.cls-144,.cls-156,.cls-160,.cls-34,.cls-35,.cls-37,.cls-72,.cls-84,.cls-92{mix-blend-mode:soft-light;}.cls-36{fill:#ffd1a9;}.cls-37{opacity:0.78;}.cls-38{fill:url(#Áåçûìÿííûé_ãðàäèåíò_14-11);}.cls-40{fill:url(#Áåçûìÿííûé_ãðàäèåíò_463);}.cls-41{fill:url(#Áåçûìÿííûé_ãðàäèåíò_463-2);}.cls-42{fill:url(#Áåçûìÿííûé_ãðàäèåíò_285);}.cls-43{fill:url(#Áåçûìÿííûé_ãðàäèåíò_14-12);}.cls-44{fill:url(#Áåçûìÿííûé_ãðàäèåíò_81);}.cls-45{fill:#f33;}.cls-46{fill:#311f3d;}.cls-47{fill:url(#Áåçûìÿííûé_ãðàäèåíò_25);}.cls-48{fill:url(#Gradiente_sem_nome_35);}.cls-49{fill:#f94852;}.cls-49,.cls-52,.cls-53,.cls-55,.cls-56,.cls-57,.cls-60{fill-rule:evenodd;}.cls-50{opacity:0.57;}.cls-51{fill:#401734;}.cls-52{fill:url(#Gradiente_sem_nome_36);}.cls-53{fill:#ed3e52;}.cls-54{fill:#d1bfe8;}.cls-55{fill:#846a86;}.cls-56{fill:url(#Gradiente_sem_nome_37);}.cls-57{fill:url(#Gradiente_sem_nome_38);}.cls-58{opacity:0.2;}.cls-59,.cls-60{fill:#5e1765;}.cls-62{fill:#fbae17;}.cls-63,.cls-67{fill:#b84ac0;}.cls-63{opacity:0.67;}.cls-64{fill:#6d093b;}.cls-65{fill:#45093b;}.cls-66{fill:#ff4f3b;}.cls-68{fill:url(#Áåçûìÿííûé_ãðàäèåíò_16);}.cls-69{fill:#4b81ee;}.cls-70{fill:url(#Áåçûìÿííûé_ãðàäèåíò_79);}.cls-106,.cls-157,.cls-71,.cls-76{fill:#e392ad;}.cls-72{fill:#ffbb9a;}.cls-73{fill:url(#Áåçûìÿííûé_ãðàäèåíò_82);}.cls-74{fill:url(#Áåçûìÿííûé_ãðàäèåíò_82-2);}.cls-75{fill:#444394;}.cls-77{fill:#d07cad;}.cls-78{fill:#b588ad;}.cls-79{fill:url(#Áåçûìÿííûé_ãðàäèåíò_41);}.cls-80{fill:url(#Áåçûìÿííûé_ãðàäèåíò_183);}.cls-81{fill:url(#Áåçûìÿííûé_ãðàäèåíò_98);}.cls-82{fill:#ffc4b1;}.cls-83{fill:#ffe4db;}.cls-85{fill:url(#Áåçûìÿííûé_ãðàäèåíò_183-2);}.cls-86{fill:url(#Áåçûìÿííûé_ãðàäèåíò_183-3);}.cls-87{fill:url(#Áåçûìÿííûé_ãðàäèåíò_183-4);}.cls-88{fill:url(#Áåçûìÿííûé_ãðàäèåíò_26);}.cls-89{fill:url(#Áåçûìÿííûé_ãðàäèåíò_116);}.cls-90{fill:url(#Áåçûìÿííûé_ãðàäèåíò_12);}.cls-91{fill:#c2096f;}.cls-92{fill:#a4a6ff;}.cls-93{fill:url(#Áåçûìÿííûé_ãðàäèåíò_79-2);}.cls-94{fill:#e33d6f;}.cls-95{fill:url(#Áåçûìÿííûé_ãðàäèåíò_79-3);}.cls-96{fill:url(#Áåçûìÿííûé_ãðàäèåíò_205);}.cls-97{fill:url(#Áåçûìÿííûé_ãðàäèåíò_205-2);}.cls-98{fill:url(#Áåçûìÿííûé_ãðàäèåíò_101);}.cls-99{fill:url(#Áåçûìÿííûé_ãðàäèåíò_101-2);}.cls-100{fill:url(#Áåçûìÿííûé_ãðàäèåíò_101-3);}.cls-101{fill:url(#Áåçûìÿííûé_ãðàäèåíò_205-3);}.cls-102{fill:url(#Áåçûìÿííûé_ãðàäèåíò_205-4);}.cls-103{fill:url(#Áåçûìÿííûé_ãðàäèåíò_101-4);}.cls-104{fill:url(#Áåçûìÿííûé_ãðàäèåíò_101-5);}.cls-105{fill:url(#Áåçûìÿííûé_ãðàäèåíò_205-5);}.cls-107{fill:#391861;}.cls-108,.cls-147{fill:#feb1c8;}.cls-109{fill:url(#Áåçûìÿííûé_ãðàäèåíò_101-6);}.cls-110,.cls-157{opacity:0.2;}.cls-111{fill:url(#Áåçûìÿííûé_ãðàäèåíò_10);}.cls-112{fill:url(#Áåçûìÿííûé_ãðàäèåíò_148);}.cls-113{fill:url(#Áåçûìÿííûé_ãðàäèåíò_116-2);}.cls-114{fill:url(#Áåçûìÿííûé_ãðàäèåíò_6);}.cls-115{fill:url(#Áåçûìÿííûé_ãðàäèåíò_257);}.cls-116{fill:url(#Áåçûìÿííûé_ãðàäèåíò_116-3);}.cls-117{fill:url(#Áåçûìÿííûé_ãðàäèåíò_116-4);}.cls-118{fill:#bf7988;opacity:0.6;}.cls-119{fill:url(#Áåçûìÿííûé_ãðàäèåíò_18);}.cls-120{fill:#ffe4ec;}.cls-121{fill:#7f6186;}.cls-122{fill:url(#Áåçûìÿííûé_ãðàäèåíò_44);}.cls-123{fill:#6c2a51;}.cls-124{fill:url(#Áåçûìÿííûé_ãðàäèåíò_183-5);}.cls-125{fill:url(#Áåçûìÿííûé_ãðàäèåíò_44-2);}.cls-126{fill:url(#Áåçûìÿííûé_ãðàäèåíò_18-2);}.cls-127{fill:#ce7988;}.cls-128{fill:url(#Áåçûìÿííûé_ãðàäèåíò_116-5);}.cls-129{fill:url(#Áåçûìÿííûé_ãðàäèåíò_51);}.cls-130{fill:url(#Áåçûìÿííûé_ãðàäèåíò_51-2);}.cls-131{opacity:0.4;fill:url(#Áåçûìÿííûé_ãðàäèåíò_116-6);}.cls-132{fill:#8075ba;}.cls-133{fill:#e15153;}.cls-134{fill:url(#Áåçûìÿííûé_ãðàäèåíò_38);}.cls-135{fill:#cfc7b8;}.cls-136{fill:url(#Áåçûìÿííûé_ãðàäèåíò_38-2);}.cls-137{fill:#382a8d;}.cls-138{fill:url(#Áåçûìÿííûé_ãðàäèåíò_38-3);}.cls-139{fill:#5cf1ff;}.cls-140{fill:#fafbf9;}.cls-141{fill:url(#Áåçûìÿííûé_ãðàäèåíò_148-2);}.cls-142{fill:url(#Áåçûìÿííûé_ãðàäèåíò_20);}.cls-143{fill:url(#Áåçûìÿííûé_ãðàäèåíò_20-2);}.cls-145{fill:#d1a1c8;}.cls-146{fill:url(#Áåçûìÿííûé_ãðàäèåíò_98-2);}.cls-148{fill:url(#Áåçûìÿííûé_ãðàäèåíò_116-7);}.cls-149{fill:url(#Áåçûìÿííûé_ãðàäèåíò_116-8);}.cls-150{fill:url(#Áåçûìÿííûé_ãðàäèåíò_257-2);}.cls-151{fill:url(#Áåçûìÿííûé_ãðàäèåíò_257-3);}.cls-152{fill:url(#Áåçûìÿííûé_ãðàäèåíò_257-4);}.cls-153{fill:url(#Áåçûìÿííûé_ãðàäèåíò_101-7);}.cls-154{fill:url(#Áåçûìÿííûé_ãðàäèåíò_101-8);}.cls-155{fill:url(#Áåçûìÿííûé_ãðàäèåíò_101-9);}.cls-158{fill:#5e4fb8;}.cls-159{fill:#6a5cd4;}.cls-160{fill:#4bffff;}.cls-161{fill:#b892ad;}</style><linearGradient id="Áåçûìÿííûé_ãðàäèåíò_22" x1="6375.72" y1="1078.76" x2="6375.72" y2="498.49" gradientTransform="matrix(-0.91, 0.41, 0.41, 0.91, 7074.29, -2498.98)" gradientUnits="userSpaceOnUse"><stop offset="0.02" stop-color="#ffb88e"/><stop offset="1" stop-color="#ff7c7c"/></linearGradient><linearGradient id="Áåçûìÿííûé_ãðàäèåíò_15" x1="-46.34" y1="1239.23" x2="-46.34" y2="1205.89" gradientTransform="translate(1490.96 -602.28) rotate(-15.81)" gradientUnits="userSpaceOnUse"><stop offset="0" stop-color="#ffb698"/><stop offset="1" stop-color="#ffc293"/></linearGradient><linearGradient id="Áåçûìÿííûé_ãðàäèåíò_15-2" x1="-74.96" y1="1153.58" x2="-74.96" y2="1125.14" xlink:href="#Áåçûìÿííûé_ãðàäèåíò_15"/><linearGradient id="Áåçûìÿííûé_ãðàäèåíò_15-3" x1="-46.79" y1="1305.3" x2="-46.79" y2="1275.24" xlink:href="#Áåçûìÿííûé_ãðàäèåíò_15"/><linearGradient id="Áåçûìÿííûé_ãðàäèåíò_15-4" x1="-81.57" y1="1357.21" x2="-81.57" y2="1329.32" xlink:href="#Áåçûìÿííûé_ãðàäèåíò_15"/><linearGradient id="Áåçûìÿííûé_ãðàäèåíò_126" x1="-72.76" y1="1153.1" x2="-72.07" y2="1153.1" gradientTransform="translate(1490.96 -602.28) rotate(-15.81)" gradientUnits="userSpaceOnUse"><stop offset="0" stop-color="#e5658e"/><stop offset="1" stop-color="#ffe5e2"/></linearGradient><linearGradient id="Áåçûìÿííûé_ãðàäèåíò_126-2" x1="-95.57" y1="1322.3" x2="-87.66" y2="1322.3" xlink:href="#Áåçûìÿííûé_ãðàäèåíò_126"/><linearGradient id="Áåçûìÿííûé_ãðàäèåíò_126-3" x1="6395.64" y1="706.72" x2="6100.98" y2="663.94" gradientTransform="matrix(-0.91, 0.41, 0.41, 0.91, 7074.29, -2498.98)" xlink:href="#Áåçûìÿííûé_ãðàäèåíò_126"/><linearGradient id="Áåçûìÿííûé_ãðàäèåíò_126-4" x1="-134.41" y1="1290.78" x2="-57.97" y2="1290.78" xlink:href="#Áåçûìÿííûé_ãðàäèåíò_126"/><linearGradient id="Áåçûìÿííûé_ãðàäèåíò_126-5" x1="-134.79" y1="1340.45" x2="-90.79" y2="1340.45" xlink:href="#Áåçûìÿííûé_ãðàäèåíò_126"/><linearGradient id="Áåçûìÿííûé_ãðàäèåíò_126-6" x1="-136.09" y1="1224.93" x2="-66.05" y2="1224.93" xlink:href="#Áåçûìÿííûé_ãðàäèåíò_126"/><linearGradient id="Áåçûìÿííûé_ãðàäèåíò_14" x1="-305.83" y1="1326.2" x2="-305.83" y2="1219.17" gradientTransform="translate(1490.96 -602.28) rotate(-15.81)" gradientUnits="userSpaceOnUse"><stop offset="0" stop-color="#ffe5e2"/><stop offset="1" stop-color="#e5658e"/></linearGradient><linearGradient id="Áåçûìÿííûé_ãðàäèåíò_14-2" x1="-330.72" y1="1222.57" x2="-330.72" y2="1106.06" xlink:href="#Áåçûìÿííûé_ãðàäèåíò_14"/><linearGradient id="Áåçûìÿííûé_ãðàäèåíò_15-5" x1="-357.04" y1="1058" x2="-357.04" y2="1011.49" gradientTransform="translate(1471.01 -513.89) rotate(-18.65)" xlink:href="#Áåçûìÿííûé_ãðàäèåíò_15"/><linearGradient id="Áåçûìÿííûé_ãðàäèåíò_14-3" x1="-353.71" y1="1375.38" x2="-353.71" y2="1286.29" xlink:href="#Áåçûìÿííûé_ãðàäèåíò_14"/><linearGradient id="Áåçûìÿííûé_ãðàäèåíò_14-4" x1="-290.21" y1="1249.72" x2="-290.21" y2="1233.09" xlink:href="#Áåçûìÿííûé_ãðàäèåíò_14"/><linearGradient id="Áåçûìÿííûé_ãðàäèåíò_14-5" x1="-306.07" y1="1345.98" x2="-306.07" y2="1252.01" xlink:href="#Áåçûìÿííûé_ãðàäèåíò_14"/><linearGradient id="Áåçûìÿííûé_ãðàäèåíò_126-7" x1="-218.3" y1="1233.6" x2="-218.3" y2="1219.16" xlink:href="#Áåçûìÿííûé_ãðàäèåíò_126"/><linearGradient id="Áåçûìÿííûé_ãðàäèåíò_14-6" x1="-208.38" y1="1253.67" x2="-208.38" y2="1234.77" xlink:href="#Áåçûìÿííûé_ãðàäèåíò_14"/><linearGradient id="Áåçûìÿííûé_ãðàäèåíò_126-8" x1="-196.28" y1="1271.49" x2="-196.28" y2="1263.85" xlink:href="#Áåçûìÿííûé_ãðàäèåíò_126"/><linearGradient id="Áåçûìÿííûé_ãðàäèåíò_14-7" x1="-193.15" y1="1290.78" x2="-193.15" y2="1279.75" xlink:href="#Áåçûìÿííûé_ãðàäèåíò_14"/><linearGradient id="Áåçûìÿííûé_ãðàäèåíò_126-9" x1="-190.43" y1="1315.61" x2="-190.43" y2="1302.6" xlink:href="#Áåçûìÿííûé_ãðàäèåíò_126"/><linearGradient id="Áåçûìÿííûé_ãðàäèåíò_14-8" x1="-187.51" y1="1330.83" x2="-187.51" y2="1320.13" xlink:href="#Áåçûìÿííûé_ãðàäèåíò_14"/><linearGradient id="Áåçûìÿííûé_ãðàäèåíò_126-10" x1="-183.84" y1="1353.78" x2="-183.84" y2="1343.27" xlink:href="#Áåçûìÿííûé_ãðàäèåíò_126"/><linearGradient id="Áåçûìÿííûé_ãðàäèåíò_126-11" x1="-372.17" y1="1705.6" x2="-372.17" y2="1348.52" xlink:href="#Áåçûìÿííûé_ãðàäèåíò_126"/><linearGradient id="Áåçûìÿííûé_ãðàäèåíò_126-12" x1="-255.64" y1="1298.02" x2="-209.82" y2="1298.02" xlink:href="#Áåçûìÿííûé_ãðàäèåíò_126"/><linearGradient id="Áåçûìÿííûé_ãðàäèåíò_14-9" x1="-293.95" y1="1305.57" x2="-259.32" y2="1305.57" xlink:href="#Áåçûìÿííûé_ãðàäèåíò_14"/><linearGradient id="Áåçûìÿííûé_ãðàäèåíò_14-10" x1="-346.2" y1="1207.58" x2="-346.2" y2="1145.33" xlink:href="#Áåçûìÿííûé_ãðàäèåíò_14"/><linearGradient id="Áåçûìÿííûé_ãðàäèåíò_14-11" x1="-320.16" y1="1217.45" x2="-320.01" y2="1217.45" xlink:href="#Áåçûìÿííûé_ãðàäèåíò_14"/><linearGradient id="Áåçûìÿííûé_ãðàäèåíò_463" x1="-75.54" y1="1313.19" x2="-75.54" y2="1287.6" gradientTransform="translate(1490.96 -602.28) rotate(-15.81)" gradientUnits="userSpaceOnUse"><stop offset="0" stop-color="#e5658e"/><stop offset="1" stop-color="#fff"/></linearGradient><linearGradient id="Áåçûìÿííûé_ãðàäèåíò_463-2" x1="-76.64" y1="1248.8" x2="-76.64" y2="1227.05" xlink:href="#Áåçûìÿííûé_ãðàäèåíò_463"/><linearGradient id="Áåçûìÿííûé_ãðàäèåíò_285" x1="-323.25" y1="1432.76" x2="-297.7" y2="1432.76" gradientTransform="translate(1490.96 -602.28) rotate(-15.81)" gradientUnits="userSpaceOnUse"><stop offset="0" stop-color="#fff"/><stop offset="1" stop-color="#e5658e"/></linearGradient><linearGradient id="Áåçûìÿííûé_ãðàäèåíò_14-12" x1="-357.9" y1="1037.91" x2="-348.38" y2="1037.91" gradientTransform="translate(1471.01 -513.89) rotate(-18.65)" xlink:href="#Áåçûìÿííûé_ãðàäèåíò_14"/><linearGradient id="Áåçûìÿííûé_ãðàäèåíò_81" x1="-921.34" y1="2969.03" x2="-921.34" y2="2626.04" gradientTransform="translate(2513.63 -2153.75) rotate(-0.45)" gradientUnits="userSpaceOnUse"><stop offset="0" stop-color="#dd0e24"/><stop offset="1" stop-color="#d33"/></linearGradient><linearGradient id="Áåçûìÿííûé_ãðàäèåíò_25" x1="-918.75" y1="2951.86" x2="-918.75" y2="2617.55" gradientTransform="translate(2513.63 -2153.75) rotate(-0.45)" gradientUnits="userSpaceOnUse"><stop offset="0" stop-color="#ece8ff"/><stop offset="1" stop-color="#fefefe"/></linearGradient><linearGradient id="Gradiente_sem_nome_35" x1="-620.01" y1="-1190.19" x2="-620.01" y2="-855.89" gradientTransform="matrix(1, -0.01, -0.01, -1, 2229.85, -389.87)" xlink:href="#Áåçûìÿííûé_ãðàäèåíò_25"/><linearGradient id="Gradiente_sem_nome_36" x1="2201.25" y1="1205.44" x2="2201.25" y2="1234.89" gradientTransform="matrix(0.92, -0.4, -0.4, -0.92, 135.59, 2729.3)" gradientUnits="userSpaceOnUse"><stop offset="0" stop-color="#ff6e27"/><stop offset="1" stop-color="#e03347"/></linearGradient><linearGradient id="Gradiente_sem_nome_37" x1="2202.34" y1="1197.89" x2="2202.34" y2="1241.57" gradientTransform="matrix(0.92, -0.4, -0.4, -0.92, 135.59, 2729.3)" gradientUnits="userSpaceOnUse"><stop offset="0" stop-color="#e03347"/><stop offset="1" stop-color="#ff6e27"/></linearGradient><linearGradient id="Gradiente_sem_nome_38" x1="2183.03" y1="1205.42" x2="2183.03" y2="1234.66" gradientTransform="matrix(0.92, -0.4, -0.4, -0.92, 135.59, 2729.3)" gradientUnits="userSpaceOnUse"><stop offset="0" stop-color="#ffa700"/><stop offset="1" stop-color="#ffd328"/></linearGradient><linearGradient id="Áåçûìÿííûé_ãðàäèåíò_16" x1="946.6" y1="2265.44" x2="946.6" y2="1872.26" gradientUnits="userSpaceOnUse"><stop offset="0" stop-color="#c50b79"/><stop offset="1" stop-color="#c01160"/></linearGradient><linearGradient id="Áåçûìÿííûé_ãðàäèåíò_79" x1="927.56" y1="2216.73" x2="927.56" y2="765.8" gradientUnits="userSpaceOnUse"><stop offset="0" stop-color="#ff6686"/><stop offset="1" stop-color="#ff7c89"/></linearGradient><linearGradient id="Áåçûìÿííûé_ãðàäèåíò_82" x1="880.63" y1="2024.91" x2="880.63" y2="912.11" gradientUnits="userSpaceOnUse"><stop offset="0.02" stop-color="#fff"/><stop offset="0.99" stop-color="#ea8cc1"/></linearGradient><linearGradient id="Áåçûìÿííûé_ãðàäèåíò_82-2" x1="973.06" y1="2195.6" x2="973.06" y2="997.93" xlink:href="#Áåçûìÿííûé_ãðàäèåíò_82"/><linearGradient id="Áåçûìÿííûé_ãðàäèåíò_41" x1="922.04" y1="1505.59" x2="922.04" y2="901.51" gradientUnits="userSpaceOnUse"><stop offset="0" stop-color="#ffb595"/><stop offset="0.98" stop-color="#ffaea9"/></linearGradient><linearGradient id="Áåçûìÿííûé_ãðàäèåíò_183" x1="975.01" y1="1020.38" x2="1163.01" y2="1020.38" gradientUnits="userSpaceOnUse"><stop offset="0.02" stop-color="#fff"/><stop offset="0.99" stop-color="#ea9dc8"/></linearGradient><linearGradient id="Áåçûìÿííûé_ãðàäèåíò_98" x1="976.59" y1="1167.58" x2="1158.09" y2="1167.58" gradientUnits="userSpaceOnUse"><stop offset="0.01" stop-color="#ea9dc8"/><stop offset="0.98" stop-color="#ffdbd6"/></linearGradient><linearGradient id="Áåçûìÿííûé_ãðàäèåíò_183-2" x1="978.9" y1="1088.73" x2="995.38" y2="1088.73" xlink:href="#Áåçûìÿííûé_ãðàäèåíò_183"/><linearGradient id="Áåçûìÿííûé_ãðàäèåíò_183-3" x1="1001.87" y1="1116.39" x2="1026.66" y2="1116.39" xlink:href="#Áåçûìÿííûé_ãðàäèåíò_183"/><linearGradient id="Áåçûìÿííûé_ãðàäèåíò_183-4" x1="1021.05" y1="1154.29" x2="1044.27" y2="1154.29" xlink:href="#Áåçûìÿííûé_ãðàäèåíò_183"/><linearGradient id="Áåçûìÿííûé_ãðàäèåíò_26" x1="868.4" y1="954.5" x2="868.4" y2="676.43" gradientUnits="userSpaceOnUse"><stop offset="0.02" stop-color="#ffa67f"/><stop offset="1" stop-color="#ff8b7c"/></linearGradient><linearGradient id="Áåçûìÿííûé_ãðàäèåíò_116" x1="830.82" y1="889.58" x2="830.82" y2="680.81" gradientUnits="userSpaceOnUse"><stop offset="0.02" stop-color="#fff"/><stop offset="0.99" stop-color="#f29dc8"/></linearGradient><linearGradient id="Áåçûìÿííûé_ãðàäèåíò_12" x1="601.36" y1="1684.39" x2="601.36" y2="1302.82" gradientUnits="userSpaceOnUse"><stop offset="0" stop-color="#38328a"/><stop offset="1" stop-color="#4f349b"/></linearGradient><linearGradient id="Áåçûìÿííûé_ãðàäèåíò_79-2" x1="1530.67" y1="1197.71" x2="1530.67" y2="918.68" xlink:href="#Áåçûìÿííûé_ãðàäèåíò_79"/><linearGradient id="Áåçûìÿííûé_ãðàäèåíò_79-3" x1="760.62" y1="1535.08" x2="760.62" y2="1229.56" xlink:href="#Áåçûìÿííûé_ãðàäèåíò_79"/><linearGradient id="Áåçûìÿííûé_ãðàäèåíò_205" x1="1299.54" y1="1280.84" x2="1299.54" y2="950.27" gradientUnits="userSpaceOnUse"><stop offset="0.01" stop-color="#c2798b"/><stop offset="0.98" stop-color="#fff"/></linearGradient><linearGradient id="Áåçûìÿííûé_ãðàäèåíò_205-2" x1="605.29" y1="1342.53" x2="605.29" y2="1257.62" xlink:href="#Áåçûìÿííûé_ãðàäèåíò_205"/><linearGradient id="Áåçûìÿííûé_ãðàäèåíò_101" x1="459.67" y1="1336.53" x2="634.83" y2="1336.53" gradientUnits="userSpaceOnUse"><stop offset="0.02" stop-color="#fff"/><stop offset="0.99" stop-color="#c2798b"/></linearGradient><linearGradient id="Áåçûìÿííûé_ãðàäèåíò_101-2" x1="467.71" y1="1385.02" x2="606.61" y2="1385.02" xlink:href="#Áåçûìÿííûé_ãðàäèåíò_101"/><linearGradient id="Áåçûìÿííûé_ãðàäèåíò_101-3" x1="1317.56" y1="1144.5" x2="1427.45" y2="1144.5" xlink:href="#Áåçûìÿííûé_ãðàäèåíò_101"/><linearGradient id="Áåçûìÿííûé_ãðàäèåíò_205-3" x1="1385.42" y1="1375.17" x2="1595.78" y2="1375.17" xlink:href="#Áåçûìÿííûé_ãðàäèåíò_205"/><linearGradient id="Áåçûìÿííûé_ãðàäèåíò_205-4" x1="1186.63" y1="2145" x2="1186.63" y2="1156.42" xlink:href="#Áåçûìÿííûé_ãðàäèåíò_205"/><linearGradient id="Áåçûìÿííûé_ãðàäèåíò_101-4" x1="527.68" y1="2194.25" x2="527.68" y2="2149.08" xlink:href="#Áåçûìÿííûé_ãðàäèåíò_101"/><linearGradient id="Áåçûìÿííûé_ãðàäèåíò_101-5" x1="660.21" y1="2195.56" x2="660.21" y2="1454.18" xlink:href="#Áåçûìÿííûé_ãðàäèåíò_101"/><linearGradient id="Áåçûìÿííûé_ãðàäèåíò_205-5" x1="446.48" y1="1632.79" x2="654.59" y2="1632.79" xlink:href="#Áåçûìÿííûé_ãðàäèåíò_205"/><linearGradient id="Áåçûìÿííûé_ãðàäèåíò_101-6" x1="1311.51" y1="1321.87" x2="1444.07" y2="1092.28" xlink:href="#Áåçûìÿííûé_ãðàäèåíò_101"/><linearGradient id="Áåçûìÿííûé_ãðàäèåíò_10" x1="948.77" y1="331.56" x2="916.7" y2="129.05" gradientUnits="userSpaceOnUse"><stop offset="0" stop-color="#3e2987"/><stop offset="0.14" stop-color="#372987"/><stop offset="0.66" stop-color="#212885"/><stop offset="1" stop-color="#192885"/></linearGradient><linearGradient id="Áåçûìÿííûé_ãðàäèåíò_148" x1="800.09" y1="696.08" x2="800.09" y2="117.9" gradientUnits="userSpaceOnUse"><stop offset="0" stop-color="#ffb595"/><stop offset="0.98" stop-color="#ffc2a9"/></linearGradient><linearGradient id="Áåçûìÿííûé_ãðàäèåíò_116-2" x1="775.69" y1="483.02" x2="719.37" y2="127.38" xlink:href="#Áåçûìÿííûé_ãðàäèåíò_116"/><linearGradient id="Áåçûìÿííûé_ãðàäèåíò_6" x1="685.33" y1="639.32" x2="581.69" y2="496.66" gradientUnits="userSpaceOnUse"><stop offset="0" stop-color="#ffb595"/><stop offset="0.98" stop-color="#ff958d"/></linearGradient><linearGradient id="Áåçûìÿííûé_ãðàäèåíò_257" x1="568.54" y1="342.58" x2="550.76" y2="230.31" gradientUnits="userSpaceOnUse"><stop offset="0" stop-color="#3e2987"/><stop offset="0.57" stop-color="#2c2f90"/><stop offset="1" stop-color="#243294"/></linearGradient><linearGradient id="Áåçûìÿííûé_ãðàäèåíò_116-3" x1="625.68" y1="615.39" x2="625.68" y2="530.91" xlink:href="#Áåçûìÿííûé_ãðàäèåíò_116"/><linearGradient id="Áåçûìÿííûé_ãðàäèåíò_116-4" x1="838.89" y1="506.06" x2="838.89" y2="278.93" xlink:href="#Áåçûìÿííûé_ãðàäèåíò_116"/><linearGradient id="Áåçûìÿííûé_ãðàäèåíò_18" x1="734.43" y1="422.25" x2="836.06" y2="422.25" gradientUnits="userSpaceOnUse"><stop offset="0.01" stop-color="#ea9dc8"/><stop offset="0.98" stop-color="#fff"/></linearGradient><linearGradient id="Áåçûìÿííûé_ãðàäèåíò_44" x1="769.1" y1="459.58" x2="769.1" y2="413.91" gradientUnits="userSpaceOnUse"><stop offset="0.02" stop-color="#e0b3d1"/><stop offset="0.99" stop-color="#c2798b"/></linearGradient><linearGradient id="Áåçûìÿííûé_ãðàäèåíò_183-5" x1="919.47" y1="360.29" x2="971.97" y2="360.29" xlink:href="#Áåçûìÿííûé_ãðàäèåíò_183"/><linearGradient id="Áåçûìÿííûé_ãðàäèåíò_44-2" x1="938.62" y1="402.11" x2="938.62" y2="356.45" xlink:href="#Áåçûìÿííûé_ãðàäèåíò_44"/><linearGradient id="Áåçûìÿííûé_ãðàäèåíò_18-2" x1="880.56" y1="511.4" x2="880.56" y2="473.03" xlink:href="#Áåçûìÿííûé_ãðàäèåíò_18"/><linearGradient id="Áåçûìÿííûé_ãðàäèåíò_116-5" x1="759.04" y1="579.64" x2="795.57" y2="579.64" gradientTransform="matrix(-0.79, 0.62, 0.62, 0.79, 1107.94, -377.41)" xlink:href="#Áåçûìÿííûé_ãðàäèåíò_116"/><linearGradient id="Áåçûìÿííûé_ãðàäèåíò_51" x1="927.31" y1="319.91" x2="927.31" y2="252.16" gradientUnits="userSpaceOnUse"><stop offset="0" stop-color="#b877b8"/><stop offset="0.23" stop-color="#9a6dba"/><stop offset="0.56" stop-color="#7762bb"/><stop offset="0.83" stop-color="#615bbd"/><stop offset="1" stop-color="#5958bd"/></linearGradient><linearGradient id="Áåçûìÿííûé_ãðàäèåíò_51-2" x1="696.57" y1="420.67" x2="696.57" y2="328.96" gradientTransform="translate(76.16 -72.84) rotate(4.63)" xlink:href="#Áåçûìÿííûé_ãðàäèåíò_51"/><linearGradient id="Áåçûìÿííûé_ãðàäèåíò_116-6" x1="766.67" y1="674.49" x2="766.67" y2="514.61" xlink:href="#Áåçûìÿííûé_ãðàäèåíò_116"/><linearGradient id="Áåçûìÿííûé_ãðàäèåíò_38" x1="1002.68" y1="456.46" x2="1002.68" y2="295.51" gradientTransform="matrix(1, 0, 0.06, 1.02, -57.87, -15.23)" gradientUnits="userSpaceOnUse"><stop offset="0" stop-color="#26258a"/><stop offset="1" stop-color="#3c2c95"/></linearGradient><linearGradient id="Áåçûìÿííûé_ãðàäèåíò_38-2" x1="803.33" y1="524.5" x2="803.33" y2="360.51" xlink:href="#Áåçûìÿííûé_ãðàäèåíò_38"/><linearGradient id="Áåçûìÿííûé_ãðàäèåíò_38-3" x1="681.03" y1="507.43" x2="681.03" y2="433.67" xlink:href="#Áåçûìÿííûé_ãðàäèåíò_38"/><linearGradient id="Áåçûìÿííûé_ãðàäèåíò_148-2" x1="864.26" y1="449.79" x2="968.5" y2="449.79" xlink:href="#Áåçûìÿííûé_ãðàäèåíò_148"/><linearGradient id="Áåçûìÿííûé_ãðàäèåíò_20" x1="916.19" y1="509.15" x2="916.19" y2="411.92" gradientUnits="userSpaceOnUse"><stop offset="0.01" stop-color="#f29dc8"/><stop offset="0.98" stop-color="#fff"/></linearGradient><linearGradient id="Áåçûìÿííûé_ãðàäèåíò_20-2" x1="922.43" y1="510.46" x2="922.43" y2="458.71" xlink:href="#Áåçûìÿííûé_ãðàäèåíò_20"/><linearGradient id="Áåçûìÿííûé_ãðàäèåíò_98-2" x1="944.32" y1="465.02" x2="971" y2="465.02" xlink:href="#Áåçûìÿííûé_ãðàäèåíò_98"/><linearGradient id="Áåçûìÿííûé_ãðàäèåíò_116-7" x1="646.06" y1="368.85" x2="747.08" y2="368.85" gradientTransform="translate(76.16 -72.84) rotate(4.63)" xlink:href="#Áåçûìÿííûé_ãðàäèåíò_116"/><linearGradient id="Áåçûìÿííûé_ãðàäèåíò_116-8" x1="934.18" y1="602.91" x2="934.18" y2="568.8" xlink:href="#Áåçûìÿííûé_ãðàäèåíò_116"/><linearGradient id="Áåçûìÿííûé_ãðàäèåíò_257-2" x1="789.46" y1="179.53" x2="769.68" y2="54.67" xlink:href="#Áåçûìÿííûé_ãðàäèåíò_257"/><linearGradient id="Áåçûìÿííûé_ãðàäèåíò_257-3" x1="794.27" y1="520.81" x2="720.28" y2="53.62" xlink:href="#Áåçûìÿííûé_ãðàäèåíò_257"/><linearGradient id="Áåçûìÿííûé_ãðàäèåíò_257-4" x1="674.65" y1="214.77" x2="653.68" y2="82.38" xlink:href="#Áåçûìÿííûé_ãðàäèåíò_257"/><linearGradient id="Áåçûìÿííûé_ãðàäèåíò_101-7" x1="631.22" y1="173.97" x2="980.43" y2="173.97" xlink:href="#Áåçûìÿííûé_ãðàäèåíò_101"/><linearGradient id="Áåçûìÿííûé_ãðàäèåíò_101-8" x1="596.13" y1="487.67" x2="596.13" y2="238.83" xlink:href="#Áåçûìÿííûé_ãðàäèåíò_101"/><linearGradient id="Áåçûìÿííûé_ãðàäèåíò_101-9" x1="614.18" y1="495.24" x2="614.18" y2="353.34" xlink:href="#Áåçûìÿííûé_ãðàäèåíò_101"/></defs><g class="cls-1"><g id="Camada_2" data-name="Camada 2"><g id="background"><g class="cls-2"><path class="cls-3" d="M1047.67,144.3C597.88,58.84,144.63,740.15,11.33,1375.17S955.12,2089.36,1440.18,2015c273.78-42,291.4-608.72,221.23-1039.33-54.14-332.3-170.11-531-201.65-671.69C1387.35-19.1,1224.31,177.86,1047.67,144.3Z"/><path class="cls-3" d="M1710.75,1313.15c-24.36,419.16,364.61,302.78,335.94-302.26S1628.85,128.19,1527,259.42C1466.57,337.28,1735.12,894,1710.75,1313.15Z"/><path class="cls-3" d="M154.18,742c-159.62-5.48-111.08-509.81,0-671s452-5.63,495.49,52.66S362,479.29,282.47,608.76,195.75,743.47,154.18,742Z"/></g></g><g id="Camada_3" data-name="Camada 3"><path class="cls-4" d="M1433.55,1202.36l132.06-58.55,18.1-326.09s17.08-3.35,30.48-11.46,61.38-50.29,68.42-55.82a20.13,20.13,0,0,1,5-2.32l.62-.21a7.58,7.58,0,0,1,.72-.24c.67-.24,1.38-.45,2.11-.67,2.11-.65,4.49-1.32,7.1-2l3-.76c2.26-.55,4.68-1.11,7.15-1.67l1.29-.29c5.84-1.3,12.06-2.56,18.1-3.72l2.77-.51c2-.35,3.9-.72,5.79-1s4-.69,5.82-1c1-.18,2-.35,3-.49l1.1-.18,2.9-.44c2.29-.34,4.33-.6,6.09-.83l1.54-.17c1.27-.13,2.34-.21,3.16-.24,10.22-.41,14-1.9,14.57-2.17l.1,0s9-8.72,7.26-20c-1.57-10.35-12.8-16.23-14.61-17.1l-.25-.14a62.77,62.77,0,0,0-7.68,1.2c-4.39.84-11.18,2.27-21.5,4.72-1.51.34-3.09.74-4.71,1.15-.81.19-1.62.39-2.45.62l-5,1.28c-3.43.89-7,1.86-10.59,2.84l-4.28,1.18-1.14.33c-3.47.94-6.92,1.92-10.26,2.88l-3,.87c-1.28.36-2.53.73-3.77,1.07l-1.23.37-1.14.32-1.25.37c-.78.22-1.54.46-2.3.68l-.35.09-2.34.69c-1.14.33-2.23.64-3.27,1l-2,.6a.56.56,0,0,1-.2.06l-2.53.76-1,.28c-.46.13-.89.25-1.3.4l-.81.23-1.59.49-1.68.49-.55.17-.44.13-1.77-4.2s45.1-19.23,56.6-22.21,33-5.82,50.3-10.72c8.42-2.39,14.58-5,18.71-7.88v0c4.39-3,6.52-6.22,6.77-9.6.47-6.6-3-26.2-10.74-29.59-4.32-1.89-14.44.13-26.83,4.21h-.08c-9.7,3.19-20.81,7.62-31.57,12.34-2.32,1-4.88,2.12-7.67,3.28-.24.11-.5.23-.77.33l-2.07.86-1.45.61-3,1.23c-2.33.94-4.71,1.93-7.15,2.91l-2.18.89-10.15,4-4.76,1.87c-2.52,1-5,1.95-7.46,2.92l-4.14,1.62c-.25.09-.52.19-.76.3l-2.34.9-3.11,1.2-2.6,1c-.54.2-1.07.39-1.58.6l-2.11.82-2.33.89-1.76.68-4.62,1.76-1.89.71-4.61,1.78-.91.34-.62.24s-4-5.66-3.57-8.4c0-.24.49-.73,1.29-1.45.41-.34.88-.74,1.45-1.18.78-.62,1.71-1.33,2.79-2.14l1.47-1.08,1.77-1.25,1-.67,1-.69c6.41-4.46,15-10.09,23.4-15.42q1.1-.71,2.19-1.38c1-.65,2.07-1.3,3.08-1.91l2.22-1.37c.56-.33,1.11-.68,1.67-1s1.4-.85,2.11-1.27c2.47-1.5,4.84-2.9,7.05-4.15,1.11-.64,2.17-1.24,3.17-1.79s2-1.09,2.88-1.56c.6-.33,1.19-.61,1.73-.9.26-.14.54-.26.79-.39s.52-.25.76-.36.48-.24.7-.34h0c.33-.15.62-.28.92-.4s.68-.3,1-.4l.61-.21c8.71-2.72,33.33-9.4,52.51-16.11,3.4-1.19,6.6-2.35,9.53-3.53,10.3-4.09,15.15-39.93-11.31-46.17-.7-.16-4.06,1-9,3-1,.4-2.11.83-3.27,1.31-2.63,1.09-5.57,2.37-8.72,3.75-14.48,6.43-33.36,15.62-46.28,23.44-.54.33-1.08.65-1.57,1-.9.54-1.77,1.1-2.59,1.64-21.58,14.05-68.16,45.76-68.16,45.76s-4.48-2.27-4.94-3.89,34.12-38,43.11-49.16,64.85-47.75,73.22-63.83c0,0,0-.06,0-.08a29.41,29.41,0,0,0,1.5-3.4l0-.1c.13-.35.25-.74.4-1.11v0c4.46-13.82-4.34-24.25-15-23.34-5,.42-14.63,3.48-26.1,9.37-15.83,8.11-35.14,21.59-50.56,41-1.82,2.26-3.56,4.46-5.21,6.55-22.63,28.73-31.24,41.62-42.79,53.67-1.52,1.57-3.7,3.65-6.36,6l0,.05c-18.9,17.1-61.65,51.22-61.65,51.22s-7.21-4.54-11.33-10.64a20.1,20.1,0,0,1-1.32-2.26c-1.74-3.47-1.14-12.51-.32-22.22v0c.87-10.39,2-21.53.78-27.26-2.33-11.09-7-41.5-37.82-57.45a26,26,0,0,0-7.59.7,41.11,41.11,0,0,0-5.42,1.65,49.06,49.06,0,0,0-14.73,9l1,1.91c4.71,9,24.66,47.47,30,67.66a38.5,38.5,0,0,1,.9,4.86v0c3.47,27-9,92.16-7.74,102.48,1.79,14.8,44.11,73.07,45.33,83.94S1433.55,1202.36,1433.55,1202.36Z"/><path class="cls-5" d="M1770.64,571.8s22.37,6.29,9.71,31.9C1780.35,603.7,1785.81,584.83,1770.64,571.8Z"/><path class="cls-6" d="M1714.93,504.08s10.06-5.28,19.12-1,6.18,18,1.25,24.36a18,18,0,0,0-.88-16.14C1730,503.35,1722,501.66,1714.93,504.08Z"/><path class="cls-7" d="M1791.65,637.93s16.24,12.7,6.92,29.28C1798.57,667.21,1799.43,655,1791.65,637.93Z"/><path class="cls-8" d="M1774.15,699.1s17.65,11.66,3.8,27.9C1778,727,1787.2,712.75,1774.15,699.1Z"/><path class="cls-9" d="M1735.7,526.34c-.13.36-.26.74-.4,1.1A6.38,6.38,0,0,1,1735.7,526.34Z"/><path class="cls-10" d="M1767.09,694.38l-7.92,1.08a59.24,59.24,0,0,1,7.66-1.21Z"/><path class="cls-11" d="M1560.15,813.49l23.56,4.23s17.08-3.35,30.48-11.46,61.38-50.29,68.42-55.82a20.13,20.13,0,0,1,5-2.32l.62-.21a7.58,7.58,0,0,1,.72-.24c.67-.24,1.36-.44,2.11-.67,2.11-.65,4.49-1.32,7.1-2l3-.76c2.26-.55,4.68-1.11,7.15-1.67.43-.11.85-.2,1.29-.29,5.84-1.3,12.06-2.56,18.1-3.72l2.77-.51c2-.35,3.9-.72,5.79-1s4-.69,5.82-1c1-.18,2-.33,3-.49l1.1-.18,2.9-.44c2.29-.34,4.33-.6,6.09-.83l1.54-.17c1.27-.13,2.34-.21,3.16-.24,10.22-.41,14-1.9,14.57-2.17-4.75,1.86-14.91-8.19-16.87-20.56s1.69-15.51,1.69-15.51c-4.39.84-11.18,2.27-21.5,4.72-1.51.34-3.09.74-4.71,1.15h0c-.8.19-1.6.4-2.42.61l-5,1.28c-3.42.91-7,1.86-10.59,2.84l-4.28,1.18-1.14.33c-3.46,1-6.92,1.92-10.26,2.88l-3,.87c-1.28.36-2.53.73-3.77,1.07l-1.23.37-1.14.32-1.25.37c-.78.22-1.54.46-2.3.68l-.35.09c-.8.26-1.58.48-2.34.69-1.13.34-2.24.67-3.27,1l-2,.6a.56.56,0,0,1-.2.06l-2.53.76-1,.28-1.3.4-.81.23-1.59.49-1.68.49-.55.17-.44.13-1.77-4.2s45.1-19.23,56.6-22.21,33-5.82,50.3-10.72c8.42-2.39,14.58-5,18.71-7.88v0c-6.12,2.88-16,5-16,5s-10.7,1.66-15.52-12.85a41.18,41.18,0,0,1,.67-27.09h-.08c-9.7,3.19-20.81,7.62-31.57,12.34-2.32,1-4.88,2.12-7.67,3.28-.21.1-.44.18-.65.27l-.12.06-2.07.86-1.45.61-3,1.23c-2.33.94-4.71,1.93-7.15,2.91-.72.28-1.44.58-2.18.89l-10.15,4-4.76,1.87c-2.52,1-5,1.95-7.46,2.92l-4.14,1.62c-.25.09-.52.19-.76.3l-2.34.9-3.11,1.2-2.6,1c-.54.2-1.07.39-1.58.6l-2.11.82-2.33.89-1.76.68-4.62,1.76c-.65.27-1.29.51-1.89.71l-4.61,1.78-.91.34-.62.24s-4-5.66-3.57-8.4c0-.24.49-.73,1.29-1.45.41-.34.88-.74,1.45-1.18.78-.62,1.71-1.33,2.79-2.14l1.47-1.08,1.77-1.25,1-.67,1-.69c6.41-4.46,15-10.09,23.4-15.42.73-.46,1.46-.93,2.19-1.38,1-.65,2.07-1.3,3.08-1.91l2.22-1.37c.56-.33,1.11-.68,1.67-1l2.11-1.27c2.47-1.5,4.84-2.9,7.05-4.15,1.11-.64,2.17-1.24,3.17-1.79s2-1.09,2.88-1.56l1.73-.9c.26-.14.54-.26.79-.39l.76-.36c.24-.13.48-.24.7-.34h0c.33-.15.62-.28.92-.4s.68-.3,1-.4l.61-.21c8.71-2.72,33.33-9.4,52.51-16.11-1-.11-14.68-4.78-19-18.83-4.13-13.32,6.55-26.06,8.21-27.9a2.68,2.68,0,0,1,.2-.24l-3.47,1.55c-15.41,6.95-42.24,19.6-55,27.19-.54.33-1.08.65-1.57,1-.9.54-1.77,1.1-2.59,1.64-21.58,14.05-68.16,45.76-68.16,45.76s-4.48-2.27-4.94-3.89,34.12-38,43.11-49.16,64.85-47.75,73.22-63.83c-4.88,8.19-42.3,24.39-54.6,10.83-2.59-2.87-14.91-11.13,15.47-29.52-15.83,8.11-35.14,21.59-50.56,41-1.82,2.26-3.56,4.46-5.21,6.55-22.63,28.73-31.24,41.62-42.79,53.67-1.52,1.57-3.7,3.65-6.36,6l0,.05s38.91,38.89,51.06,59,33.37,64.54,31.53,71.89c-4,16.14-48.08,47.13-71.06,56.28C1580.1,815.13,1562.83,813.77,1560.15,813.49Z"/><path class="cls-12" d="M1792.3,674.46h0c-4.13,2.83-10.29,5.49-18.71,7.88-17.3,4.9-38.78,7.76-50.29,10.72,0,0-8.08-3.75-10-18.64-1.8-13.9,7-18.46,8.1-19l.12,0c3-1.26,5.82-2.46,8.3-3.55,10.78-4.74,21.87-9.16,31.58-12.34l.07,0a41.12,41.12,0,0,0-.66,27.08c4.82,14.53,15.51,12.86,15.51,12.86S1786.18,677.32,1792.3,674.46Z"/><path class="cls-13" d="M1774.35,731.52c-.59.26-4.36,1.76-14.57,2.16-3.76.15-12.86,1.45-23.57,3.34a19.58,19.58,0,0,1-7.91-8c-5.58-10.77.37-26.26.37-26.26l4.24-1.39h0c1.64-.41,3.22-.8,4.72-1.15,10.32-2.44,17.11-3.88,21.51-4.71,0,0-3.67,3.1-1.72,15.49S1769.59,733.38,1774.35,731.52Z"/><path class="cls-14" d="M1763.75,617.76c-19.18,6.72-43.79,13.4-52.52,16.12a24.29,24.29,0,0,0-2.52,1h0S1697,629.38,1693.3,611a27.52,27.52,0,0,1-.22-10.53c12.93-8,46.27-23.39,61.36-30.09,0,0-15,11.87-10.53,26.28C1748.26,610.75,1762.78,617.65,1763.75,617.76Z"/><path class="cls-15" d="M1515.34,657.91l3.39,12s22.91,11.73,27.63,20.09,17.18,45.07,13.83,66.46c0,0,6-15.33.6-39.39s-8.17-28.84-8.17-28.84L1528,670.79Z"/><path class="cls-16" d="M1514.68,655.78c0,.31.12.59.19.86a8.07,8.07,0,0,0,.47,1.27,20.6,20.6,0,0,0,1.33,2.24l-.4,1s-.53-1.74-1.46-4.38c-2.2-6.25-9.63-13.83-14.55-18.55-7-6.72-18-1.48-18-1.48h0a37.75,37.75,0,0,0-.91-4.86c-5.38-20.2-25.33-58.68-30-67.67l.06-.86,10.29-4.48,16.36-7.95a66.57,66.57,0,0,1,14.3,9.89h0c18.09,16.46,21.58,38.47,23.51,47.56,2,9.49-2.4,33.72-1.46,45a21.28,21.28,0,0,0,.31,2.24Z"/><path class="cls-17" d="M1449.37,563.39l11-6.2s22,32.51,9.76,45.8Z"/><path class="cls-18" d="M1474.5,739.23s25,20.7,35.22,31.36,42.38,39.26,42.38,39.26l-33.51,7.79s-11.72-16.75-27-42.94S1474.5,739.23,1474.5,739.23Z"/><path class="cls-19" d="M1528,670.79s20.43,1.56,30,2.09,14.57.58,14.57.58-21.45-6.67-25.51-7.28-15.18,1.52-15.18,1.52Z"/><path class="cls-20" d="M1552.62,688.21l-11-3.6s8.6,31.18,9.22,50-.91,45.35-.91,45.35,18-30,12.24-55.47S1552.62,688.21,1552.62,688.21Z"/><polygon class="cls-21" points="1617.4 644 1605.31 632.43 1623.37 636.41 1617.4 644"/><polygon class="cls-22" points="1622.33 647.89 1632.12 660.7 1632.61 640.91 1622.33 647.89"/><polygon class="cls-23" points="1646.23 675.22 1640.54 668.89 1653.51 669.19 1646.23 675.22"/><polygon class="cls-24" points="1649.79 683.61 1652.58 693.47 1658.12 680.44 1649.79 683.61"/><polygon class="cls-25" points="1666.69 715.28 1657.06 704.48 1671.86 713.82 1666.69 715.28"/><polygon class="cls-26" points="1668.46 719.48 1670.38 730.05 1673.12 718.27 1668.46 719.48"/><polygon class="cls-27" points="1682.62 750.43 1675.43 741.55 1687.41 748.18 1682.62 750.43"/><path class="cls-28" d="M1589.65,619.58s67.16,65,90.19,133.13l-10.44-33.58-2.12-4.1-17.49-31.42-3.56-8.39-23.9-27.33L1617.4,644Z"/><path class="cls-29" d="M1559.93,813.46l-7.83-3.61-23.52-21.26s3.36,62,15.06,122.59S1526,1160.44,1526,1160.44l39.6-16.64,18.12-326.08S1567.75,817.07,1559.93,813.46Z"/><path class="cls-28" d="M1663.06,592.14l11.69-12.3L1732.38,533s-3.29,6.68-22.47,21.78S1663.06,592.14,1663.06,592.14Z"/><path class="cls-28" d="M1708.68,634.9s56.41-16.89,63-22.56c7.5-6.41,9.8-17,9.8-17s1,13.47-7.4,18.54C1767.31,617.94,1708.68,634.9,1708.68,634.9Z"/><path class="cls-30" d="M1584.33,665.51s16.47,27,21.5,36.49,18.74,26.74,18.74,26.74l32.58,25.77L1645,746.9l-27.55-15.4-22.18-45Z"/><polygon class="cls-31" points="1578.7 786.25 1588.36 726.09 1588.32 696.9 1582.41 672.22 1590.5 700.79 1588.39 746.26 1578.7 786.25"/><path class="cls-32" d="M1466.57,595s16.78,30.26,17.6,33.16-1.46,27-1.46,27,.21-16.21-1.39-23.21S1466.57,595,1466.57,595Z"/><path class="cls-33" d="M1791.65,637.93s10.29,14.68,6.92,29.28C1798.57,667.21,1799.05,655.74,1791.65,637.93Z"/><path class="cls-33" d="M1774.15,699.1S1789,711,1778,727C1778,727,1787.07,712.77,1774.15,699.1Z"/><path class="cls-33" d="M1770.64,571.8s17.84,8,9.71,31.9C1780.35,603.7,1785.3,583.8,1770.64,571.8Z"/><path class="cls-33" d="M1719,503.16s25.08-3.18,16.26,24.28C1735.3,527.44,1742.24,503.58,1719,503.16Z"/><polygon class="cls-34" points="1451.7 567.83 1463.15 561.61 1460.41 557.2 1449.37 563.39 1451.7 567.83"/><g class="cls-35"><path class="cls-36" d="M1474.5,739.23l8.82,4.88a128.8,128.8,0,0,0,14.63-30c5.44-16.77-10.17-80.11-10.17-80.11l-5.54,2.76.56,15.47Z"/></g><g class="cls-37"><path class="cls-36" d="M1638.82,559.84s24.07-21.6,39.27-33,36.84-22.8,36.84-22.8-15.74,2.35-41.89,21.59S1638.82,559.84,1638.82,559.84Z"/></g><g class="cls-37"><path class="cls-36" d="M1531.86,667.7s16.74-4.08,19-5.38,36.86-37,36.86-37l1.92-5.78Z"/></g><path class="cls-36" d="M1470.17,603l-5.78-11s5-6.63,9.24,3.35C1473.63,595.34,1473.34,601,1470.17,603Z"/><path class="cls-38" d="M1514.81,656.8l-.13-1c0,.31.12.59.19.86Z"/><path class="cls-39" d="M1515.81,608.4c2,9.49-2.4,33.72-1.46,45l-1.34-9.94s-2.19-19.66-5.8-40.29-14.93-42.37-14.93-42.37h0C1510.39,577.3,1513.88,599.31,1515.81,608.4Z"/><path class="cls-40" d="M1789.51,676.18s-8.46,4.65-18,2.65S1759,660,1759,660a69.55,69.55,0,0,0,.15,13.26,63.23,63.23,0,0,0,3.21,11.88S1784.74,680.58,1789.51,676.18Z"/><path class="cls-41" d="M1763.75,617.76s-12.25-2.72-18.33-16.83a37.47,37.47,0,0,0,9.93,19.8Z"/><polygon class="cls-42" points="1564.47 813.72 1584.07 912.69 1583.72 817.72 1564.47 813.72"/><path class="cls-43" d="M1470.17,603l1.89,4.09s12.25-13.11-10.39-48.37C1461.67,558.71,1481.94,592.84,1470.17,603Z"/><path class="cls-44" d="M1466,543.38l143,270a16.79,16.79,0,0,0,21.43,7.7l119.59-48c8.77-3.71,19.7-19.72,14.55-31.83L1635.57,489a16.79,16.79,0,0,0-17.76-9.42c-24,3.7-83.66-2-145.79,27.49C1460,512.82,1461.5,534.66,1466,543.38Z"/><path class="cls-45" d="M1466.6,529l144.33,277.34a17,17,0,0,0,21.76,7.82l122.42-51.87a17,17,0,0,0,8.77-22.95L1638.8,473.79a17,17,0,0,0-18-9.57c-24.36,3.76-81,14.59-145.59,41.18A17,17,0,0,0,1466.6,529Z"/><path class="cls-46" d="M1626.92,811a13.73,13.73,0,0,1-12.36-7.42L1470.24,526.26a13.89,13.89,0,0,1-.73-11.13,13.57,13.57,0,0,1,7.65-8c65.33-26.87,123.06-37.61,144.86-41a13.52,13.52,0,0,1,2-.17,13.84,13.84,0,0,1,12.59,7.92L1761.7,739.49a13.79,13.79,0,0,1-7.1,18.58l-122.42,51.87a13.65,13.65,0,0,1-5.26,1.09Z"/><path class="cls-47" d="M1627.68,805.17a8.9,8.9,0,0,1-8-4.81L1475.58,524a9,9,0,0,1-.47-7.21,8.7,8.7,0,0,1,4.92-5.14c64.85-26.68,122.14-37.33,143.75-40.67a9.78,9.78,0,0,1,1.31-.11,8.93,8.93,0,0,1,8.15,5.12l125.08,265.55a8.95,8.95,0,0,1-4.59,12l-122.64,50.88A8.94,8.94,0,0,1,1627.68,805.17Z"/><g id="Camada_3-2" data-name="Camada 3"><path class="cls-48" d="M1628.66,805.08a8.89,8.89,0,0,1-8-4.81l-144.1-276.35a9,9,0,0,1-.47-7.22,8.85,8.85,0,0,1,4.93-5.14c64.85-26.67,122.13-37.32,143.75-40.66a9.65,9.65,0,0,1,1.31-.11,9,9,0,0,1,8.15,5.12L1759.3,741.46a8.92,8.92,0,0,1-4.28,11.87l-.31.13-122.64,50.88A8.85,8.85,0,0,1,1628.66,805.08Z"/><path class="cls-49" d="M1476.29,523.47l19.47,37.27,146.88-67-8.78-18.57c-1.24-2.52-5.65-4.74-8.43-4.36-48.11,6.42-92.87,20.19-145.71,41.39C1476.52,513.52,1474.59,520.47,1476.29,523.47Z"/><g class="cls-50"><polygon class="cls-51" points="1610.98 487.41 1612.58 483.01 1627.95 490.21 1627.15 492.41 1610.98 487.41"/><polygon class="cls-51" points="1620.45 479.32 1624.79 480.94 1617.69 496.56 1615.52 495.75 1620.45 479.32"/></g><polygon class="cls-52" points="1633.18 769.81 1620.98 743.65 1713.47 703.07 1723.38 730.23 1633.18 769.81"/><polygon class="cls-53" points="1614.32 739.39 1619.21 734.65 1707.9 694.53 1716.88 694.31 1614.32 739.39"/><path class="cls-54" d="M1638,721.64l-5.48,2.91-5.78-11.18-.22-.12,1.78-1,2.12,3.65,1.65,3.19,1.18,2.54h.18l3.45-2.25Z"/><path class="cls-54" d="M1644.51,718.12l-5.9,3.13-3.74-7.25-.72-.93-.66-1.28v-.23l-.87-1.69,1.73-.82,4.09-2.17,3.78,7.31Zm-2.61-.65-2.61-5-1.64-2.81-.21-.13-2.34,1.25,1.53,2.55v.19l.2.17v.2h.15l2.55,4.94Z"/><path class="cls-54" d="M1650.38,715.41l-1.62-1.88-2.53,1.34.72,2.27-1.43.76-3.22-9,.06-.07-.36-1.16-.23-1.17-.39-1,1.47-.78.61-.38.28.28.16.36h.13l.92,1,1.33,1.58,3.22,4.15,2.17,2.95Zm-2.89-3.55-3.59-4.34.57,1.11,1.22,4.18Z"/><path class="cls-54" d="M1656.19,705.16v.1l-.07.12,1.16,2.24.13.33.16.09.15.46.26.62.14.09.27.53-.2,1-.42.74-5.3,2.82-.12-.14-.56-.84-.42-.74v-.24l1.06-.46v-.17l-.25-.4-.11-.28-.12-.13-.26-.5-.08-.38h-.26l-.12-.23.12-.38-.22-.07-1.59-3.09-.37-.36-.23-.75-.37-.88-.1-.42-1.12.6-.08-.26-.3-.58-.2-.29,0-.2-.12-.08-.28-.43,4.11-2.19,1.07-.7,1.68.61,1.31,2.19.53.81v.11l.16.09.09.45.46.89Zm-.2,4.46-.86-1.39-.05-.33-.72-.81-.12-.24v-.16h0l-.34-.4.06-.11-.58-.88-1.57-3-1.49.8.59.68,1.32,2.56v.11l.64,1,1.73,3.34,1.58-.84,0-.17Z"/><path class="cls-54" d="M1666,706.72l-5.89,3.13-3.75-7.25-.72-.93-.66-1.28v-.23l-.87-1.69,1.73-.81,4.1-2.18,3.78,7.31Zm-2.6-.65-2.61-5-1.65-2.81-.2-.13-2.35,1.25,1.53,2.55v.19l.21.17v.2h.14l2.56,4.94Z"/><path class="cls-54" d="M1671,699.17v.09l1.24,2.4-.1.11.45.87.29.42-1.35.72-6.46-5.67,3.66,7.1-1.5.8-.68-.89V705l-1.71-2.65-.08-.35-3.36-6.65-.32-.42,1.18-.63v-.12h.23l.31-.27.94,1.07.33.11,1.13,1h.22v.14l.53.39v.12l2.92,2.54.21.11-.42-.81L1667,696v-.13l-.76-1.49H1666l.07-.17-.8-1.55,1.61-.85,2,3.79.19.06v.28l.22.12,1.41,2.73Z"/><path class="cls-54" d="M1674.05,688l.26.51,1.21,2.9-1.63.87-.81-1.56-2,1v.51l3.67,7.1.34.32.29-.08.86-.46.23.14.23-.38h.14l.25-.13.06-.09-1.5-2.92-1.28.68-1.07-2.08,3-1.59,3.47,6.71-5.56,3-5.9-11.41Z"/><path class="cls-54" d="M1683,697l-.38.84-.59.31h-.48l-.48-.18-.4-.32-.18-.35v-.49l.16-.51.28-.41.36-.19.49.06.46.23.39.39Z"/><path class="cls-54" d="M1686.42,695.19l-.39.84-.58.31H1685l-.48-.18-.41-.33-.17-.34V695l.17-.5.28-.41.35-.19.5.06.46.23.39.39Z"/><path class="cls-54" d="M1689.81,693.38l-.39.85-.58.31h-.48l-.49-.18-.4-.32-.18-.34v-.5l.17-.51.28-.4.35-.19h.5l.45.24.4.39Z"/><polygon class="cls-55" points="1638.86 775.55 1643.97 781.42 1725.82 745.51 1725.2 737.73 1638.86 775.55"/><path class="cls-56" d="M1614.32,739.39l18.53,38.79,98.74-43.25-14.7-40.61Zm109.07-9.16-90.21,39.58L1621,743.65l92.49-40.58Z"/><path class="cls-57" d="M1621,743.65l59.31-26,10.54,26.89-57.66,25.3A203.46,203.46,0,0,1,1621,743.65Z"/><g class="cls-58"><polygon class="cls-59" points="1624.04 538.14 1574.07 561.56 1572.45 558.01 1622.43 534.59 1624.04 538.14"/><polygon class="cls-59" points="1652.43 532.75 1577.03 568.08 1575.42 564.53 1650.82 529.2 1652.43 532.75"/><polygon class="cls-59" points="1621.2 531.88 1571.22 555.29 1569.61 551.74 1619.58 528.32 1621.2 531.88"/><polygon class="cls-59" points="1597.97 534.13 1567.99 548.18 1566.38 544.63 1596.36 530.58 1597.97 534.13"/><polygon class="cls-59" points="1600.57 564.85 1579.95 574.51 1578.34 570.96 1598.95 561.3 1600.57 564.85"/><polygon class="cls-59" points="1653.26 540.16 1613.73 558.69 1612.11 555.14 1651.64 536.61 1653.26 540.16"/><polygon class="cls-59" points="1611.34 559.81 1604.94 562.8 1603.33 559.25 1609.72 556.26 1611.34 559.81"/><polygon class="cls-59" points="1633.54 533.43 1627.14 536.43 1625.52 532.88 1631.92 529.88 1633.54 533.43"/><polygon class="cls-59" points="1632.67 557.13 1582.69 580.55 1581.08 577 1631.05 553.58 1632.67 557.13"/><polygon class="cls-59" points="1661.06 551.74 1585.65 587.07 1584.04 583.52 1659.44 548.19 1661.06 551.74"/><polygon class="cls-59" points="1609.19 583.84 1588.58 593.51 1586.96 589.95 1607.58 580.29 1609.19 583.84"/><polygon class="cls-59" points="1619.96 578.8 1613.56 581.8 1611.95 578.25 1618.35 575.25 1619.96 578.8"/><polygon class="cls-59" points="1631.75 518.3 1601.77 532.35 1600.15 528.8 1630.13 514.75 1631.75 518.3"/></g><g class="cls-58"><polygon class="cls-59" points="1621.66 661.92 1571.69 685.34 1570.07 681.79 1620.05 658.37 1621.66 661.92"/><polygon class="cls-59" points="1650.05 656.53 1574.65 691.87 1573.04 688.31 1648.44 652.98 1650.05 656.53"/><polygon class="cls-59" points="1618.82 655.66 1568.84 679.07 1567.23 675.52 1617.2 652.11 1618.82 655.66"/><polygon class="cls-59" points="1598.18 688.64 1577.57 698.3 1575.96 694.75 1596.57 685.08 1598.18 688.64"/><polygon class="cls-59" points="1650.88 663.95 1611.35 682.47 1609.74 678.92 1649.27 660.4 1650.88 663.95"/><polygon class="cls-59" points="1608.96 683.59 1602.56 686.59 1600.94 683.04 1607.34 680.04 1608.96 683.59"/><polygon class="cls-59" points="1631.15 657.22 1624.76 660.22 1623.14 656.66 1629.54 653.67 1631.15 657.22"/><polygon class="cls-59" points="1630.29 680.92 1580.31 704.33 1578.7 700.78 1628.67 677.36 1630.29 680.92"/><polygon class="cls-59" points="1658.68 675.53 1583.27 710.86 1581.66 707.3 1657.07 671.98 1658.68 675.53"/><polygon class="cls-59" points="1606.81 707.63 1586.19 717.29 1584.58 713.74 1605.2 704.08 1606.81 707.63"/><polygon class="cls-59" points="1617.58 702.58 1611.18 705.58 1609.57 702.03 1615.97 699.03 1617.58 702.58"/></g><g class="cls-58"><polygon class="cls-59" points="1600.95 616.35 1550.98 639.76 1549.36 636.21 1599.34 612.8 1600.95 616.35"/><polygon class="cls-59" points="1629.34 610.96 1553.94 646.29 1552.33 642.74 1627.73 607.41 1629.34 610.96"/><polygon class="cls-59" points="1598.11 610.08 1548.13 633.5 1546.52 629.95 1596.49 606.53 1598.11 610.08"/><polygon class="cls-59" points="1574.88 612.34 1544.9 626.38 1543.29 622.83 1573.26 608.79 1574.88 612.34"/><polygon class="cls-59" points="1577.47 643.06 1556.86 652.72 1555.25 649.17 1575.86 639.51 1577.47 643.06"/><polygon class="cls-59" points="1630.17 618.37 1590.64 636.89 1589.02 633.34 1628.55 614.82 1630.17 618.37"/><polygon class="cls-59" points="1588.25 638.01 1581.85 641.01 1580.23 637.46 1586.63 634.46 1588.25 638.01"/><polygon class="cls-59" points="1610.44 611.64 1604.05 614.64 1602.43 611.09 1608.83 608.09 1610.44 611.64"/><polygon class="cls-59" points="1609.58 635.34 1559.6 658.76 1557.99 655.2 1607.96 631.79 1609.58 635.34"/><polygon class="cls-59" points="1637.97 629.95 1562.56 665.28 1560.95 661.73 1636.35 626.4 1637.97 629.95"/><polygon class="cls-59" points="1608.65 596.51 1578.68 610.56 1577.06 607.01 1607.04 592.96 1608.65 596.51"/></g><polygon class="cls-60" points="1513.57 566.35 1538.09 617.16 1583.75 595.77 1560.41 544.4 1513.57 566.35"/><g id="Camada_2-2" data-name="Camada 2-2"><g id="Camada_1-2" data-name="Camada 1-2"><path class="cls-61" d="M1544.72,585.67l3.27,6.82-9.45-.66-.27-.57h0l-5-10.44.32-.16a11.62,11.62,0,0,0,1.44,2.43,7.21,7.21,0,0,0,4.76,2.75A13.4,13.4,0,0,0,1544.72,585.67Z"/><g id="a6558fe5-ccb8-47c7-a172-7ececf87f5b0"><path class="cls-61" d="M1563.86,573.65a18.15,18.15,0,0,1,2,9,13.9,13.9,0,0,1-3,7.78,17.67,17.67,0,0,1-4.36,4,25.06,25.06,0,0,1-3.27,1.86l-11.18,5.35a.77.77,0,0,1-1-.35h0l-1.2-2.51a36.8,36.8,0,0,0,8.16-1.06,23.27,23.27,0,0,0,10.74-6,8.74,8.74,0,0,0,1.3-10.43,8,8,0,0,0-6.28-4.22v-.14h0a1.27,1.27,0,0,0-.13-.32c-.16-.31-.34-.61-.53-.91s-.35-.54-.54-.79-.36-.48-.56-.71-.39-.43-.59-.63a7.88,7.88,0,0,0-.62-.55,7,7,0,0,0-.65-.46,7.44,7.44,0,0,0-.68-.38,7.28,7.28,0,0,0-1.44-.52,5.85,5.85,0,0,1-.71-.12,9.34,9.34,0,0,0-7.18,2.08l-3.1-6.48,1.73-.82a20.9,20.9,0,0,1,9.39-2.3,14.17,14.17,0,0,1,7.94,2.55A18,18,0,0,1,1563.86,573.65Z"/><path class="cls-62" d="M1537.23,568.1l3.12,6.52-8.17,3.91-2.79-5.83a.75.75,0,0,1,.35-1h0Z"/><path class="cls-61" d="M1540.34,574.62l-7.34,3.52h0a7.5,7.5,0,0,1,.2-2.21,10.66,10.66,0,0,1,2.66-5,14.63,14.63,0,0,1,1.67-1.67l.17-.14Z"/><path class="cls-61" d="M1533.49,580.71l7.34-3.51a2.49,2.49,0,0,0,.11.29,2,2,0,0,0,1,1,4.18,4.18,0,0,0,2.1.21,27.31,27.31,0,0,0,4.13-.76,28.58,28.58,0,0,1,5.66-.93,15.06,15.06,0,0,1,1.9,0,9.6,9.6,0,0,1,2.14.38,6.86,6.86,0,0,1,2.77,1.59,9.24,9.24,0,0,1,1.87,2.65,8.84,8.84,0,0,1,.83,5.49,9.92,9.92,0,0,1-2.74,5.12,20.37,20.37,0,0,1-6.23,4.32,25.79,25.79,0,0,1-4.44,1.67,23.92,23.92,0,0,1-4.53.82,15.74,15.74,0,0,1-3.43,0l-3.69-7.71a22.6,22.6,0,0,0,5.16.78,29.66,29.66,0,0,0,4,0l.53-.06a9.69,9.69,0,0,0,3.32-1.09l.38-.18a8.89,8.89,0,0,0,3.4-2.47,2.51,2.51,0,0,0,.42-.77,2,2,0,0,0,0-1.67,2.07,2.07,0,0,0-1-1,4.53,4.53,0,0,0-2.13-.21,27.41,27.41,0,0,0-3.91.71c-1.31.34-2.51.59-3.6.77a20.47,20.47,0,0,1-2.21.25,11.13,11.13,0,0,1-4.06-.36,6.42,6.42,0,0,1-2.76-1.63,10.08,10.08,0,0,1-1.9-2.75Z"/></g></g></g></g><polygon class="cls-63" points="1632.59 820.19 1632.69 814.16 1755.11 762.29 1751.47 772.74 1632.59 820.19"/><polygon class="cls-64" points="1688.29 795.13 1688.25 791.71 1713.41 781.23 1713.45 785.69 1688.29 795.13"/><polygon class="cls-65" points="1709.33 782.93 1709.34 785.11 1688.27 793.88 1688.25 791.71 1709.33 782.93"/><path class="cls-66" d="M1556.68,702.1l54.25,104.24s6,12.49,21.76,7.82l43.77-18.55-43.92,17.59s-10.18,2.85-20.59-7.31Z"/><path class="cls-34" d="M1539.28,658.94l175.66,115.93-82.76,35.07s-12,4.54-17.62-6.33Z"/><path class="cls-67" d="M1528,670.73a123.92,123.92,0,0,1,9,18.13l8.51,21.68s2,28.88,6.39,33.2,20.74,9.26,20.74,9.26l29,53.46,5.63,3.55L1532,667.57Z"/><path class="cls-67" d="M1465,553.3c1.52,2,10.81,14.09,15.27,21.93,4.68,8.25,32.64,56.75,34.79,60.45v0l-44.63-84A41.11,41.11,0,0,0,1465,553.3Z"/></g><g id="illustration"><path class="cls-68" d="M606.61,2157.14v108.3h661.68s.94-221.07,18-360.71S648.4,2118.74,606.61,2157.14Z"/><path class="cls-69" d="M1484.68,984.05c-18.24,6.72-27.74,89.48-6.67,141.21s77.93,100.92,115.76,118.58-.8-168.71-38.2-213.28S1484.68,984.05,1484.68,984.05Z"/><path class="cls-70" d="M790.66,824.39c-18.95,14.38-54.36,85.21-110.47,103.12s-96.76-11.67-121.2,27,128.36,316.79,151,612.83S601.41,2194,601.41,2194s177.35,15.76,250.68,21.49c163.13,12.73,355.72-77.59,446.44-119.37,4.41-52.72-57.3-892.89-79.58-1080.7s-19.1-192.58-108.23-210.09S960.49,765.8,960.49,765.8Z"/><path class="cls-71" d="M789,2182.58c-13.3-5.27,98-125.83,154.58-236.85S1037.11,1707,1049.05,1701s88.38,242.32,101.48,352.14S961.05,2232,789,2182.58Z"/><path class="cls-72" d="M792.2,975.64c-4,7.75,27.13,208.44,38.62,222.07s97.48-12.28,165.7-76,35-167.34,21.88-171.4-32.48,72.14-80.37,82.46C858.9,1049.77,799.35,961.68,792.2,975.64Z"/><path class="cls-73" d="M776.27,912.11s75.1,694.61,139.92,861.73,78,224.41,64.24,248.29-148.19-102-178.85-530.86S776.27,912.11,776.27,912.11Z"/><path class="cls-74" d="M858.9,2195.56c-72.54,3.61,135.46-273.7,204-584.06s-12.08-613.57-12.08-613.57S1138.15,1310,1085.44,1684,907.9,2193.12,858.9,2195.56Z"/><path class="cls-75" d="M1413.12,1465.84c-21.48,3.59-106.22-87.13-144.46-185,0,0,8.82,77.55,24.7,186,0,.12.06.18,0,.25a.48.48,0,0,1,.06.19c3.84,26.52,8.19,55,12.91,84.54v.19c8.51,53.24,18.27,110.19,29.17,166.89,41.84,217.29-5.92,290.06-23.81,304.42s-99.1,27.47-201.79,95.51c-38.56,25.58-61.93,30.74-75.29,22.62a19.75,19.75,0,0,1-2.71-2c-4.16-3.46-7.18-8.44-9.2-14.74l-.18-.75c-7-22.49-2.15-60.42,5-100.68,15.49-87.13,80-339,72.82-631.46s-87.76-544.32-99.66-570S967,789.21,967,789.21l-6.55-23.37C977,760.8,1086,800.36,1098,798.47s136.08-44.79,225.23-33.08c0,0,35,20,37.36,175.27,0,0,40.63,85.94,66.84,142S1434.6,1462.31,1413.12,1465.84Z"/><path class="cls-76" d="M967,789.2s31.5,48,57.76,144.68,44.84,868.68,44.84,868.68,53-292.73,34.74-537.24S1025.57,820,1008.06,789.2s-47.57-23.4-47.57-23.4Z"/><path class="cls-75" d="M768,2081.36c-5.86,17.76-12.53,31.94-20.16,41.83-57.33,74.46-163.42,75-209.73,71.13a3.71,3.71,0,0,1-.94-.07h-.07c-13.48-1.13-21.6-2.64-21.6-2.64a379.64,379.64,0,0,0,24.38-42.53c.06-.13.12-.31.19-.44,5.67-11.4,11.15-23.5,16.31-36.23,43.66-106,73-254.39,92.49-393.31l.19-1.32c2.77-19.72,5.35-39.19,7.68-58.28,21.3-171.42,27.72-315.51,28.16-326.66-1.82,14.75-30.61,250.87-56,277.46-26.27,27.47-174.33,82.34-186.23,69.24s-57.33-131.3-23.88-282.94,124.11-298.37,124.11-298.37c-25-91.92-19.47-143.71-19.47-143.71,85.18-56.19,175.08-45.74,194.17-57.64S777.25,793.43,786,798.66l4.72,25.7s-10.2,23.19-12.6,43.47-4.79,211.25,14.3,427.72C809.57,1490,820.28,1924.61,768,2081.36Z"/><path class="cls-76" d="M786,798.69S756.66,891.58,758.61,1010,779,1752.35,780.9,1914.69,727.48,2145,727.48,2145s77.28-29.73,95.77-286-43.51-842.41-46.76-925.11,21.25-103.26,21.25-103.26Z"/><path class="cls-75" d="M786,798.69s-20.73,26.87-58.47,88-96.43,140.52-96.43,150.07c0,21.43,37.15,21.43,51.68,28s-24.19,64.86-27.21,105.45,61.68,421,83.16,552.28,35.21,258,37.24,260.23,14.5-436.9,1.16-674.44-29.14-384.38-16.46-444.06S786,798.69,786,798.69Z"/><path class="cls-75" d="M984,767.78s92.51,34.39,168.11,94.87,62.87,82.64,63.67,91.85-53.32,40.25-57.3,43.43,42.89,67.65,57.65,152-124.5,649.37-139.62,692.35-33.71,105-33.71,105,74.3-314.21,75.89-613.47S1002.09,817.76,984,767.78Z"/><path class="cls-77" d="M650.75,1707.79c-5.19,40.75,138.24,4.42,257.84-317.07,42.52-114.3,137.67-52.18,184.62-73.67s57.32-140.86,57.32-140.86-157.74-6.83-228.49,33.36-267.33,251.54-267.33,251.54l-.12,199.17Z"/><path class="cls-69" d="M642,1616.27c1.11,78.53,114.6-13.13,128.33-140.86,9.34-86.91,4.17-131.3,4.17-131.3s-17.3-45.36-60.28-26.26S641.4,1573.89,642,1616.27Z"/><path class="cls-78" d="M1215.66,939.92c.9,19.42-36.5,36.53-62,35.73S1060,965.17,1060,965.17s1.42,6.44,1.37,6.19,39.38-1.42,60.87,6a117.77,117.77,0,0,1,36.21,20.56s45-13.52,62.07-27S1215.66,939.92,1215.66,939.92Z"/><path class="cls-79" d="M1044.13,1061.25a3.68,3.68,0,0,0-.45.56l.19-.06.51-.13c7.18-1.32,68.54-12.85,78.06-11.78,10.14,1.2,17.32,30.43,17.7,34s-6.74,6.37-6.74,6.37a45.18,45.18,0,0,1,12.35.44c5.54,1.19,10.33,33,10,38.55a9.09,9.09,0,0,1-5.17,7.56s7.56,17.52,7.56,33.46-36.85,40.19-50,68.23c0,0-30.43,6.55-35.21-14.3,0,0-53.74,49.52-73.4,58.46-5.92,2.71-14,3.09-22.93,2.52-20.92-1.38-46.94-8.25-63.63-4.91-23.88,4.79-186.23,171.23-247.53,225.35,0,0-13.11-110.57,57.71-192.72,0,0,68-59.47,129-109.62S970.86,1057,975,1052.24s47.19-23.88,71.64-69.81c.06,0,.06,0,.12-.06,2.33-1.2,39.88-20.35,59.6-42.34,20.29-22.68,30.43-35.78,43.53-38.18s25.08,7.75,29.24,26.84c2.07,9.52-2.65,26.4-16.13,43.22s-35.47,33.45-68,42.72C1095,1014.63,1062.71,1035.23,1044.13,1061.25Z"/><path class="cls-80" d="M1163,971.91c-13.36,16.76-35.47,33.45-68,42.72,0,0-32.32,20.6-50.9,46.62l3.33-.63-3.08,1-.51.13-.19.06s-36,5.74-39.62,6.93a6.51,6.51,0,0,1-2,.07h-.13c-6.55-.89-23.37-8-26.9-16.57,4.22-4.79,47.19-23.88,71.64-69.81.06,0,.06,0,.12-.06,25.77-7.43,29.11,17.45,36.48,26.33S1163,971.91,1163,971.91Z"/><path class="cls-81" d="M1158.09,1170.24c0,15.87-36.85,40.19-50,68.23,0,0-30.43,6.55-35.21-14.3,0,0-53.74,49.52-73.4,58.46-5.92,2.71-14,3.09-22.93,2.52,28.29,1.26,87.95-72.32,95.51-97.84s-9.58-35.78-15.5-40.19-11.09-37-22.24-41.77-14.74-26.27-20.35-29.8a112.73,112.73,0,0,0-12.28-6.68l.18-.06h.13l42.09-7.56,3.33-.63-3.08,1c7.18-1.32,68.54-12.85,78.06-11.78,10.14,1.2,17.32,30.43,17.7,34s-6.74,6.37-6.74,6.37a45.18,45.18,0,0,1,12.35.44c5.54,1.19,10.33,33,10,38.55a9.09,9.09,0,0,1-5.17,7.56S1158.09,1154.3,1158.09,1170.24Z"/><path class="cls-76" d="M1112.28,933.39s-8.52,9.63-6.53,19.38,40.67,3.19,57.26-8.35,13.9-25.86,3.91-31.51S1112.28,933.39,1112.28,933.39Z"/><path class="cls-82" d="M1149,903.63c-9.85-1.49-46.56,32.11-42.08,46.64s59.68-3.07,65.65-20.38S1149,903.63,1149,903.63Z"/><path class="cls-83" d="M1140,906.79s16.3,4.2,24.26,12.16,6.17,12.36,7.76,12.35,6.89-11.85-9-21S1140,906.79,1140,906.79Z"/><path class="cls-83" d="M1107.45,942.73s6.85-6.51,12-2.81,3.25,15.57,3.25,15.57S1102.17,957.75,1107.45,942.73Z"/><path class="cls-71" d="M1074.91,1005.43c5.69,16.13-31.51-20.8-23.51-24.09S1070.53,993,1074.91,1005.43Z"/><path class="cls-76" d="M1140.14,1083.86s-61.25-2.37-109.4,15.54l102.66-9.17S1138.52,1086.63,1140.14,1083.86Z"/><path class="cls-76" d="M1150.53,1136.78s-33-5.55-96,7.72Z"/><path class="cls-76" d="M1072.92,1224.17s31-26.59,39.09-30.77,26.86-6,26.86-6-24.17,5.67-26,7.46,22.08,1.79,22.08,1.79-19,4-26.82,5.58-14.36,6.36-15.75,9.74.07,17-7,19.3S1072.92,1224.17,1072.92,1224.17Z"/><path class="cls-84" d="M846.12,1229.56c-5.26,44.58,72.28,38.26,120.89,28.06s85.43-75.83,87.51-93.17-9.85-40.58-23.78-55.5-24-26.43-39-40.1-41.54,28.41-69.71,66.78S848.5,1209.32,846.12,1229.56Z"/><path class="cls-85" d="M995.31,1075.68c-11.64,2-16.41,26.11-16.41,26.11S996.58,1090.05,995.31,1075.68Z"/><path class="cls-86" d="M1026.66,1101.79s-23.87,5.67-24.77,24.47S1026.66,1101.79,1026.66,1101.79Z"/><path class="cls-87" d="M1044.27,1143s-16.87,10.22-23.22,22.63C1036.11,1164.26,1044.27,1143,1044.27,1143Z"/><path class="cls-88" d="M753.41,676.43s34.1,91.12,46.69,217.65c0,0,50.39,65.66,117.24,60.09s66-103.46,66-103.46S955.82,742.9,938.17,693.35Z"/><path class="cls-76" d="M774,745.62S834.5,789,897.81,815.47s56.44-71.32,56.44-71.32l-16.08-50.8s-92.51,9.36-184.79-16.91Z"/><path class="cls-89" d="M766.23,681.1c-30.8-7.52,56.21,135.72,106.65,186.65s24.71,4.55,0-55.14-52-121.6-64.17-123.91S766.23,681.1,766.23,681.1Z"/><path class="cls-90" d="M783,1394.39c-4.1,165-72.58,246.53-72.58,246.53-15.12,7-32.82,13.1-51.79,18.27-86.56,23.81-199.08,29.54-210.8,22.24-14.3-8.89-34.21-70.75-26.27-165.44s64.89-202.93,101.5-207.28,69.23,41,90.72,39,87.5-42.59,91.91-44.16a5.35,5.35,0,0,1,.63-.19c4.67-1.32,14.49.19,14.49.19l2.34,9.32c-44.55,59.47-90.73,312.17-39.76,311.35s84.55-215.08,84.55-215.08Z"/><path class="cls-91" d="M823.25,1355.38l23.08-21.59s-8,33.2-12.75,34.39S823.25,1355.38,823.25,1355.38Z"/><path class="cls-75" d="M1637.53,1249.87q-1.69,3.78-3.78,7.75c-40.38,76.8-182.45,204.82-201.54,208.85-19.66,4.16-57.27-5.36-93.68-77.62s-18.52-262.59,16.13-293,57.26,15.5,79.94-23.31c13.3-22.74,24.89-54.56,34.53-75,6.8-14.55,12.6-23.31,17.26-19,0,0-15.18,42.53-7.24,95.07s101.11,177.47,117.81,156-33.46-177.85-33.46-177.85l.76-22.62C1618.63,1153.29,1637.53,1249.87,1637.53,1249.87Z"/><path class="cls-92" d="M1637.53,1249.87q-1.69,3.78-3.78,7.75c-19.66-5.17-44.23-15.88-74.85-35.28-104.07-65.9-104.32-175.9-89.77-224.85,6.8-14.55,12.6-23.31,17.26-19,0,0-15.18,42.53-7.24,95.07s101.11,177.47,117.81,156-33.46-177.85-33.46-177.85l.76-22.62C1618.63,1153.29,1637.53,1249.87,1637.53,1249.87Z"/><path class="cls-93" d="M1585.36,967.88c-.12.44-.25.94-.37,1.39-9.52,32.25-35.54,228.44-35.54,228.44-113.21-101.12-66.21-208.22-66.21-208.22,5.67-35.34,6.87-63.76,7.5-67.35s9.57-3.46,9.57-3.46-2.33,17.32,2,24.31c22.49,37,76.79,22.68,76,10s-2.84-13-2.84-13l1-10.27S1594.06,936.88,1585.36,967.88Z"/><path class="cls-94" d="M1575.41,939.92l-2.93,19.82s6.4,1.87,8.56-8.81S1575.41,939.92,1575.41,939.92Z"/><path class="cls-76" d="M797.74,872.73S837,954.56,902.62,951s78.66-91.5,75.54-120.36l5.23,22.88S994.93,951,916.15,961.33,801,903.08,800.1,894.08,797.74,872.73,797.74,872.73Z"/><path class="cls-78" d="M758.61,1010s-65.88,50.89-69.17,53-49.24-13.43-55.8-21.78,0,14,11.94,26.26,40.4,3.93,40.36,4.76-2.23,10.94-2.23,10.94,9.33-24.46,45.13-47.93c22.36-14.67,29.77-14.92,29.77-14.92Z"/><path class="cls-76" d="M783,1394.39c-4.1,165-72.58,246.53-72.58,246.53-15.12,7-32.82,13.1-51.79,18.27-4.78-5.55-9.13-13.49-13-24.26-24.63-68.17,46-287.34,60.73-331.57,4.67-1.32,14.49.19,14.49.19l2.34,9.32c-44.55,59.47-90.73,312.17-39.76,311.35s84.55-215.08,84.55-215.08Z"/><path class="cls-95" d="M858.9,1322.26s-16.44,44.48-29.1,61.11c-3,4-5.8,6.36-8.13,6.11-12-1.2-159.33,145.6-159.33,145.6s13.1-158.58,60.8-222.21c0,0,55.18-48.45,68.86-67.47,16.06-22.24,27-14.56,27-14.56s-31.31,65.53,9.26,133.57l18.08-30.62Z"/><path class="cls-96" d="M1268.69,1280.84s-17.91-165.13,0-246.3,76.79-63.93,80.77-72.15-42.18-24.74-74.81,4.61S1242,1173.81,1268.69,1280.84Z"/><path class="cls-76" d="M1360.6,940.64c-34.62-7.17-54.91,52.52-87.14,48.94s28.88-204.69,49.74-224.22c31,33.11,35.88,131.7,36.39,143.6S1360.6,940.64,1360.6,940.64Z"/><path class="cls-76" d="M523.44,954.5c12.32-19.83,105.79,120,119.75,181.9s14.32,102.06,6,103.86S590.07,1115.51,575.74,1094s-32.82,4.17-32.82,4.17S517.09,1000.59,523.44,954.5Z"/><path class="cls-97" d="M666.47,1325.28s-31.64-64.62-122.36-67.66c0,0,72,38,86.93,84.91Z"/><path class="cls-98" d="M634.83,1340.92s-9.63,9.23-21.06,6.79-56.88-41.76-90.72-39-63.38,73.59-63.38,73.59,17.1-63.63,62.76-86.76S634.83,1340.92,634.83,1340.92Z"/><path class="cls-99" d="M467.71,1434.83s34.28-87.64,138.9-88l-12.92-10.31S492.38,1316.25,467.71,1434.83Z"/><path class="cls-100" d="M1427.45,1082.69c-11.75,6-84.75,48.94-89.53,152.79,0,0-.44-79.54,26.86-114.6s42.88-32,42.88-32-38.7-7.53-61.38,17.93-25.4,108.28-25.4,108.28-15.19-71.7,19.43-131.88,82.61-10.15,82.61-10.15Z"/><path class="cls-76" d="M1268.69,1280.84s-36.21-44.17-38.6-103.06,34.16-124.26,34.16-124.26S1244.41,1161.07,1268.69,1280.84Z"/><path class="cls-101" d="M1394.84,1458.33c-56.31-69.48,156.75-166.88,192.31-174.54s-46.79,100.83-100.86,141.75S1416.63,1476.31,1394.84,1458.33Z"/><path class="cls-102" d="M1311.69,2023.33c-18,14.3-99.1,27.47-201.79,95.51-38.56,25.58-61.93,30.74-75.29,22.62a19.75,19.75,0,0,1-2.71-2,25.44,25.44,0,0,1-9.2-14.74l-.18-.75c-17-80.77,118.69-540.49,157.12-704.73s53.24-261.39,64-262.84,18.84,87.57,25,124.43c6,35.66,23.63,177.16,24.7,186,0,.12.06.18,0,.25-2-6-52.92-156.69-93,26.52-40.89,186.86-175.9,548.11-129.47,586.6s157.63-35,210.11-146.41c51.72-109.69,26.14-373.47,25.32-381.79,8.51,53.24,18.27,110.19,29.17,166.89C1377.34,1936.2,1329.58,2009,1311.69,2023.33Z"/><path class="cls-103" d="M537.09,2194.25c-13.48-1.13-21.6-2.64-21.6-2.64a379.64,379.64,0,0,0,24.38-42.53C531.68,2170.19,525.75,2192.74,537.09,2194.25Z"/><path class="cls-104" d="M778.45,1924.23c7,51.79.88,106.72-10.46,157.13-5.86,17.76-12.53,31.94-20.16,41.83-57.33,74.46-163.42,75-209.73,71.13,25.64,1.32,211.31-46.75,209.73-125.44-1.57-79.82-4.16-442.26-113-252.88,5.1-19.6,10.33-61.49,14.05-96.9l.19-1.32c3.34-31.5,5.54-57.52,5.54-57.52l2.14-.76,53.68-18.58c61.93-81,68-186.74,68-186.74s13.17,96-9.13,135-46.94,34.53-41.84,70S757.41,1768.24,778.45,1924.23Z"/><path class="cls-105" d="M447.82,1681.43c-18.3-19.8,156.36-86.54,175.07-98.58s16.44,65.69,31.7,77.41C654.59,1660.26,513.88,1693.26,447.82,1681.43Z"/><path class="cls-106" d="M858.9,1322.26s-16.44,44.48-29.1,61.11c-15.56-9.2-31.38-28.85-35.91-70.25-9.71-88.39,25.07-82.28,25.07-82.28s-31.31,65.53,9.26,133.57l18.08-30.62Z"/><path class="cls-76" d="M723.14,1312.87S668.42,1441.61,701.05,1497l61.72-59s-45.35,136.07-67.94,148-32.49-51-32.49-51S668.2,1393.84,723.14,1312.87Z"/><path class="cls-76" d="M1484.68,984.05s-15.71,68.73,11.6,128.08,56,64.16,56,64.16L1568,1066.12s14.25,45.89,10.67,90.32-21.87,49.58-21.87,49.58S1433.29,1133.1,1484.68,984.05Z"/><path class="cls-107" d="M1056.63,1900.19c-2.81-13,144.66-604.65,144.66-604.65s-31.84,233.59-72.35,405.48S1056.63,1900.19,1056.63,1900.19Z"/><path class="cls-76" d="M747.25,1747.71c-16.2-69.76,10.87,291.38,13.37,319.23s26.67-30.54,15.3-131.55S747.25,1747.71,747.25,1747.71Z"/><path class="cls-108" d="M846.3,1333.79s-39.58,3.43-27.34-103c0,0-29.32,50.46,4.29,124.54Z"/><path class="cls-76" d="M776.27,912.11s74.62,121.12,160,97.9,82.12-146.11,82.12-146.11,4.75,131-84.51,156.48S776.53,918.16,776.53,918.16Z"/><path class="cls-77" d="M1268.69,2171.67c-60.88-51.66-229.85,80.44-341.13,93.77s-206.78-45.16-250.35-58.29-70.6,9.58-70.6,9.58v-21.17s33.07-2.21,91.1,3.29c60.36,5.71,147.45,19,238.74,9.49,179-18.55,362.09-112.2,362.09-112.2l-28,14.92Z"/><path class="cls-77" d="M1095.27,2128a513.19,513.19,0,0,0,99.8-13.55c52.53-12.73,103.46-45.59,103.46-45.59l-1.78-37.85s-55.84,13.41-99.85,33.31S1095.27,2128,1095.27,2128Z"/><path class="cls-77" d="M606.6,2195.56s92.69,1.5,140.44-23.89,51.73-247.43,51.73-247.43-19.11,154.38-50.94,199S606.6,2195.56,606.6,2195.56Z"/><path class="cls-109" d="M1427.45,1082.69s-63.49,107.18-70,220.13-28-35-17.09-105.14S1427.45,1082.69,1427.45,1082.69Z"/><path class="cls-110" d="M1098,798.47c-12.58,18.76,102,75.68,135.13,79.08s84.44-104.33,84.44-104.33S1280.63,748.22,1098,798.47Z"/><path class="cls-110" d="M537.35,949.79c-4.78,7.56,60.08,69.63,72.81,79.58S700.49,921,705.26,912.11,605.79,903.23,537.35,949.79Z"/><path class="cls-110" d="M512,1378.39c-39.13,27.43-90.42,194.11-70.53,233.9s150.81-56.63,189.6-121-9.75-144.78-9.75-144.78S569.77,1337.88,512,1378.39Z"/><path class="cls-71" d="M1444.52,1053.52s-55.34,107.92-72,168.81-19.71,161.77-11.93,177.28,110.44-93.1,123-125.93-48.94-140.26-45.36-168.31S1444.52,1053.52,1444.52,1053.52Z"/><path class="cls-110" d="M1268.69,1356.76c-54.52-56.42-77.45,297-68.37,364.58s84.32,132.87,99.22,128.1,14.9-156-1-302.4S1268.69,1356.76,1268.69,1356.76Z"/><path class="cls-110" d="M1293,2003c-23.08-21.49,20.69-127.12,34.22-178.16s30.44,65.88,13.53,125S1293,2003,1293,2003Z"/><path class="cls-111" d="M887.77,133.63s38.74,9.84,60,42.75S967,328.67,967,328.67Z"/><path class="cls-112" d="M1047.59,579a2.07,2.07,0,0,1-.13.37C1037.38,624.15,1004.75,670,967,686c-48.89,20.73-171.42,5.61-213.63-9.51-15-5.36-29-20.16-42.91-39.69l-.12-.13c-25.14-35.34-49.9-86.12-79.07-124.55-5.54-7.25-10.77-14.24-15.75-21.11-35.78-49.26-57-88.95-65.46-142.38-9.51-60.92,81.4-139.42,93.12-152.84,98.91-112.83,204.12-82.34,254.27-37a205.88,205.88,0,0,1,38.68,47.82l.13.19C954.79,238.14,960.46,265,960.46,265s1.39,14.74,4.6,33.77c.44,2.9,1,5.92,1.57,9,1.89,10.2,6.49,25.64,9.39,35.84,4.85,17.08,20.85,50.59,38.31,91,1.89,4.34,3.78,8.75,5.67,13.1,14.61,34.78,27.65,69.68,30.24,93.05A117.28,117.28,0,0,1,1047.59,579Z"/><path class="cls-113" d="M936.27,206.77s-13.73,33.52-112.83,41.52-155.18-34.59-177.86-8.38S662.28,401.06,691,376c0,0-10.21,22.68-4.1,75.47s-1.95,46.31-16.25,46.75c-5.36.19-28-2.46-55.13-7.25-35.78-49.26-57-88.95-65.46-142.38-9.51-60.92,81.4-139.42,93.12-152.84,98.91-112.83,204.12-82.34,254.27-37a205.88,205.88,0,0,1,38.68,47.82Z"/><path class="cls-114" d="M646.77,510.9s-40-20.31-69.83-9.57-19.7,68.07,10.14,94.33,54.91,28.65,87.74,39.39,28-37.6,28-37.6S695.11,529.41,646.77,510.9Z"/><path class="cls-115" d="M618.12,219.64c-7,20.29-87,31.44-105.48,65.85S497.7,344.81,503,352.06s16.26-42.49,64.53-74.32S618.12,219.64,618.12,219.64Z"/><path class="cls-116" d="M664.47,552.29s-46.35-25.87-73.41-20.69-11.28,46.76,0,61.27,31,17.91,31,17.91-27.26-5.27-34.42-34.22,7.76-34.32,19.1-37,1.08,17.23,6,43.57,23.28,31.34,33.72,32.23-10.74-16.71-10.74-37.9,14,16.72,32.23,10.75S664.47,552.29,664.47,552.29Z"/><path class="cls-117" d="M800.1,336.4c59.15,2.61,87.67-16.49,87.67-16.49s42.15-30.24,56.55-39,19.38,14.22,19.38,14.22,9.19,54.55,34.73,103.32c0,0-39.45,26.32-67.16,20.13s-23.48-26.1-41.38-50.29c-32.63-16.95-37.41,14.48-37.41,14.48s11.14,53.77-6.76,83.78S749.51,521,710.47,495.24s-30.28-92.37-30.28-92.37S729,339.37,800.1,336.4Z"/><path class="cls-118" d="M636.72,539.55c-24.88-7.29-2.19,43.28,18.7,44.47s2.39-20.29.9-26.56,8.15-5.17,8.15-5.17S648.69,543.67,636.72,539.55Z"/><path class="cls-119" d="M738.16,459.58s-16-34,18.2-65.95S836.06,428,836.06,428Z"/><path class="cls-76" d="M739.2,465.1c4.73,17.65,79.69-18.26,95.78-25.41s-7.42-15.22-16.29-26-25.74-22.2-53.79-10S735,449.5,739.2,465.1Z"/><path class="cls-120" d="M827.43,441c-4.66,1.61-14.33,5.7-25.68,10.19-17.15,6.73-38,14.45-50.89,16.17-6,.81-10.3.29-11.63-2.3-1.09-2.13-1.78-6.27-1.61-11.51.35-16.7,9-44.51,39.38-51.18a6.18,6.18,0,0,1,1-.18C817.13,394.46,839.81,436.83,827.43,441Z"/><path class="cls-121" d="M804.86,436.72a35.05,35.05,0,0,1-3.11,14.51c-17.15,6.73-38,14.45-50.89,16.17a35.17,35.17,0,0,1-13.24-13.81c.35-16.7,9-44.51,39.38-51.18a6.18,6.18,0,0,1,1-.18A35.53,35.53,0,0,1,804.86,436.72Z"/><path class="cls-122" d="M791.93,436.75a22.83,22.83,0,1,1-22.83-22.84A22.83,22.83,0,0,1,791.93,436.75Z"/><path class="cls-123" d="M826.88,423.72s-16.46-28.29-56.32-17.92-32,57.7-32,57.7-14.85-34.45,15.26-59.73C785.74,377,821.07,411.58,826.88,423.72Z"/><path class="cls-61" d="M785.18,428s9.09-9.94,20.41-7.09Z"/><path class="cls-124" d="M926.58,398.14s-16.61-47.8,1-69.61,44.43,22,44.43,22Z"/><path class="cls-76" d="M926.55,403.57c-7.36-8.94-10.25-41.86,10.51-60.24s39.14,15.31,44.24,30.12-17,25-30.29,27.73S927.78,405.06,926.55,403.57Z"/><path class="cls-120" d="M975.86,384.66c-3.17,3.34-8.58,6.63-14.68,9.39a91,91,0,0,1-20.15,6.5c-5.24,1-9.73,1.16-12.26.06a3.43,3.43,0,0,1-2.19-2.47c-2.31-12.32-2.25-28.16,1.84-40,2.13-6.33,5.47-11.51,10.13-14.5a17.13,17.13,0,0,1,8.06-2.65C967.34,339.24,986.74,373.27,975.86,384.66Z"/><path class="cls-121" d="M963.6,379.25a45.7,45.7,0,0,1-2.42,14.8,91,91,0,0,1-20.15,6.5,12.67,12.67,0,0,1-6.16,1.56,13.26,13.26,0,0,1-6.1-1.5,3.43,3.43,0,0,1-2.19-2.47c-2.31-12.32-2.25-28.16,1.84-40,2.13-6.33,5.47-11.51,10.13-14.5C952.54,344.94,963.6,360.43,963.6,379.25Z"/><path class="cls-125" d="M952.2,379.25c0,9.73-4.67,18.08-11.17,21.3a12.67,12.67,0,0,1-6.16,1.56,13.26,13.26,0,0,1-6.1-1.5,3.43,3.43,0,0,1-2.19-2.47c-2.31-12.32-2.25-28.16,1.84-40a13.36,13.36,0,0,1,6.45-1.67C944.42,356.45,952.2,366.64,952.2,379.25Z"/><path class="cls-123" d="M925.05,387.4s1.46-36.24,22.56-43.39S979,371.12,979,371.12s-7.72-35.79-23.8-37.06S922.23,350.9,925.05,387.4Z"/><path class="cls-61" d="M953.44,368.3s9.09-9.94,20.41-7.09Z"/><path class="cls-126" d="M868.58,473s-.38,26.53,3.8,33.4,25.43,1.72,25.43,1.72-17.87,7.83-29.41-.83S868.58,473,868.58,473Z"/><path class="cls-127" d="M846.12,561.45s108.62,16.3,149.21-37c0,0-17.16,34.73-65.65,43C889.89,574.17,846.12,561.45,846.12,561.45Z"/><path class="cls-128" d="M861.51,538.83s-20,13.17-14.92,40C846.59,578.83,823.67,556.34,861.51,538.83Z"/><path class="cls-108" d="M661,630.81c13.81,4.24,40.46-11.92,40.46-11.92S697.9,636.18,686,636.61,661,630.81,661,630.81Z"/><path class="cls-76" d="M1047.46,579.35C1037.38,624.15,1004.75,670,967,686c-48.89,20.73-171.42,5.61-213.63-9.51-15-5.36-29-20.16-42.91-39.69,3,2.71,52.36,46.43,140.12,48.57,90.65,2.27,153.91-35.09,167-48.7C1030,623.89,1045.57,584.27,1047.46,579.35Z"/><path class="cls-129" d="M891.69,319.91s-4.61-23.87,0-40.88v28.35s1.6-31.51,23.13-42.85L896.34,299s29.19-39.71,44.19-45.95,22.23,21.64,23.86,25.86-.63,16.21-.63,16.21S950.48,279.33,891.69,319.91Z"/><path class="cls-130" d="M801.57,341.32s-21.92-24.31-46-29.06l34.58,25.16s-32.39-24-49.48-20c0,0-12.2-1.25-27.46,13.74-19.52,19.18-36.55,66.7-36.55,66.7S747.57,349.29,801.57,341.32Z"/><path class="cls-131" d="M683.77,522.84c29.05-37.4,106,62.07,152.29,109s-27.74,51.22-82.65,31.58-45.37-75.54-60.32-102S683.77,522.84,683.77,522.84Z"/><path class="cls-132" d="M981.3,328l34.38-22s-.37-15.83-6.81-13.78-31.22,20.95-31.22,20.95Z"/><path class="cls-133" d="M1011.35,426.45c-2.52,3.2-8.4,12.39-11.68,14.38-25.57,15.62-91.48,26.76-99.91-95.07-1.32-18.44,37.32-40.73,65.53-45.15-.76-3.13-1-6.4-1.64-9.35-35.23,6.09-76.55,35-77.57,47.14-.36,4.42.22,10.88,1.83,18.69l-.76-3.07s-34.49-11.91-57,20.29a44.83,44.83,0,0,0-4.2-5.82c-12-13.32-104.38-13.19-145.85,40.26-17.29,22.28,20.61,100.38,59,117,34.95,15.17,96.53-.83,108.34-45.9,8.54-32.46-.16-68.82-10.13-91.74,2.8-5.76,18.42-33.74,52.86-21.64,6.11,22.66,18.93,52.11,38.51,73.62,24.78,27.21,68.1,23.11,89.67,3.78C1016.2,439.48,1013.5,430.87,1011.35,426.45ZM768,521.81c-45.86,4.16-95.4-67.48-80-102.37,19.49-44.1,112.74-61.45,128-36.55C879.54,486.53,804.07,518.61,768,521.81Z"/><path class="cls-134" d="M1008.86,292.24c-53.71-24.32-112.28,19.4-113.75,36.62s12.62,67.48,42.48,99.55,81.49,23.2,96.88-7.59S1031.28,302.36,1008.86,292.24Zm-.29,136.87C983,444.41,917.05,455.3,908.78,336c-2-28.68,65.49-58.25,100.05-30.79C1036.11,326.88,1041.15,409.59,1008.57,429.11Z"/><path class="cls-135" d="M1008.57,429.11C983,444.41,917.05,455.3,908.78,336c-2-28.68,65.49-58.25,100.05-30.79C1036.11,326.88,1041.15,409.59,1008.57,429.11Z"/><path class="cls-136" d="M835,358.31c-11.94-13.06-104.36-12.93-145.9,39.37C671.75,419.51,709.55,496,747.9,512.27c34.93,14.85,96.56-.83,108.42-44.93S846.92,371.37,835,358.31ZM776.84,508.37C731,512.46,681.52,442.3,697,408.18,716.5,365,809.78,348,825,372.39,888.39,473.86,812.87,505.23,776.84,508.37Z"/><path class="cls-135" d="M776.84,508.37C731,512.46,681.52,442.3,697,408.18,716.5,365,809.78,348,825,372.39,888.39,473.86,812.87,505.23,776.84,508.37Z"/><path class="cls-137" d="M845.78,378.59s15.15-35.39,53.38-22.24l-3-12.24s-34.6-11.68-57.1,20Z"/><path class="cls-138" d="M685.89,425.42s-13.36,5.3-18.68,9.46-53.94,61.73-53.94,61.73l12.58,3.76s43.44-41.2,49.87-46.79,16.53-8.88,16.53-8.88Z"/><path class="cls-139" d="M669,433.62c-5.43,4.52-3.36,11.88.93,15.31s19.53-5,20.75-7.65-3.17-15.86-3.17-15.86S672.86,430.42,669,433.62Z"/><path class="cls-139" d="M919.1,378.59c19.49-35,71.8,28,82,38.37s24.32-10.23,24.32-10.23-10.86,33.33-54,24.93S919.1,378.59,919.1,378.59Z"/><path class="cls-139" d="M711.14,452.77c19.49-35,71.8,28,82,38.37s24.33-10.23,24.33-10.23-10.87,33.33-54,24.93S711.14,452.77,711.14,452.77Z"/><path class="cls-139" d="M771.63,355.93c-2.47,1.47,34.34.37,46.06,9s25.5,34.06,31.38,32.65-5.25-29.77-19.21-39.78S775.8,353.44,771.63,355.93Z"/><path class="cls-139" d="M954.72,290c-3.59,1.95,25.71-1.67,44.56,6.37s27.18,34.72,29,35.17-4.58-31.08-19.82-38.66S966.71,283.52,954.72,290Z"/><path class="cls-140" d="M1024.1,431c-9,2.9,3.13-20.43,7.66-27.64S1040.09,425.86,1024.1,431Z"/><path class="cls-140" d="M843.07,485.58c-7.74,2.5,2.7-17.59,6.6-23.8S856.85,481.13,843.07,485.58Z"/><path class="cls-141" d="M868.4,501c4.36,11,40.94,1,64.46-5.78s35.36-16.34,35.64-25.31-24.22-33.41-43.76-53.26-34.85-27.12-48-20.76S860.84,482,868.4,501Z"/><path class="cls-142" d="M960.49,486.51c20.52-9.82-6.94-38.87-19.67-46s-30.5-39-53.05-25.07-29.84,84.64-16.84,91.46,32.83-3.7,44.18-4.88,22.92,5.27,34.06-10.22Z"/><path class="cls-143" d="M951.34,491.1s20-8,22.35-18.09-9.46-8.52-31.4-13.24-36.58,7.06-48.59,20.57S870,500.56,870.93,506.87s24.68,3,30.15.06,6.82-5.66,14-4.94,19.53-2.8,25-6.92A19.6,19.6,0,0,1,951.34,491.1Z"/><path class="cls-144" d="M954.57,455.69c-19.39-7.17-47.35,6.59-62.43,4.37s-8.83-23.29,0-35.32,29,5.48,39.91,14S954.57,455.69,954.57,455.69Z"/><path class="cls-145" d="M944.32,492.65c6.84-7.61,12.1-10.86,14.93-9.75,4.32,1.68-7.69,9.43-10.08,8.87A7.56,7.56,0,0,0,944.32,492.65Z"/><path class="cls-146" d="M944.32,492.65s15.28-19.74,12.92-30.16-12.34-25.11-12.34-25.11,14.4,13.64,23,26.37-2.15,21.36-11.49,24.67S944.32,492.65,944.32,492.65Z"/><path class="cls-147" d="M868.4,504.34c11.14,11.34,37.6,30.15,65.65,26.57s37-61,37-61-3.52-.76-12.48-2.18-17.7-15.63-42.33-4.25C897.2,472.28,886.7,497.38,868.4,504.34Z"/><path class="cls-145" d="M902,505.14s7.06-7.27,12.14-9.16,5.84,3.39,4.61,4.58-7.5.5-11.18,2.19S902,505.14,902,505.14Z"/><path class="cls-148" d="M792,342.13s-33.69-21.38-55.57-20.1S691,359.32,688.34,371.88s26-5.88,56.75-16S792,342.13,792,342.13Z"/><path class="cls-76" d="M897.2,316.19S920,262.61,939,256.25c17.47-5.88,19.19,20,14.64,29.79S932.08,291.51,897.2,316.19Z"/><path class="cls-149" d="M902,580.44s39.21,3.63,64.33-11.64c0,0-3.53,32.23-22,34S902,580.44,902,580.44Z"/><path class="cls-150" d="M644.42,175.4s99.89-127.8,189.64-130S933.58,152.13,925,157.91s6.35-86-88.92-97.63C762.33,51.31,665.6,144.57,644.42,175.4Z"/><path class="cls-151" d="M980.43,183.2c-32.26,28.67-48.32,16.89-48.32,16.89s-10.77,10-66.91,14.3-104.45,5.86-104.45,5.86c-.57,14.93-7.37,22.05-7.37,22.05-23.44-19.09-110.19-33.77-122.35,2.83s7.37,108.18,7.37,108.18-15.5,35.84-17.89,70.43,63.25,99.1,63.25,99.1L676,539.54c-14.93-23.88-67.09-40.39-67.09-40.39C541.19,444.47,531,380.77,523.8,322.31S612.57,245.89,631,195s69.05-148.06,147-149.63C849.7,43.91,888,125.5,906.66,149.44a32.78,32.78,0,0,0,4.53,4.91C928,168.08,980.43,183.2,980.43,183.2Z"/><path class="cls-152" d="M647.39,184.78s-4.8-40.76,12.51-73.61,51.33-32.6,51.33-36c0,0-56.7-4.93-76.4,45.39s-10.14,81.86-16.71,99.6S647.39,184.78,647.39,184.78Z"/><path class="cls-153" d="M980.43,183.2c-32.26,28.67-48.32,16.89-48.32,16.89s-10.77,10-66.91,14.3-104.45,5.86-104.45,5.86c-62.37-43.47-125.94-26.34-129.53-25.33,42.4-25.26,112.71,14.37,141.37,15.19S883,195.74,883,195.74s-67.47-50.46-120.9-53.3-114.72,42.34-114.72,42.34,70.18-78.94,136.77-51.16,121.6,31.13,122.48,15.82a32.78,32.78,0,0,0,4.53,4.91C928,168.08,980.43,183.2,980.43,183.2Z"/><path class="cls-154" d="M634.17,238.83S566.72,315,559,378.92s36.67,108.75,36.67,108.75-26.48-83.94-9.17-144S634.17,238.83,634.17,238.83Z"/><path class="cls-155" d="M638.41,353.34S605,382.57,593.65,413.91s7,78.31,7,78.31l5.09,3S584.7,417.8,638.41,353.34Z"/><path class="cls-76" d="M654.75,177.27s58-69.84,113.06-83.56,83.31,83.56,83.31,83.56-44.54-35.07-98.18-34.85S654.75,177.27,654.75,177.27Z"/><path class="cls-76" d="M634.17,238.83s7.23-29.93,46-38.88,73.19,42.35,73.19,42.35S705.73,220.42,634.17,238.83Z"/><path class="cls-76" d="M503,352.06s17.16-59.2,46.41-86.26,61.72-29.36,61.72-29.36-42,50-53,66.44-34.29,19.43-34.29,19.43S515,337.94,510.26,345,507,353.56,503,352.06Z"/><path class="cls-156" d="M754.78,48.79c45.76-1,64.28,16.86,73.83,36s-46,7.14-68.18,11.13,25-6.72,45.39-11.13S803.1,45.05,754.78,48.79Z"/><path class="cls-156" d="M730.85,144.39c34.49-1.94,13.15,25.76-6.89,36.66s-41.79,5.38-56.9,5.47,37.8-4.68,58.89-18.6S730.85,144.39,730.85,144.39Z"/><path class="cls-157" d="M715.56,522.19c-70.46-17.62-8.46,50.51,45.88,79.56S765,534.53,715.56,522.19Z"/><path class="cls-156" d="M897.33,1011.35c-37.16-14.43,40.61-42.3,62.74-71.43s26.31-80.46,31.68-79.86,25.07,51.33-3.58,106.24S897.33,1011.35,897.33,1011.35Z"/><path class="cls-84" d="M702.87,1382.3c-10.27,72.7,33.86,35.22,59.9-6.56s29.78-110.9,29.41-118.12-41.78,29-57.48,45.2S706,1360.21,702.87,1382.3Z"/><path class="cls-156" d="M1585.36,967.88c-9.82,5.48-24.82,10-45.73,6.55-42.4-7-48.89-52.29-48.89-52.29.56-3.59,9.57-3.46,9.57-3.46s-2.33,17.32,2,24.31c22.49,37,76.79,22.68,76,10s-2.84-13-2.84-13l1-10.27S1594.06,936.88,1585.36,967.88Z"/><path class="cls-76" d="M1499.73,931.3s10.36,27.31,37.91,29.93,37.77-21.32,37.77-21.32l-2.93,21.52S1511.14,986.42,1499.73,931.3Z"/><path class="cls-71" d="M621.3,1346.49s-52-10-117.16,38.53c-42.31,31.53,71.66-42.42,117.12-128.77,24.57-46.68-22.16-117.61-7.91-130.59,40.58-37,60.46,195.63,60.46,195.63Z"/><path class="cls-110" d="M654.71,1023.74c1.75,19.1,34.24,19.55,66.86-5.12s37.8-167.11,40.19-173.48-44.31,58.27-64.15,87.75S653.5,1010.55,654.71,1023.74Z"/><path class="cls-158" d="M1174.94,1032.73c-2.94,9.37,28.35,159.12,23.45,232.27s-49.06,240.59-49.06,240.59,77.5-270.51,66.79-355.66S1174.94,1032.73,1174.94,1032.73Z"/><path class="cls-158" d="M670.67,1290.76s-3.32-103.79,3.14-150.69S701.35,1058,701.35,1058s-33.43,51.13-41.14,86.52S670.67,1290.76,670.67,1290.76Z"/><path class="cls-158" d="M633.64,1041.21c7.56-9.85,34.62,4.87,58.49,1.69s45-19.16,45-19.16-39.35,36.12-49.34,36.66S640.4,1045.48,633.64,1041.21Z"/><path class="cls-159" d="M1472.17,1112.53s66.29,88.16,100.31,108.94,51.64,3.39,57.1,10.2,4.17,25.95,4.17,25.95S1512.91,1227.12,1472.17,1112.53Z"/><path class="cls-72" d="M874.77,1505.59c-15.16,11.42,35,248.56,71.83,319.28s107.08-201.28,110-277.83-73.2,95.49-115,80S899.69,1486.81,874.77,1505.59Z"/><path class="cls-158" d="M1003.35,775.69s134.52,85.92,176.26,113.89C1179.61,889.58,1118.81,812.88,1003.35,775.69Z"/><path class="cls-77" d="M606.61,2265.44s.37-49.93,4.35-57.1,20.09,59.07,20.09,59.07Z"/><path class="cls-77" d="M1268.29,2265.44s0-83.36-6.37-88.93S1239.8,2267,1239.8,2267Z"/><path class="cls-160" d="M437,1674.76s-27.45-140.69-11.09-251.31,117-325.25,117-325.25-116.49,192.19-131.06,336.63S437,1674.76,437,1674.76Z"/><path class="cls-160" d="M542.92,1098.2c7.16,2.39-4.78-31.65,26.26-43.57s-19.83-69.9-27.22-92.24,75.63-47.74,75.63-47.74-58.88,13.59-91.25,38C526.34,952.64,513.07,970.48,542.92,1098.2Z"/><path class="cls-160" d="M1220.78,769.42s74.67-6.25,97.69,9.67,17.35,127.74,17.36,144.07,16.14,14,23,24c31,45.22,32.21,105.1,42.72,111s25.92,24.5,25.92,24.5L1360.6,940.64s1.59-145.23-37.4-175.28C1323.2,765.36,1292,759.46,1220.78,769.42Z"/><path class="cls-160" d="M556.36,2192.2c-30.28-17.56,46-164.5,70.51-250.45S642,1770.26,642,1770.26s-18.35,133-50.15,237-59.22,159.22-76.35,184.32C515.49,2191.61,545.52,2196.74,556.36,2192.2Z"/><path class="cls-160" d="M1310.6,1361.46s67.26,87.33,110.27,85.3,182.45-143.66,182.45-143.66-119.2,141.89-171.11,163.37c0,0-19.48,6.28-45-13.28S1310.6,1361.46,1310.6,1361.46Z"/><path class="cls-160" d="M1292.16,2024.91c-11.93-12.33,40.59-49.44,49.34-124.72s-11.59-210.92-11.59-210.92,28.54,119.81,20.07,230.21S1292.16,2024.91,1292.16,2024.91Z"/><path class="cls-161" d="M1268.66,1280.87s45.7,126.5,92.69,126.5,128.37-132.63,122.94-155.49-55.48-135.77-61.53-150.09-58.35,42.71-58.35,42.71-7.2-57.12-30.57-13.51-36.5-131.86-59.19-133.06S1242.37,1174.65,1268.66,1280.87Z"/></g></g></g></svg>