<svg xmlns="http://www.w3.org/2000/svg" viewBox="0 0 178.17 101.03"><defs><style>.cls-1{fill:#685ea9;}</style></defs><g id="Camada_2" data-name="Camada 2"><g id="Camada_1-2" data-name="Camada 1"><polygon class="cls-1" points="0 57.44 0 56.3 10.23 43.54 11.87 43.54 21.98 55.79 21.66 57.75 7.89 57.75 9.41 55.54 16.23 55.48 10.99 48.02 3.98 57.44 0 57.44"/><polygon class="cls-1" points="83.75 57.44 83.75 56.3 93.98 43.54 95.62 43.54 105.73 55.79 105.41 57.75 91.64 57.75 93.16 55.54 99.98 55.48 94.74 48.02 87.73 57.44 83.75 57.44"/><polygon class="cls-1" points="25.58 44.05 25.58 57.75 38.21 57.75 38.21 54.66 29.24 54.66 29.24 44.05 25.58 44.05"/><path class="cls-1" d="M42.06,57.75V51.44h14a2.16,2.16,0,0,0,1.2-2,3.08,3.08,0,0,0-1.45-2.27H42.06l3.16-3.09H57.29s3.85,1.58,3.85,5.24S57,54,57,54l-11.24.18v3.54Z"/><polygon class="cls-1" points="64.04 57.75 67.33 57.75 67.33 51.56 77.05 51.56 77.05 57.75 80.21 57.75 80.21 43.54 76.93 43.54 76.93 49.41 67.26 49.41 67.26 43.54 64.04 43.54 64.04 57.75"/><polygon class="cls-1" points="162 57.75 165.28 57.75 165.28 51.56 175.01 51.56 175.01 57.75 178.17 57.75 178.17 43.54 174.88 43.54 174.88 49.41 165.22 49.41 165.22 43.54 162 43.54 162 57.75"/><polygon class="cls-1" points="109.83 57.75 109.83 47.02 103.26 47.02 106.64 43.64 121.2 43.64 117.71 47.13 113.05 47.13 113.05 57.75 109.83 57.75"/><polygon class="cls-1" points="124.04 43.64 124.04 57.75 136.55 57.75 139.26 55.04 127.58 55.04 127.58 51.75 136.55 51.75 138.95 49.35 127.39 49.35 127.39 46.83 136.48 46.83 139.71 43.6 124.04 43.64"/><path class="cls-1" d="M158.65,44h-10.8s-6.69,1.33-6.69,7,7,6.76,7,6.76h8.27l3.13-3.12h-11s-3.62-.57-3.62-3.62,3.9-3.9,3.9-3.9h6.85Z"/><path class="cls-1" d="M42.06,36.09h2.28S52.42,9.94,80.21,6.72s43.14,20.08,45.22,29.37h11a51.21,51.21,0,0,0-32-33.54C77.12-7.3,50,13,42.06,36.09Z"/><path class="cls-1" d="M121.2,36.09h-2s-8.34-19.52-30.13-20.28S57,36.09,57,36.09h-8.9s11.93-23.5,30.5-24.44S111.85,16,121.2,36.09Z"/><path class="cls-1" d="M55.33,65.08H43.39s5.26,26.45,36.82,34.48c32,8.15,54.13-19.7,56.21-33.35l-1.7-.18s-4.29,25.25-35.63,28C65,97.1,55.33,65.08,55.33,65.08Z"/><path class="cls-1" d="M131.87,65.08h-9.72s-8.59,22.73-32.91,20.33S60.38,64.32,60.38,64.32h-2s8,24.9,34.48,25.89S131.87,65.08,131.87,65.08Z"/></g></g></svg>