<svg xmlns="http://www.w3.org/2000/svg" viewBox="0 0 125.24 62.85"><defs><style>.cls-1{fill:#fff;}</style></defs><g id="Camada_2" data-name="Camada 2"><g id="Camada_1-2" data-name="Camada 1"><path class="cls-1" d="M13.44,42.07V44H1.92V42.07H6.41L18.71,9.24h1.87L32.12,42.07H36.8V44H22.26V42.07h4.92L23.63,32H12.47L8.71,42.07Zm4.75-25.35-5,13.33H23L18.29,16.72Z"/><path class="cls-1" d="M104.38,9.24a29.4,29.4,0,0,1,6.21.56,12.28,12.28,0,0,1,4.08,1.57,6.05,6.05,0,0,1,2.22,2.47,7.53,7.53,0,0,1,.67,3.21,9,9,0,0,1-.47,2.9,7.57,7.57,0,0,1-1.43,2.47,8.57,8.57,0,0,1-2.37,1.92,12.22,12.22,0,0,1-3.35,1.21v.1a7.58,7.58,0,0,1,2.63,1.08,5.87,5.87,0,0,1,1.67,1.77,9.08,9.08,0,0,1,1,2.37c.24.89.46,1.86.64,2.93s.35,2.1.5,3a12.45,12.45,0,0,0,.59,2.34,3.6,3.6,0,0,0,1,1.53,2.64,2.64,0,0,0,1.77.54c.14,0,.34,0,.59,0a7,7,0,0,0,.85-.09v1.78c-.27.06-.55.12-.86.16s-.62.09-.94.11l-.93.05h-.79a9.51,9.51,0,0,1-3.17-.43,3.62,3.62,0,0,1-1.76-1.33,6,6,0,0,1-.87-2.27c-.17-.92-.33-2-.48-3.25-.24-1.82-.47-3.35-.7-4.59a9.84,9.84,0,0,0-1-3,3.62,3.62,0,0,0-1.69-1.6,7.2,7.2,0,0,0-2.9-.48h-4.35V41.05h4.86v1.86h-14V41.05h4.64V11.1H91.61V9.24Zm-3.61,15.2h3.08A17.55,17.55,0,0,0,108,24a6.31,6.31,0,0,0,2.71-1.31,4.81,4.81,0,0,0,1.46-2.27,11.39,11.39,0,0,0,.43-3.32,9.73,9.73,0,0,0-.35-2.77A3.55,3.55,0,0,0,111,12.49a6.34,6.34,0,0,0-2.59-1.06,22.74,22.74,0,0,0-4.3-.33h-3.33Z"/><path class="cls-1" d="M2.85,62.18v.47H0v-.47H1.11l3.05-8.13h.46l2.86,8.13H8.64v.47H5v-.47H6.26l-.88-2.5H2.61l-.93,2.5ZM4,55.9,2.79,59.21H5.21L4.05,55.9Z"/><path class="cls-1" d="M9.18,60.1h.41a3.64,3.64,0,0,0,.25,1.12,2.21,2.21,0,0,0,.48.71,1.69,1.69,0,0,0,.65.37,2.83,2.83,0,0,0,.78.11,2.32,2.32,0,0,0,.84-.13,1.47,1.47,0,0,0,.57-.34,1.32,1.32,0,0,0,.33-.53,2,2,0,0,0,.1-.67,1.69,1.69,0,0,0-.15-.76,1.54,1.54,0,0,0-.42-.5,2.75,2.75,0,0,0-.66-.36l-.83-.32c-.31-.11-.6-.22-.87-.34A2.81,2.81,0,0,1,9.93,58a2,2,0,0,1-.51-.66,2.33,2.33,0,0,1-.18-1,2.66,2.66,0,0,1,.18-1,2,2,0,0,1,.52-.77,2.26,2.26,0,0,1,.86-.49A3.59,3.59,0,0,1,12,53.94l.55,0a3.68,3.68,0,0,1,.58.08,5.59,5.59,0,0,1,.56.12l.52.16.07,2.13h-.41a3.25,3.25,0,0,0-.24-1,1.81,1.81,0,0,0-.44-.63,1.49,1.49,0,0,0-.58-.31,2.82,2.82,0,0,0-.65-.08,2.3,2.3,0,0,0-.78.11,1.37,1.37,0,0,0-.54.31,1.29,1.29,0,0,0-.33.49,1.89,1.89,0,0,0-.1.65,1.54,1.54,0,0,0,.15.72,1.37,1.37,0,0,0,.43.5,3,3,0,0,0,.67.37l.85.34c.29.1.57.22.85.34a3,3,0,0,1,.73.47,2,2,0,0,1,.53.68,2.33,2.33,0,0,1,.2,1,2.69,2.69,0,0,1-.2,1.05,2.08,2.08,0,0,1-.58.76,2.64,2.64,0,0,1-.93.48,4.22,4.22,0,0,1-1.23.16l-.62,0q-.32,0-.63-.09a6,6,0,0,1-.61-.13,4.09,4.09,0,0,1-.56-.18Z"/><path class="cls-1" d="M15.66,54.14h6.86l.14,2.52h-.41A5.49,5.49,0,0,0,22,55.6a1.43,1.43,0,0,0-.36-.62,1.25,1.25,0,0,0-.62-.3,4.94,4.94,0,0,0-.94-.07h-.47v7.57h1.29v.47H17.21v-.47H18.5V54.61h-.44a6.8,6.8,0,0,0-.68,0,1.91,1.91,0,0,0-.51.11,1.14,1.14,0,0,0-.38.23,1.36,1.36,0,0,0-.27.37,3.87,3.87,0,0,0-.19.55c-.05.22-.09.47-.13.76h-.41Z"/><path class="cls-1" d="M26.68,54.14a7.67,7.67,0,0,1,1.57.14,3.14,3.14,0,0,1,1,.4,1.57,1.57,0,0,1,.56.62,2,2,0,0,1,.17.81,2.25,2.25,0,0,1-.12.74,1.83,1.83,0,0,1-.36.62,2.25,2.25,0,0,1-.6.49,3.26,3.26,0,0,1-.85.3v0a1.82,1.82,0,0,1,.66.27,1.42,1.42,0,0,1,.43.45,2.35,2.35,0,0,1,.25.6c.06.22.11.47.16.74s.09.53.13.76a2.31,2.31,0,0,0,.15.59.85.85,0,0,0,.25.39.69.69,0,0,0,.45.14h.15l.21,0v.45l-.22,0-.23,0-.24,0H30a2.4,2.4,0,0,1-.8-.11.84.84,0,0,1-.44-.34,1.34,1.34,0,0,1-.22-.57c0-.23-.09-.5-.13-.82s-.11-.85-.17-1.16A2.44,2.44,0,0,0,28,59a.9.9,0,0,0-.43-.41,1.82,1.82,0,0,0-.73-.12h-1.1v3.73H27v.47H23.46v-.47h1.17V54.61H23.46v-.47ZM25.77,58h.78a4.59,4.59,0,0,0,1.06-.1,1.6,1.6,0,0,0,.68-.33,1.19,1.19,0,0,0,.37-.58,2.9,2.9,0,0,0,.11-.84,2.38,2.38,0,0,0-.09-.7,1,1,0,0,0-.32-.47,1.68,1.68,0,0,0-.66-.27,6.32,6.32,0,0,0-1.09-.08h-.84Z"/><path class="cls-1" d="M33.83,54.61v7.57H35v.47H31.52v-.47h1.17V54.61H31.52v-.47H35v.47Z"/><path class="cls-1" d="M35.77,62.65v-.47h1.17V54.61H35.77v-.47H39.3a6,6,0,0,1,2,.29,3.18,3.18,0,0,1,1.28.84,3.13,3.13,0,0,1,.7,1.31,6.46,6.46,0,0,1,.21,1.71,7.88,7.88,0,0,1-.08,1.09,4.76,4.76,0,0,1-.25,1,3.93,3.93,0,0,1-.49.9,3.14,3.14,0,0,1-.78.71,4,4,0,0,1-1.13.47,5.87,5.87,0,0,1-1.53.17Zm2.31-.47h1.06a5.34,5.34,0,0,0,1.5-.17,1.82,1.82,0,0,0,.94-.62,2.66,2.66,0,0,0,.48-1.19,9.89,9.89,0,0,0,.15-1.89c0-.42,0-.81-.05-1.15a4.72,4.72,0,0,0-.16-.93,2.39,2.39,0,0,0-.33-.72,1.59,1.59,0,0,0-.53-.5,2.24,2.24,0,0,0-.79-.3,5,5,0,0,0-1.09-.1H38.08Z"/><path class="cls-1" d="M50,62.18v.47H47.14v-.47h1.11l3-8.13h.46l2.86,8.13h1.16v.47h-3.6v-.47H53.4l-.88-2.5H49.75l-.93,2.5Zm1.18-6.28-1.24,3.31h2.42L51.19,55.9Z"/><path class="cls-1" d="M63.25,62.74h-.47l-5.07-7.86h0v7.29h1.05v.47H56v-.47h1.17V54.61H56v-.47h2.62l4.09,6.34h0V54.61H61.55v-.47h2.87v.47H63.25Z"/><path class="cls-1" d="M65.07,62.65v-.47h1.17V54.61H65.07v-.47h3.54a5.91,5.91,0,0,1,2,.29,3.29,3.29,0,0,1,1.29.84,3.23,3.23,0,0,1,.69,1.31,6.46,6.46,0,0,1,.21,1.71,9.81,9.81,0,0,1-.07,1.09,4.77,4.77,0,0,1-.26,1,3.58,3.58,0,0,1-.49.9,2.82,2.82,0,0,1-.78.71,3.88,3.88,0,0,1-1.13.47,5.87,5.87,0,0,1-1.53.17Zm2.31-.47h1.06a5.34,5.34,0,0,0,1.5-.17,1.78,1.78,0,0,0,.94-.62,2.78,2.78,0,0,0,.49-1.19,10.9,10.9,0,0,0,.14-1.89c0-.42,0-.81-.05-1.15a4.72,4.72,0,0,0-.16-.93,2.38,2.38,0,0,0-.32-.72,1.73,1.73,0,0,0-.54-.5,2.19,2.19,0,0,0-.78-.3,5.06,5.06,0,0,0-1.09-.1H67.38Z"/><path class="cls-1" d="M80.29,54.14a7.74,7.74,0,0,1,1.57.14,3.16,3.16,0,0,1,1,.4,1.5,1.5,0,0,1,.56.62,2,2,0,0,1,.17.81,2.25,2.25,0,0,1-.12.74,1.83,1.83,0,0,1-.36.62,2.25,2.25,0,0,1-.6.49,3.14,3.14,0,0,1-.85.3v0a2,2,0,0,1,.67.27,1.51,1.51,0,0,1,.42.45,2,2,0,0,1,.25.6c.06.22.11.47.16.74s.09.53.13.76a2.31,2.31,0,0,0,.15.59.85.85,0,0,0,.25.39.69.69,0,0,0,.45.14h.15l.21,0v.45l-.21,0-.24,0-.24,0h-.2a2.44,2.44,0,0,1-.8-.11.84.84,0,0,1-.44-.34,1.34,1.34,0,0,1-.22-.57c-.05-.23-.09-.5-.13-.82s-.11-.85-.17-1.16a2.44,2.44,0,0,0-.25-.75.92.92,0,0,0-.42-.41,1.87,1.87,0,0,0-.74-.12h-1.1v3.73H80.6v.47H77.06v-.47h1.17V54.61H77.06v-.47ZM79.37,58h.78a4.59,4.59,0,0,0,1.06-.1,1.6,1.6,0,0,0,.68-.33,1.19,1.19,0,0,0,.37-.58,2.9,2.9,0,0,0,.11-.84,2.38,2.38,0,0,0-.09-.7A.91.91,0,0,0,82,55a1.68,1.68,0,0,0-.66-.27,6.32,6.32,0,0,0-1.09-.08h-.84Z"/><path class="cls-1" d="M85.41,58.48a5.86,5.86,0,0,1,.29-1.89,4.2,4.2,0,0,1,.79-1.43,3.49,3.49,0,0,1,1.22-.9,3.74,3.74,0,0,1,1.55-.32,3.55,3.55,0,0,1,1.51.31,3.15,3.15,0,0,1,1.17.87,4.16,4.16,0,0,1,.75,1.38A5.69,5.69,0,0,1,93,58.31a6.2,6.2,0,0,1-.26,1.82A4.47,4.47,0,0,1,92,61.57a3.39,3.39,0,0,1-1.21.94,3.63,3.63,0,0,1-1.61.34,3.8,3.8,0,0,1-1.53-.3,3.47,3.47,0,0,1-1.17-.88,4,4,0,0,1-.75-1.38A5.69,5.69,0,0,1,85.41,58.48Zm1.27,0a9.88,9.88,0,0,0,.09,1.42,5.94,5.94,0,0,0,.24,1,2.44,2.44,0,0,0,.38.72,1.92,1.92,0,0,0,.49.46,2.22,2.22,0,0,0,.6.24,3.74,3.74,0,0,0,.68.06,3.66,3.66,0,0,0,.68-.06,2.16,2.16,0,0,0,.61-.24,1.88,1.88,0,0,0,.51-.47,2.85,2.85,0,0,0,.39-.74,5.45,5.45,0,0,0,.25-1.07,10.08,10.08,0,0,0,.09-1.44,9.88,9.88,0,0,0-.09-1.42,4.56,4.56,0,0,0-.24-1,2.38,2.38,0,0,0-.38-.73,1.93,1.93,0,0,0-.49-.46,1.74,1.74,0,0,0-.6-.23,3,3,0,0,0-.68-.07,3.08,3.08,0,0,0-.68.07,2.16,2.16,0,0,0-.61.24,1.73,1.73,0,0,0-.51.47,2.69,2.69,0,0,0-.39.74A5.17,5.17,0,0,0,86.77,57,10.32,10.32,0,0,0,86.68,58.44Z"/><path class="cls-1" d="M99,58.19a3.6,3.6,0,0,1,1,.28,2.12,2.12,0,0,1,.68.45,1.54,1.54,0,0,1,.37.61,2.19,2.19,0,0,1,.12.73,2.46,2.46,0,0,1-.16.89,1.86,1.86,0,0,1-.56.76,2.76,2.76,0,0,1-1,.54,5.27,5.27,0,0,1-1.61.2H94.13v-.47H95.3V54.61H94.13v-.47h3.52a6.43,6.43,0,0,1,1.5.15,3,3,0,0,1,1,.42,1.67,1.67,0,0,1,.55.64,1.85,1.85,0,0,1,.16.78,2,2,0,0,1-.1.65,1.82,1.82,0,0,1-.33.59,2.1,2.1,0,0,1-.58.47,3.09,3.09,0,0,1-.86.33ZM96.45,58h.69a6.47,6.47,0,0,0,1.17-.09,1.89,1.89,0,0,0,.76-.3,1.11,1.11,0,0,0,.41-.56,2.68,2.68,0,0,0,.12-.87,2.42,2.42,0,0,0-.08-.69.93.93,0,0,0-.3-.49,1.56,1.56,0,0,0-.62-.3,4.85,4.85,0,0,0-1-.09H96.45Zm0,4.18H97.7a5,5,0,0,0,1-.09,1.59,1.59,0,0,0,.68-.32,1.2,1.2,0,0,0,.36-.58,3,3,0,0,0,.11-.9,2.83,2.83,0,0,0-.1-.82,1.11,1.11,0,0,0-.38-.57,1.9,1.9,0,0,0-.77-.33,6.22,6.22,0,0,0-1.26-.1h-.92Z"/><path class="cls-1" d="M104.56,58h.77a5.79,5.79,0,0,0,.65,0,.73.73,0,0,0,.43-.17.78.78,0,0,0,.24-.42,3.68,3.68,0,0,0,.12-.82h.42V60h-.42a4.81,4.81,0,0,0-.1-.84.94.94,0,0,0-.23-.47.79.79,0,0,0-.42-.2,4.41,4.41,0,0,0-.69,0h-.77v3.7h1.55q.47,0,.81,0a2.43,2.43,0,0,0,.6-.13,1.28,1.28,0,0,0,.44-.26,1.67,1.67,0,0,0,.32-.44,3,3,0,0,0,.23-.66c.06-.26.12-.56.18-.91h.41l-.12,2.9h-6.73v-.47h1.17V54.61h-1.17v-.47h6.58l.12,2.35h-.41a5,5,0,0,0-.22-1A1.25,1.25,0,0,0,108,55a1.2,1.2,0,0,0-.6-.28,4.94,4.94,0,0,0-.94-.07h-1.86Z"/><path class="cls-1" d="M113.5,54.14a7.74,7.74,0,0,1,1.57.14,3.08,3.08,0,0,1,1,.4,1.5,1.5,0,0,1,.56.62,2,2,0,0,1,.17.81,2.25,2.25,0,0,1-.12.74,1.83,1.83,0,0,1-.36.62,2.25,2.25,0,0,1-.6.49,3.14,3.14,0,0,1-.85.3v0a2,2,0,0,1,.67.27A1.51,1.51,0,0,1,116,59a2,2,0,0,1,.25.6,6.34,6.34,0,0,1,.16.74c0,.28.09.53.13.76a3.61,3.61,0,0,0,.15.59.94.94,0,0,0,.25.39.69.69,0,0,0,.45.14h.15l.21,0v.45l-.21,0-.24,0-.23,0h-.21a2.44,2.44,0,0,1-.8-.11.84.84,0,0,1-.44-.34,1.34,1.34,0,0,1-.22-.57c0-.23-.09-.5-.12-.82s-.12-.85-.18-1.16a2.44,2.44,0,0,0-.25-.75.88.88,0,0,0-.42-.41,1.87,1.87,0,0,0-.74-.12h-1.1v3.73h1.23v.47h-3.54v-.47h1.17V54.61h-1.17v-.47ZM112.58,58h.78a4.54,4.54,0,0,0,1.06-.1,1.6,1.6,0,0,0,.68-.33,1.19,1.19,0,0,0,.37-.58,2.59,2.59,0,0,0,.11-.84,2.38,2.38,0,0,0-.09-.7.85.85,0,0,0-.32-.47,1.68,1.68,0,0,0-.66-.27,6.28,6.28,0,0,0-1.08-.08h-.85Z"/><path class="cls-1" d="M118.24,54.14h6.86l.14,2.52h-.41a5.49,5.49,0,0,0-.21-1.06,1.34,1.34,0,0,0-.36-.62,1.25,1.25,0,0,0-.62-.3,4.94,4.94,0,0,0-.94-.07h-.47v7.57h1.29v.47h-3.73v-.47h1.29V54.61h-.44a6.8,6.8,0,0,0-.68,0,1.91,1.91,0,0,0-.51.11,1.14,1.14,0,0,0-.38.23,1.36,1.36,0,0,0-.27.37,3.87,3.87,0,0,0-.19.55c0,.22-.09.47-.13.76h-.41Z"/><path class="cls-1" d="M64.57,32.5c-.46-.65-.92-1.34-1.39-2.06s-.91-1.44-1.34-2.15-.84-1.4-1.21-2.06-.7-1.27-1-1.82a12.6,12.6,0,0,0-1.59,1.18A7.24,7.24,0,0,0,56.79,27,6.63,6.63,0,0,0,56,28.8a8.14,8.14,0,0,0,.23,5.14A6.14,6.14,0,0,0,57.62,36a5.8,5.8,0,0,0,2,1.23,6.69,6.69,0,0,0,2.28.41,6.8,6.8,0,0,0,2.66-.54A11,11,0,0,0,67,35.67c-.33-.38-.71-.83-1.13-1.38S65,33.15,64.57,32.5Z"/><path class="cls-1" d="M64.13,0a24.51,24.51,0,1,0,24.5,24.51A24.51,24.51,0,0,0,64.13,0Zm13,39.07a7.8,7.8,0,0,1-2.94.6,7.26,7.26,0,0,1-3-.65,10.88,10.88,0,0,1-2.94-2.08,13.07,13.07,0,0,1-3.37,2,10.33,10.33,0,0,1-3.9.74,10.63,10.63,0,0,1-3.4-.56,9.33,9.33,0,0,1-2.94-1.61,8.14,8.14,0,0,1-2.07-2.58,7.5,7.5,0,0,1-.79-3.46,7.08,7.08,0,0,1,.66-3.14A8.3,8.3,0,0,1,54.06,26a11.82,11.82,0,0,1,2.32-1.76c.86-.49,1.7-.92,2.52-1.31-.24-.5-.47-1-.68-1.54s-.42-1.05-.59-1.58a12.82,12.82,0,0,1-.41-1.56,7.92,7.92,0,0,1-.15-1.49,6.19,6.19,0,0,1,.51-2.48A6.49,6.49,0,0,1,59,12.15a6.9,6.9,0,0,1,2.18-1.44A7.21,7.21,0,0,1,64,10.17a7.46,7.46,0,0,1,2.22.33,5.26,5.26,0,0,1,1.87,1,4.92,4.92,0,0,1,1.3,1.67,5.37,5.37,0,0,1,.49,2.34,5.29,5.29,0,0,1-.6,2.6A6.68,6.68,0,0,1,67.7,20a12.66,12.66,0,0,1-2.25,1.47q-1.28.64-2.58,1.26c.39.74.88,1.59,1.46,2.54s1.18,1.91,1.8,2.87S67.37,30,68,30.89s1.14,1.58,1.61,2.15A19.46,19.46,0,0,0,71,31,18.36,18.36,0,0,0,72,28.8a14.66,14.66,0,0,0,.71-2.12,10.46,10.46,0,0,0,.33-1.95H68.9V23.14h9.62v1.59H74.88a21.32,21.32,0,0,1-1.45,5,20.41,20.41,0,0,1-2.72,4.63,11,11,0,0,0,2.57,2.19,4.44,4.44,0,0,0,4.08.3,10.11,10.11,0,0,0,1.86-1,4.08,4.08,0,0,1,.46.49,4.75,4.75,0,0,1,.41.6A9.31,9.31,0,0,1,77.08,39.07Z"/><path class="cls-1" d="M62.19,21.43a19.32,19.32,0,0,0,2-1.08,7.82,7.82,0,0,0,1.58-1.28,5.64,5.64,0,0,0,1.06-1.6,5,5,0,0,0,.39-2,4.52,4.52,0,0,0-.28-1.65,3.26,3.26,0,0,0-.74-1.15A2.79,2.79,0,0,0,65.11,12a3.65,3.65,0,0,0-1.27-.22,3.72,3.72,0,0,0-1.38.25,3.25,3.25,0,0,0-1.14.72,3.44,3.44,0,0,0-.76,1.16,3.9,3.9,0,0,0-.28,1.53A8.84,8.84,0,0,0,60.73,18,21,21,0,0,0,62.19,21.43Z"/></g></g></svg>