<svg xmlns="http://www.w3.org/2000/svg" width="300" height="150" viewBox="0 0 2105.27 632.59"><defs><style>.cls-1{fill:#6a5acd;}.cls-2{isolation:isolate;}</style></defs><g id="Camada_2" data-name="Camada 2"><g id="Camada_1-2" data-name="Camada 1"><g id="Camada_2-2" data-name="Camada 2"><g id="Camada_1-2-2" data-name="Camada 1-2"><g id="Camada_2-2-2" data-name="Camada 2-2"><g id="Camada_1-2-2-2" data-name="Camada 1-2-2"><rect class="cls-1" x="508.45" y="613.24" width="16.46" height="14.6" rx="7.26" transform="translate(-254.86 382.33) rotate(-33.06)"/><rect class="cls-1" x="465.03" y="603.66" width="53.89" height="14.6" rx="7.26" transform="translate(-253.64 367.3) rotate(-33.06)"/><rect class="cls-1" x="422.15" y="593.69" width="91.72" height="14.6" rx="7.26" transform="translate(-252.08 352.61) rotate(-33.06)"/><rect class="cls-1" x="379.28" y="583.61" width="129.47" height="14.6" rx="7.26" transform="translate(-250.47 337.88) rotate(-33.06)"/><rect class="cls-1" x="339.17" y="572.81" width="168.39" height="14.66" rx="7.29" transform="translate(-248.62 326.7) rotate(-33.22)"/><rect class="cls-1" x="293.09" y="563.59" width="205.54" height="14.6" rx="7.26" transform="translate(-247.34 308.38) rotate(-33.06)"/><rect class="cls-1" x="266.47" y="548.9" width="229.62" height="14.66" rx="7.29" transform="translate(-242.42 299.79) rotate(-33.22)"/><rect class="cls-1" x="356.4" y="499.36" width="118.98" height="14.6" rx="7.26" transform="matrix(0.84, -0.55, 0.55, 0.84, -209.06, 308.9)"/><rect class="cls-1" x="258.38" y="567.13" width="112.09" height="14.66" rx="7.29" transform="translate(-263.31 266.1) rotate(-33.22)"/><rect class="cls-1" x="248.24" y="552.23" width="93.82" height="14.6" rx="7.26" transform="translate(-257.45 251.6) rotate(-33.06)"/><rect class="cls-1" x="351.03" y="478.16" width="115.84" height="14.6" rx="7.26" transform="translate(-198.62 301.68) rotate(-33.06)"/><rect class="cls-1" x="246.29" y="534.72" width="72.6" height="14.6" rx="7.26" transform="translate(-249.93 241.91) rotate(-33.06)"/><rect class="cls-1" x="335.29" y="460.21" width="123.5" height="14.6" rx="7.26" transform="translate(-190.75 292.28) rotate(-33.06)"/><rect class="cls-1" x="144.57" y="608.47" width="49.45" height="14.6" rx="7.26" transform="translate(-308.5 192.04) rotate(-33.06)"/><rect class="cls-1" x="319.36" y="442.04" width="132.62" height="14.6" rx="7.26" transform="translate(-182.68 283.14) rotate(-33.06)"/><rect class="cls-1" x="250.52" y="515.79" width="43.56" height="14.6" rx="7.26" transform="translate(-241.27 233.23) rotate(-33.06)"/><rect class="cls-1" x="105.26" y="588.63" width="110.19" height="14.6" rx="7.26" transform="translate(-299.13 183.96) rotate(-33.06)"/><rect class="cls-1" x="304.41" y="423.63" width="139.96" height="14.6" rx="7.26" transform="translate(-174.47 274) rotate(-33.06)"/><rect class="cls-1" x="253.74" y="497.5" width="14.6" height="14.6" rx="7.26" transform="translate(-233.12 224.13) rotate(-33.06)"/><rect class="cls-1" x="75.77" y="571.56" width="142.86" height="14.6" rx="7.26" transform="translate(-291.95 174.02) rotate(-33.06)"/><rect class="cls-1" x="286.88" y="406.16" width="150.2" height="14.6" rx="7.26" transform="translate(-166.95 264.4) rotate(-33.06)"/><rect class="cls-1" x="51.51" y="553.18" width="169.24" height="14.6" rx="7.26" transform="translate(-283.71 165.01) rotate(-33.06)"/><rect class="cls-1" x="270.85" y="388.14" width="158.67" height="14.6" rx="7.26" transform="translate(-159.02 255.06) rotate(-33.06)"/><rect class="cls-1" x="35.26" y="549.17" width="135.04" height="14.6" rx="7.26" transform="matrix(0.84, -0.55, 0.55, 0.84, -286.92, 146.16)"/><rect class="cls-1" x="254.96" y="370.11" width="166.98" height="14.6" rx="7.26" transform="translate(-151.09 245.73) rotate(-33.06)"/><rect class="cls-1" x="24.36" y="550.36" width="74.7" height="14.6" rx="7.26" transform="matrix(0.84, -0.55, 0.55, 0.84, -294.22, 123.95)"/><rect class="cls-1" x="9.32" y="523.45" width="108.42" height="14.6" rx="7.26" transform="translate(-279.25 120.58) rotate(-33.06)"/><rect class="cls-1" x="252.89" y="347.99" width="160.37" height="14.6" rx="7.26" transform="matrix(0.84, -0.55, 0.55, 0.84, -139.89, 239.22)"/><rect class="cls-1" x="-6.2" y="479.04" width="196.99" height="14.6" rx="7.26" transform="translate(-250.36 129.08) rotate(-33.06)"/><rect class="cls-1" x="249.88" y="326.15" width="154.72" height="14.6" rx="7.26" transform="translate(-128.92 232.5) rotate(-33.06)"/><rect class="cls-1" x="247.07" y="304.17" width="148.99" height="14.6" rx="7.26" transform="translate(-117.85 225.85) rotate(-33.06)"/><rect class="cls-1" x="-12.41" y="449.39" width="227.27" height="14.66" rx="7.29" transform="translate(-233.67 130.1) rotate(-33.22)"/><rect class="cls-1" x="244.18" y="282.23" width="143.26" height="14.6" rx="7.26" transform="translate(-106.81 219.15) rotate(-33.06)"/><rect class="cls-1" x="-17.69" y="423.4" width="233.29" height="14.6" rx="7.26" transform="translate(-218.93 123.71) rotate(-33.06)"/><rect class="cls-1" x="238.52" y="261.26" width="140.44" height="14.6" rx="7.26" transform="translate(-96.52 211.9) rotate(-33.06)"/><rect class="cls-1" x="-16.88" y="395.74" width="237.73" height="14.6" rx="7.26" transform="translate(-203.35 120.88) rotate(-33.06)"/><rect class="cls-1" x="232.17" y="240.31" width="138.59" height="14.6" rx="7.26" transform="translate(-86.27 204.54) rotate(-33.06)"/><rect class="cls-1" x="-8.11" y="365.41" width="234.66" height="14.6" rx="7.26" transform="translate(-185.64 119.92) rotate(-33.06)"/><rect class="cls-1" x="5.04" y="333.25" width="228.37" height="14.6" rx="7.26" transform="translate(-166.47 120.18) rotate(-33.06)"/><rect class="cls-1" x="223.69" y="219.56" width="140.77" height="14.66" rx="7.29" transform="translate(-76.24 198.19) rotate(-33.22)"/><rect class="cls-1" x="7.6" y="261.37" width="367.39" height="14.66" rx="7.29" transform="translate(-115.94 148.69) rotate(-33.22)"/><rect class="cls-1" x="21.39" y="234.56" width="341.22" height="14.6" rx="7.26" transform="translate(-100.85 143.89) rotate(-33.06)"/><rect class="cls-1" x="35.93" y="207.51" width="316.38" height="14.6" rx="7.26" transform="translate(-85.75 140.68) rotate(-33.06)"/><rect class="cls-1" x="50.28" y="180.61" width="291.85" height="14.6" rx="7.26" transform="matrix(0.84, -0.55, 0.55, 0.84, -70.75, 137.45)"/><rect class="cls-1" x="64.91" y="153.7" width="266.2" height="14.6" rx="7.26" transform="translate(-55.77 134.09) rotate(-33.06)"/><rect class="cls-1" x="80.52" y="127.59" width="236.58" height="14.66" rx="7.29" transform="translate(-41.43 130.95) rotate(-33.22)"/><rect class="cls-1" x="94.87" y="103.92" width="201.59" height="14.6" rx="7.26" transform="translate(-28.99 124.74) rotate(-33.06)"/><rect class="cls-1" x="111.06" y="80.13" width="163.43" height="14.6" rx="7.26" transform="translate(-16.49 119.32) rotate(-33.06)"/><rect class="cls-1" x="126.23" y="58.09" width="122.29" height="14.6" rx="7.26" transform="matrix(0.84, -0.55, 0.55, 0.84, -5.34, 112.8)"/><rect class="cls-1" x="142.72" y="37.28" width="74.05" height="14.6" rx="7.26" transform="matrix(0.84, -0.55, 0.55, 0.84, 4.78, 105.27)"/><rect class="cls-1" x="159.59" y="19.12" width="17.42" height="14.6" rx="7.26" transform="translate(12.84 96.09) rotate(-33.06)"/><path class="cls-1" d="M514.63,579.16h-.48"/><rect class="cls-1" x="527.7" y="598.63" width="16.46" height="14.6" rx="7.26" transform="translate(-243.78 390.46) rotate(-33.06)"/><path class="cls-1" d="M536.66,572.78a7.26,7.26,0,0,1,10.05,2.06h0a7,7,0,0,1,1.13,4,7.19,7.19,0,0,1-3.31,6.14l-21.94,14.35a7.3,7.3,0,0,0,3-5.88,7,7,0,0,0-1.21-4,7.17,7.17,0,0,0-9.89-2.25h0l-.1.06"/><path class="cls-1" d="M528.51,552.7a7.25,7.25,0,0,1,10,2.12v.06a7,7,0,0,1,1.21,4,7.54,7.54,0,0,1-3.31,6.13l-21.86,14.2a7.27,7.27,0,0,0-8.39-11.86"/><path class="cls-1" d="M520.28,532.45a7.31,7.31,0,0,1,8.07,12.18h0L506.24,559a7.25,7.25,0,0,0,1.94-9.84A7.33,7.33,0,0,0,498.1,547"/><path class="cls-1" d="M523.51,518.09a7.35,7.35,0,0,1-3.31,6.13l-21.86,14.2a7.12,7.12,0,0,0,2.82-5.73,6.92,6.92,0,0,0-1.13-4,7.25,7.25,0,0,0-10-2.22H490L512.21,512a7.27,7.27,0,0,1,10.06,2.06h0A7.15,7.15,0,0,1,523.51,518.09Z"/><path class="cls-1" d="M504.07,491.63a7.25,7.25,0,0,1,10,2.12v.06a6.5,6.5,0,0,1,1.21,3.95,7.23,7.23,0,0,1-3.31,6.13l-21.78,14.2a7.19,7.19,0,0,0,2.83-5.73,7.58,7.58,0,0,0-1-4.11,7.37,7.37,0,0,0-10.09-2.1"/><path class="cls-1" d="M495.92,471.39a7.18,7.18,0,0,1,10,1.89l0,0a1,1,0,0,1,.11.17,7,7,0,0,1,1.13,4,7.37,7.37,0,0,1-3.22,6L481.83,497.8a6.83,6.83,0,0,0,3.07-5.88,7.57,7.57,0,0,0-1.21-4,7.35,7.35,0,0,0-10.09-2.09"/><path class="cls-1" d="M499.07,457.11a7.35,7.35,0,0,1-3.31,6.05l-21.86,14.2a7.12,7.12,0,0,0,2.82-5.73,6.57,6.57,0,0,0-.81-3.71,7.09,7.09,0,0,0-9.77-2.25h0a1.64,1.64,0,0,0-.22.14l22.27-14.6a7.34,7.34,0,0,1,10.08,2.1A7.65,7.65,0,0,1,499.07,457.11Z"/><path class="cls-1" d="M479.54,430.65a7.26,7.26,0,0,1,10,2.12h0v.06a7.12,7.12,0,0,1,1.21,3.95,7.29,7.29,0,0,1-3.31,6.13l-22,14.36a7.26,7.26,0,0,0-8.07-12"/><path class="cls-1" d="M470.91,410.72a7.37,7.37,0,0,1,10.09,2.1,8.1,8.1,0,0,1,1.13,3.95,7.22,7.22,0,0,1-3.31,6.13l-22,14.36a7.24,7.24,0,0,0,3-5.88,7.63,7.63,0,0,0-1.13-4,7.34,7.34,0,0,0-10.08-2.1"/><path class="cls-1" d="M463.33,390a7.19,7.19,0,0,1,10,1.89l0,0a1,1,0,0,1,.11.17,6.92,6.92,0,0,1,1.13,4,7.34,7.34,0,0,1-3.3,6.13l-21.87,14.2a7,7,0,0,0,2.91-5.81,7.6,7.6,0,0,0-1.21-3.95,7.27,7.27,0,0,0-10-2.1"/><path class="cls-1" d="M455.1,369.66a7.37,7.37,0,0,1,10.09,2.1,7.44,7.44,0,0,1-2.1,10.09L441,396.2a7.12,7.12,0,0,0,3.06-6,8,8,0,0,0-1.13-3.87,7.35,7.35,0,0,0-10.08-2.18"/><path class="cls-1" d="M458.17,355.47a7.35,7.35,0,0,1-3.31,6L433,375.71a7.27,7.27,0,0,0-8.39-11.85l22.26-14.52A7.35,7.35,0,0,1,457,351.43,7.77,7.77,0,0,1,458.17,355.47Z"/><path class="cls-1" d="M438.81,328.93a7.33,7.33,0,0,1,10.08,2.18,8.1,8.1,0,0,1,1.13,3.95,7.16,7.16,0,0,1-3.31,6.13l-21.78,14.2a7.3,7.3,0,0,0-8.41-11.9h-.06"/><path class="cls-1" d="M430.5,308.68a7.35,7.35,0,0,1,10.08,2.18,8.1,8.1,0,0,1,1.13,3.95,7.25,7.25,0,0,1-3.31,6.13l-21.78,14.2a7.3,7.3,0,0,0-8.41-11.9h-.06"/><path class="cls-1" d="M422.35,288.35a7.26,7.26,0,0,1,10,2.12h0v.06a7,7,0,0,1,1.21,4,7.57,7.57,0,0,1-3.3,6.13l-21.78,14a7.29,7.29,0,0,0-8.52-11.8h0"/><path class="cls-1" d="M414.12,268.11a7.17,7.17,0,0,1,10,1.87l0,0,.12.17a7.07,7.07,0,0,1,1.13,4,7.38,7.38,0,0,1-3.31,6.13l-21.78,14.19a7.17,7.17,0,0,0,2.82-5.8,8,8,0,0,0-1.13-4,7.34,7.34,0,0,0-10.08-2.34"/><path class="cls-1" d="M406,247.7a7.32,7.32,0,0,1,10.08,2.09,7.57,7.57,0,0,1,1.21,4,7.09,7.09,0,0,1-3.31,6l-21.86,14.44a7.41,7.41,0,0,0,2.9-5.81,7,7,0,0,0-1.21-3.95,7.25,7.25,0,0,0-10-2.22h-.06"/><path class="cls-1" d="M397.91,227.29a7.33,7.33,0,0,1,10.1,2.18,8.1,8.1,0,0,1,1.13,3.95,7.23,7.23,0,0,1-3.31,6.13L384,253.75a7.35,7.35,0,0,0,2.83-5.73,7,7,0,0,0-1.21-4,7.27,7.27,0,0,0-10.07-2h0"/><path class="cls-1" d="M400.89,213.09a7.2,7.2,0,0,1-3.3,6.13l-21.78,14.2a7.18,7.18,0,0,0,1.61-9.68,7.27,7.27,0,0,0-10-2.22h-.05L389.68,207a7.18,7.18,0,0,1,11.21,6.05Z"/><path class="cls-1" d="M381.53,186.63a7.26,7.26,0,0,1,10.05,2.12h0v.06a7.2,7.2,0,0,1,1.21,3.95,7.61,7.61,0,0,1-3.31,6.13l-21.86,14.2a7.33,7.33,0,0,0,2.82-5.81,6.92,6.92,0,0,0-1.13-3.95,7.32,7.32,0,0,0-10.08-2.1"/><path class="cls-1" d="M373.22,166.38a7.26,7.26,0,0,1,10,2.12v.06a7.2,7.2,0,0,1,1.21,3.95,7.6,7.6,0,0,1-3.31,6.14l-21.86,14.19a7.14,7.14,0,0,0,2.82-5.81,6.92,6.92,0,0,0-1.13-3.95A7.25,7.25,0,0,0,351,181h0"/><path class="cls-1" d="M365.08,146.06a7.26,7.26,0,0,1,10.06,2.06h0a6.79,6.79,0,0,1,1.21,4,7.08,7.08,0,0,1-3.31,6l-21.78,14.19a7.18,7.18,0,0,0,1.62-9.68,7.26,7.26,0,0,0-10-2.21h-.06"/><path class="cls-1" d="M357,125.65a7.26,7.26,0,0,1,10.05,2.12h0v.06a6.92,6.92,0,0,1,1.13,4,7.34,7.34,0,0,1-3.3,6.13l-22,14.36a7.32,7.32,0,0,0,3.07-6,8,8,0,0,0-1.13-3.87,7.18,7.18,0,0,0-9.89-2.31h0l-.19.13"/><path class="cls-1" d="M360.08,111.45a7.35,7.35,0,0,1-3.31,6.13l-21.86,14.2a7.12,7.12,0,0,0,2.82-5.73,6.5,6.5,0,0,0-1.21-4,7.17,7.17,0,0,0-9.89-2.25h0l-.1.06,22.26-14.52a7.18,7.18,0,0,1,10,1.89l0,0,.12.18A7.2,7.2,0,0,1,360.08,111.45Z"/><path class="cls-1" d="M340.55,85.07a7.35,7.35,0,0,1,10.09,2.1,7.57,7.57,0,0,1,1.21,4,7.35,7.35,0,0,1-3.31,6.13l-22.1,14.36a7.1,7.1,0,0,0,3.06-5.89,8,8,0,0,0-1.13-4,7.25,7.25,0,0,0-10-2.22h-.06"/><path class="cls-1" d="M342.89,71.28a7.26,7.26,0,0,1-3.3,6.13l-21.78,14.2a7.28,7.28,0,0,0-8.29-11.93l-.1.07,22.26-14.52a7.18,7.18,0,0,1,10,1.89l0,0,.11.17A7,7,0,0,1,342.89,71.28Z"/><path class="cls-1" d="M329.91,54.18a7.37,7.37,0,0,1-3.31,6L304.74,74.42a7.09,7.09,0,0,0,2.82-5.72,7,7,0,0,0-1.05-4.12,7.35,7.35,0,0,0-10.08-2.18l22.18-13.95a7.35,7.35,0,0,1,10.09,2.1A7.72,7.72,0,0,1,329.91,54.18Z"/><path class="cls-1" d="M302.16,33a7.33,7.33,0,0,1,11.29,6.13,7.16,7.16,0,0,1-3.31,6.13L288.28,59.5a7.09,7.09,0,0,0,2.83-5.73,7.09,7.09,0,0,0-.73-4,7.25,7.25,0,0,0-9.93-2.54h0l-.54.35"/><path class="cls-1" d="M283.36,19.73a7.18,7.18,0,0,1,10,1.89l0,0,.12.18a7.21,7.21,0,0,1,1.21,4A7.44,7.44,0,0,1,291.38,32l-21.86,14.2a7.18,7.18,0,0,0,2.82-5.73,7.57,7.57,0,0,0-1.21-4A7.33,7.33,0,0,0,261,34.25"/><path class="cls-1" d="M260.61,8.84a7.26,7.26,0,0,1,10,2.12V11a7.21,7.21,0,0,1,1.21,4,7.61,7.61,0,0,1-3.31,6.13L246.34,35.46a7,7,0,0,0,3.22-6,6.5,6.5,0,0,0-1.21-3.95,7.1,7.1,0,0,0-9.78-2.24l-.22.14"/><path class="cls-1" d="M232.86,1.18a7.26,7.26,0,0,1,10,2.12h0v.06a7,7,0,0,1,1.21,4,7.35,7.35,0,0,1-3.31,6.13L219,27.64a7.12,7.12,0,0,0,2.82-5.73A6.88,6.88,0,0,0,220.68,18a7.24,7.24,0,0,0-10.08-1.78"/><rect class="cls-1" x="179.54" y="6.16" width="17.42" height="14.6" rx="7.26" transform="translate(23.13 104.87) rotate(-33.06)"/><g class="cls-2"><path class="cls-1" d="M810.77,338.59A55.38,55.38,0,0,1,823,373.94q0,18-8.84,31.65T788.59,427q-16.71,7.71-39.53,7.71H652.33V210.36h92.55q22.82,0,39.37,7.39t25.07,20.57a53.92,53.92,0,0,1,8.52,29.89q0,19.6-10.45,32.78t-27.8,18.64A50.44,50.44,0,0,1,810.77,338.59ZM697.32,302.91h41.14q16.06,0,24.74-7.23T771.88,275q0-13.49-8.68-20.89t-24.74-7.39H697.32Zm70.86,87.42q9.17-7.71,9.16-21.85,0-14.48-9.64-22.66t-26-8.2H697.32V398h45.31Q759,398,768.18,390.33Z"/><path class="cls-1" d="M891.75,426.16a82.11,82.11,0,0,1-32.3-32.3q-11.73-20.88-11.73-48.2t12-48.21a83.83,83.83,0,0,1,32.94-32.3q20.89-11.4,46.6-11.41t46.6,11.41a83.86,83.86,0,0,1,33,32.3q12,20.9,12.05,48.21t-12.38,48.2a85.64,85.64,0,0,1-33.42,32.3q-21,11.41-47.08,11.41Q912.32,437.57,891.75,426.16ZM961,392.42a43.25,43.25,0,0,0,17.19-17.84q6.42-11.88,6.43-28.92,0-25.4-13.34-39.05A43.86,43.86,0,0,0,938.67,293q-19.27,0-32.3,13.66t-13,39.05q0,25.38,12.69,39t32,13.66A46.86,46.86,0,0,0,961,392.42Z"/><path class="cls-1" d="M1063.2,297.13Q1074,276.24,1092.45,265a77.81,77.81,0,0,1,41.29-11.25q19.93,0,34.87,8a70.65,70.65,0,0,1,24,20.24V256.63h45.31V434.68h-45.31v-26q-8.68,12.53-24,20.73t-35.19,8.19a75.56,75.56,0,0,1-41-11.57q-18.5-11.56-29.25-32.62T1052.44,345Q1052.44,318,1063.2,297.13Zm122.93,20.41a45.35,45.35,0,0,0-17.36-18,46.34,46.34,0,0,0-23.46-6.27A45.2,45.2,0,0,0,1105,317.21q-6.59,11.75-6.59,27.8t6.59,28.13a47.31,47.31,0,0,0,17.36,18.47,44,44,0,0,0,23,6.43,46.43,46.43,0,0,0,23.46-6.26,45.35,45.35,0,0,0,17.36-18q6.42-11.73,6.43-28.12T1186.13,317.54Z"/><path class="cls-1" d="M1349.55,262.1q14-8,32-8v47.25h-11.9q-21.21,0-32,10T1326.89,346v88.7h-45v-178h45v27.64A63.38,63.38,0,0,1,1349.55,262.1Z"/><path class="cls-1" d="M1410.93,297.13q10.77-20.89,29.41-32.14a78.64,78.64,0,0,1,41.45-11.25,75.6,75.6,0,0,1,33.11,7.56q15.74,7.54,25.06,20.08V196.86h45.64V434.68H1540V408.33a61,61,0,0,1-23.46,21.21q-15.11,8-35,8A76.37,76.37,0,0,1,1440.34,426q-18.64-11.56-29.41-32.62T1400.16,345Q1400.16,318,1410.93,297.13Zm122.93,20.41a45.42,45.42,0,0,0-17.36-18,46.34,46.34,0,0,0-23.46-6.27,45.2,45.2,0,0,0-40.33,23.94q-6.6,11.75-6.59,27.8t6.59,28.13a47.36,47.36,0,0,0,17.35,18.47,44.06,44.06,0,0,0,23,6.43,46.43,46.43,0,0,0,23.46-6.26,45.42,45.42,0,0,0,17.36-18q6.42-11.73,6.43-28.12T1533.86,317.54Z"/><path class="cls-1" d="M1632.68,227.87a26.39,26.39,0,0,1,0-37.6q7.88-7.54,19.76-7.55t19.77,7.55a26.39,26.39,0,0,1,0,37.6q-7.87,7.56-19.77,7.55T1632.68,227.87Zm41.94,28.76V434.68h-45v-178Z"/><path class="cls-1" d="M1869.05,274.15q19.6,20.09,19.61,56.08V434.68h-45V336.34q0-21.21-10.61-32.62t-28.92-11.41q-18.65,0-29.41,11.41T1764,336.34v98.34h-45v-178h45v22.18a62.28,62.28,0,0,1,23-18.16,71.11,71.11,0,0,1,30.69-6.59Q1849.44,254.06,1869.05,274.15Z"/><path class="cls-1" d="M2036.17,261.62q15.11,7.88,23.78,20.4V256.63h45.32V436q0,24.75-10,44.2A74,74,0,0,1,2065.42,511q-19.93,11.4-48.21,11.41-37.92,0-62.19-17.68t-27.48-48.21h44.68q3.52,12.21,15.26,19.45t28.44,7.23q19.61,0,31.82-11.73T2060,436V408.33q-8.67,12.53-23.94,20.89t-34.87,8.35A76.43,76.43,0,0,1,1960,426q-18.63-11.56-29.4-32.62T1919.83,345q0-27,10.77-47.88T1959.84,265a77.84,77.84,0,0,1,41.3-11.25Q2021.06,253.74,2036.17,261.62Zm17.36,55.92a45.42,45.42,0,0,0-17.36-18,46.37,46.37,0,0,0-23.46-6.27,45.2,45.2,0,0,0-40.33,23.94q-6.6,11.75-6.59,27.8t6.59,28.13a47.36,47.36,0,0,0,17.35,18.47,44.06,44.06,0,0,0,23,6.43,46.46,46.46,0,0,0,23.46-6.26,45.42,45.42,0,0,0,17.36-18Q2060,362,2060,345.66T2053.53,317.54Z"/></g><g class="cls-2"><path class="cls-1" d="M668.63,471.18v11.06h10.73v3.91H668.63V515q0,3.6,1.56,5.36t5.2,1.76a44.39,44.39,0,0,0,4.64-.4l.24,3.88a22.55,22.55,0,0,1-6.13.67q-5.89,0-8.57-2.86t-2.69-8.4V486.15h-9.53v-3.91h9.53V471.18Z"/></g><g class="cls-2"><path class="cls-1" d="M712.39,486.31a25.11,25.11,0,0,0-3.88-.28,15.83,15.83,0,0,0-9.07,2.5,13.54,13.54,0,0,0-5.3,7.24v29.66h-5.7V482.24h5.61l.09,6.87q4.56-7.67,14.61-7.67a11.06,11.06,0,0,1,3.79.52Z"/></g><g class="cls-2"><path class="cls-1" d="M749.39,525.43a19.08,19.08,0,0,1-1.1-6,19.85,19.85,0,0,1-7.69,5.05,27.45,27.45,0,0,1-9.89,1.78q-7.47,0-12.1-3.48A10.56,10.56,0,0,1,714,514q0-6.3,6.3-10t17.55-3.67h10.4v-4.91a8.69,8.69,0,0,0-3.43-7.28q-3.42-2.65-10-2.66a17.81,17.81,0,0,0-9.92,2.56q-3.93,2.55-3.93,6.14l-5.74,0q0-5.14,5.74-8.92a25.28,25.28,0,0,1,14.13-3.77q8.67,0,13.68,3.61a12.09,12.09,0,0,1,5.15,10.08v20.44c0,4.18.53,7.3,1.58,9.38v.48Zm-18-3.43a22.16,22.16,0,0,0,10.27-2.32,14.71,14.71,0,0,0,6.59-6.19V504H738q-8.58.09-13.41,2.62t-4.84,7a7.24,7.24,0,0,0,3.23,6A13.77,13.77,0,0,0,731.38,522Z"/></g><g class="cls-2"><path class="cls-1" d="M781.87,518.84l15.75-36.6h5.9l-19.36,43.19h-4.64l-19.45-43.19H766Z"/></g><g class="cls-2"><path class="cls-1" d="M829.59,526.23a26,26,0,0,1-12-2.72,20.15,20.15,0,0,1-11.28-18.44v-1.71a21.94,21.94,0,0,1,2.9-11.22,20.72,20.72,0,0,1,8.07-7.85,22.85,22.85,0,0,1,11.21-2.85q9.44,0,15,5.37T849,501.48v2.67h-37v.92a16.36,16.36,0,0,0,5.05,12.24,17.56,17.56,0,0,0,12.72,4.89,21.93,21.93,0,0,0,8.12-1.4,17.65,17.65,0,0,0,6.4-4.47l3.59,2.27Q841.61,526.24,829.59,526.23Zm-1.05-40.72a15.8,15.8,0,0,0-10.9,3.95,17,17,0,0,0-5.39,10.62h31.09v-.52a14.35,14.35,0,0,0-4.26-10.14A14.53,14.53,0,0,0,828.54,485.51Z"/><path class="cls-1" d="M863.78,525.43H858V464.12h5.75Z"/><path class="cls-1" d="M876.16,469.77a2.94,2.94,0,0,1,1.06-2.29,4.18,4.18,0,0,1,2.87-.93,4.3,4.3,0,0,1,2.9.93,2.93,2.93,0,0,1,1.08,2.29A2.86,2.86,0,0,1,883,472a4.4,4.4,0,0,1-2.9.91,4.28,4.28,0,0,1-2.87-.91A2.87,2.87,0,0,1,876.16,469.77Zm6.76,55.66h-5.75V482.24h5.75Z"/><path class="cls-1" d="M901.1,482.24l.19,7.38a19.23,19.23,0,0,1,7.28-6.08,21.92,21.92,0,0,1,9.63-2.1q8.34,0,12.41,3.91t4.12,11.74v28.34H929V497.05q-.06-5.79-2.95-8.62t-9.27-2.84a16.37,16.37,0,0,0-15.47,10.26v29.58h-5.7V482.24Z"/><path class="cls-1" d="M944.38,503.44q0-10.14,5.39-16.07t14.63-5.93q10.59,0,16.1,7l.29-6.23h5.36v42.31q0,8.34-5.6,13.21t-15.19,4.87a27,27,0,0,1-10.32-2,19.83,19.83,0,0,1-7.74-5.37l3.21-2.88A19.52,19.52,0,0,0,965,538.6q7.18,0,11.21-3.53t4.17-9.8v-5.43q-5.52,6.39-16.05,6.39-9,0-14.47-6t-5.46-16.17Zm5.8.83q0,8.26,4,13t11.21,4.77q10.59,0,15-7.91V494.09a14.36,14.36,0,0,0-5.8-6.32,18,18,0,0,0-9.1-2.18q-7.23,0-11.26,4.73T950.18,504.27Z"/></g><g class="cls-2"><path class="cls-1" d="M1028.41,471.18v11.06h10.73v3.91h-10.73V515q0,3.6,1.56,5.36t5.2,1.76a44.39,44.39,0,0,0,4.64-.4l.24,3.88a22.55,22.55,0,0,1-6.13.67q-5.89,0-8.57-2.86t-2.69-8.4V486.15h-9.53v-3.91h9.53V471.18Z"/></g><g class="cls-2"><path class="cls-1" d="M1044,503.2a21.94,21.94,0,0,1,2.9-11.22,19.92,19.92,0,0,1,8.19-7.76,25.46,25.46,0,0,1,12-2.78q10.35,0,16.76,6.05t6.42,16v1a22,22,0,0,1-2.9,11.28,19.55,19.55,0,0,1-8.16,7.72,25.86,25.86,0,0,1-12,2.72q-10.31,0-16.75-6.05t-6.44-16Zm5.75,1.31a17.53,17.53,0,0,0,4.81,12.72q4.82,5,12.63,5a16.73,16.73,0,0,0,12.57-5q4.82-5,4.81-13.12v-.91a18.92,18.92,0,0,0-2.2-9.07,15.65,15.65,0,0,0-6.18-6.36,18,18,0,0,0-9.1-2.26,16.6,16.6,0,0,0-12.5,5q-4.85,5-4.84,13.11Z"/><path class="cls-1" d="M1153,525.43a19,19,0,0,1-1.11-6,19.81,19.81,0,0,1-7.68,5.05,27.54,27.54,0,0,1-9.9,1.78q-7.47,0-12.09-3.48a10.56,10.56,0,0,1-4.62-8.78q0-6.3,6.3-10t17.55-3.67h10.4v-4.91a8.71,8.71,0,0,0-3.43-7.28q-3.42-2.65-10-2.66a17.78,17.78,0,0,0-9.91,2.56q-3.93,2.55-3.93,6.14l-5.75,0q0-5.14,5.75-8.92a25.23,25.23,0,0,1,14.13-3.77q8.67,0,13.68,3.61a12.12,12.12,0,0,1,5.15,10.08v20.44c0,4.18.52,7.3,1.58,9.38v.48ZM1135,522a22.17,22.17,0,0,0,10.28-2.32,14.76,14.76,0,0,0,6.59-6.19V504h-10.26q-8.56.09-13.41,2.62c-3.22,1.69-4.84,4-4.84,7a7.23,7.23,0,0,0,3.24,6A13.73,13.73,0,0,0,1135,522Z"/><path class="cls-1" d="M1175.44,482.24l.19,7.38a19.23,19.23,0,0,1,7.28-6.08,21.92,21.92,0,0,1,9.63-2.1q8.34,0,12.41,3.91t4.12,11.74v28.34h-5.7V497.05c0-3.86-1-6.73-2.95-8.62s-5-2.84-9.27-2.84a16.37,16.37,0,0,0-15.47,10.26v29.58H1170V482.24Z"/><path class="cls-1" d="M1217.86,503.2a21.94,21.94,0,0,1,2.9-11.22,19.92,19.92,0,0,1,8.19-7.76,25.46,25.46,0,0,1,12-2.78q10.35,0,16.77,6.05t6.41,16v1a22.13,22.13,0,0,1-2.89,11.28,19.64,19.64,0,0,1-8.17,7.72,25.86,25.86,0,0,1-12,2.72q-10.3,0-16.74-6.05t-6.45-16Zm5.75,1.31a17.57,17.57,0,0,0,4.81,12.72q4.82,5,12.63,5a16.73,16.73,0,0,0,12.57-5q4.82-5,4.81-13.12v-.91a18.92,18.92,0,0,0-2.2-9.07,15.65,15.65,0,0,0-6.18-6.36,18,18,0,0,0-9.1-2.26,16.6,16.6,0,0,0-12.5,5q-4.85,5-4.84,13.11Z"/><path class="cls-1" d="M1282,471.18v11.06h10.73v3.91H1282V515q0,3.6,1.56,5.36c1,1.17,2.77,1.76,5.19,1.76a44.31,44.31,0,0,0,4.65-.4l.24,3.88a22.55,22.55,0,0,1-6.13.67q-5.89,0-8.58-2.86c-1.78-1.9-2.68-4.7-2.68-8.4V486.15h-9.53v-3.91h9.53V471.18Z"/><path class="cls-1" d="M1307.49,489.54a19,19,0,0,1,7.24-6,21.91,21.91,0,0,1,9.62-2.12q8.34,0,12.41,3.91t4.12,11.74v28.34h-5.7V497.05q0-5.79-3-8.62t-9.26-2.84a16.38,16.38,0,0,0-15.48,10.26v29.58h-5.7V464.12h5.7Z"/><path class="cls-1" d="M1372.86,526.23a26,26,0,0,1-11.95-2.72,20.15,20.15,0,0,1-11.28-18.44v-1.71a21.84,21.84,0,0,1,2.9-11.22,20.72,20.72,0,0,1,8.07-7.85,22.85,22.85,0,0,1,11.21-2.85q9.43,0,15,5.37t5.54,14.67v2.67h-37v.92a16.32,16.32,0,0,0,5.05,12.24,17.56,17.56,0,0,0,12.72,4.89,22,22,0,0,0,8.12-1.4,17.62,17.62,0,0,0,6.39-4.47l3.6,2.27Q1384.88,526.24,1372.86,526.23Zm-1-40.72a15.78,15.78,0,0,0-10.9,3.95,16.92,16.92,0,0,0-5.39,10.62h31.09v-.52a14.31,14.31,0,0,0-4.27-10.14A14.49,14.49,0,0,0,1371.81,485.51Z"/><path class="cls-1" d="M1424.57,486.31a25,25,0,0,0-3.88-.28,15.83,15.83,0,0,0-9.07,2.5,13.54,13.54,0,0,0-5.3,7.24v29.66h-5.7V482.24h5.61l.09,6.87q4.56-7.67,14.61-7.67a11.06,11.06,0,0,1,3.79.52Z"/><path class="cls-1" d="M1449.49,503.44q0-10.06,5.39-16t14.63-6q10.5,0,16,6.91V464.12h5.7v61.31h-5.36l-.24-5.75q-5.5,6.55-16.19,6.55-9,0-14.44-6T1449.49,504Zm5.8.83q0,8.26,4,13t11.21,4.77q10.59,0,15-7.79V494q-4.46-8.42-14.94-8.42-7.23,0-11.26,4.73T1455.29,504.27Z"/><path class="cls-1" d="M1503.12,469.77a2.94,2.94,0,0,1,1.06-2.29,4.18,4.18,0,0,1,2.87-.93,4.3,4.3,0,0,1,2.9.93,2.93,2.93,0,0,1,1.08,2.29A2.86,2.86,0,0,1,1510,472a4.4,4.4,0,0,1-2.9.91,4.28,4.28,0,0,1-2.87-.91A2.87,2.87,0,0,1,1503.12,469.77Zm6.76,55.66h-5.75V482.24h5.75Z"/><path class="cls-1" d="M1527.82,482.24l.19,7a18.07,18.07,0,0,1,7.19-5.86,22.79,22.79,0,0,1,9.58-2q12.26,0,15.56,8.38a18.27,18.27,0,0,1,7.43-6.2,23.87,23.87,0,0,1,10.25-2.18q16.67,0,17,15.17v28.82h-5.74V497c0-3.86-1-6.72-3-8.58s-5.16-2.8-9.6-2.8a17.11,17.11,0,0,0-10.44,3.34,11.18,11.18,0,0,0-4.75,7.92v28.58h-5.74V496.61c0-3.7-1.08-6.46-3.14-8.28s-5.23-2.74-9.51-2.74a16.37,16.37,0,0,0-9.29,2.58,15,15,0,0,0-5.75,7.64v29.62h-5.75V482.24Z"/><path class="cls-1" d="M1626.76,526.23a26,26,0,0,1-12-2.72,20.15,20.15,0,0,1-11.28-18.44v-1.71a21.94,21.94,0,0,1,2.9-11.22,20.72,20.72,0,0,1,8.07-7.85,22.85,22.85,0,0,1,11.21-2.85q9.43,0,15,5.37t5.53,14.67v2.67h-37v.92a16.36,16.36,0,0,0,5,12.24A17.56,17.56,0,0,0,1627,522.2a21.93,21.93,0,0,0,8.12-1.4,17.65,17.65,0,0,0,6.4-4.47l3.59,2.27Q1638.78,526.24,1626.76,526.23Zm-1-40.72a15.8,15.8,0,0,0-10.9,3.95,17,17,0,0,0-5.39,10.62h31.09v-.52a14.35,14.35,0,0,0-4.26-10.14A14.53,14.53,0,0,0,1625.71,485.51Z"/><path class="cls-1" d="M1660,482.24l.19,7.38a19.16,19.16,0,0,1,7.28-6.08,21.86,21.86,0,0,1,9.63-2.1q8.33,0,12.4,3.91t4.12,11.74v28.34h-5.7V497.05q0-5.79-2.94-8.62t-9.27-2.84a16.37,16.37,0,0,0-15.47,10.26v29.58h-5.7V482.24Z"/><path class="cls-1" d="M1736.61,514.45a6.5,6.5,0,0,0-3.43-5.71q-3.42-2.14-10.32-3.37a53.23,53.23,0,0,1-10.7-2.79,14.08,14.08,0,0,1-5.66-3.85,8.48,8.48,0,0,1-1.84-5.51q0-5.12,5.12-8.45t13.13-3.33q8.67,0,13.91,3.57t5.25,9.32h-5.75c0-2.52-1.27-4.63-3.81-6.3a20.08,20.08,0,0,0-18.68-.42c-2.28,1.4-3.42,3.21-3.42,5.45a5.61,5.61,0,0,0,2.85,5q2.85,1.77,10.39,3.25a56.15,56.15,0,0,1,11.31,3.15,14.28,14.28,0,0,1,5.58,4,9.09,9.09,0,0,1,1.82,5.71q0,5.47-5.3,8.74t-13.82,3.28q-9,0-14.68-3.66t-5.63-9.24h5.75a8.08,8.08,0,0,0,4.24,6.53q3.9,2.34,10.32,2.34a18.8,18.8,0,0,0,9.68-2.2Q1736.61,517.81,1736.61,514.45Z"/><path class="cls-1" d="M1752.06,469.77a2.94,2.94,0,0,1,1.06-2.29,4.18,4.18,0,0,1,2.87-.93,4.3,4.3,0,0,1,2.9.93,2.93,2.93,0,0,1,1.08,2.29,2.86,2.86,0,0,1-1.08,2.26,4.4,4.4,0,0,1-2.9.91,4.28,4.28,0,0,1-2.87-.91A2.87,2.87,0,0,1,1752.06,469.77Zm6.76,55.66h-5.75V482.24h5.75Z"/><path class="cls-1" d="M1768.38,503.2a21.93,21.93,0,0,1,2.89-11.22,20,20,0,0,1,8.2-7.76,25.39,25.39,0,0,1,12-2.78q10.35,0,16.77,6.05t6.42,16v1a22.14,22.14,0,0,1-2.9,11.28,19.52,19.52,0,0,1-8.17,7.72,25.86,25.86,0,0,1-12,2.72q-10.3,0-16.74-6.05t-6.44-16Zm5.75,1.31a17.53,17.53,0,0,0,4.81,12.72q4.82,5,12.62,5a16.73,16.73,0,0,0,12.57-5q4.81-5,4.82-13.12v-.91a19,19,0,0,0-2.2-9.07,15.65,15.65,0,0,0-6.18-6.36,18.11,18.11,0,0,0-9.11-2.26,16.61,16.61,0,0,0-12.5,5q-4.83,5-4.83,13.11Z"/><path class="cls-1" d="M1829.1,482.24l.19,7.38a19.08,19.08,0,0,1,7.28-6.08,21.86,21.86,0,0,1,9.63-2.1q8.33,0,12.4,3.91t4.12,11.74v28.34H1857V497.05q0-5.79-2.94-8.62t-9.27-2.84a16.35,16.35,0,0,0-15.47,10.26v29.58h-5.71V482.24Z"/></g></g></g></g></g></g></g></svg>