<svg xmlns="http://www.w3.org/2000/svg" width="300" height="150" viewBox="0 0 547.86 632.59"><defs><style>.cls-1{fill:#6a5acd;}</style></defs><g id="Camada_2" data-name="Camada 2"><g id="Camada_1-2" data-name="Camada 1"><g id="Camada_2-2" data-name="Camada 2"><g id="Camada_1-2-2" data-name="Camada 1-2"><rect class="cls-1" x="508.45" y="613.24" width="16.46" height="14.6" rx="7.26" transform="translate(-254.87 382.32) rotate(-33.06)"/><rect class="cls-1" x="465.02" y="603.66" width="53.89" height="14.6" rx="7.26" transform="translate(-253.64 367.29) rotate(-33.06)"/><rect class="cls-1" x="422.14" y="593.69" width="91.72" height="14.6" rx="7.26" transform="translate(-252.08 352.6) rotate(-33.06)"/><rect class="cls-1" x="379.27" y="583.61" width="129.47" height="14.6" rx="7.26" transform="translate(-250.47 337.88) rotate(-33.06)"/><rect class="cls-1" x="336.09" y="573.62" width="167.71" height="14.6" rx="7.26" transform="translate(-248.91 323.14) rotate(-33.06)"/><rect class="cls-1" x="293.09" y="563.58" width="205.54" height="14.6" rx="7.26" transform="translate(-247.34 308.38) rotate(-33.06)"/><rect class="cls-1" x="266.44" y="548.95" width="229.62" height="14.66" rx="7.29" transform="translate(-242.43 299.73) rotate(-33.22)"/><rect class="cls-1" x="356.39" y="499.36" width="118.98" height="14.6" rx="7.26" transform="translate(-209.06 308.9) rotate(-33.06)"/><rect class="cls-1" x="255.43" y="567.46" width="111.64" height="14.6" rx="7.26" transform="matrix(0.84, -0.55, 0.55, 0.84, -263.15, 262.85)"/><rect class="cls-1" x="248.23" y="552.23" width="93.82" height="14.6" rx="7.26" transform="translate(-257.45 251.59) rotate(-33.06)"/><rect class="cls-1" x="351.02" y="478.16" width="115.84" height="14.6" rx="7.26" transform="translate(-198.62 301.68) rotate(-33.06)"/><rect class="cls-1" x="246.28" y="534.72" width="72.6" height="14.6" rx="7.26" transform="translate(-249.93 241.91) rotate(-33.06)"/><rect class="cls-1" x="335.27" y="460.21" width="123.5" height="14.6" rx="7.26" transform="translate(-190.75 292.27) rotate(-33.06)"/><rect class="cls-1" x="144.56" y="608.47" width="49.45" height="14.6" rx="7.26" transform="translate(-308.51 192.04) rotate(-33.06)"/><rect class="cls-1" x="319.35" y="442.04" width="132.62" height="14.6" rx="7.26" transform="translate(-182.68 283.13) rotate(-33.06)"/><rect class="cls-1" x="250.51" y="515.79" width="43.56" height="14.6" rx="7.26" transform="translate(-241.27 233.23) rotate(-33.06)"/><rect class="cls-1" x="105.25" y="588.63" width="110.19" height="14.6" rx="7.26" transform="translate(-299.13 183.95) rotate(-33.06)"/><rect class="cls-1" x="304.4" y="423.63" width="139.96" height="14.6" rx="7.26" transform="translate(-174.47 274) rotate(-33.06)"/><rect class="cls-1" x="253.73" y="497.51" width="14.6" height="14.6" rx="7.26" transform="translate(-233.12 224.12) rotate(-33.06)"/><rect class="cls-1" x="75.76" y="571.56" width="142.86" height="14.6" rx="7.26" transform="translate(-291.95 174.01) rotate(-33.06)"/><rect class="cls-1" x="286.87" y="406.16" width="150.2" height="14.6" rx="7.26" transform="translate(-166.95 264.4) rotate(-33.06)"/><rect class="cls-1" x="51.5" y="553.18" width="169.24" height="14.6" rx="7.26" transform="translate(-283.71 165) rotate(-33.06)"/><rect class="cls-1" x="270.85" y="388.14" width="158.67" height="14.6" rx="7.26" transform="translate(-159.03 255.05) rotate(-33.06)"/><rect class="cls-1" x="35.26" y="549.17" width="135.04" height="14.6" rx="7.26" transform="translate(-286.93 146.16) rotate(-33.06)"/><rect class="cls-1" x="254.95" y="370.11" width="166.98" height="14.6" rx="7.26" transform="translate(-151.09 245.73) rotate(-33.06)"/><rect class="cls-1" x="24.35" y="550.37" width="74.7" height="14.6" rx="7.26" transform="translate(-294.23 123.94) rotate(-33.06)"/><rect class="cls-1" x="9.31" y="523.45" width="108.42" height="14.6" rx="7.26" transform="translate(-279.25 120.58) rotate(-33.06)"/><rect class="cls-1" x="252.88" y="348" width="160.37" height="14.6" rx="7.26" transform="translate(-139.9 239.21) rotate(-33.06)"/><rect class="cls-1" x="-6.21" y="479.04" width="196.99" height="14.6" rx="7.26" transform="translate(-250.37 129.08) rotate(-33.06)"/><rect class="cls-1" x="249.88" y="326.15" width="154.72" height="14.6" rx="7.26" transform="translate(-128.93 232.5) rotate(-33.06)"/><rect class="cls-1" x="247.06" y="304.17" width="148.99" height="14.6" rx="7.26" transform="translate(-117.85 225.84) rotate(-33.06)"/><rect class="cls-1" x="-12.45" y="449.42" width="227.27" height="14.66" rx="7.29" transform="matrix(0.84, -0.55, 0.55, 0.84, -233.67, 130.05)"/><rect class="cls-1" x="244.17" y="282.23" width="143.26" height="14.6" rx="7.26" transform="matrix(0.84, -0.55, 0.55, 0.84, -106.82, 219.15)"/><rect class="cls-1" x="-17.69" y="423.4" width="233.29" height="14.6" rx="7.26" transform="translate(-218.94 123.71) rotate(-33.06)"/><rect class="cls-1" x="238.51" y="261.26" width="140.44" height="14.6" rx="7.26" transform="translate(-96.52 211.9) rotate(-33.06)"/><rect class="cls-1" x="-16.89" y="395.74" width="237.73" height="14.6" rx="7.26" transform="translate(-203.36 120.88) rotate(-33.06)"/><rect class="cls-1" x="232.16" y="240.31" width="138.59" height="14.6" rx="7.26" transform="translate(-86.27 204.54) rotate(-33.06)"/><rect class="cls-1" x="-8.12" y="365.41" width="234.66" height="14.6" rx="7.26" transform="translate(-185.64 119.92) rotate(-33.06)"/><rect class="cls-1" x="5.03" y="333.25" width="228.37" height="14.6" rx="7.26" transform="translate(-166.47 120.17) rotate(-33.06)"/><rect class="cls-1" x="223.68" y="219.59" width="140.77" height="14.66" rx="7.29" transform="translate(-76.26 198.16) rotate(-33.22)"/><rect class="cls-1" x="6.76" y="261.74" width="365.91" height="14.6" rx="7.26" transform="translate(-116.05 147.05) rotate(-33.06)"/><rect class="cls-1" x="21.38" y="234.56" width="341.22" height="14.6" rx="7.26" transform="translate(-100.86 143.89) rotate(-33.06)"/><rect class="cls-1" x="35.93" y="207.51" width="316.38" height="14.6" rx="7.26" transform="translate(-85.76 140.67) rotate(-33.06)"/><rect class="cls-1" x="50.26" y="180.61" width="291.85" height="14.6" rx="7.26" transform="translate(-70.74 137.45) rotate(-33.06)"/><rect class="cls-1" x="64.91" y="153.69" width="266.2" height="14.6" rx="7.26" transform="translate(-55.77 134.09) rotate(-33.06)"/><rect class="cls-1" x="80" y="128.25" width="235.63" height="14.6" rx="7.26" transform="translate(-41.92 129.86) rotate(-33.06)"/><rect class="cls-1" x="94.86" y="103.92" width="201.59" height="14.6" rx="7.26" transform="matrix(0.84, -0.55, 0.55, 0.84, -29, 124.74)"/><rect class="cls-1" x="111.06" y="80.13" width="163.43" height="14.6" rx="7.26" transform="translate(-16.49 119.32) rotate(-33.06)"/><rect class="cls-1" x="126.22" y="58.09" width="122.29" height="14.6" rx="7.26" transform="translate(-5.34 112.8) rotate(-33.06)"/><rect class="cls-1" x="142.71" y="37.28" width="74.05" height="14.6" rx="7.26" transform="translate(4.78 105.27) rotate(-33.06)"/><rect class="cls-1" x="159.59" y="19.12" width="17.42" height="14.6" rx="7.26" transform="translate(12.83 96.09) rotate(-33.06)"/><path class="cls-1" d="M514.62,579.16h-.48"/><rect class="cls-1" x="527.69" y="598.64" width="16.46" height="14.6" rx="7.26" transform="translate(-243.78 390.45) rotate(-33.06)"/><path class="cls-1" d="M536.65,572.78a7.26,7.26,0,0,1,10.05,2.06l0,0a7,7,0,0,1,1.13,4,7.19,7.19,0,0,1-3.31,6.14l-21.94,14.35a7.31,7.31,0,0,0,3-5.88,7.08,7.08,0,0,0-1.21-4,7.17,7.17,0,0,0-9.9-2.24l-.1.06"/><path class="cls-1" d="M528.5,552.7a7.25,7.25,0,0,1,10,2.12l0,.06a7,7,0,0,1,1.21,4,7.56,7.56,0,0,1-3.31,6.13l-21.86,14.2a7.27,7.27,0,0,0-8.39-11.86"/><path class="cls-1" d="M520.27,532.45a7.31,7.31,0,0,1,8.07,12.18h0L506.23,559a7.25,7.25,0,0,0,1.94-9.84A7.34,7.34,0,0,0,498.09,547"/><path class="cls-1" d="M523.5,518.09a7.34,7.34,0,0,1-3.31,6.13l-21.86,14.2a7.1,7.1,0,0,0,2.82-5.73,6.94,6.94,0,0,0-1.13-4,7.26,7.26,0,0,0-10-2.22l-.06,0L512.2,512a7.27,7.27,0,0,1,10.06,2.06l0,0A7.12,7.12,0,0,1,523.5,518.09Z"/><path class="cls-1" d="M504.06,491.63a7.25,7.25,0,0,1,10,2.12l0,.06a6.5,6.5,0,0,1,1.21,3.95,7.24,7.24,0,0,1-3.31,6.13l-21.78,14.2a7.19,7.19,0,0,0,2.83-5.73,7.6,7.6,0,0,0-1-4.11,7.36,7.36,0,0,0-10.09-2.1"/><path class="cls-1" d="M495.91,471.39a7.18,7.18,0,0,1,10,1.92,1.63,1.63,0,0,1,.11.17,7,7,0,0,1,1.13,4,7.37,7.37,0,0,1-3.22,6.05l-22.11,14.27a6.83,6.83,0,0,0,3.07-5.88,7.61,7.61,0,0,0-1.21-4,7.35,7.35,0,0,0-10.09-2.09"/><path class="cls-1" d="M499.06,457.11a7.35,7.35,0,0,1-3.31,6.05l-21.86,14.2a7.12,7.12,0,0,0,2.82-5.73,6.57,6.57,0,0,0-.81-3.71,7.09,7.09,0,0,0-9.78-2.24,1.64,1.64,0,0,0-.22.14l22.27-14.6a7.34,7.34,0,0,1,10.08,2.1A7.65,7.65,0,0,1,499.06,457.11Z"/><path class="cls-1" d="M479.53,430.65a7.26,7.26,0,0,1,10.05,2.12l0,.06a7.12,7.12,0,0,1,1.21,3.95,7.29,7.29,0,0,1-3.31,6.13l-22,14.36a7.26,7.26,0,0,0-8.07-12"/><path class="cls-1" d="M470.9,410.72a7.36,7.36,0,0,1,10.09,2.1,8.1,8.1,0,0,1,1.13,3.95,7.21,7.21,0,0,1-3.31,6.13l-22,14.36a7.24,7.24,0,0,0,3-5.88,7.56,7.56,0,0,0-1.13-4,7.34,7.34,0,0,0-10.08-2.1"/><path class="cls-1" d="M463.32,390a7.18,7.18,0,0,1,10,1.93,1,1,0,0,1,.11.17,6.94,6.94,0,0,1,1.13,4,7.33,7.33,0,0,1-3.3,6.13l-21.87,14.2a7,7,0,0,0,2.91-5.81,7.6,7.6,0,0,0-1.21-3.95,7.27,7.27,0,0,0-10-2.1"/><path class="cls-1" d="M455.09,369.66a7.36,7.36,0,0,1,10.09,2.1,7.44,7.44,0,0,1-2.1,10.09L441,396.2a7.12,7.12,0,0,0,3.06-6,8,8,0,0,0-1.13-3.87,7.35,7.35,0,0,0-10.08-2.18"/><path class="cls-1" d="M458.16,355.47a7.35,7.35,0,0,1-3.31,6L433,375.71a7.32,7.32,0,0,0,1.69-9.68,7.33,7.33,0,0,0-10.08-2.17l22.26-14.52A7.35,7.35,0,0,1,457,351.43,7.73,7.73,0,0,1,458.16,355.47Z"/><path class="cls-1" d="M438.8,328.93a7.33,7.33,0,0,1,10.08,2.18,8.07,8.07,0,0,1,1.13,3.95,7.17,7.17,0,0,1-3.31,6.13l-21.78,14.2a7.35,7.35,0,0,0,2.83-5.73,7.37,7.37,0,0,0-11.24-6.17l-.06,0"/><path class="cls-1" d="M430.49,308.68a7.34,7.34,0,0,1,10.08,2.18,8.1,8.1,0,0,1,1.13,3.95,7.25,7.25,0,0,1-3.31,6.13l-21.78,14.2a7.35,7.35,0,0,0,2.83-5.73,7.37,7.37,0,0,0-11.24-6.17l-.06,0"/><path class="cls-1" d="M422.34,288.35a7.26,7.26,0,0,1,10.05,2.12l0,.06a7,7,0,0,1,1.21,4,7.56,7.56,0,0,1-3.3,6.13l-21.78,14a7.29,7.29,0,0,0-8.52-11.8l0,0"/><path class="cls-1" d="M414.11,268.11a7.17,7.17,0,0,1,10,1.92l.12.17a7.1,7.1,0,0,1,1.13,4,7.39,7.39,0,0,1-3.31,6.13l-21.78,14.19a7.17,7.17,0,0,0,2.82-5.8,8.11,8.11,0,0,0-1.13-4,7.34,7.34,0,0,0-10.08-2.34"/><path class="cls-1" d="M406,247.7a7.33,7.33,0,0,1,10.08,2.09,7.64,7.64,0,0,1,1.21,4,7.08,7.08,0,0,1-3.31,6l-21.86,14.44a7.41,7.41,0,0,0,2.9-5.81,7,7,0,0,0-1.21-3.95,7.25,7.25,0,0,0-10-2.22l-.06,0"/><path class="cls-1" d="M397.9,227.29A7.33,7.33,0,0,1,408,229.47a8.07,8.07,0,0,1,1.13,3.95,7.24,7.24,0,0,1-3.31,6.13L384,253.75a7.35,7.35,0,0,0,2.83-5.73,7.1,7.1,0,0,0-1.21-4,7.27,7.27,0,0,0-10.07-2h0"/><path class="cls-1" d="M400.88,213.09a7.19,7.19,0,0,1-3.3,6.13l-21.78,14.2a7.18,7.18,0,0,0,1.61-9.68,7.27,7.27,0,0,0-10-2.22l-.05,0L389.67,207a7.18,7.18,0,0,1,11.21,6.05Z"/><path class="cls-1" d="M381.52,186.63a7.26,7.26,0,0,1,10.05,2.12l0,.06a7.2,7.2,0,0,1,1.21,3.95,7.6,7.6,0,0,1-3.31,6.13l-21.86,14.2a7.33,7.33,0,0,0,2.82-5.81,6.92,6.92,0,0,0-1.13-3.95,7.33,7.33,0,0,0-10.08-2.1"/><path class="cls-1" d="M373.21,166.38a7.27,7.27,0,0,1,10.05,2.12l0,.06a7.15,7.15,0,0,1,1.21,3.95,7.6,7.6,0,0,1-3.31,6.14l-21.86,14.19a7.14,7.14,0,0,0,2.82-5.81,6.94,6.94,0,0,0-1.13-3.95A7.25,7.25,0,0,0,351,181l0,0"/><path class="cls-1" d="M365.07,146.06a7.26,7.26,0,0,1,10.06,2.06l0,0a6.79,6.79,0,0,1,1.21,4,7.08,7.08,0,0,1-3.31,6.05l-21.78,14.19a7.18,7.18,0,0,0,1.62-9.68,7.26,7.26,0,0,0-10-2.21l-.06,0"/><path class="cls-1" d="M357,125.65a7.26,7.26,0,0,1,10.05,2.12l0,.06a6.92,6.92,0,0,1,1.13,4,7.34,7.34,0,0,1-3.3,6.13l-22,14.36a7.33,7.33,0,0,0,3.07-6,8,8,0,0,0-1.13-3.87,7.18,7.18,0,0,0-9.89-2.31l-.19.13"/><path class="cls-1" d="M360.07,111.45a7.35,7.35,0,0,1-3.31,6.13l-21.86,14.2a7.12,7.12,0,0,0,2.82-5.73,6.5,6.5,0,0,0-1.21-4,7.17,7.17,0,0,0-9.9-2.24l-.1.06,22.26-14.52a7.18,7.18,0,0,1,10,1.92l.12.18A7.2,7.2,0,0,1,360.07,111.45Z"/><path class="cls-1" d="M340.54,85.07a7.35,7.35,0,0,1,10.09,2.1,7.6,7.6,0,0,1,1.21,4,7.34,7.34,0,0,1-3.31,6.13l-22.1,14.36a7.09,7.09,0,0,0,3.06-5.89,8,8,0,0,0-1.13-4,7.26,7.26,0,0,0-10-2.22l-.06,0"/><path class="cls-1" d="M342.88,71.28a7.26,7.26,0,0,1-3.3,6.13L317.8,91.61a7.28,7.28,0,0,0-8.29-11.93l-.1.07,22.26-14.52a7.18,7.18,0,0,1,10,1.92l.11.17A7,7,0,0,1,342.88,71.28Z"/><path class="cls-1" d="M329.9,54.18a7.36,7.36,0,0,1-3.31,6L304.73,74.42a7.1,7.1,0,0,0,2.82-5.72,7,7,0,0,0-1.05-4.12,7.35,7.35,0,0,0-10.08-2.18L318.6,48.45a7.35,7.35,0,0,1,10.09,2.1A7.65,7.65,0,0,1,329.9,54.18Z"/><path class="cls-1" d="M302.15,33a7.33,7.33,0,0,1,11.29,6.13,7.16,7.16,0,0,1-3.31,6.13L288.27,59.5a7.11,7.11,0,0,0,2.83-5.73,7.1,7.1,0,0,0-.73-4,7.25,7.25,0,0,0-9.95-2.53l-.54.35"/><path class="cls-1" d="M283.35,19.73a7.18,7.18,0,0,1,10,1.92l.12.18a7.2,7.2,0,0,1,1.21,4,7.44,7.44,0,0,1-3.31,6.13l-21.86,14.2a7.18,7.18,0,0,0,2.82-5.73,7.49,7.49,0,0,0-1.21-4A7.33,7.33,0,0,0,261,34.25"/><path class="cls-1" d="M260.6,8.84a7.26,7.26,0,0,1,10,2.12l0,.06a7.2,7.2,0,0,1,1.21,4,7.6,7.6,0,0,1-3.31,6.13L246.33,35.46a7,7,0,0,0,3.22-6,6.5,6.5,0,0,0-1.21-3.95,7.1,7.1,0,0,0-9.78-2.24l-.22.14"/><path class="cls-1" d="M232.85,1.18A7.26,7.26,0,0,1,242.9,3.3l0,.06a7.1,7.1,0,0,1,1.21,4,7.35,7.35,0,0,1-3.31,6.13L219,27.64a7.12,7.12,0,0,0,2.82-5.73A6.92,6.92,0,0,0,220.67,18a7.25,7.25,0,0,0-10.08-1.78"/><rect class="cls-1" x="179.53" y="6.16" width="17.42" height="14.6" rx="7.26" transform="translate(23.13 104.87) rotate(-33.06)"/></g></g></g></g></svg>