<svg xmlns="http://www.w3.org/2000/svg" width="300" height="130" viewBox="0 0 103.8 119.65"><defs><style>.cls-1{fill:#685ea9;}</style></defs><g id="Camada_2" data-name="Camada 2"><g id="Camada_1-2" data-name="Camada 1"><polygon class="cls-1" points="2.63 41.96 2.63 31.04 52.15 2.45 68.65 12.32 68.65 7.58 80.26 7.58 80.26 19.27 101.19 31.2 101.19 41.94 103.8 41.94 103.8 29.93 83.42 18.24 83.42 4.98 66.6 4.98 66.6 8.61 51.67 0 0.04 29.93 0.04 41.94 2.63 41.96"/><polygon class="cls-1" points="0 78.49 2.56 78.49 2.56 88.06 52.15 116.58 101.27 88.06 101.27 78.49 103.8 78.49 103.8 89.64 51.9 119.66 0 89.88 0 78.49"/><path class="cls-1" d="M16.77,44H4.13v1H7L3.71,72.24H.44v.84h10.8v-.73H8L9.34,62.13h5.53s3.79-.79,4.63-4a70.8,70.8,0,0,0,1.32-9.53S20.4,44.28,16.77,44Zm-1.9,15.11s-.21,2.27-1.79,2.32-2.45,0-2.45,0-1.06-.23-.76-2.32l2-13.9s2.8,0,3.16,0,1.26.26,1.26,1.16S14.87,59.13,14.87,59.13Z"/><polygon class="cls-1" points="17.98 72.19 17.98 73.08 28.87 73.08 28.87 72.19 26.29 72.19 29.51 45.07 32.09 45.07 32.09 44.28 21.71 44.28 21.71 45.23 24.08 45.23 21.29 72.19 17.98 72.19"/><path class="cls-1" d="M67.16,48c-.06-2.26-3.22-3.74-4.27-3.73s-3.37-.06-4,0a2.51,2.51,0,0,0-1.21.85c.1-.8-.79-.89-.79-.89l-6.48,0v.79s1.21-.1,2.21-.1.53,2.42.53,2.42l-3.48,24.8-4.52.11S47.88,50.92,48,49.49a4.7,4.7,0,0,0-1.42-4.16c-1.37-1.42-3.74-1-5.95-1a6.6,6.6,0,0,0-5.21,1.85,4.39,4.39,0,0,0-1.69,2.94L32.35,61.34H29.72l.05.95h2.32s-1.48,11.79-1.84,13.95-4.59,2.25-4.59,2.25-1.15.41,4.06,0S35.33,74,35.33,74l1.34-11.85,5.13.08L40.7,72l-3.24.16.16.89H57.68V72H54.36s3.13-23.27,3.28-24.73.73-2.37,3.07-2.34,1.92,2.64,1.92,2.64L59.42,73.08h7.74v-.94l-3-.06S67.21,50.23,67.16,48ZM43.38,48C43.3,49.76,42,61.13,42,61.13H37s1.44-12.3,1.63-13.31,0-2.77,2.6-2.77S43.46,46.29,43.38,48Z"/><path class="cls-1" d="M86.43,48.1c-.4-3.71-4.19-3.87-4.19-3.87H77c-3.72.38-5,4.42-5,4.42s-2.13,17.14-2.45,20,3.56,4.44,3.56,4.44,3.23,0,6.16,0S84,68.24,84,68.24,86.82,51.81,86.43,48.1ZM79.19,69.37s-.26,2.45-1.83,2.66c-2,.28-2.64-.31-2.64-.31a2.4,2.4,0,0,1-.71-2S76.84,48.11,77,47.39s.5-2.35,1.8-2.38c1.46,0,3-.3,3,1.43C81.77,48.42,79.19,69.37,79.19,69.37Z"/><path class="cls-1" d="M86.46,66.34h4.86s-.79,5.15.47,5.54,4.35.47,5.45-1.59-.47-4.82-.47-4.82A79,79,0,0,1,91,58.4a14,14,0,0,1-2.44-7.14c0-2.69,2.21-6.77,5-7s7.43,0,7.43,0,2.84.11,2.36,2.32-.79,4.42-.79,4.42l-4.81-.47a28.29,28.29,0,0,0,.63-3.71C98.59,45,95,44.07,93,46.12s-.63,4.74,1.5,7.51,7.11,7.82,6.87,11.61-3,7.4-5.92,7.84a32.33,32.33,0,0,1-7,0,1.64,1.64,0,0,1-2-1.2C85.79,70.21,86.46,66.34,86.46,66.34Z"/><rect class="cls-1" x="26.4" y="37.23" width="53.44" height="1.21"/><rect class="cls-1" x="25.03" y="80.51" width="53.81" height="1.42"/><polygon class="cls-1" points="44.75 99.23 44.75 103.01 42.23 103.01 42.09 94.46 44.56 94.46 44.56 99.23 44.75 99.23"/><polygon class="cls-1" points="47.68 99.23 47.68 103.01 45.15 103.01 45.09 99.65 45.09 99.23 45.49 99.23 45.49 94.46 47.53 94.46 47.53 99.23 47.68 99.23"/><polygon class="cls-1" points="50.55 94.3 50.55 102.85 48.03 102.85 47.97 99.65 47.97 99.23 48.45 99.23 48.45 94.3 50.55 94.3"/><polygon class="cls-1" points="53.46 99.23 53.46 103.01 50.93 103.01 50.79 94.46 53 94.46 53 99.23 53.46 99.23"/><polygon class="cls-1" points="56.27 99.23 56.27 103.01 53.74 103.01 53.68 99.65 53.68 99.23 53.93 99.23 53.93 94.46 55.94 94.46 55.94 99.23 56.27 99.23"/><polygon class="cls-1" points="59.07 99.23 59.07 103.01 56.54 103.01 56.48 99.65 56.48 99.23 56.86 99.23 56.86 94.46 58.88 94.46 58.88 99.23 59.07 99.23"/><polygon class="cls-1" points="61.87 94.46 61.87 103.01 59.35 103.01 59.29 99.65 59.28 99.23 59.8 99.23 59.8 94.46 61.87 94.46"/><path class="cls-1" d="M44.15,93.23v6.42h1.76V93.23Zm1.34,6h-.93V93.64h.93Z"/><path class="cls-1" d="M47.11,93.23v6.42h1.76V93.23Zm1.34,6h-.92V93.64h.92Z"/><path class="cls-1" d="M52.58,93.23v6.42h1.76V93.23Zm1.35,6H53V93.64h.93Z"/><path class="cls-1" d="M55.52,93.23v6.42h1.76V93.23Zm1.34,6h-.92V93.64h.92Z"/><path class="cls-1" d="M58.46,93.23v6.42h1.76V93.23Zm1.34,6h-.92V93.64h.92Z"/><path class="cls-1" d="M35.94,88.61a1.61,1.61,0,0,0-.39-.47l-.94-.57c-.24-.13-.52-.29-.83-.49a1.58,1.58,0,0,1-.34-.38.69.69,0,0,1,0-.54,1.08,1.08,0,0,1,.18-.24,1.31,1.31,0,0,1,.28-.17,1,1,0,0,1,.35-.06,1.21,1.21,0,0,1,.9.36,1.76,1.76,0,0,1,.45,1h.13V85.4h-.13a.42.42,0,0,1-.09.23.25.25,0,0,1-.16.05.28.28,0,0,1-.11,0l-.17-.07a2.07,2.07,0,0,0-.83-.19,1.38,1.38,0,0,0-.57.11,1.4,1.4,0,0,0-.46.27,1.54,1.54,0,0,0-.3.42,1.21,1.21,0,0,0-.11.49,1.16,1.16,0,0,0,.14.56,1.47,1.47,0,0,0,.41.46c.31.22.67.44,1.08.68l.55.33a1.14,1.14,0,0,1,.34.36.81.81,0,0,1,.1.36.67.67,0,0,1-.07.31.82.82,0,0,1-.2.26.87.87,0,0,1-.3.17,1.07,1.07,0,0,1-.41.07,1.5,1.5,0,0,1-.37,0,1.48,1.48,0,0,1-.35-.13,1.38,1.38,0,0,1-.28-.19,1.06,1.06,0,0,1-.2-.24,2.67,2.67,0,0,1-.26-.8h-.13v1.69H33a.59.59,0,0,1,.08-.23.24.24,0,0,1,.14,0l.16,0,.29.08.3.08.17,0a2.41,2.41,0,0,0,.4,0,1.8,1.8,0,0,0,.62-.11,1.32,1.32,0,0,0,.92-1.25A1.32,1.32,0,0,0,35.94,88.61Z"/><path class="cls-1" d="M38.09,86a.41.41,0,0,1,.1-.22.24.24,0,0,1,.16-.09.8.8,0,0,1,.23,0h.17v-.13h-2.1v.13h.17a.69.69,0,0,1,.34.09.44.44,0,0,1,.1.08.17.17,0,0,1,.06.11.9.9,0,0,1,0,.18,2.27,2.27,0,0,1,0,.28v3.16a2.15,2.15,0,0,1,0,.41.65.65,0,0,1-.1.22.26.26,0,0,1-.17.09l-.23,0h-.17v.14h2.1v-.14h-.17a.73.73,0,0,1-.33-.08l-.11-.08a.34.34,0,0,1-.06-.12.72.72,0,0,1,0-.17,2.36,2.36,0,0,1,0-.29V86.38A1.45,1.45,0,0,1,38.09,86Z"/><path class="cls-1" d="M42.47,85.51v.13h.17l.22,0a.46.46,0,0,1,.17.09.41.41,0,0,1,.1.22,1.37,1.37,0,0,1,0,.39v2.83l-3-3.68H38.84v.13a1.25,1.25,0,0,1,.32,0l.19.07.14.08.13.12.18.21v3.41a1.35,1.35,0,0,1,0,.38.41.41,0,0,1-.1.22.32.32,0,0,1-.16.09l-.23,0h-.17v.14h1.7v-.14h-.39a.35.35,0,0,1-.16-.09.41.41,0,0,1-.1-.21,1.45,1.45,0,0,1,0-.4v-3l3.24,4h.12V86.36a1.76,1.76,0,0,1,0-.38.5.5,0,0,1,.09-.22.28.28,0,0,1,.17-.09.73.73,0,0,1,.22,0h.18v-.13Z"/><path class="cls-1" d="M48.85,89.19a2.43,2.43,0,0,1-.8.81,1.69,1.69,0,0,1-.84.21,1.9,1.9,0,0,1-.78-.15,1.69,1.69,0,0,1-.58-.44,2.1,2.1,0,0,1-.36-.68,3.14,3.14,0,0,1-.12-.89A4.09,4.09,0,0,1,45.5,87a2.38,2.38,0,0,1,.36-.75,1.43,1.43,0,0,1,.55-.43,1.6,1.6,0,0,1,.7-.15,1.54,1.54,0,0,1,1,.33,2.09,2.09,0,0,1,.64,1.08h.11l-.11-1.67h-.12a.67.67,0,0,1-.11.24.25.25,0,0,1-.2.1.66.66,0,0,1-.22-.08,2.32,2.32,0,0,0-1-.26,2.38,2.38,0,0,0-1.26.34,2.32,2.32,0,0,0-.91,1A2.81,2.81,0,0,0,44.55,88a2.7,2.7,0,0,0,.18,1,2.31,2.31,0,0,0,.5.79,2.34,2.34,0,0,0,.75.52,2.49,2.49,0,0,0,1,.18,2.13,2.13,0,0,0,1.17-.31,2.68,2.68,0,0,0,.86-1Z"/><path class="cls-1" d="M53.43,89.19a2.65,2.65,0,0,1-.46.67,1,1,0,0,1-.17.14.56.56,0,0,1-.19.09l-.25,0H51.18l-.24,0a.16.16,0,0,1-.12-.07.49.49,0,0,1,0-.17V88h1.08a1.26,1.26,0,0,1,.37,0,.36.36,0,0,1,.22.12.46.46,0,0,1,.11.22,2.15,2.15,0,0,1,.07.35h.13V87h-.13a1.25,1.25,0,0,1,0,.31.46.46,0,0,1-.11.22.52.52,0,0,1-.23.13,1.35,1.35,0,0,1-.38,0H50.77V85.78h1.34a2.22,2.22,0,0,1,.41,0,.51.51,0,0,1,.26.1.79.79,0,0,1,.17.25,2.4,2.4,0,0,1,.11.43h.09V85.51H49.37v.13h.18a.53.53,0,0,1,.43.15c.07.07.09.27.09.58v3.18A1.69,1.69,0,0,1,50,90a.21.21,0,0,1-.08.11.36.36,0,0,1-.12.08l-.14,0h-.32v.14h3.78l.43-1.23Z"/><path class="cls-1" d="M58,90.22l-.09,0a.19.19,0,0,1,0-.1.66.66,0,0,1,0-.18V85.41h-.12l-1.2.59.06.1a1,1,0,0,1,.37-.09A.3.3,0,0,1,57,86s.06.06.09.11a2.24,2.24,0,0,1,.05.27c0,.12,0,.28,0,.49v2.65a1.71,1.71,0,0,1,0,.53.14.14,0,0,1,0,.08.15.15,0,0,1-.09.06.76.76,0,0,1-.16,0h-.29v.14h1.84v-.14A1.08,1.08,0,0,1,58,90.22Z"/><path class="cls-1" d="M62.57,86.68a2.4,2.4,0,0,0-.32-.64,1.69,1.69,0,0,0-.5-.46,1.24,1.24,0,0,0-.63-.17,1.39,1.39,0,0,0-.6.14,1.8,1.8,0,0,0-.49.38,2,2,0,0,0-.32.56,1.91,1.91,0,0,0-.12.68,1.55,1.55,0,0,0,.1.59,1.45,1.45,0,0,0,.27.47,1.06,1.06,0,0,0,.4.29,1.14,1.14,0,0,0,.49.11,1.91,1.91,0,0,0,1-.37,2.92,2.92,0,0,1-.21.61,2.81,2.81,0,0,1-.32.55,2.5,2.5,0,0,1-.38.45,2,2,0,0,1-.39.29,1.68,1.68,0,0,1-.42.17,2.31,2.31,0,0,1-.46,0v.14h.21a2.35,2.35,0,0,0,1.27-.38,4.65,4.65,0,0,0,.63-.53,3.35,3.35,0,0,0,.48-.64,3.07,3.07,0,0,0,.4-1.53A2.68,2.68,0,0,0,62.57,86.68ZM61.93,88a.88.88,0,0,1-.19.12,1.36,1.36,0,0,1-.21.1l-.21.06-.19,0a.67.67,0,0,1-.37-.11.91.91,0,0,1-.28-.33,1.54,1.54,0,0,1-.18-.47,2.77,2.77,0,0,1-.06-.6,1.9,1.9,0,0,1,.06-.5,1.27,1.27,0,0,1,.18-.35.77.77,0,0,1,.26-.22.67.67,0,0,1,.3-.08.6.6,0,0,1,.37.13,1,1,0,0,1,.3.33,1.7,1.7,0,0,1,.21.51,2.47,2.47,0,0,1,.08.63A5,5,0,0,1,61.93,88Z"/><path class="cls-1" d="M63.74,85.51l-.46,1.17.1,0a2.13,2.13,0,0,1,.16-.25.73.73,0,0,1,.2-.19.84.84,0,0,1,.29-.12,1.67,1.67,0,0,1,.42-.05H65.8l-1.47,4.42h.41l1.63-4.87v-.14Z"/><path class="cls-1" d="M69.28,87.42a2.42,2.42,0,0,0-.64-.41,3,3,0,0,0-.8-.22l.32-.66h1.47l.29-.62H68.16l-.94,1.91a5,5,0,0,1,.61.06,1.81,1.81,0,0,1,.46.12,2.42,2.42,0,0,1,.45.26,2.73,2.73,0,0,1,.34.34,1.53,1.53,0,0,1,.21.4,1.06,1.06,0,0,1,.08.43,1,1,0,0,1-.09.43,1.41,1.41,0,0,1-.23.35,1.16,1.16,0,0,1-.34.24,1.14,1.14,0,0,1-.4.08.66.66,0,0,1-.28,0,1.22,1.22,0,0,1-.28-.14l-.14-.1-.09,0-.08,0h-.09a.3.3,0,0,0-.21.08.25.25,0,0,0-.08.18.31.31,0,0,0,0,.18.53.53,0,0,0,.15.15.7.7,0,0,0,.26.11,1.38,1.38,0,0,0,.38,0,1.9,1.9,0,0,0,.64-.12,2,2,0,0,0,.63-.36,1.9,1.9,0,0,0,.48-.57,1.71,1.71,0,0,0,.19-.79,1.57,1.57,0,0,0-.15-.68A1.88,1.88,0,0,0,69.28,87.42Z"/><path class="cls-1" d="M39.61,26.33a.14.14,0,0,0-.09-.12.25.25,0,0,0-.17,0l-.56.17a.45.45,0,0,0-.13.1.25.25,0,0,0,0,.2,1.53,1.53,0,0,1-.3,1.17,2.36,2.36,0,0,1-1,.66,1.9,1.9,0,0,1-1.36.07,1.94,1.94,0,0,1-1-1.08c-.24-.5-.45-1-.63-1.48a1.8,1.8,0,0,1,0-1.51,2.14,2.14,0,0,1,1.19-.93,2.76,2.76,0,0,1,1.34-.18,1.43,1.43,0,0,1,1,.75.32.32,0,0,0,.16.13.33.33,0,0,0,.17,0l.58-.18a.24.24,0,0,0,.15-.1.18.18,0,0,0,0-.16,2,2,0,0,0-.44-.68,2.2,2.2,0,0,0-.77-.48,2.69,2.69,0,0,0-1.1-.15,4.2,4.2,0,0,0-1.37.3,3.79,3.79,0,0,0-1.53.95A2.24,2.24,0,0,0,33.05,25a2.91,2.91,0,0,0,.21,1.4c.1.25.22.52.34.79s.24.53.36.76a3,3,0,0,0,.88,1.1,2.34,2.34,0,0,0,1.21.47,3.44,3.44,0,0,0,1.54-.26,3.86,3.86,0,0,0,1.07-.58,2.55,2.55,0,0,0,.67-.73,2.08,2.08,0,0,0,.28-1.61Z"/><path class="cls-1" d="M50.15,26.31a61.5,61.5,0,0,0-3.08-6,.32.32,0,0,0-.14-.14.44.44,0,0,0-.24,0l-.77.09a.35.35,0,0,0-.23.09.32.32,0,0,0-.1.17A61.55,61.55,0,0,0,44,27a.43.43,0,0,0,0,.11.16.16,0,0,0,.08.12.2.2,0,0,0,.15,0c.16,0,.33-.06.49-.09a.34.34,0,0,0,.17-.09.24.24,0,0,0,0-.12c.1-.47.2-.95.32-1.43,1.1-.17,2.21-.3,3.32-.39.22.43.44.88.64,1.31a.28.28,0,0,0,.09.1.19.19,0,0,0,.17.05l.5,0a.2.2,0,0,0,.14-.06.24.24,0,0,0,.05-.14A.44.44,0,0,0,50.15,26.31Zm-4.72-1.6c.29-1.18.62-2.37,1-3.56.63,1.07,1.23,2.15,1.79,3.23C47.28,24.46,46.35,24.57,45.43,24.71Z"/><path class="cls-1" d="M59.83,21.58a1.76,1.76,0,0,0-.43-.64,2.67,2.67,0,0,0-.81-.55,4,4,0,0,0-1.21-.31,3.88,3.88,0,0,0-1.52.09,2.09,2.09,0,0,0-1,.58,1.38,1.38,0,0,0-.38.9,1.47,1.47,0,0,0,.21.91,1.92,1.92,0,0,0,.72.65,8.85,8.85,0,0,0,1.24.55,10.45,10.45,0,0,1,1.14.5,2,2,0,0,1,.63.46.71.71,0,0,1,.14.57A.94.94,0,0,1,58,26a2.29,2.29,0,0,1-1.29.12,2.55,2.55,0,0,1-.9-.24,1.5,1.5,0,0,1-.52-.42,1,1,0,0,1-.21-.47.23.23,0,0,0-.08-.14.22.22,0,0,0-.18-.07l-.52,0a.19.19,0,0,0-.16.05.16.16,0,0,0-.07.13,1.6,1.6,0,0,0,.29.89,2.36,2.36,0,0,0,.85.72,4,4,0,0,0,1.4.39,4.28,4.28,0,0,0,1.4,0,2.13,2.13,0,0,0,1-.5,1.65,1.65,0,0,0,.5-1,1.41,1.41,0,0,0-.09-.92,1.84,1.84,0,0,0-.69-.7,8.17,8.17,0,0,0-1.32-.64,11.25,11.25,0,0,1-1.11-.47,1.64,1.64,0,0,1-.62-.43A.83.83,0,0,1,56.09,21a2.27,2.27,0,0,1,1.2-.12,2.14,2.14,0,0,1,1.13.41,1,1,0,0,1,.41.73.25.25,0,0,0,.1.16l.15.06.58.09a.2.2,0,0,0,.19,0,.19.19,0,0,0,.07-.11A1.15,1.15,0,0,0,59.83,21.58Z"/><path class="cls-1" d="M69,23.2a.44.44,0,0,0-.07-.19.42.42,0,0,0-.21-.13c-.24-.1-.49-.18-.73-.27a.39.39,0,0,0-.25,0,.37.37,0,0,0-.17.1,61.63,61.63,0,0,0-4.39,5.12l0,.1a.14.14,0,0,0,0,.14.21.21,0,0,0,.11.1l.49.14a.24.24,0,0,0,.19,0,.21.21,0,0,0,.1-.08l.93-1.13c1.07.34,2.13.73,3.18,1.16q0,.74,0,1.47a.3.3,0,0,0,0,.12.3.3,0,0,0,.14.13l.47.2a.19.19,0,0,0,.15,0,.21.21,0,0,0,.11-.1.36.36,0,0,0,0-.1A63.48,63.48,0,0,0,69,23.2Zm-3.47,3.17c.8-.93,1.64-1.84,2.5-2.73.09,1.24.15,2.47.17,3.7C67.27,27,66.38,26.66,65.48,26.37Z"/><path class="cls-1" d="M51.62,29.57a.2.2,0,0,0-.14-.06h-.41a.2.2,0,0,0-.14.06.19.19,0,0,0,0,.13v1.94a1.83,1.83,0,0,0-.54-.44,1.69,1.69,0,0,0-.82-.18,1.78,1.78,0,0,0-.8.17,1.55,1.55,0,0,0-.56.45,2.08,2.08,0,0,0-.32.65,3.1,3.1,0,0,0-.12.76c0,.08,0,.17,0,.25s0,.16,0,.25a3.18,3.18,0,0,0,.12.77,2,2,0,0,0,.32.64,1.55,1.55,0,0,0,.56.45,2.06,2.06,0,0,0,1.64,0,1.71,1.71,0,0,0,.54-.45v.35a.2.2,0,0,0,.05.14.2.2,0,0,0,.15.06h.38a.19.19,0,0,0,.19-.2V29.7A.19.19,0,0,0,51.62,29.57Zm-.74,4a1.91,1.91,0,0,1-.13.62,1.32,1.32,0,0,1-.38.49,1.1,1.1,0,0,1-.68.19A1.08,1.08,0,0,1,49,34.7a1,1,0,0,1-.36-.49,2.1,2.1,0,0,1-.13-.67v-.49a2.09,2.09,0,0,1,.13-.66A1,1,0,0,1,49,31.9a1.08,1.08,0,0,1,.68-.19,1.12,1.12,0,0,1,.66.18,1.26,1.26,0,0,1,.39.47,1.75,1.75,0,0,1,.14.59c0,.08,0,.19,0,.32S50.88,33.5,50.88,33.59Z"/><path class="cls-1" d="M56.4,32.06a1.64,1.64,0,0,0-.66-.76,2.16,2.16,0,0,0-2.07,0A1.71,1.71,0,0,0,53,32a2.62,2.62,0,0,0-.28,1c0,.07,0,.17,0,.29s0,.2,0,.28A2.22,2.22,0,0,0,53.29,35a1.84,1.84,0,0,0,1.38.53,2.55,2.55,0,0,0,.77-.11,2.17,2.17,0,0,0,.57-.29,1.82,1.82,0,0,0,.37-.36.61.61,0,0,0,.13-.31.14.14,0,0,0,0-.13.17.17,0,0,0-.13,0h-.41c-.06,0-.11,0-.13,0s-.07.06-.12.13a.88.88,0,0,1-.17.17,1.25,1.25,0,0,1-.33.21,1.21,1.21,0,0,1-.5.09,1,1,0,0,1-.61-.19,1.06,1.06,0,0,1-.38-.48,1.56,1.56,0,0,1-.16-.65v-.07h2.92a.24.24,0,0,0,.14-.05.2.2,0,0,0,.05-.14v-.15A2.64,2.64,0,0,0,56.4,32.06Zm-.57.92H53.52v0a1.6,1.6,0,0,1,.14-.67,1.15,1.15,0,0,1,1.63-.47,1.15,1.15,0,0,1,.4.47,1.46,1.46,0,0,1,.14.67Z"/><circle class="cls-1" cx="97.94" cy="40.81" r="0.67"/><circle class="cls-1" cx="97.94" cy="36.77" r="0.67"/><circle class="cls-1" cx="97.94" cy="33.41" r="0.67"/><circle class="cls-1" cx="94.99" cy="31.57" r="0.67"/><circle class="cls-1" cx="92.28" cy="29.94" r="0.67"/><circle class="cls-1" cx="89.33" cy="28.22" r="0.67"/><circle class="cls-1" cx="86.37" cy="26.49" r="0.67"/><circle class="cls-1" cx="83.63" cy="24.96" r="0.67"/><circle class="cls-1" cx="80.76" cy="23.24" r="0.67"/><circle class="cls-1" cx="77.86" cy="21.65" r="0.67"/><circle class="cls-1" cx="75.01" cy="20.05" r="0.67"/><circle class="cls-1" cx="72.29" cy="18.24" r="0.67"/><circle class="cls-1" cx="69.33" cy="16.62" r="0.67"/><circle class="cls-1" cx="66.38" cy="14.9" r="0.67"/><circle class="cls-1" cx="63.43" cy="13.22" r="0.67"/><circle class="cls-1" cx="60.76" cy="11.61" r="0.67"/><circle class="cls-1" cx="57.86" cy="9.88" r="0.67"/><circle class="cls-1" cx="54.94" cy="8.29" r="0.67"/><circle class="cls-1" cx="52.07" cy="6.61" r="0.67"/><circle class="cls-1" cx="49.22" cy="8.29" r="0.67"/><circle class="cls-1" cx="46.4" cy="9.88" r="0.67"/><circle class="cls-1" cx="43.58" cy="11.47" r="0.67"/><circle class="cls-1" cx="40.76" cy="13.21" r="0.67"/><circle class="cls-1" cx="37.8" cy="14.91" r="0.67"/><circle class="cls-1" cx="34.96" cy="16.61" r="0.67"/><circle class="cls-1" cx="32.06" cy="18.22" r="0.67"/><circle class="cls-1" cx="29.16" cy="19.93" r="0.67"/><circle class="cls-1" cx="26.39" cy="21.6" r="0.67"/><circle class="cls-1" cx="23.46" cy="23.24" r="0.67"/><circle class="cls-1" cx="20.65" cy="24.87" r="0.67"/><circle class="cls-1" cx="17.89" cy="26.52" r="0.67"/><circle class="cls-1" cx="14.92" cy="28.2" r="0.67"/><circle class="cls-1" cx="12.03" cy="29.84" r="0.67"/><circle class="cls-1" cx="9.2" cy="31.58" r="0.67"/><circle class="cls-1" cx="6.34" cy="33.18" r="0.67"/><circle class="cls-1" cx="6.34" cy="36.74" r="0.67"/><circle class="cls-1" cx="6.34" cy="40.61" r="0.67"/><circle class="cls-1" cx="97.73" cy="78.36" r="0.67"/><circle class="cls-1" cx="97.73" cy="82.41" r="0.67"/><circle class="cls-1" cx="97.73" cy="85.76" r="0.67"/><circle class="cls-1" cx="94.79" cy="87.6" r="0.67"/><circle class="cls-1" cx="92.08" cy="89.23" r="0.67"/><circle class="cls-1" cx="89.12" cy="90.96" r="0.67"/><circle class="cls-1" cx="86.17" cy="92.68" r="0.67"/><circle class="cls-1" cx="83.43" cy="94.21" r="0.67"/><circle class="cls-1" cx="80.56" cy="95.93" r="0.67"/><circle class="cls-1" cx="77.66" cy="97.52" r="0.67"/><circle class="cls-1" cx="74.81" cy="99.13" r="0.67"/><circle class="cls-1" cx="72.08" cy="100.94" r="0.67"/><circle class="cls-1" cx="69.13" cy="102.55" r="0.67"/><circle class="cls-1" cx="66.18" cy="104.28" r="0.67"/><circle class="cls-1" cx="63.23" cy="105.96" r="0.67"/><circle class="cls-1" cx="60.55" cy="107.56" r="0.67"/><circle class="cls-1" cx="57.66" cy="109.29" r="0.67"/><circle class="cls-1" cx="54.73" cy="110.88" r="0.67"/><circle class="cls-1" cx="51.86" cy="112.56" r="0.67"/><circle class="cls-1" cx="49.02" cy="110.88" r="0.67"/><circle class="cls-1" cx="46.2" cy="109.29" r="0.67"/><circle class="cls-1" cx="43.38" cy="107.7" r="0.67"/><circle class="cls-1" cx="40.56" cy="105.96" r="0.67"/><circle class="cls-1" cx="37.6" cy="104.26" r="0.67"/><circle class="cls-1" cx="34.76" cy="102.56" r="0.67"/><circle class="cls-1" cx="31.86" cy="100.95" r="0.67"/><circle class="cls-1" cx="28.96" cy="99.24" r="0.67"/><circle class="cls-1" cx="26.19" cy="97.57" r="0.67"/><circle class="cls-1" cx="23.26" cy="95.93" r="0.67"/><circle class="cls-1" cx="20.45" cy="94.3" r="0.67"/><circle class="cls-1" cx="17.69" cy="92.65" r="0.67"/><circle class="cls-1" cx="14.72" cy="90.97" r="0.67"/><circle class="cls-1" cx="11.83" cy="89.33" r="0.67"/><circle class="cls-1" cx="9" cy="87.59" r="0.67"/><circle class="cls-1" cx="6.14" cy="85.99" r="0.67"/><circle class="cls-1" cx="6.14" cy="82.43" r="0.67"/><circle class="cls-1" cx="6.14" cy="78.56" r="0.67"/></g></g></svg>