<svg xmlns="http://www.w3.org/2000/svg" width="300" height="130" viewBox="0 0 181.59 82.05"><defs><style>.cls-1{fill:#685ea9;}.cls-2{fill:none;stroke:#685ea9;stroke-miterlimit:10;stroke-width:3px;}</style></defs><g id="Camada_2" data-name="Camada 2"><g id="Camada_1-2" data-name="Camada 1"><path class="cls-1" d="M8.53,61.34a22.88,22.88,0,0,1,2.94-8.77c5.1-8.91,12-16.28,19.79-22.86,1.11-.93,2.35-2.15,3.8-.9a3.7,3.7,0,0,1,1.18,4.53c-.82,2-1.59,4.06-3.47,5.35-.66.45-2,1.05-2.18.86-2.21-2.74-3.16,0-4.25,1-4.85,4.57-9.28,9.52-12.26,15.54-1.47,3-3.35,6.22-.52,9.38,2,2.26,5.74,1.79,9.92-1,6.44-4.38,11.82-9.91,17-15.68.8-.89,1.47-2.19,2.89-1,1.26,1,.67,2.22-.07,3.21C37.24,59,30.53,66.46,21,70.55,14.59,73.33,8.42,68.82,8.53,61.34Z"/><polygon class="cls-2" points="45.87 11.29 46.6 80.43 7.51 77.37 1.63 34.41 45.87 11.29"/><polygon class="cls-2" points="152.15 1.65 45.93 18.35 46.61 75.26 179.3 53.6 152.15 1.65"/><path class="cls-1" d="M62.9,53.45c-.72.14-1.21.07-1.46-.22a1.88,1.88,0,0,1-.31-1.34,7.69,7.69,0,0,1,.15-1.06c.08-.38.18-.78.29-1.19.21-.71.43-1.42.68-2.14s.48-1.43.73-2.15l.72-2.17c.23-.73.44-1.45.64-2.17,0-.07,0-.15,0-.25a.53.53,0,0,0-.1-.4c-.07-.09-.19-.11-.36-.08a3.08,3.08,0,0,0-.84.34,5,5,0,0,0-.76.53c-.82.74-1.54,1.44-2.16,2.12s-1.2,1.38-1.72,2.09-1,1.47-1.51,2.25-1,1.64-1.51,2.57a23.32,23.32,0,0,0-1,2.3c-.23.62-.44,1.13-.63,1.52a2.94,2.94,0,0,1-.62.89,2,2,0,0,1-1,.43.86.86,0,0,1-1-.24A1.76,1.76,0,0,1,51,54a6.33,6.33,0,0,1,.23-1.28l7.3-26.52a3,3,0,0,1,.2-.53,2.48,2.48,0,0,1,.36-.57,3,3,0,0,1,.52-.48,1.75,1.75,0,0,1,.67-.29,5.21,5.21,0,0,1,.59-.09,2.61,2.61,0,0,1,.56,0,.67.67,0,0,1,.41.2.56.56,0,0,1,.13.46,2.57,2.57,0,0,1-.05.32,5.84,5.84,0,0,1-.14.57c-.8,2.9-1.64,5.93-2.54,9.08s-1.8,6.33-2.72,9.55a38.68,38.68,0,0,1,2.38-3.09,24,24,0,0,1,2.49-2.54A15.72,15.72,0,0,1,64,36.93a9.14,9.14,0,0,1,2.73-1,1.3,1.3,0,0,1,1.34.35,2,2,0,0,1,.4,1.48,4,4,0,0,1-.16.89q-.25.91-.57,1.83c-.21.6-.43,1.21-.65,1.82l-.66,1.87c-.23.63-.43,1.28-.6,1.93a20.62,20.62,0,0,0-.53,2.37c-.11.74-.19,1.33-.24,1.76a8.07,8.07,0,0,1-.22,1.11,3.76,3.76,0,0,1-.42,1,2.75,2.75,0,0,1-.63.76A2,2,0,0,1,62.9,53.45Z"/><path class="cls-1" d="M79.14,48.28a9.4,9.4,0,0,1,.2-1.35,14.81,14.81,0,0,0,.24-2c-.4.38-.85.83-1.34,1.34s-1,1-1.53,1.5a14.21,14.21,0,0,1-1.55,1.27,3.77,3.77,0,0,1-1.41.68,2.55,2.55,0,0,1-1,0A2,2,0,0,1,72,49.5a3.8,3.8,0,0,1-1.24-1.35,3.54,3.54,0,0,1-.3-1.79,8,8,0,0,1,.14-1c.08-.35.18-.76.31-1.23A22.86,22.86,0,0,1,73.51,38a24.08,24.08,0,0,1,4.28-5.21,6.29,6.29,0,0,1,1.9-1.28A10.9,10.9,0,0,1,81.54,31q.4-.07.9-.12l.89-.07.67-.26a4.61,4.61,0,0,1,.53-.15,2.15,2.15,0,0,1,.87,0,.93.93,0,0,1,.53.3,1.16,1.16,0,0,1,.27.53,2.5,2.5,0,0,1,.06.68,3.63,3.63,0,0,1-.2,1l-.33,1L82.81,44.38c-.08.56-.15,1.07-.21,1.54a8.93,8.93,0,0,1-.29,1.33c0,.12-.09.27-.16.46a2.2,2.2,0,0,1-.28.55,2.7,2.7,0,0,1-.46.5,1.57,1.57,0,0,1-.69.31,3.92,3.92,0,0,1-.87.09.81.81,0,0,1-.48-.12.47.47,0,0,1-.21-.3A2.16,2.16,0,0,1,79.14,48.28Zm-5.46-4.62a8.11,8.11,0,0,0-.19.8,6,6,0,0,0-.14,1,2.54,2.54,0,0,0,.08.9c.08.26.27.36.59.29A3.55,3.55,0,0,0,75.41,46a9.86,9.86,0,0,0,1.25-1.09c.53-.55,1.07-1.16,1.62-1.82s1.08-1.34,1.58-2a24.79,24.79,0,0,0,1.33-2.13,10.54,10.54,0,0,0,.9-2.09c.11-.39.22-.83.31-1.33s.15-.94.18-1.32a1,1,0,0,0-.08-.47c-.06-.15-.19-.2-.39-.16a5.29,5.29,0,0,0-1.74.71,11.42,11.42,0,0,0-1.73,1.31A16.25,16.25,0,0,0,77,37.35a22.72,22.72,0,0,0-1.43,2,20.35,20.35,0,0,0-1.14,2.16A16.45,16.45,0,0,0,73.68,43.66Z"/><path class="cls-1" d="M101.32,29.08a4,4,0,0,0-1.33.58,13.47,13.47,0,0,0-1.51,1.15c-.52.45-1,1-1.6,1.52s-1.08,1.13-1.61,1.72l-.78.81a4.2,4.2,0,0,1-.73.59,13.25,13.25,0,0,0-.58,1.26c-.21.52-.42,1.08-.63,1.69s-.41,1.21-.6,1.84-.36,1.21-.49,1.74c-.08.28-.14.55-.19.81s-.11.55-.17.84l-.22,1c-.09.34-.19.73-.31,1.16a1.91,1.91,0,0,1-.31.64,2,2,0,0,1-.43.41,1.56,1.56,0,0,1-.41.23l-.3.09A1.4,1.4,0,0,1,88.06,47c-.26-.17-.38-.59-.34-1.26,0-.18,0-.37,0-.57a5.7,5.7,0,0,1,.15-.68c.33-1.27.64-2.41.94-3.43s.59-2,.89-2.85.59-1.71.88-2.5.6-1.58.9-2.38l1-2.48Q93,29.56,93.57,28a1.42,1.42,0,0,1,.59-.65,2.56,2.56,0,0,1,1-.42A1.57,1.57,0,0,1,96.2,27a.86.86,0,0,1,.37.85,1,1,0,0,1,0,.22,2.91,2.91,0,0,1-.12.35l-.89,2.15c.51-.52,1-1.05,1.6-1.57s1.13-1,1.71-1.47a14.25,14.25,0,0,1,1.73-1.17,5.92,5.92,0,0,1,1.69-.65,2.83,2.83,0,0,1,2.57.46,3.47,3.47,0,0,1,.76,2.87,13.07,13.07,0,0,1-.54,2.78c-.31,1.06-.69,2.21-1.14,3.44s-.93,2.53-1.44,3.89-1,2.74-1.45,4.13a8,8,0,0,1-.38,1,2.87,2.87,0,0,1-.43.67,1.72,1.72,0,0,1-.55.42,2.87,2.87,0,0,1-.75.25,1.1,1.1,0,0,1-.93-.09,1.06,1.06,0,0,1-.21-.84A9,9,0,0,1,98,43.35c.13-.54.31-1.14.52-1.79s.47-1.36.75-2.12.59-1.52.91-2.3.51-1.27.76-1.9.48-1.24.68-1.82.37-1.14.51-1.66a8.32,8.32,0,0,0,.24-1.41,2,2,0,0,0-.18-1C102,29.09,101.75,29,101.32,29.08Z"/><path class="cls-1" d="M108.18,52a.8.8,0,0,1-.31,0,.64.64,0,0,1-.31-.15.93.93,0,0,1-.23-.31,1,1,0,0,1-.07-.51,1.9,1.9,0,0,1,.07-.45,9.27,9.27,0,0,1,.36-1.09,2.52,2.52,0,0,1,.5-.75,3.31,3.31,0,0,1,.83-.61,12.67,12.67,0,0,1,1.35-.64c.35-.15.69-.3,1-.46a3.85,3.85,0,0,0,.79-.51,16.6,16.6,0,0,0,1.62-2.09,16.29,16.29,0,0,0,1.16-2.12,22.91,22.91,0,0,0,.84-2.16c.23-.73.46-1.47.68-2.23.08-.25.16-.52.22-.79s.16-.58.26-.93c-.47.51-1,1-1.46,1.54a17.06,17.06,0,0,1-1.54,1.43,12,12,0,0,1-1.57,1.12,5,5,0,0,1-1.57.63,1.91,1.91,0,0,1-1-.1,3.52,3.52,0,0,1-1-.59,3.12,3.12,0,0,1-.79-1,2.42,2.42,0,0,1-.27-1.32,6.18,6.18,0,0,1,.17-1c.09-.37.17-.7.25-1a15.77,15.77,0,0,1,1-2.63,22.8,22.8,0,0,1,1.39-2.51,27.6,27.6,0,0,1,1.7-2.36c.61-.76,1.24-1.48,1.89-2.15a11.07,11.07,0,0,1,2.4-2,8,8,0,0,1,2.47-1c.37-.07.71-.12,1-.15a3.16,3.16,0,0,1,.93.05,2,2,0,0,1,.8.37,2.46,2.46,0,0,1,.64.79,1.1,1.1,0,0,1,.1.29,1.15,1.15,0,0,1,0,.31,6.17,6.17,0,0,1-.12.78l-.3,1.53c-.12.62-.27,1.3-.43,2.06l-.51,2.3c-.18.78-.35,1.54-.52,2.29s-.33,1.42-.49,2q-.37,1.57-.93,3.27a32.72,32.72,0,0,1-1.27,3.37,26.85,26.85,0,0,1-1.67,3.19,15.63,15.63,0,0,1-2.14,2.79,12.48,12.48,0,0,1-2.66,2.15A10.18,10.18,0,0,1,108.18,52Zm2.69-16.23c-.05.16-.09.32-.13.49a2.93,2.93,0,0,0-.07.48,1.39,1.39,0,0,0,.1.7c.08.19.24.25.48.21a3.67,3.67,0,0,0,1.39-.73,14,14,0,0,0,1.62-1.45,22.21,22.21,0,0,0,1.56-1.79A14,14,0,0,0,117,31.93c.12-.23.3-.54.51-.94s.43-.82.65-1.27.41-.91.59-1.35a6.15,6.15,0,0,0,.34-1.16,1.21,1.21,0,0,0-.08-.58,3,3,0,0,1-.17-.74l-.15,0a2.41,2.41,0,0,0-1,.49,12,12,0,0,0-1.2,1c-.42.4-.84.85-1.28,1.33s-.84,1-1.22,1.46-.74,1-1.06,1.41a13.85,13.85,0,0,0-.76,1.16c-.27.48-.52.94-.75,1.41A8.94,8.94,0,0,0,110.87,35.78Z"/><path class="cls-1" d="M124.88,32.58a2.84,2.84,0,0,1,.49-1.48,2.75,2.75,0,0,1,1.11-1q.21-.47.66-1.26c.3-.53.66-1.12,1.09-1.76s.92-1.3,1.46-2a16.73,16.73,0,0,1,1.77-1.9,12,12,0,0,1,2-1.53,7,7,0,0,1,2.27-.9,5.09,5.09,0,0,1,1.75-.08,2.42,2.42,0,0,1,1.2.49,2.17,2.17,0,0,1,.66,1,3.57,3.57,0,0,1,.16,1.38,5,5,0,0,1-.23,1.27,6.25,6.25,0,0,1-1,2.07,11.15,11.15,0,0,1-1.65,1.72,13.46,13.46,0,0,1-2,1.4c-.72.41-1.44.78-2.16,1.1a22,22,0,0,1-2.06.82c-.66.23-1.23.42-1.71.56a6.35,6.35,0,0,0-.5,2,1.55,1.55,0,0,0,.7,1.56,3.07,3.07,0,0,0,2.19.17,7,7,0,0,0,1.58-.52,10.83,10.83,0,0,0,1.46-.8c.46-.3.9-.62,1.31-1s.79-.64,1.13-.95.85-.73,1.24-1a2.69,2.69,0,0,1,1-.52c.29-.06.47,0,.54.13a.94.94,0,0,1,.09.48c0,.1,0,.2,0,.3s0,.18,0,.25A4.53,4.53,0,0,1,139,33.7a4.8,4.8,0,0,1-.72,1,16.81,16.81,0,0,1-3.87,3,14.85,14.85,0,0,1-4.12,1.49c-.28.05-.61.1-1,.14a6.4,6.4,0,0,1-1.16,0,4.79,4.79,0,0,1-1.18-.26,2.66,2.66,0,0,1-1-.65,3.08,3.08,0,0,1-.67-1.17,4.91,4.91,0,0,1-.17-1.84,11.13,11.13,0,0,1,.34-2.06.58.58,0,0,1-.41-.17A.77.77,0,0,1,124.88,32.58Zm11.27-7.51a.74.74,0,0,0,0-.18c0-.05,0-.11,0-.17a.69.69,0,0,0-.3-.71,1.14,1.14,0,0,0-.83-.09,3.82,3.82,0,0,0-1.54.74,10.55,10.55,0,0,0-1.46,1.39,14.91,14.91,0,0,0-1.25,1.65,12.88,12.88,0,0,0-.87,1.53,16.67,16.67,0,0,0,2.33-.84,10.89,10.89,0,0,0,1.87-1,6.8,6.8,0,0,0,1.31-1.13A3.27,3.27,0,0,0,136.15,25.07Z"/><path class="cls-1" d="M143,32.9a1.14,1.14,0,0,1,.25,0l.25,0,.31,0a1.61,1.61,0,0,0,.45,0,11.64,11.64,0,0,0,1.84-.56,16.19,16.19,0,0,0,1.93-.88,9.91,9.91,0,0,0,1.57-1,2.1,2.1,0,0,0,.78-1,1.85,1.85,0,0,0,.07-.41.66.66,0,0,0-.25-.57,2.53,2.53,0,0,0-.69-.42,7.08,7.08,0,0,0-.92-.31l-.91-.23-.58-.15a3.87,3.87,0,0,1-.87-.29,3.1,3.1,0,0,1-.77-.48,2.54,2.54,0,0,1-.61-.72,2.62,2.62,0,0,1-.36-1,4.34,4.34,0,0,1-.09-.52,5.09,5.09,0,0,1,0-.56,3.22,3.22,0,0,1,.38-1.2,9,9,0,0,1,.9-1.45,14.83,14.83,0,0,1,1.24-1.44,11.64,11.64,0,0,1,1.43-1.24c.37-.33.72-.65,1.06-.93a11.06,11.06,0,0,1,1-.75,8.17,8.17,0,0,1,1-.57,5.06,5.06,0,0,1,1.1-.36c.35-.07.73-.12,1.13-.17a3.27,3.27,0,0,1,1.1.05,1.51,1.51,0,0,1,.82.45,1.34,1.34,0,0,1,.27,1,4.56,4.56,0,0,1-.09.57,4.25,4.25,0,0,1-.21.73,4.38,4.38,0,0,1-.33.65.71.71,0,0,1-.44.33,1,1,0,0,1-.65,0,2.44,2.44,0,0,1-.45-.27,2.86,2.86,0,0,0-.42-.29.82.82,0,0,0-.55-.06,3.69,3.69,0,0,0-.94.35,9.59,9.59,0,0,0-1.12.66,13,13,0,0,0-1.13.86,13.36,13.36,0,0,0-1,.95,6.82,6.82,0,0,0-.74.89,1.55,1.55,0,0,0-.3.74.6.6,0,0,0,.16.49,1.14,1.14,0,0,0,.47.27,6.52,6.52,0,0,0,.85.28l1,.26,1,.26.81.26a7.86,7.86,0,0,1,.81.35,2.39,2.39,0,0,1,.61.44,1.62,1.62,0,0,1,.36.61,2.33,2.33,0,0,1,.09.87c0,.17,0,.34-.07.51s-.08.37-.14.6-.12.43-.22.71-.21.54-.33.81a7.13,7.13,0,0,1-.35.73,2.26,2.26,0,0,1-.28.45,14.6,14.6,0,0,1-1.69,1.62,22.8,22.8,0,0,1-2,1.44,18.22,18.22,0,0,1-2.06,1.12,8.08,8.08,0,0,1-1.86.64,2.51,2.51,0,0,1-.91,0,3.13,3.13,0,0,1-.91-.29,2,2,0,0,1-.68-.54,1,1,0,0,1-.24-.71A1.3,1.3,0,0,1,142,34a3.1,3.1,0,0,1,.29-.5,2.86,2.86,0,0,1,.36-.41A.79.79,0,0,1,143,32.9Z"/><path class="cls-1" d="M118.77,56l.24-1.05.31-1.28c.1-.44.21-.9.32-1.37s.21-.92.31-1.37a.41.41,0,0,1,0-.11.51.51,0,0,1,.12-.16.83.83,0,0,1,.49-.26.65.65,0,0,1,.24,0,.46.46,0,0,1,.21,0,.33.33,0,0,1,.15.11.36.36,0,0,1,.06.19v0a.43.43,0,0,1,0,0l-.19.83c-.21.93-.43,1.86-.65,2.79s-.44,1.86-.64,2.8l0,.12a1,1,0,0,1-.07.15.8.8,0,0,1-.13.13.3.3,0,0,1-.17.08.64.64,0,0,1-.34,0,.58.58,0,0,1-.25-.15.87.87,0,0,1-.16-.23.85.85,0,0,1,0-.26V57a.2.2,0,0,1,0-.07Zm1.77-8.06a2.4,2.4,0,0,1,.12-.4,1.27,1.27,0,0,1,.33-.47l.28-.17a1.36,1.36,0,0,1,.24-.1.21.21,0,0,1,.15,0,.47.47,0,0,1,.14.08.93.93,0,0,1,.14.14.23.23,0,0,1,.24.09.6.6,0,0,1,.06.27.86.86,0,0,1,0,.23c0,.06,0,.12,0,.16a1,1,0,0,1-.16.32,2.37,2.37,0,0,1-.28.27,2.39,2.39,0,0,1-.34.21,1.17,1.17,0,0,1-.3.1.37.37,0,0,1-.26,0,1,1,0,0,1-.24-.21.44.44,0,0,1-.09-.16.38.38,0,0,1,0-.1.66.66,0,0,1,0-.15A.59.59,0,0,1,120.54,47.93Z"/><path class="cls-1" d="M122.46,54.12a7.18,7.18,0,0,1,.23-.85,6.56,6.56,0,0,1,.38-.87,6.86,6.86,0,0,1,.54-.87,7.21,7.21,0,0,1,.74-.86,8.27,8.27,0,0,1,.61-.56,7.37,7.37,0,0,1,.65-.49,5.58,5.58,0,0,1,.67-.37A3.08,3.08,0,0,1,127,49a1.59,1.59,0,0,1,.42,0,1.36,1.36,0,0,1,.36,0c0-.18.17-.68.37-1.47s.43-1.91.72-3.32a1.11,1.11,0,0,1,.22-.38.58.58,0,0,1,.35-.19,1.33,1.33,0,0,1,.28,0,.47.47,0,0,1,.43.24.78.78,0,0,1,.07.34l-1.36,6.25c0,.17-.08.41-.12.7s-.06.6-.09.93,0,.64-.06,1,0,.59,0,.81a3.42,3.42,0,0,1-.08.84,2.69,2.69,0,0,1-.09.32.71.71,0,0,1-.12.23.62.62,0,0,1-.2.15,1.6,1.6,0,0,1-.3.08.78.78,0,0,1-.33,0,.38.38,0,0,1-.18-.09.33.33,0,0,1-.07-.17c0-.06,0-.13,0-.21a1.94,1.94,0,0,0,0-.24.55.55,0,0,0-.06-.22l-.24.2-.31.25-.29.24-.2.16-.38.28a4.92,4.92,0,0,1-.45.28,4.66,4.66,0,0,1-.5.25,3.68,3.68,0,0,1-.54.16,1.72,1.72,0,0,1-.64,0,1.4,1.4,0,0,1-.56-.24,1.38,1.38,0,0,1-.4-.51,2.12,2.12,0,0,1-.16-.81c0-.11,0-.23,0-.34S122.43,54.27,122.46,54.12Zm1.26-.29a1.38,1.38,0,0,0,0,.44,1.64,1.64,0,0,0,0,.4.74.74,0,0,0,.14.31.59.59,0,0,0,.27.18.83.83,0,0,0,.42,0,1.74,1.74,0,0,0,.32-.11l.33-.19.3-.22.24-.2.51-.46a6,6,0,0,0,.42-.46A3.55,3.55,0,0,0,127,53a2.83,2.83,0,0,0,.22-.64c0-.2.09-.39.12-.56l.09-.5c0-.16,0-.33.07-.5s0-.35.07-.55l-.1-.07a.38.38,0,0,0-.19,0,2.71,2.71,0,0,0-.64.22,5.77,5.77,0,0,0-1.43,1,6.13,6.13,0,0,0-.64.71,5.5,5.5,0,0,0-.52.83A3.37,3.37,0,0,0,123.72,53.83Z"/><path class="cls-1" d="M130.69,53.81c.07-.3.15-.65.25-1.05s.19-.83.3-1.27.21-.91.32-1.38.21-.92.31-1.36a.31.31,0,0,1,0-.11,1.36,1.36,0,0,1,.12-.17,1.16,1.16,0,0,1,.2-.16.83.83,0,0,1,.29-.1,1,1,0,0,1,.24,0,.65.65,0,0,1,.21,0,.33.33,0,0,1,.15.11.29.29,0,0,1,.06.19v0a.11.11,0,0,1,0,.05l-.19.82c-.21.93-.43,1.86-.65,2.79s-.43,1.87-.64,2.8a.83.83,0,0,0,0,.12,1.09,1.09,0,0,1-.08.15.5.5,0,0,1-.12.13.37.37,0,0,1-.18.08.6.6,0,0,1-.33,0,.53.53,0,0,1-.25-.15.6.6,0,0,1-.16-.23.65.65,0,0,1-.06-.26v-.07a.2.2,0,0,1,0-.07Zm1.77-8.05a2.65,2.65,0,0,1,.13-.41,1.24,1.24,0,0,1,.33-.46,1.7,1.7,0,0,1,.28-.18,1.56,1.56,0,0,1,.24-.1.21.21,0,0,1,.15,0,.38.38,0,0,1,.13.09.86.86,0,0,1,.14.13c.13,0,.21,0,.24.1a.54.54,0,0,1,.06.27,1.55,1.55,0,0,1,0,.22c0,.07,0,.12,0,.16a.88.88,0,0,1-.16.32,1.79,1.79,0,0,1-.28.27,2,2,0,0,1-.33.21,1.3,1.3,0,0,1-.31.11.54.54,0,0,1-.26,0,.81.81,0,0,1-.23-.21.43.43,0,0,1-.1-.16.45.45,0,0,1,0-.11.76.76,0,0,1,0-.15A.5.5,0,0,1,132.46,45.76Z"/><path class="cls-1" d="M134.53,51.62a6.29,6.29,0,0,1,.32-1,7.67,7.67,0,0,1,.58-1.14,10,10,0,0,1,.88-1.18,9.33,9.33,0,0,1,1.19-1.15,1.92,1.92,0,0,1,.33-.21,2.07,2.07,0,0,1,.47-.18,1.19,1.19,0,0,1,.76-.45,1.38,1.38,0,0,1,1,.12,1.8,1.8,0,0,1,.66.68c0,.1.11.2.15.29a2.88,2.88,0,0,1,.13.31,3,3,0,0,1,.08.37c0,.13,0,.28,0,.44a4.57,4.57,0,0,1-.17,1.24,6.47,6.47,0,0,1-.49,1.28,8.36,8.36,0,0,1-.8,1.27,9.39,9.39,0,0,1-1,1.15,4.32,4.32,0,0,1-.86.61,4,4,0,0,1-1.07.35,2.69,2.69,0,0,1-1,0,1.56,1.56,0,0,1-.7-.32,1.48,1.48,0,0,1-.42-.6,2.69,2.69,0,0,1-.15-.85A4.87,4.87,0,0,1,134.53,51.62Zm1.21-.13a2.21,2.21,0,0,0-.06.34c0,.1,0,.2,0,.3a1.5,1.5,0,0,0,.07.44.63.63,0,0,0,.21.33.78.78,0,0,0,.35.18,1.21,1.21,0,0,0,.5,0,2.41,2.41,0,0,0,1-.47,4.68,4.68,0,0,0,.84-.88,5.72,5.72,0,0,0,.6-1,4.42,4.42,0,0,0,.34-1c0-.18.08-.35.11-.51a2.29,2.29,0,0,0,0-.43.78.78,0,0,0-.08-.35c-.05-.1-.11-.22-.18-.34l-.14-.25-.12-.25-.12.21a.72.72,0,0,1-.2.18l-.35.18a4.6,4.6,0,0,1-.59.19,2.43,2.43,0,0,0-.48.35,3.19,3.19,0,0,0-.48.49,5.19,5.19,0,0,0-.44.58,5.73,5.73,0,0,0-.38.62c-.11.21-.21.41-.29.6A2.83,2.83,0,0,0,135.74,51.49Z"/><path class="cls-1" d="M142.4,52.55c.13-.61.26-1.17.39-1.7l.37-1.51q.18-.73.36-1.41c.11-.46.22-.92.32-1.38a2.49,2.49,0,0,0,.07-.52c0-.16,0-.33.06-.52a.36.36,0,0,1,.11-.17,1.21,1.21,0,0,1,.16-.16l.2-.12.2-.06a1,1,0,0,1,.34,0,.56.56,0,0,1,.22.09.36.36,0,0,1,.12.18.66.66,0,0,1,0,.25,2,2,0,0,1-.07.53c0,.18-.11.38-.19.59.23-.22.46-.44.7-.65a7.85,7.85,0,0,1,.73-.56,6.82,6.82,0,0,1,.78-.45,3.48,3.48,0,0,1,.83-.26,1.28,1.28,0,0,1,.39,0,.82.82,0,0,1,.36.14.79.79,0,0,1,.27.3,1.18,1.18,0,0,1,.13.5l.64-.55a8.17,8.17,0,0,1,.68-.52,5.34,5.34,0,0,1,.68-.41,2.81,2.81,0,0,1,.67-.23,2.25,2.25,0,0,1,.81,0,1.07,1.07,0,0,1,.51.26,1,1,0,0,1,.27.47,1.89,1.89,0,0,1,.09.6,4.89,4.89,0,0,1,0,.75c0,.26-.09.51-.14.75-.13.6-.28,1.17-.44,1.72s-.35,1.1-.54,1.66l-.15.43a2.54,2.54,0,0,1-.18.41,1.47,1.47,0,0,1-.24.34.77.77,0,0,1-.33.18.84.84,0,0,1-.6,0,.47.47,0,0,1-.16-.4v-.17a1.38,1.38,0,0,1,0-.2,2.35,2.35,0,0,1,.13-.34c.07-.16.14-.32.21-.5s.16-.36.23-.54a4,4,0,0,0,.17-.47l.21-.78c.08-.3.16-.59.23-.89s.13-.59.18-.85a2.74,2.74,0,0,0,.06-.64,1.64,1.64,0,0,0,0-.22.49.49,0,0,0-.08-.18.29.29,0,0,0-.16-.1.41.41,0,0,0-.25,0,1.77,1.77,0,0,0-.52.22,5.31,5.31,0,0,0-.62.45A7.86,7.86,0,0,0,149.47,47a3.89,3.89,0,0,1-.28.35,2.42,2.42,0,0,1-.28.22l-.07.21c0,.12-.08.26-.13.43l-.16.53-.15.54q-.08.24-.12.42a.81.81,0,0,0-.05.18c0,.15-.06.29-.08.45l-.06.43c0,.14,0,.28-.05.44a1.64,1.64,0,0,1-.09.44,1.1,1.1,0,0,1-.23.37.79.79,0,0,1-.44.2.48.48,0,0,1-.27,0,.8.8,0,0,1-.21-.15,1,1,0,0,1-.14-.24.67.67,0,0,1-.06-.28c.1-.47.2-.89.3-1.27s.2-.74.31-1.09.2-.69.29-1,.19-.73.28-1.15a2.5,2.5,0,0,0,.05-.29,2.32,2.32,0,0,0,0-.24.47.47,0,0,0-.08-.28.25.25,0,0,0-.26-.07,1.61,1.61,0,0,0-.59.23,4.7,4.7,0,0,0-.63.5,10.18,10.18,0,0,0-.75.8c-.28.32-.59.7-.95,1.14a3,3,0,0,0-.15.44q-.09.33-.18.69c-.06.24-.12.46-.17.67s-.08.34-.09.41-.08.4-.1.54,0,.28-.05.4,0,.16,0,.3a2.41,2.41,0,0,1-.1.43,1.44,1.44,0,0,1-.21.41.58.58,0,0,1-.36.23.74.74,0,0,1-.56-.09.5.5,0,0,1-.22-.43.31.31,0,0,1,0-.1A.44.44,0,0,1,142.4,52.55Z"/><path class="cls-1" d="M158.75,49.74a3.68,3.68,0,0,1,0-.53,4.3,4.3,0,0,0,0-.76c-.16.15-.33.32-.52.52a8.21,8.21,0,0,1-.6.58,5.31,5.31,0,0,1-.62.49,1.43,1.43,0,0,1-.57.26,1.2,1.2,0,0,1-.42,0,.92.92,0,0,1-.34-.12,1.71,1.71,0,0,1-.57-.52A1.48,1.48,0,0,1,155,49a2.66,2.66,0,0,1,0-.39q0-.21.09-.48a7.75,7.75,0,0,1,.91-2.36,8.35,8.35,0,0,1,1.65-2,2.55,2.55,0,0,1,.76-.5,3.68,3.68,0,0,1,.77-.21,2,2,0,0,1,.37-.05l.38,0,.27-.11.22-.05a.94.94,0,0,1,.37,0,.42.42,0,0,1,.23.12.52.52,0,0,1,.14.21,1.09,1.09,0,0,1,0,.26,1.58,1.58,0,0,1-.05.38c0,.12-.08.25-.11.38l-.9,4.1c0,.21,0,.41,0,.59a2.7,2.7,0,0,1-.08.52s0,.11-.05.18a1,1,0,0,1-.1.21.81.81,0,0,1-.18.19.59.59,0,0,1-.29.12,1.86,1.86,0,0,1-.36,0,.41.41,0,0,1-.21,0,.23.23,0,0,1-.09-.11A.52.52,0,0,1,158.75,49.74Zm-2.46-1.81c0,.07,0,.17,0,.31a2.56,2.56,0,0,0,0,.39.78.78,0,0,0,.07.35.19.19,0,0,0,.25.11,1.2,1.2,0,0,0,.57-.24,3.28,3.28,0,0,0,.5-.42c.2-.21.41-.45.62-.7s.42-.52.61-.79a9,9,0,0,0,.49-.83,4.46,4.46,0,0,0,.44-1.84.35.35,0,0,0,0-.18.13.13,0,0,0-.17-.06,2.12,2.12,0,0,0-.72.27,6,6,0,0,0-.69.5,5.06,5.06,0,0,0-.62.68,7,7,0,0,0-.54.8,5.81,5.81,0,0,0-.41.83A5.22,5.22,0,0,0,156.29,47.93Z"/><path class="cls-1" d="M162.61,48H163a.72.72,0,0,0,.19,0,4.65,4.65,0,0,0,.76-.21,8.16,8.16,0,0,0,.79-.34,5.79,5.79,0,0,0,.63-.39.73.73,0,0,0,.3-.37,1.15,1.15,0,0,0,0-.16.27.27,0,0,0-.13-.22,1.39,1.39,0,0,0-.3-.17l-.4-.12-.4-.09-.25-.06a2.59,2.59,0,0,1-.37-.11,1.86,1.86,0,0,1-.34-.19,1.28,1.28,0,0,1-.29-.28,1.19,1.19,0,0,1-.18-.41,1.33,1.33,0,0,1,0-.19.85.85,0,0,1,0-.23A1.2,1.2,0,0,1,163,44a3.81,3.81,0,0,1,.34-.56,4.92,4.92,0,0,1,.48-.56,4.26,4.26,0,0,1,.57-.48l.41-.36.41-.29.42-.22a2.06,2.06,0,0,1,.46-.13,3.16,3.16,0,0,1,.47-.06,1.46,1.46,0,0,1,.47,0,.77.77,0,0,1,.36.18.61.61,0,0,1,.15.4c0,.06,0,.13,0,.22s0,.19-.07.29a1,1,0,0,1-.12.25.28.28,0,0,1-.18.13.47.47,0,0,1-.27,0,1,1,0,0,1-.2-.11,1.18,1.18,0,0,0-.19-.11.35.35,0,0,0-.23,0,1.61,1.61,0,0,0-.39.13,2.6,2.6,0,0,0-.45.26,2.89,2.89,0,0,0-.45.33,4.81,4.81,0,0,0-.4.36,2,2,0,0,0-.28.35.56.56,0,0,0-.11.28.24.24,0,0,0,.09.2.54.54,0,0,0,.2.1,2.74,2.74,0,0,0,.37.11l.43.1.41.11.35.1a3,3,0,0,1,.36.14,1.24,1.24,0,0,1,.27.17.81.81,0,0,1,.17.24.83.83,0,0,1,.06.34,1.21,1.21,0,0,1,0,.19,2.23,2.23,0,0,1,0,.23,2.27,2.27,0,0,1-.07.28l-.11.32a2.39,2.39,0,0,1-.13.28.75.75,0,0,1-.1.17,5.71,5.71,0,0,1-.66.63,8.14,8.14,0,0,1-.8.55,6.77,6.77,0,0,1-.84.44,3.3,3.3,0,0,1-.76.24,1.27,1.27,0,0,1-.39,0,1.6,1.6,0,0,1-.39-.11,1.2,1.2,0,0,1-.31-.21.41.41,0,0,1-.12-.28.45.45,0,0,1,0-.18,1.74,1.74,0,0,1,.1-.19l.14-.16A.44.44,0,0,1,162.61,48Z"/></g></g></svg>