<svg xmlns="http://www.w3.org/2000/svg" viewBox="0 0 159.02 55.72"><defs><style>.cls-1{fill:#fff;}</style></defs><g id="Camada_2" data-name="Camada 2"><g id="Camada_1-2" data-name="Camada 1"><path class="cls-1" d="M0,45.69a22.93,22.93,0,0,1,2.94-8.78C8,28,14.93,20.63,22.73,14.05c1.11-.93,2.35-2.15,3.8-.9a3.71,3.71,0,0,1,1.17,4.53c-.82,2-1.58,4.06-3.46,5.35-.66.45-2,1-2.18.86-2.21-2.73-3.16,0-4.25,1C13,29.48,8.53,34.43,5.55,40.45c-1.48,3-3.35,6.23-.52,9.38,2,2.27,5.74,1.79,9.92-1,6.44-4.38,11.82-9.91,17-15.68.79-.89,1.47-2.19,2.89-1,1.26,1,.67,2.22-.07,3.21C28.71,43.37,22,50.8,12.51,54.9,6.06,57.67-.11,53.16,0,45.69Z"/><path class="cls-1" d="M54.37,37.79c-.72.14-1.21.07-1.46-.22a1.88,1.88,0,0,1-.31-1.34,7.36,7.36,0,0,1,.15-1c.08-.39.18-.79.29-1.2.21-.71.43-1.42.67-2.13l.74-2.16.72-2.17c.23-.72.44-1.45.64-2.17,0-.06,0-.15,0-.25a.53.53,0,0,0-.1-.4.37.37,0,0,0-.36-.08,3.08,3.08,0,0,0-.84.34,4.38,4.38,0,0,0-.76.54,29.21,29.21,0,0,0-2.16,2.12,23.81,23.81,0,0,0-1.72,2.09c-.53.71-1,1.46-1.51,2.24s-1,1.64-1.51,2.57a23.32,23.32,0,0,0-1,2.3c-.23.62-.45,1.13-.64,1.52a2.81,2.81,0,0,1-.61.89,1.86,1.86,0,0,1-1,.43q-.71.15-1-.24a1.68,1.68,0,0,1-.22-1.09,6.33,6.33,0,0,1,.23-1.28L50,10.53a4.14,4.14,0,0,1,.21-.53,2.48,2.48,0,0,1,.36-.57A2.65,2.65,0,0,1,51.06,9a1.75,1.75,0,0,1,.67-.29l.59-.09a2.61,2.61,0,0,1,.56,0,.72.72,0,0,1,.41.2.59.59,0,0,1,.13.46,2.94,2.94,0,0,1-.05.33c0,.16-.08.35-.14.56-.8,2.91-1.64,5.93-2.54,9.08S48.88,25.53,48,28.75c.76-1.1,1.56-2.13,2.37-3.09a24,24,0,0,1,2.5-2.53,15.22,15.22,0,0,1,2.6-1.86,9.41,9.41,0,0,1,2.73-1,1.3,1.3,0,0,1,1.34.35,2,2,0,0,1,.4,1.48,4,4,0,0,1-.16.89c-.17.61-.37,1.23-.58,1.83s-.42,1.21-.64,1.83l-.67,1.86c-.22.63-.42,1.28-.6,1.93a24,24,0,0,0-.52,2.37q-.16,1.11-.24,1.77a8.24,8.24,0,0,1-.22,1.1,4.4,4.4,0,0,1-.42,1,2.86,2.86,0,0,1-.63.75A2,2,0,0,1,54.37,37.79Z"/><path class="cls-1" d="M70.61,32.63a9.31,9.31,0,0,1,.2-1.36,14.59,14.59,0,0,0,.24-1.95c-.4.38-.85.83-1.34,1.35s-1,1-1.53,1.5a17,17,0,0,1-1.55,1.27,3.85,3.85,0,0,1-1.42.67,2.72,2.72,0,0,1-1,0,1.82,1.82,0,0,1-.78-.3,3.78,3.78,0,0,1-1.24-1.34,3.57,3.57,0,0,1-.3-1.8,7.64,7.64,0,0,1,.14-1c.07-.36.18-.77.31-1.24A23,23,0,0,1,65,22.38a24,24,0,0,1,4.27-5.21,6.65,6.65,0,0,1,1.91-1.28A9.78,9.78,0,0,1,73,15.32a7.19,7.19,0,0,1,.9-.13l.89-.06c.27-.12.49-.21.67-.27a4.61,4.61,0,0,1,.53-.15,2.15,2.15,0,0,1,.87,0,1.1,1.1,0,0,1,.53.3,1.21,1.21,0,0,1,.27.53,2.57,2.57,0,0,1,.06.69,3.64,3.64,0,0,1-.2,1c-.11.32-.22.64-.34,1L74.28,28.72c-.08.56-.15,1.08-.21,1.54a8.93,8.93,0,0,1-.29,1.33c0,.12-.1.27-.16.46a2.2,2.2,0,0,1-.28.55,2.7,2.7,0,0,1-.46.5,1.61,1.61,0,0,1-.7.31,4.62,4.62,0,0,1-.86.1,1,1,0,0,1-.48-.12.52.52,0,0,1-.21-.3A1.7,1.7,0,0,1,70.61,32.63ZM65.15,28c-.06.19-.12.46-.2.8a7.16,7.16,0,0,0-.13,1,2.52,2.52,0,0,0,.08.9c.08.26.27.36.59.29a3.41,3.41,0,0,0,1.39-.63,9.12,9.12,0,0,0,1.25-1.09c.53-.55,1.07-1.15,1.62-1.82s1.08-1.34,1.58-2.05a22,22,0,0,0,1.33-2.13,10.89,10.89,0,0,0,.9-2.09c.11-.39.22-.83.31-1.33A10.87,10.87,0,0,0,74,18.54a1,1,0,0,0-.07-.47c-.06-.15-.19-.2-.39-.16a5.51,5.51,0,0,0-1.74.71,10.88,10.88,0,0,0-1.73,1.32,15.25,15.25,0,0,0-1.62,1.75,22.12,22.12,0,0,0-1.43,2,20.35,20.35,0,0,0-1.14,2.16A16.45,16.45,0,0,0,65.15,28Z"/><path class="cls-1" d="M92.79,13.42a4.09,4.09,0,0,0-1.34.58A13.42,13.42,0,0,0,90,15.15c-.52.46-1.06,1-1.6,1.52s-1.09,1.13-1.62,1.72c-.27.3-.53.57-.77.81a4.11,4.11,0,0,1-.73.59,12.47,12.47,0,0,0-.58,1.27q-.32.77-.63,1.68c-.21.6-.41,1.22-.6,1.84s-.36,1.21-.5,1.74c-.07.28-.13.55-.18.82s-.11.54-.17.83-.14.62-.23,1-.18.73-.3,1.16a1.91,1.91,0,0,1-.31.64,2.42,2.42,0,0,1-.43.42,1.94,1.94,0,0,1-.71.31,1.36,1.36,0,0,1-1.06-.13c-.27-.17-.38-.59-.34-1.26,0-.17,0-.36,0-.56a4.58,4.58,0,0,1,.15-.69c.33-1.26.64-2.41.94-3.43s.59-2,.88-2.85.59-1.71.89-2.5.59-1.58.9-2.38l1-2.48c.34-.86.7-1.81,1.08-2.84a1.41,1.41,0,0,1,.58-.66,2.49,2.49,0,0,1,1-.41,1.49,1.49,0,0,1,1.07.1.85.85,0,0,1,.38.86s0,.11-.05.21a1.89,1.89,0,0,1-.13.35L87,15c.52-.52,1.06-1,1.61-1.57s1.12-1,1.7-1.47A14.73,14.73,0,0,1,92,10.74a5.92,5.92,0,0,1,1.69-.65,2.84,2.84,0,0,1,2.56.46A3.47,3.47,0,0,1,97,13.42a13.07,13.07,0,0,1-.54,2.78c-.31,1.06-.69,2.21-1.14,3.44s-.93,2.53-1.45,3.89-1,2.74-1.44,4.13c-.13.38-.26.7-.38,1a3,3,0,0,1-.43.66,1.72,1.72,0,0,1-.55.42,2.87,2.87,0,0,1-.75.25c-.46.09-.76.06-.93-.09a1.06,1.06,0,0,1-.21-.84,8,8,0,0,1,.23-1.34c.13-.54.3-1.14.52-1.79s.47-1.36.75-2.11.58-1.52.91-2.31c.25-.63.51-1.26.76-1.9s.48-1.24.68-1.82.37-1.13.5-1.65a6.79,6.79,0,0,0,.24-1.42,1.85,1.85,0,0,0-.17-1C93.5,13.43,93.22,13.34,92.79,13.42Z"/><path class="cls-1" d="M99.65,36.35a.81.81,0,0,1-.31,0A.64.64,0,0,1,99,36.2a.84.84,0,0,1-.23-.31,1.09,1.09,0,0,1-.08-.51,2.67,2.67,0,0,1,.08-.45,8.46,8.46,0,0,1,.36-1.08,2.45,2.45,0,0,1,.5-.76,3.31,3.31,0,0,1,.83-.61c.34-.19.79-.4,1.35-.64.35-.15.69-.3,1-.46a3.51,3.51,0,0,0,.78-.51,15.72,15.72,0,0,0,1.62-2.09,16.94,16.94,0,0,0,1.17-2.11,23.09,23.09,0,0,0,.84-2.17c.23-.73.46-1.47.67-2.22.09-.26.16-.53.23-.8s.16-.58.26-.93c-.47.51-1,1-1.46,1.54a18.51,18.51,0,0,1-1.54,1.43,11.44,11.44,0,0,1-1.58,1.12,4.83,4.83,0,0,1-1.56.63,1.9,1.9,0,0,1-1-.1,3.19,3.19,0,0,1-1-.59,3.12,3.12,0,0,1-.79-1,2.42,2.42,0,0,1-.27-1.32,6.36,6.36,0,0,1,.17-1c.09-.37.17-.7.25-1a14.84,14.84,0,0,1,1-2.62A22.06,22.06,0,0,1,102,15.12a27.6,27.6,0,0,1,1.7-2.36c.61-.76,1.24-1.48,1.89-2.15a11.07,11.07,0,0,1,2.4-2,8.23,8.23,0,0,1,2.47-1,10.42,10.42,0,0,1,1-.15,3.16,3.16,0,0,1,.93,0,2.17,2.17,0,0,1,.8.37,2.46,2.46,0,0,1,.64.79,1.21,1.21,0,0,1,.12.6c0,.11,0,.36-.12.78l-.3,1.54c-.13.61-.27,1.29-.44,2.05s-.33,1.53-.51,2.3-.34,1.54-.51,2.29-.34,1.42-.49,2q-.39,1.58-.93,3.27A32.72,32.72,0,0,1,109.38,27a27,27,0,0,1-1.67,3.2A16.42,16.42,0,0,1,105.57,33a12.79,12.79,0,0,1-2.67,2.15A9.9,9.9,0,0,1,99.65,36.35Zm2.68-16.23-.12.49a2.93,2.93,0,0,0-.07.48,1.49,1.49,0,0,0,.09.7.39.39,0,0,0,.49.21,3.67,3.67,0,0,0,1.39-.73,14.87,14.87,0,0,0,1.62-1.45A22.21,22.21,0,0,0,107.29,18a12.87,12.87,0,0,0,1.18-1.76l.52-.93c.21-.4.43-.83.65-1.28s.41-.91.59-1.35a6,6,0,0,0,.34-1.16,1.21,1.21,0,0,0-.08-.58,2.92,2.92,0,0,1-.17-.73l-.15,0a2.55,2.55,0,0,0-1,.49,10.93,10.93,0,0,0-1.2,1c-.42.41-.84.85-1.28,1.33s-.84,1-1.22,1.46-.74,1-1.07,1.41a12,12,0,0,0-.75,1.17q-.4.71-.75,1.41A9.66,9.66,0,0,0,102.33,20.12Z"/><path class="cls-1" d="M116.35,16.92a3,3,0,0,1,.48-1.48,2.92,2.92,0,0,1,1.12-1c.14-.3.36-.73.66-1.26s.66-1.12,1.09-1.76.92-1.3,1.46-2a17.53,17.53,0,0,1,1.77-1.89A12.41,12.41,0,0,1,125,6a7.14,7.14,0,0,1,2.28-.9A5.08,5.08,0,0,1,129,5.06a2.43,2.43,0,0,1,1.2.5,2.17,2.17,0,0,1,.66,1A3.59,3.59,0,0,1,131,7.93a5.65,5.65,0,0,1-.23,1.28,6.21,6.21,0,0,1-1,2.06A10.72,10.72,0,0,1,128.12,13a14.3,14.3,0,0,1-2,1.41c-.72.41-1.44.77-2.16,1.09s-1.4.6-2.06.82-1.23.42-1.71.57a4.89,4.89,0,0,0-.32.92,5.25,5.25,0,0,0-.18,1.05,1.57,1.57,0,0,0,.7,1.57,3.13,3.13,0,0,0,2.19.16,7,7,0,0,0,1.58-.52,10.83,10.83,0,0,0,1.46-.8c.46-.3.9-.62,1.31-.94s.78-.65,1.13-1,.85-.73,1.24-1a2.73,2.73,0,0,1,1-.52c.3-.06.48,0,.55.13a.94.94,0,0,1,.09.48,2.66,2.66,0,0,1,0,.3c0,.1,0,.18,0,.25a4.28,4.28,0,0,1-.4,1.07,4.74,4.74,0,0,1-.72,1,16.74,16.74,0,0,1-3.87,3,14.85,14.85,0,0,1-4.12,1.49,9.81,9.81,0,0,1-1,.14,6.4,6.4,0,0,1-1.16,0,4.29,4.29,0,0,1-1.18-.26,2.48,2.48,0,0,1-1-.65,2.89,2.89,0,0,1-.67-1.17,4.91,4.91,0,0,1-.17-1.84,11.13,11.13,0,0,1,.34-2.06.58.58,0,0,1-.41-.17A.76.76,0,0,1,116.35,16.92Zm11.26-7.51a.49.49,0,0,0,0-.18c0-.05,0-.11,0-.17a.7.7,0,0,0-.3-.71,1.2,1.2,0,0,0-.83-.09A3.72,3.72,0,0,0,125,9a9.91,9.91,0,0,0-1.46,1.38A13.77,13.77,0,0,0,122.29,12a14.68,14.68,0,0,0-.87,1.53,16.67,16.67,0,0,0,2.33-.84,12.07,12.07,0,0,0,1.87-1,7.19,7.19,0,0,0,1.31-1.14A3.09,3.09,0,0,0,127.61,9.41Z"/><path class="cls-1" d="M134.47,17.24a.72.72,0,0,1,.25,0l.25,0a1.47,1.47,0,0,0,.31,0,1.65,1.65,0,0,0,.45-.05,10.68,10.68,0,0,0,1.84-.56,16.19,16.19,0,0,0,1.93-.88,10.39,10.39,0,0,0,1.57-1,1.92,1.92,0,0,0,.77-1,1.94,1.94,0,0,0,.08-.41.69.69,0,0,0-.25-.57,2.8,2.8,0,0,0-.69-.42,5.84,5.84,0,0,0-.92-.3l-.92-.24-.57-.15a3.87,3.87,0,0,1-.87-.29,3.18,3.18,0,0,1-.77-.47,3.1,3.1,0,0,1-.62-.72,3.11,3.11,0,0,1-.36-1c0-.17-.06-.34-.08-.51a3.57,3.57,0,0,1,0-.57,3.33,3.33,0,0,1,.38-1.2,8.9,8.9,0,0,1,.9-1.44A13.82,13.82,0,0,1,138.38,4a10.74,10.74,0,0,1,1.43-1.23c.37-.34.72-.65,1.06-.94a11.06,11.06,0,0,1,1-.75,8.17,8.17,0,0,1,1-.57A4.56,4.56,0,0,1,144,.2c.35-.07.72-.13,1.13-.18a3.57,3.57,0,0,1,1.1.05,1.48,1.48,0,0,1,.81.45,1.3,1.3,0,0,1,.28,1,4.3,4.3,0,0,1-.09.57,5.4,5.4,0,0,1-.21.73,3.61,3.61,0,0,1-.34.65.73.73,0,0,1-.43.34,1.09,1.09,0,0,1-.66,0,2.75,2.75,0,0,1-.44-.28c-.14-.11-.28-.2-.42-.29a.82.82,0,0,0-.55-.06,4.12,4.12,0,0,0-.94.35,8.83,8.83,0,0,0-1.12.66,11.36,11.36,0,0,0-1.13.87A11.64,11.64,0,0,0,140,6a6.82,6.82,0,0,0-.74.89,1.55,1.55,0,0,0-.3.74.62.62,0,0,0,.16.5,1.18,1.18,0,0,0,.47.26,6.05,6.05,0,0,0,.85.28l1,.26,1,.26.81.26a7.81,7.81,0,0,1,.81.36,2.3,2.3,0,0,1,.61.43,1.7,1.7,0,0,1,.36.61,2.38,2.38,0,0,1,.08.88,4.53,4.53,0,0,1-.06.5c0,.17-.08.37-.14.6s-.12.43-.22.71l-.33.81a6.24,6.24,0,0,1-.35.73,2.26,2.26,0,0,1-.28.45A14.6,14.6,0,0,1,142,17.14a19.27,19.27,0,0,1-2,1.44,18.34,18.34,0,0,1-2.06,1.13,9.16,9.16,0,0,1-1.86.64,2.83,2.83,0,0,1-.92,0,2.88,2.88,0,0,1-.9-.29,2,2,0,0,1-.68-.54,1,1,0,0,1-.24-.71,1.3,1.3,0,0,1,.13-.45,3,3,0,0,1,.29-.49,2.48,2.48,0,0,1,.36-.42A.74.74,0,0,1,134.47,17.24Z"/><path class="cls-1" d="M110.24,40.33c.06-.3.15-.65.24-1s.2-.83.3-1.27.22-.91.33-1.38.21-.92.3-1.36l0-.11a.64.64,0,0,1,.13-.17,1.16,1.16,0,0,1,.2-.16.83.83,0,0,1,.29-.1,1,1,0,0,1,.24,0,.65.65,0,0,1,.21,0,.33.33,0,0,1,.15.11.36.36,0,0,1,0,.19v.05s0,0,0,0l-.19.82c-.22.93-.43,1.86-.65,2.79s-.44,1.87-.65,2.8l0,.12a.55.55,0,0,1-.08.15A.49.49,0,0,1,111,42a.34.34,0,0,1-.17.08.64.64,0,0,1-.34,0,.58.58,0,0,1-.25-.15.73.73,0,0,1-.16-.23.85.85,0,0,1,0-.26v-.07a.2.2,0,0,1,0-.07ZM112,32.27a2.72,2.72,0,0,1,.12-.4,1.24,1.24,0,0,1,.33-.46,2.27,2.27,0,0,1,.28-.18.94.94,0,0,1,.24-.1.21.21,0,0,1,.15,0l.14.08a1.85,1.85,0,0,1,.14.14.23.23,0,0,1,.24.09.61.61,0,0,1,.06.28,1.5,1.5,0,0,1,0,.22c0,.06,0,.12,0,.16a.77.77,0,0,1-.17.32,1.44,1.44,0,0,1-.28.27,1.85,1.85,0,0,1-.33.21,1.24,1.24,0,0,1-.3.11.42.42,0,0,1-.26,0,.6.6,0,0,1-.24-.21.35.35,0,0,1-.1-.26.75.75,0,0,1,0-.15Z"/><path class="cls-1" d="M113.93,38.46a5.67,5.67,0,0,1,.23-.85,7.19,7.19,0,0,1,.38-.87,6.86,6.86,0,0,1,.54-.87,7.14,7.14,0,0,1,.74-.85,6.63,6.63,0,0,1,.61-.57,7.37,7.37,0,0,1,.65-.49,4.91,4.91,0,0,1,.67-.37,2.88,2.88,0,0,1,.67-.21,1.64,1.64,0,0,1,.42,0,1.36,1.36,0,0,1,.36,0c0-.18.17-.67.36-1.47s.44-1.9.73-3.32a1,1,0,0,1,.22-.37.55.55,0,0,1,.34-.2l.29,0a.54.54,0,0,1,.25.06.52.52,0,0,1,.18.18.78.78,0,0,1,.07.34l-1.37,6.25c0,.18-.07.41-.11.7s-.06.61-.09.93,0,.64-.07,1,0,.58,0,.8a4.14,4.14,0,0,1-.08.85,3.09,3.09,0,0,1-.09.31.71.71,0,0,1-.12.23.62.62,0,0,1-.2.15,1.54,1.54,0,0,1-.3.09.94.94,0,0,1-.33,0,.26.26,0,0,1-.18-.09.29.29,0,0,1-.07-.17c0-.06,0-.13,0-.21a1.79,1.79,0,0,0,0-.23.77.77,0,0,0-.06-.23l-.24.2-.31.26-.29.24-.2.16-.38.27a4.92,4.92,0,0,1-.45.28,3,3,0,0,1-.51.25,2.49,2.49,0,0,1-.53.16,1.72,1.72,0,0,1-.64,0,1.13,1.13,0,0,1-.56-.24A1.22,1.22,0,0,1,114,40a2.12,2.12,0,0,1-.16-.81c0-.11,0-.23,0-.34A2.32,2.32,0,0,1,113.93,38.46Zm1.25-.29a2.48,2.48,0,0,0-.05.45,2.3,2.3,0,0,0,.05.39.59.59,0,0,0,.14.31.61.61,0,0,0,.26.18.87.87,0,0,0,.43,0,1.05,1.05,0,0,0,.31-.11,2.59,2.59,0,0,0,.33-.19L117,39l.24-.2.51-.46a6,6,0,0,0,.42-.46,3.11,3.11,0,0,0,.54-1.16q.06-.32.12-.57l.09-.5c0-.16.05-.33.07-.49s0-.36.06-.56a.2.2,0,0,0-.1-.07.33.33,0,0,0-.18,0,2.71,2.71,0,0,0-.64.22,5.55,5.55,0,0,0-.72.42,5.41,5.41,0,0,0-.71.59,5.49,5.49,0,0,0-.64.72,4.37,4.37,0,0,0-.52.82A3.8,3.8,0,0,0,115.18,38.17Z"/><path class="cls-1" d="M122.16,38.15l.24-1,.31-1.27c.11-.45.21-.91.32-1.38s.21-.92.31-1.36a.31.31,0,0,1,0-.11.91.91,0,0,1,.61-.43l.24,0,.21,0a.42.42,0,0,1,.15.11.31.31,0,0,1,.06.19v.05a.09.09,0,0,1,0,0l-.19.83c-.21.92-.43,1.85-.65,2.78s-.44,1.87-.64,2.8l0,.12a1.09,1.09,0,0,1-.08.15l-.12.14a.48.48,0,0,1-.18.07.64.64,0,0,1-.34,0,.82.82,0,0,1-.25-.16.51.51,0,0,1-.15-.23.62.62,0,0,1-.06-.26v-.06a.17.17,0,0,1,0-.07Zm1.77-8a2.48,2.48,0,0,1,.12-.41,1.52,1.52,0,0,1,.33-.46,1.31,1.31,0,0,1,.29-.17,1.09,1.09,0,0,1,.24-.11l.15,0,.13.09a.62.62,0,0,1,.14.14c.13,0,.2,0,.24.09a.54.54,0,0,1,.06.27.78.78,0,0,1,0,.22,1.57,1.57,0,0,1,0,.16.88.88,0,0,1-.16.32,2.47,2.47,0,0,1-.28.28,1.68,1.68,0,0,1-.34.2,1.11,1.11,0,0,1-.3.11.44.44,0,0,1-.26,0,.81.81,0,0,1-.23-.21.43.43,0,0,1-.1-.16.45.45,0,0,1,0-.11.76.76,0,0,1,0-.15A.5.5,0,0,1,123.93,30.1Z"/><path class="cls-1" d="M126,36a5.45,5.45,0,0,1,.32-1,8.19,8.19,0,0,1,.58-1.14,9,9,0,0,1,.88-1.18A9.33,9.33,0,0,1,129,31.46a1.92,1.92,0,0,1,.33-.21,2.07,2.07,0,0,1,.47-.18,1.19,1.19,0,0,1,.76-.45,1.38,1.38,0,0,1,1,.12,1.8,1.8,0,0,1,.66.68l.15.3a1.81,1.81,0,0,1,.13.31,3.21,3.21,0,0,1,.08.36,3,3,0,0,1,0,.45,4.16,4.16,0,0,1-.16,1.23,6.8,6.8,0,0,1-.49,1.29,9.78,9.78,0,0,1-.8,1.26,9.39,9.39,0,0,1-1,1.15,4.12,4.12,0,0,1-.87.61,3.77,3.77,0,0,1-1.06.35,2.74,2.74,0,0,1-1,0,1.56,1.56,0,0,1-.69-.31,1.58,1.58,0,0,1-.42-.61,2.69,2.69,0,0,1-.15-.85A4.94,4.94,0,0,1,126,36Zm1.21-.12a2.1,2.1,0,0,0-.06.33c0,.1,0,.2,0,.3a1.33,1.33,0,0,0,.07.45.7.7,0,0,0,.2.32.78.78,0,0,0,.35.18,1.26,1.26,0,0,0,.51,0,2.24,2.24,0,0,0,1-.47,4.69,4.69,0,0,0,.84-.88,5.72,5.72,0,0,0,.6-1,4.25,4.25,0,0,0,.34-1c0-.18.08-.35.11-.51a3.62,3.62,0,0,0,0-.43,1,1,0,0,0-.08-.35c-.05-.1-.11-.22-.18-.34l-.14-.24a1.87,1.87,0,0,1-.12-.25l-.12.2a.9.9,0,0,1-.2.18,1.6,1.6,0,0,1-.35.18c-.15.06-.35.13-.59.2A2,2,0,0,0,129,33a3.72,3.72,0,0,0-.48.49c-.16.18-.3.38-.45.58a6.75,6.75,0,0,0-.37.62c-.11.21-.21.41-.29.6A2.91,2.91,0,0,0,127.21,35.84Z"/><path class="cls-1" d="M133.86,36.89c.14-.61.27-1.17.4-1.7l.37-1.51c.12-.49.24-1,.35-1.41s.23-.91.33-1.38a2.49,2.49,0,0,0,.07-.52,2.35,2.35,0,0,1,.06-.51.4.4,0,0,1,.1-.18,1.29,1.29,0,0,1,.17-.16l.2-.12.2-.06a1,1,0,0,1,.34,0,.56.56,0,0,1,.22.09.36.36,0,0,1,.12.18.66.66,0,0,1,0,.25,2,2,0,0,1-.07.53c0,.18-.12.38-.19.6.23-.23.46-.45.7-.65a6.53,6.53,0,0,1,.73-.57,5,5,0,0,1,.78-.44,3.5,3.5,0,0,1,.83-.27,1.7,1.7,0,0,1,.39,0,.93.93,0,0,1,.36.14.79.79,0,0,1,.27.3,1.35,1.35,0,0,1,.13.51c.2-.19.42-.37.64-.56s.44-.36.67-.52a6.25,6.25,0,0,1,.69-.41,2.67,2.67,0,0,1,.67-.23,2,2,0,0,1,.81,0,1,1,0,0,1,.51.25A1,1,0,0,1,145,29a2.22,2.22,0,0,1,.09.6,6.59,6.59,0,0,1-.05.75c-.05.26-.09.51-.14.75-.13.6-.28,1.18-.44,1.72s-.35,1.1-.55,1.67l-.14.42a2.65,2.65,0,0,1-.18.42,1.2,1.2,0,0,1-.25.33.54.54,0,0,1-.33.18.82.82,0,0,1-.59,0,.46.46,0,0,1-.16-.4,1,1,0,0,1,0-.17.58.58,0,0,1,0-.19,2,2,0,0,1,.13-.35c.06-.16.13-.32.21-.5s.16-.36.23-.54a4,4,0,0,0,.17-.47l.21-.78c.08-.29.16-.59.23-.89s.13-.58.18-.85a3.43,3.43,0,0,0,.06-.64,1.8,1.8,0,0,0,0-.22.49.49,0,0,0-.08-.18.37.37,0,0,0-.16-.1.5.5,0,0,0-.25,0,1.67,1.67,0,0,0-.52.22,5.65,5.65,0,0,0-.62.45,8.36,8.36,0,0,0-.62.58,6.51,6.51,0,0,0-.52.6,2.85,2.85,0,0,1-.28.35,2.42,2.42,0,0,1-.28.22l-.07.21c0,.12-.08.26-.13.43l-.16.53c-.05.2-.11.37-.15.54s-.09.31-.13.42a1.23,1.23,0,0,0,0,.18,3.54,3.54,0,0,0-.08.45c0,.15,0,.29-.06.43s0,.28-.05.44a2.15,2.15,0,0,1-.09.44,1,1,0,0,1-.23.37.91.91,0,0,1-.44.21.59.59,0,0,1-.27,0,.62.62,0,0,1-.21-.15.72.72,0,0,1-.14-.24.89.89,0,0,1-.07-.28c.11-.47.21-.89.31-1.27s.2-.74.31-1.09.19-.69.29-1,.18-.73.28-1.14c0-.1,0-.2.05-.29s0-.18,0-.25a.55.55,0,0,0-.08-.28.25.25,0,0,0-.26-.07,1.72,1.72,0,0,0-.59.23,3.71,3.71,0,0,0-.63.5c-.23.22-.48.49-.75.8s-.59.7-.95,1.14a2.83,2.83,0,0,0-.15.45c-.06.21-.12.44-.18.68s-.12.46-.17.67-.08.34-.09.41a4,4,0,0,0-.1.54c0,.15,0,.28-.05.4s0,.16,0,.3a2.36,2.36,0,0,1-.09.43,1.44,1.44,0,0,1-.21.41.58.58,0,0,1-.37.23.72.72,0,0,1-.55-.09.5.5,0,0,1-.22-.43V37S133.85,36.93,133.86,36.89Z"/><path class="cls-1" d="M150.22,34.08a3.68,3.68,0,0,1,0-.53,4.3,4.3,0,0,0,0-.76c-.16.15-.33.33-.52.52s-.39.4-.6.58a5.31,5.31,0,0,1-.62.49,1.43,1.43,0,0,1-.57.26,1.2,1.2,0,0,1-.42,0,.86.86,0,0,1-.34-.12,1.71,1.71,0,0,1-.57-.52,1.37,1.37,0,0,1-.18-.7,2.77,2.77,0,0,1,0-.39q0-.21.09-.48a7.69,7.69,0,0,1,.91-2.35,8.6,8.6,0,0,1,1.64-2,2.36,2.36,0,0,1,.77-.49,3.81,3.81,0,0,1,.76-.22l.38-.05.38,0,.27-.1a.79.79,0,0,1,.22-.06.94.94,0,0,1,.37,0,.56.56,0,0,1,.23.12.46.46,0,0,1,.13.21.75.75,0,0,1,.05.26,1.58,1.58,0,0,1-.05.38c0,.13-.08.25-.11.38l-.9,4.1c0,.22,0,.41,0,.6a2.72,2.72,0,0,1-.08.51s0,.11-.05.18a1,1,0,0,1-.1.21,1.12,1.12,0,0,1-.18.2,1,1,0,0,1-.29.12l-.36,0a.41.41,0,0,1-.21-.05.14.14,0,0,1-.09-.11A.48.48,0,0,1,150.22,34.08Zm-2.46-1.81c0,.07,0,.18,0,.31a2.56,2.56,0,0,0,0,.39.91.91,0,0,0,.06.35.22.22,0,0,0,.26.12,1.33,1.33,0,0,0,.57-.25,3.28,3.28,0,0,0,.5-.42c.2-.21.41-.44.62-.7a8.66,8.66,0,0,0,.6-.79,7.31,7.31,0,0,0,.5-.83,3.27,3.27,0,0,0,.31-.81,3.35,3.35,0,0,0,.09-.51,2.43,2.43,0,0,0,0-.52.39.39,0,0,0,0-.18.13.13,0,0,0-.17-.06,2.12,2.12,0,0,0-.72.27,4.09,4.09,0,0,0-.69.51,4.52,4.52,0,0,0-.62.68,6.12,6.12,0,0,0-.54.79,7.31,7.31,0,0,0-.42.84A5.82,5.82,0,0,0,147.76,32.27Z"/><path class="cls-1" d="M154.07,32.37h.35a.72.72,0,0,0,.19,0,4.65,4.65,0,0,0,.76-.21,6.26,6.26,0,0,0,.79-.34,3.77,3.77,0,0,0,.63-.39.78.78,0,0,0,.3-.37,1,1,0,0,0,0-.16.32.32,0,0,0-.13-.22,1,1,0,0,0-.31-.16,3.56,3.56,0,0,0-.39-.13l-.4-.09-.25-.06a1.58,1.58,0,0,1-.37-.11,1.48,1.48,0,0,1-.35-.19,1.24,1.24,0,0,1-.28-.28,1.22,1.22,0,0,1-.18-.4c0-.07,0-.14-.06-.2a1.5,1.5,0,0,1,0-.22,1.2,1.2,0,0,1,.12-.47,3.81,3.81,0,0,1,.34-.56,6,6,0,0,1,.48-.56,3.49,3.49,0,0,1,.56-.47l.42-.36a3.43,3.43,0,0,1,.41-.29,2.82,2.82,0,0,1,.42-.22,2.15,2.15,0,0,1,.45-.14,3.5,3.5,0,0,1,.48-.06,1.46,1.46,0,0,1,.47,0,.61.61,0,0,1,.35.17.53.53,0,0,1,.15.41,1,1,0,0,1,0,.22,1.57,1.57,0,0,1-.06.28c0,.09-.08.18-.12.25a.28.28,0,0,1-.18.13.4.4,0,0,1-.27,0,.55.55,0,0,1-.2-.11L158,27a.35.35,0,0,0-.23,0,1.37,1.37,0,0,0-.39.13,3.47,3.47,0,0,0-.45.26,4.84,4.84,0,0,0-.46.33l-.39.36a2,2,0,0,0-.28.35.5.5,0,0,0-.11.28.26.26,0,0,0,.08.2.68.68,0,0,0,.21.1,2.74,2.74,0,0,0,.37.11l.42.11.42.1.35.1c.13.05.25.09.35.14a1.14,1.14,0,0,1,.27.17.69.69,0,0,1,.18.24.86.86,0,0,1,.06.34,1.41,1.41,0,0,1,0,.2c0,.06,0,.14,0,.23a2.18,2.18,0,0,1-.07.27l-.11.32a1.82,1.82,0,0,1-.13.28.57.57,0,0,1-.1.17,4.52,4.52,0,0,1-.67.63,8.68,8.68,0,0,1-.79.56,8.34,8.34,0,0,1-.84.43,3.36,3.36,0,0,1-.77.24,1.21,1.21,0,0,1-.38,0,1.82,1.82,0,0,1-.4-.11,1.14,1.14,0,0,1-.3-.21.41.41,0,0,1-.12-.28.28.28,0,0,1,0-.17l.1-.2.14-.16A.41.41,0,0,1,154.07,32.37Z"/></g></g></svg>