<svg xmlns="http://www.w3.org/2000/svg" viewBox="0 0 164.22 77.23"><defs><style>.cls-1{fill:#fff;}</style></defs><g id="Camada_2" data-name="Camada 2"><g id="Camada_1-2" data-name="Camada 1"><polygon class="cls-1" points="47.89 52.79 52.99 55.87 52.99 65.6 47.31 59.2 47.89 52.79"/><path class="cls-1" d="M45.42,64.08l4.71,4.42a2,2,0,0,1,.16,2.77A24.54,24.54,0,0,1,43.41,77a1.83,1.83,0,0,1-2.38-.7l-1.54-2.52a1,1,0,0,1,.13-1.18C41.11,71.07,45.31,66.47,45.42,64.08Z"/><path class="cls-1" d="M42.26,59.91S41,65.35,38,68.38l-2.14-8.47,3.28-4.42Z"/><path class="cls-1" d="M31.77,64.08l2.17,5.58a2,2,0,0,1-.6,2.29,9.52,9.52,0,0,1-5.1,2,38,38,0,0,1-4.95.15,1.84,1.84,0,0,1-1.75-1.84v-3a1,1,0,0,1,.86-1C24.24,68.11,28.65,67.3,31.77,64.08Z"/><polygon class="cls-1" points="31.14 58.65 22.68 64.08 24.95 56 31.14 52.79 31.14 58.65"/><path class="cls-1" d="M19.77,57.13,18.16,63.9a2,2,0,0,1-2.24,1.52c-2.29-.31-6.19-1.17-8.64-3.53A1.87,1.87,0,0,1,7,59.53l1.86-2.88A1,1,0,0,1,10,56.26,24.2,24.2,0,0,0,19.77,57.13Z"/><polygon class="cls-1" points="21.04 52.79 24.7 47.41 17.63 46.4 13.02 52.79 21.04 52.79"/><path class="cls-1" d="M14,45.26,8.37,49.9A2,2,0,0,1,5.94,50,17,17,0,0,1,.18,43.57a1.84,1.84,0,0,1,.5-2.21l2.64-2.18a1,1,0,0,1,1.36.13A20.55,20.55,0,0,0,14,45.26Z"/><polygon class="cls-1" points="16.87 41.98 8.15 37.94 16.87 35.28 21.54 38.53 16.87 41.98"/><polygon class="cls-1" points="24.7 30.36 18.86 30.86 13.02 22.52 21.54 25.18 24.7 30.36"/><polygon class="cls-1" points="30.51 24.67 31.14 18.23 24.7 12.17 24.7 21.26 30.51 24.67"/><polygon class="cls-1" points="38.47 21.51 35.06 17.09 39.1 8.38 42.26 16.84 38.47 21.51"/><polygon class="cls-1" points="47.31 24.04 47.31 18.42 54.51 13.43 52.99 20 47.31 24.04"/><polygon class="cls-1" points="52.99 29.34 56.66 24.67 65.12 24.67 59.06 30.48 52.99 29.34"/><polygon class="cls-1" points="55.77 38.53 60.7 35.28 68.15 39.83 60.7 41.98 55.77 38.53"/><polygon class="cls-1" points="53.63 46.4 59.56 46.4 64.24 54.61 56.41 52.79 53.63 46.4"/><path class="cls-1" d="M57.16,57.51s1,6.15-.45,9.51A1,1,0,0,0,57,68.11l1.8,1.56a1.83,1.83,0,0,0,2.68-.3A19.22,19.22,0,0,0,65,61.05a2,2,0,0,0-1.58-2.23Z"/><path class="cls-1" d="M68.84,54.74a18.12,18.12,0,0,0-4.6-9.35L70.1,43.7a2,2,0,0,1,2.4,1.11,19.69,19.69,0,0,1,1.69,9.27,1.85,1.85,0,0,1-2,1.74l-2.47-.25A1,1,0,0,1,68.84,54.74Z"/><path class="cls-1" d="M73.9,38l3-1.83a1.83,1.83,0,0,0,.61-2.52,19.77,19.77,0,0,0-6-6.21,2,2,0,0,0-2.43.2L63.6,32.61s5.7.76,9,5.19A1,1,0,0,0,73.9,38Z"/><path class="cls-1" d="M68.81,20.73l1.58-1.87a1.84,1.84,0,0,0-.27-2.64,18.53,18.53,0,0,0-8.6-4,2,2,0,0,0-2.22,1.51l-1.63,6.62s7.06-1.5,9.86.52A.94.94,0,0,0,68.81,20.73Z"/><path class="cls-1" d="M55.09,8.89c-1.94.6-7.49,2.47-9,4.54a20.89,20.89,0,0,0-1.38-5.64,2,2,0,0,1,.72-2.57,13.29,13.29,0,0,1,8.76-1.9,1.84,1.84,0,0,1,1.62,1.83V8A1,1,0,0,1,55.09,8.89Z"/><path class="cls-1" d="M27.35,5.86A33.85,33.85,0,0,1,34.15.29a1.85,1.85,0,0,1,2.6.65l1.52,2.71a1,1,0,0,1-.2,1.21l-1,.86c-2,1.65-4.68,7.08-4.68,7.08L27.57,8.73A2,2,0,0,1,27.35,5.86Z"/><path class="cls-1" d="M20.55,9.85c-.3,1.74-1,6.94.11,9.64l-6.73-1.23a2,2,0,0,1-1.54-2.61A36.41,36.41,0,0,1,15.75,8a1.83,1.83,0,0,1,2.6-.44L20.16,8.9A1,1,0,0,1,20.55,9.85Z"/><path class="cls-1" d="M14,31.62a23.91,23.91,0,0,1-5.62-9A1,1,0,0,0,7.52,22l-1.94-.22a1.84,1.84,0,0,0-2,1.84c0,2.3.29,6.06,1.8,8.75a2,2,0,0,0,2.27,1Z"/><path class="cls-1" d="M109.55,24.47a4.86,4.86,0,0,0-5.32-4.12,4.93,4.93,0,0,0-4.43,2.31,9.72,9.72,0,0,0-1.4,5.42,13,13,0,0,0,.3,2.82,8.22,8.22,0,0,0,1,2.51q1.32,2.43,4.7,2.47a4.77,4.77,0,0,0,3.53-1.38,6.67,6.67,0,0,0,1.81-3.4h1.66a8.32,8.32,0,0,1-2.23,4.31,6.81,6.81,0,0,1-5.1,1.86q-3.87-.06-5.58-2.76a11.24,11.24,0,0,1-1.69-6.39c0-3.31.77-5.67,2.26-7.08a7.66,7.66,0,0,1,5.6-2.08q5.46,0,6.55,5.51Z"/><path class="cls-1" d="M114.35,28.15a10.29,10.29,0,0,1,2-6.51A6.93,6.93,0,0,1,122.13,19a7.19,7.19,0,0,1,6,2.66,10.45,10.45,0,0,1,2,6.52,10.4,10.4,0,0,1-2,6.43,7.06,7.06,0,0,1-5.92,2.7,7,7,0,0,1-5.87-2.7A10.26,10.26,0,0,1,114.35,28.15Zm7.89,7.73A5.36,5.36,0,0,0,127,33.53a9.59,9.59,0,0,0,1.47-5.38c-.08-5.1-2.17-7.69-6.28-7.8a5.36,5.36,0,0,0-4.7,2.35A9.63,9.63,0,0,0,116,28.15a11.37,11.37,0,0,0,.38,2.93,6.87,6.87,0,0,0,1.12,2.45A5.35,5.35,0,0,0,122.24,35.88Z"/><path class="cls-1" d="M133.14,28.15a10.3,10.3,0,0,1,2-6.51A6.92,6.92,0,0,1,140.93,19a7.18,7.18,0,0,1,6,2.66,10.39,10.39,0,0,1,2,6.52,10.34,10.34,0,0,1-2,6.43,7,7,0,0,1-5.91,2.7,7,7,0,0,1-5.87-2.7A10.26,10.26,0,0,1,133.14,28.15Zm7.9,7.73a5.36,5.36,0,0,0,4.76-2.35,9.59,9.59,0,0,0,1.47-5.38c-.08-5.1-2.17-7.69-6.28-7.8a5.34,5.34,0,0,0-4.7,2.35,9.63,9.63,0,0,0-1.52,5.45,11,11,0,0,0,.38,2.93,6.71,6.71,0,0,0,1.12,2.45A5.34,5.34,0,0,0,141,35.88Z"/><path class="cls-1" d="M152.53,36.81V19.42h6.17a8.86,8.86,0,0,1,2.75.36,4.07,4.07,0,0,1,1.66,1.06,5.13,5.13,0,0,1,1.11,3.43,4.07,4.07,0,0,1-2,3.87,9,9,0,0,1-4.43,1h-3.59v7.68Zm5.26-9.07a7.11,7.11,0,0,0,3.55-.7,3.1,3.1,0,0,0,1.25-2.88c0-2.22-1.43-3.33-4.33-3.35h-4.1v6.93Z"/><path class="cls-1" d="M109.55,45.47a4.86,4.86,0,0,0-5.32-4.12,4.93,4.93,0,0,0-4.43,2.31,9.72,9.72,0,0,0-1.4,5.42,13,13,0,0,0,.3,2.82,8.22,8.22,0,0,0,1,2.51q1.32,2.43,4.7,2.47a4.77,4.77,0,0,0,3.53-1.38,6.67,6.67,0,0,0,1.81-3.4h1.66a8.32,8.32,0,0,1-2.23,4.31,6.81,6.81,0,0,1-5.1,1.86q-3.87-.06-5.58-2.76a11.24,11.24,0,0,1-1.69-6.39c0-3.31.77-5.67,2.26-7.08a7.66,7.66,0,0,1,5.6-2.08q5.46,0,6.55,5.51Z"/><path class="cls-1" d="M115.56,57.81V40.42h1.63V57.81Z"/><path class="cls-1" d="M122.41,52.63A4.45,4.45,0,0,0,124,55.91a5.11,5.11,0,0,0,3.28,1,4.41,4.41,0,0,0,3.31-1.11,3.51,3.51,0,0,0,1-2.49,3,3,0,0,0-.42-1.66,3.06,3.06,0,0,0-1.17-1,7.33,7.33,0,0,0-1.62-.66c-.61-.16-1.25-.31-1.92-.46a19.23,19.23,0,0,1-1.87-.56,6.3,6.3,0,0,1-1.66-.83,4.24,4.24,0,0,1-1.62-3.46,4.43,4.43,0,0,1,1.45-3.28A6.25,6.25,0,0,1,127,40a5.66,5.66,0,0,1,4.26,1.53,5,5,0,0,1,1.38,3.67H131.1a3.53,3.53,0,0,0-1.24-2.93,4.77,4.77,0,0,0-2.89-.88,4.52,4.52,0,0,0-3.48,1.24,3.2,3.2,0,0,0-.78,2.61,2.2,2.2,0,0,0,.71,1.33,3.61,3.61,0,0,0,1.29.84,10.88,10.88,0,0,0,1.72.53l1.85.44a13.2,13.2,0,0,1,1.85.51,5.22,5.22,0,0,1,1.55.87,3.63,3.63,0,0,1,1.08,1.36,5,5,0,0,1,.41,2.12c-.06,3.34-2.13,5-6.19,5.07a6.46,6.46,0,0,1-4.36-1.42,5.11,5.11,0,0,1-1.81-4.22Z"/><path class="cls-1" d="M136.48,57.81V40.42h11.25v1.39h-9.62v6.31h8.68v1.39h-8.68v6.91H148v1.39Z"/><path class="cls-1" d="M151.24,57.81V40.42h1.63v16h9v1.39Z"/></g></g></svg>