<svg xmlns="http://www.w3.org/2000/svg" viewBox="0 0 374.24 85.92"><defs><style>.cls-1{fill:#fff;}</style></defs><g id="Camada_2" data-name="Camada 2"><g id="Camada_1-2" data-name="Camada 1"><path class="cls-1" d="M0,85.92H85.92V0H0ZM55.07,6.56a38.38,38.38,0,0,1,0,72.79ZM42.94,4.62a42.53,42.53,0,0,1,8.1.85C51,24.93,32.22,41,12.79,41H4.66C6,21,22.51,4.62,42.94,4.62ZM12.79,45C32.22,45,51,61,51,80.46a43.87,43.87,0,0,1-8.1.86C22.5,81.29,5.43,64.87,4.66,45Z"/><path class="cls-1" d="M114.67,50.51V45.1h17.88V38.19H114.67v-10h19V21.25H107.35v29c0,7.32,3.12,12.32,10.44,13.35a2.17,2.17,0,0,0,.42.07h.13a21.78,21.78,0,0,0,2.32.13H134.2V56.88H120.72C118.39,56.88,114.67,55.73,114.67,50.51Z"/><polygon class="cls-1" points="139.4 41.34 139.4 63.77 146.72 63.77 146.72 41.19 146.72 21.24 139.4 21.24 139.4 41.34"/><path class="cls-1" d="M167.71,32c-9.25,0-16.18,6.38-16.18,16.3v.25c0,9.68,6.68,15.93,16.37,15.93a16.72,16.72,0,0,0,13-5.51l-4.41-4.29a10.65,10.65,0,0,1-8.34,3.55c-5.45,0-9.07-3.18-9.31-8.09h24c.12-1.22.12-2.57.12-2.57C183,39,176.9,32,167.71,32ZM159,45c.31-3.74,4.11-6.75,8.7-6.75,4.29,0,7.78,3.07,7.78,6.75Z"/><path class="cls-1" d="M203.54,38.6A10.39,10.39,0,0,1,211.39,42l4.53-4.72a16.23,16.23,0,0,0-12.38-5.33c-9.31,0-16.79,6.93-16.79,16.36s7.48,16.37,16.79,16.37a16.24,16.24,0,0,0,12.38-5.34l-4.53-4.71A10.39,10.39,0,0,1,203.54,58a9.37,9.37,0,0,1-9.5-9.69A9.37,9.37,0,0,1,203.54,38.6Z"/><path class="cls-1" d="M227.8,50.52h0V39.67h6.66V33H227.8V21.24h-7.32V51h0c.21,6.91,3.35,11.62,10.41,12.61a2.3,2.3,0,0,0,.42.07h.14a21.55,21.55,0,0,0,2.31.14h.78l0-6.88h-.74C231.52,56.89,227.8,55.74,227.8,50.52Z"/><path class="cls-1" d="M247.87,37.59V33h-7.26V63.77h7.26V47.6c0-5.07,3.23-8.24,8.3-8.24a14.26,14.26,0,0,1,3.05.31V32.59a15.86,15.86,0,0,0-2.2-.18C252.63,32.41,249.33,34.42,247.87,37.59Z"/><path class="cls-1" d="M277.12,32.1c-9.34,0-16.78,7.08-16.78,16.29s7.44,16.29,16.78,16.29,16.77-7.08,16.77-16.29S286.39,32.1,277.12,32.1Zm0,25.93a9.64,9.64,0,1,1,9.51-9.64A9.41,9.41,0,0,1,277.12,58Z"/><polygon class="cls-1" points="298.4 40.6 298.4 63.77 305.72 63.77 305.72 40.9 305.72 21.24 298.4 21.24 298.4 40.6"/><path class="cls-1" d="M332.13,50.89c0,4.88-2.87,7-6.72,7s-6.71-2.08-6.71-6.9V33h-7.38V51.56c0,8.79,6.41,13,14,13s14.15-4.27,14.15-13.18V33h-7.37Z"/><polygon class="cls-1" points="367.21 53.93 362.59 47.48 368.31 39.69 373.2 33.02 365.21 33.02 358.56 42.23 351.85 33.02 343.92 33.02 348.47 39.24 354.54 47.54 348.18 56.39 342.88 63.77 350.75 63.77 358.56 52.91 366.37 63.77 374.24 63.77 367.21 53.93"/></g></g></svg>