<svg xmlns="http://www.w3.org/2000/svg" width="200" height="200" viewBox="0 0 82.51 70.33"><defs><style>.cls-1{fill:#fff;}</style></defs><g id="Camada_2" data-name="Camada 2"><g id="Camada_1-2" data-name="Camada 1"><path class="cls-1" d="M1,32.47,29,60.23S30,61.84,32,59.66C37.1,54,42.78,48.77,48.2,43.39c2.18-2.27,4.47-4.44,6.71-6.65l3.52-3.49c.32-.32,1.93-2.39,2.41-2.39a7.84,7.84,0,0,0-2.65-9.67c-2.51-1.85-5.59-2.44-8.28-.57a54.47,54.47,0,0,0-5.5,5L39,30.7l-6.88,6.44s-9.38,8.12-19-3.35S16.22,12.1,16.22,12.1L27.31,1.2v10l-4.82,4.47c-2.29,2.13-5.16,4.49-6,7.65s1.27,6,3.71,7.61a6.83,6.83,0,0,0,8.5-.59c3-2.67,5.88-5.56,8.78-8.36,3.85-3.72,7-7.84,12.33-9.39C54.63,11.15,60,11.38,63.5,15.32S70.8,25,68.77,30.5c-1.27,3.45-4.94,6.39-7.45,9-6.1,6.41-12.27,12.75-18.44,19.09q-5,5.16-10.08,10.32s-3,3.13-6.16,0-24.91-26-24.91-26S-1.59,37.3,1,32.47Z"/><path class="cls-1" d="M66.75.21A14.34,14.34,0,0,1,69.28,0a4.23,4.23,0,0,1,3,.83A2.59,2.59,0,0,1,73,2.78a2.67,2.67,0,0,1-1.92,2.6v0a2.53,2.53,0,0,1,1.5,2.06,15.33,15.33,0,0,0,.79,2.81H72a14.24,14.24,0,0,1-.68-2.44c-.3-1.41-.85-1.94-2-2H68.07V10.3H66.75Zm1.32,4.66h1.35c1.41,0,2.3-.78,2.3-1.94,0-1.32-1-1.9-2.35-1.91a5.47,5.47,0,0,0-1.3.12Z"/><path class="cls-1" d="M76.23.08V4.35h4.94V.08h1.34V10.3H81.17V5.51H76.23V10.3H74.91V.08Z"/></g></g></svg>