<svg xmlns="http://www.w3.org/2000/svg" viewBox="0 0 174.55 48.49"><defs><style>.cls-1{fill:#fff;}</style></defs><g id="Camada_2" data-name="Camada 2"><g id="Camada_1-2" data-name="Camada 1"><path class="cls-1" d="M36.2,48.32,35.85,48,0,11.87,12,0H60.79L72.91,12ZM1.42,11.87l34.79,35L71.49,12,60.38,1h-48Z"/><rect class="cls-1" x="12.21" y="3.03" width="1" height="7.33"/><rect class="cls-1" x="3.61" y="11.5" width="6.44" height="1"/><rect class="cls-1" x="59.32" y="3.03" width="1" height="7.33"/><rect class="cls-1" x="62.48" y="11.5" width="6.57" height="1"/><rect class="cls-1" x="14.35" y="11.5" width="43.71" height="1"/><rect class="cls-1" x="35.7" y="12" width="1" height="30.82"/><polygon class="cls-1" points="36.2 48.49 12.3 14.3 13.12 13.73 36.2 46.74 59.41 13.23 60.23 13.8 36.2 48.49"/><path class="cls-1" d="M84.13,13.27H77.82V11H93.17v2.27H86.83V31.72h-2.7Z"/><path class="cls-1" d="M101.65,31.72l-.21-1.88h-.09a5.54,5.54,0,0,1-4.55,2.22,4.24,4.24,0,0,1-4.55-4.28c0-3.6,3.19-5.56,8.94-5.53v-.31c0-1.23-.34-3.44-3.38-3.44a7.45,7.45,0,0,0-3.87,1.1l-.62-1.78a9.25,9.25,0,0,1,4.89-1.32c4.55,0,5.66,3.1,5.66,6.09v5.56a21.56,21.56,0,0,0,.24,3.57Zm-.4-7.6c-3-.06-6.3.46-6.3,3.35a2.4,2.4,0,0,0,2.55,2.59,3.7,3.7,0,0,0,3.6-2.49,2.94,2.94,0,0,0,.15-.86Z"/><path class="cls-1" d="M108.24,9.89h2.7V31.72h-2.7Z"/><path class="cls-1" d="M118.51,12.66a1.68,1.68,0,0,1-3.35,0,1.65,1.65,0,0,1,1.69-1.7A1.61,1.61,0,0,1,118.51,12.66Zm-3,19.06V16.84h2.71V31.72Z"/><path class="cls-1" d="M122.32,29A7.11,7.11,0,0,0,125.89,30c2,0,2.89-1,2.89-2.22s-.77-2-2.77-2.73c-2.68-1-3.94-2.43-3.94-4.22,0-2.39,1.94-4.36,5.14-4.36a7.44,7.44,0,0,1,3.66.92l-.68,2a5.77,5.77,0,0,0-3-.86c-1.6,0-2.49.92-2.49,2s.89,1.78,2.83,2.52c2.58,1,3.9,2.27,3.9,4.49,0,2.61-2,4.46-5.56,4.46a8.48,8.48,0,0,1-4.19-1Z"/><path class="cls-1" d="M134.87,20.86c0-1.53,0-2.79-.13-4h2.37l.12,2.39h.1A5.13,5.13,0,0,1,142,16.5a4.39,4.39,0,0,1,4.21,3h.06a6.31,6.31,0,0,1,1.66-1.94,5.14,5.14,0,0,1,3.29-1c2,0,4.89,1.29,4.89,6.46v8.76h-2.64V23.29c0-2.86-1.05-4.58-3.23-4.58a3.5,3.5,0,0,0-3.2,2.46,4.55,4.55,0,0,0-.21,1.35v9.2h-2.65V22.8c0-2.37-1-4.09-3.1-4.09a3.69,3.69,0,0,0-3.35,2.71,3.59,3.59,0,0,0-.22,1.32v9h-2.64Z"/><path class="cls-1" d="M168.75,31.72l-.21-1.88h-.09a5.54,5.54,0,0,1-4.55,2.22,4.24,4.24,0,0,1-4.55-4.28c0-3.6,3.19-5.56,8.94-5.53v-.31c0-1.23-.34-3.44-3.38-3.44A7.45,7.45,0,0,0,161,19.6l-.62-1.78a9.25,9.25,0,0,1,4.89-1.32c4.55,0,5.66,3.1,5.66,6.09v5.56a21.56,21.56,0,0,0,.24,3.57Zm-6.94-17.44c-.07-2,.76-3.19,2.09-3.19a3.74,3.74,0,0,1,1.9.67,3,3,0,0,0,1.29.53c.5,0,.77-.28.86-1.33h1.42c.06,2.06-.65,3.11-2.09,3.11a4.1,4.1,0,0,1-1.88-.62,2.69,2.69,0,0,0-1.32-.55c-.49,0-.74.52-.8,1.38Zm6.54,9.84c-2.95-.06-6.3.46-6.3,3.35a2.4,2.4,0,0,0,2.55,2.59,3.7,3.7,0,0,0,3.6-2.49,2.94,2.94,0,0,0,.15-.86Z"/><path class="cls-1" d="M45.22,40.18A11.31,11.31,0,0,1,47,40.06a3.4,3.4,0,0,1,2.07.48,1.4,1.4,0,0,1,.56,1.14,1.64,1.64,0,0,1-1.35,1.53v0a1.55,1.55,0,0,1,1.05,1.2,8.06,8.06,0,0,0,.55,1.65h-1a6.64,6.64,0,0,1-.48-1.43A1.31,1.31,0,0,0,47,43.49h-.86v2.6h-.92Zm.92,2.73h.94c1,0,1.61-.45,1.61-1.14s-.67-1.11-1.64-1.12a5,5,0,0,0-.91.07Z"/><path class="cls-1" d="M54.6,43.28H51.83v2.16h3.09v.65h-4v-6h3.85v.65H51.83v1.89H54.6Z"/><path class="cls-1" d="M56.11,40.17a13.28,13.28,0,0,1,1.77-.11,3.34,3.34,0,0,1,2,.49,1.51,1.51,0,0,1,.62,1.26A1.59,1.59,0,0,1,60,43.08a3.28,3.28,0,0,1-2.18.66,4.17,4.17,0,0,1-.74-.05v2.4h-.92ZM57,43.06a4,4,0,0,0,.76.06c1.11,0,1.79-.45,1.79-1.28s-.66-1.17-1.68-1.17a5.24,5.24,0,0,0-.87.06Z"/><path class="cls-1" d="M61.74,40.18a11.45,11.45,0,0,1,1.77-.12,3.38,3.38,0,0,1,2.06.48,1.4,1.4,0,0,1,.56,1.14,1.63,1.63,0,0,1-1.34,1.53v0a1.55,1.55,0,0,1,1,1.2,8.06,8.06,0,0,0,.55,1.65h-.95A7.28,7.28,0,0,1,65,44.66a1.3,1.3,0,0,0-1.42-1.17h-.87v2.6h-.92Zm.92,2.73h.94c1,0,1.61-.45,1.61-1.14s-.67-1.11-1.64-1.12a5,5,0,0,0-.91.07Z"/><path class="cls-1" d="M71.12,43.28H68.35v2.16h3.09v.65h-4v-6h3.85v.65H68.35v1.89h2.77Z"/><path class="cls-1" d="M72.51,45.15a3.75,3.75,0,0,0,1.65.39c.94,0,1.49-.42,1.49-1s-.38-.87-1.34-1.18c-1.17-.35-1.89-.86-1.89-1.7S73.34,40,74.73,40a3.69,3.69,0,0,1,1.57.3l-.25.63a3.18,3.18,0,0,0-1.35-.29c-1,0-1.35.49-1.35.9,0,.56.44.84,1.42,1.15,1.21.39,1.82.88,1.82,1.76s-.81,1.73-2.5,1.73a4.12,4.12,0,0,1-1.81-.39Z"/><path class="cls-1" d="M81.54,43.28H78.77v2.16h3.09v.65h-4v-6H81.7v.65H78.77v1.89h2.77Z"/><path class="cls-1" d="M83.05,46.09v-6h1l2.28,3a16.48,16.48,0,0,1,1.28,1.94h0a23.69,23.69,0,0,1-.1-2.46V40.1h.86v6h-.93l-2.26-3a18.23,18.23,0,0,1-1.33-2h0c.05.76.07,1.48.07,2.47v2.56Z"/><path class="cls-1" d="M91.37,40.76H89.2V40.1h5.28v.66H92.3v5.33h-.93Z"/><path class="cls-1" d="M95.63,44.2l-.74,1.89h-1l2.42-6h1.11l2.43,6h-1l-.76-1.89ZM98,43.6l-.7-1.72a10.83,10.83,0,0,1-.37-1.09h0c-.11.35-.22.71-.36,1.08l-.7,1.73Z"/><path class="cls-1" d="M105.77,45.89a5.27,5.27,0,0,1-1.87.29l-.24.35c.39.06.74.3.74.67s-.54.72-1.09.72a2,2,0,0,1-.75-.15l.15-.4a1.48,1.48,0,0,0,.59.11c.24,0,.44-.08.44-.27s-.32-.33-.82-.38l.44-.68a3,3,0,0,1-3-3c0-1.88,1.51-3.15,3.72-3.15a4.32,4.32,0,0,1,1.69.27l-.22.63a3.92,3.92,0,0,0-1.44-.25c-1.67,0-2.78.9-2.78,2.47s1,2.41,2.74,2.41a4.31,4.31,0,0,0,1.5-.25Z"/><path class="cls-1" d="M108.12,44.2l-.74,1.89h-.95l2.42-6H110l2.43,6h-1l-.76-1.89Zm0-4.46c0-.54.27-.91.72-.91a1.55,1.55,0,0,1,.64.18,1.18,1.18,0,0,0,.49.16c.17,0,.27-.06.29-.35h.49c0,.56-.22.86-.71.86a1.72,1.72,0,0,1-.65-.16,1.29,1.29,0,0,0-.5-.17c-.17,0-.24.15-.27.39Zm2.34,3.86-.7-1.72c-.16-.39-.26-.75-.37-1.09h0c-.11.35-.22.71-.36,1.08l-.7,1.73Z"/><path class="cls-1" d="M119.38,43a3.06,3.06,0,0,1-3.32,3.15,3,3,0,0,1-3.2-3A3.09,3.09,0,0,1,116.17,40,3,3,0,0,1,119.38,43Zm-5.54.1a2.29,2.29,0,1,0,2.29-2.5A2.27,2.27,0,0,0,113.84,43.13Z"/><path class="cls-1" d="M127.79,45.89a5.29,5.29,0,0,1-1.88.29c-2,0-3.52-1.07-3.52-3S123.9,40,126.11,40a4.43,4.43,0,0,1,1.7.27l-.23.63a3.91,3.91,0,0,0-1.43-.25c-1.68,0-2.79.9-2.79,2.47s1,2.41,2.74,2.41a4.31,4.31,0,0,0,1.5-.25Z"/><path class="cls-1" d="M134.82,43a3,3,0,0,1-3.31,3.15,3,3,0,0,1-3.21-3A3.09,3.09,0,0,1,131.61,40,3,3,0,0,1,134.82,43Zm-5.53.1a2.29,2.29,0,1,0,2.28-2.5A2.26,2.26,0,0,0,129.29,43.13Z"/><path class="cls-1" d="M142,43.46c-.05-.84-.11-1.84-.1-2.59h0c-.24.71-.53,1.45-.89,2.28l-1.26,2.9H139l-1.15-2.85a23.06,23.06,0,0,1-.83-2.33h0c0,.75-.07,1.75-.14,2.65l-.19,2.57h-.87l.49-6h1.18l1.21,2.9a20,20,0,0,1,.72,2h0c.18-.6.44-1.26.75-2l1.27-2.9h1.18l.44,6h-.9Z"/><path class="cls-1" d="M148.21,43.28h-2.77v2.16h3.09v.65h-4v-6h3.85v.65h-2.93v1.89h2.77Z"/><path class="cls-1" d="M149.72,40.18a11.54,11.54,0,0,1,1.77-.12,3.36,3.36,0,0,1,2.06.48,1.4,1.4,0,0,1,.56,1.14,1.63,1.63,0,0,1-1.34,1.53v0a1.55,1.55,0,0,1,1,1.2,8.06,8.06,0,0,0,.55,1.65h-1a7.53,7.53,0,0,1-.47-1.43,1.31,1.31,0,0,0-1.43-1.17h-.87v2.6h-.92Zm.92,2.73h.94c1,0,1.61-.45,1.61-1.14s-.66-1.11-1.64-1.12a5,5,0,0,0-.91.07Z"/><path class="cls-1" d="M160.43,45.89a5.4,5.4,0,0,1-1.89.29c-2,0-3.52-1.07-3.52-3S156.54,40,158.75,40a4.41,4.41,0,0,1,1.69.27l-.22.63a4,4,0,0,0-1.44-.25c-1.67,0-2.78.9-2.78,2.47s1,2.41,2.73,2.41a4.33,4.33,0,0,0,1.51-.25Z"/><path class="cls-1" d="M162.5,40.1v6h-.92v-6Z"/><path class="cls-1" d="M165.26,44.2l-.74,1.89h-1l2.42-6h1.11l2.43,6h-1l-.76-1.89Zm2.34-.6-.7-1.72c-.16-.39-.26-.75-.37-1.09h0c-.11.35-.22.71-.36,1.08l-.7,1.73Z"/><path class="cls-1" d="M170.58,40.1h.92v5.34h3.05v.65h-4Z"/></g></g></svg>