<svg xmlns="http://www.w3.org/2000/svg" width="300" height="150" viewBox="0 0 2428.93 821.56"><defs><style>.cls-1{fill:#685ea9;}</style></defs><g id="Camada_2" data-name="Camada 2"><g id="Camada_1-2" data-name="Camada 1"><path class="cls-1" d="M378.69,821.56l162.7-94,.5-251.37s-2-46.74,51.79-81.35,138.19-80.71,138.19-80.71V117.47L415.07,301.64s-36.38,31.45-38.65,66.7S378.69,821.56,378.69,821.56Z"/><path class="cls-1" d="M436.55,261.73,715,99,546.19,0,420.38,72.76S358.23,100,318.32,77.31,185.43,0,185.43,0L16.17,98.53s264.37,155.34,279.91,163.2S362.41,305.05,436.55,261.73Z"/><path class="cls-1" d="M353.18,821.56l1-443.12s2.53-48.5-48-82.36S0,117.47,0,117.47V315.28L168.25,422.91S187.49,434,188,484.55c.7,76.29,1,243,1,243Z"/><path class="cls-1" d="M1030.48,573V319.07H1132s21.7,3.94,22-27.28c.26-28-22-31.07-22-31.07H866.78s-24.85,2.38-24.85,30.43,23.33,28.68,23.33,28.68l99.29.76-.76,249.35s0,24.25,34.1,24.25S1030.48,573,1030.48,573Z"/><path class="cls-1" d="M1252.5,258.92c-33.35,2.52-30.27,23.93-30.27,23.93V452.08s5.69,147.79,163.71,147.79,161.43-147.79,161.43-147.79V275.87c0-7.58-4.55-15.15-35.24-15.15s-32.21,16.16-32.21,16.16c0,142.38,24.25,262.24-98.53,262.24-118.84,0-92.46-145.84-92.46-259.2C1288.93,279.92,1285.85,256.39,1252.5,258.92Z"/><path class="cls-1" d="M1961.18,283.45s1.51-24.72,31.83-24.72,34.11,24.72,34.11,24.72V567.66s0,25.39-33,28.8-33-29.55-33-29.55Z"/><path class="cls-1" d="M1893.72,562.61c0,30.31-18.93,34.1-18.93,34.1H1656.94c-27.72-.43-27.72-29.79-27.72-29.79V283.45s1.52-24.72,31.83-24.72,34.11,24.72,34.11,24.72V530.77h179.63S1893.72,532.29,1893.72,562.61Z"/><path class="cls-1" d="M1657.56,596.71h0Z"/><path class="cls-1" d="M2265.09,254.65c-179.62,6.06-164.46,183.41-164.46,183.41s-14.4,166,164.46,166S2428.55,429,2428.55,429,2444.72,248.59,2265.09,254.65Zm-2.27,285c-102.32,0-92.46-111.9-92.46-111.9s-9.1-109.41,92.46-109.41,97,107.62,97,107.62S2365.14,539.62,2262.82,539.62Z"/></g></g></svg>