<svg xmlns="http://www.w3.org/2000/svg" viewBox="0 0 179.08 53.96"><defs><style>.cls-1{fill:#675ea9;}.cls-2{fill:#675da8;}.cls-3{fill:#665da7;}.cls-4{fill:#665ca7;}.cls-5{fill:#665da8;}.cls-6{fill:#685ea9;}</style></defs><g id="Camada_2" data-name="Camada 2"><g id="Camada_1-2" data-name="Camada 1"><path class="cls-1" d="M.07,25.05c0-3.12,0-6.24-.07-9.36.37-2.35,2.14-3.1,4.39-3.8-.13,5-.93,9.86.62,14.62a8.35,8.35,0,0,0,3.21,4.84,5.53,5.53,0,0,0,4.81.44c2.18-.69.81-2.51.94-3.84.32-3.56-2-8.23,4.37-9.69A35.93,35.93,0,0,0,19,28.85c.73,3.59,2.71,3.83,5.41,2.54a8.23,8.23,0,0,0,4.83-8c0-3.74,0-7.47,0-11.28,2.33,0,3.26,1.5,3.8,3a27.94,27.94,0,0,1,.31,17.57c-.72,2.53-1.06,2.5-3.54.92-1.06-.68-1.48.22-2.06.61a11.72,11.72,0,0,1-10,1.42,7.11,7.11,0,0,0-3.83.11C7.57,37.17,1.21,35.11.07,25.05Z"/><path class="cls-2" d="M46.22,25.66c1.56-1.27,3.51-.39,5.21-1,2.47-.9,4.15-2.2,3.6-5.08s-2.66-3.76-5.14-3.76c-3.32,0-5.56,1.9-6.9,4.87s-1.66,6.17.83,8.82a7.86,7.86,0,0,0,8.71,2.08,42.58,42.58,0,0,0,6.08-3.22c-.16,5.38-4,8.16-10.56,7.64-5.17-.41-9.26-4.41-10.23-10a12,12,0,0,1,7.1-13.42A11,11,0,0,1,58,15.37c2.91,3.57,2.68,8-.57,10.63C53.92,28.93,49,28.81,46.22,25.66Z"/><path class="cls-2" d="M117.46,25.66c1.56-1.27,3.52-.39,5.21-1,2.47-.9,4.15-2.2,3.6-5.08s-2.66-3.76-5.14-3.76c-3.32,0-5.56,1.9-6.9,4.87s-1.66,6.17.83,8.82a7.87,7.87,0,0,0,8.71,2.08,42.58,42.58,0,0,0,6.08-3.22c-.15,5.38-3.94,8.16-10.55,7.64-5.17-.41-9.27-4.41-10.24-10a12,12,0,0,1,7.1-13.42,11,11,0,0,1,13.12,2.77c2.91,3.57,2.68,8-.57,10.63C125.16,28.93,120.26,28.81,117.46,25.66Z"/><path class="cls-3" d="M86,36a8.07,8.07,0,0,1-4.92-7.22c-.39-4.55-1-9.41.83-13.74.45-1,.81-5.69,3.67-1.16.58.91,1.71-.5,2.57-.88,4-1.81,9-2.47,12.6.55,4.55,3.79,7.16,14.14,3.88,19.35-.77,1.23-2,2.64-3.65,1.9-1.33-.59-.16-3.94-.11-5a26.61,26.61,0,0,0-.74-7.86c-1-3.75-2.56-6.79-6.84-6.39s-6.91,3.29-7.22,7.6C85.81,27.28,86,31.42,86,36Z"/><path class="cls-3" d="M134.85,30a19.14,19.14,0,0,0,12.27,1.79c1.89-.39,4.47-.91,4.4-3.27-.06-2-2.33-2.45-4.25-2.71-2.79-.38-5.56-1-8.34-1.4-2.3-.35-4.24-1.2-4.83-3.64A6.42,6.42,0,0,1,136,14.35c5.19-5.1,16.33-3.21,19,3.94-4.24-2.3-8.21-3.65-12.56-2.44-1.23.34-2.78.51-3.58,1.62-1.86,2.58,1.94,3.33,3.59,3.51a60.75,60.75,0,0,1,7.38,1.08c2.84.69,5.54,2.08,5.89,5.32.54,5-4.73,8.16-9.09,8.77A12.13,12.13,0,0,1,139.37,35a9.83,9.83,0,0,1-2.69-2.06C136.19,32.41,135.32,30.17,134.85,30Z"/><path class="cls-3" d="M158.15,30a19.15,19.15,0,0,0,12.27,1.79c1.89-.39,4.48-.91,4.41-3.27-.07-2-2.33-2.45-4.25-2.71-2.8-.38-5.56-1-8.35-1.4-2.29-.35-4.23-1.2-4.83-3.64a6.42,6.42,0,0,1,1.93-6.37c5.19-5.1,16.34-3.21,19,3.94-4.25-2.3-8.21-3.65-12.56-2.44-1.23.34-2.78.51-3.58,1.62-1.86,2.58,1.93,3.33,3.59,3.51a60.75,60.75,0,0,1,7.38,1.08c2.84.69,5.54,2.08,5.89,5.32.54,5-4.73,8.16-9.09,8.77A12.11,12.11,0,0,1,162.68,35a9.88,9.88,0,0,1-2.7-2.06C159.5,32.41,158.62,30.17,158.15,30Z"/><path class="cls-4" d="M69.18,36.76C60.55,29.38,60.68,5,68.42.21,67.81,12.11,67.42,23.89,69.18,36.76Z"/><path class="cls-5" d="M77.82,35.92C69.75,31.15,69.33,6.27,77.2,0,77,12.1,76.43,23.9,77.82,35.92Z"/><path class="cls-6" d="M22.9,51.53c0-.36,0-.9,0-1.37V43.72h1v3.35h0a2,2,0,0,1,1.82-1c1.32,0,2.25,1.1,2.24,2.71,0,1.91-1.2,2.85-2.38,2.85a1.9,1.9,0,0,1-1.79-1h0l0,.88Zm1-2.13a2,2,0,0,0,0,.35,1.5,1.5,0,0,0,1.46,1.13c1,0,1.61-.82,1.61-2s-.55-2-1.58-2a1.62,1.62,0,0,0-1.53,1.58Z"/><path class="cls-6" d="M35.24,49.05a1.7,1.7,0,0,0,1.83,1.84,3.56,3.56,0,0,0,1.47-.27l.17.69a4.23,4.23,0,0,1-1.77.33A2.47,2.47,0,0,1,34.32,49a2.58,2.58,0,0,1,2.5-2.87,2.26,2.26,0,0,1,2.2,2.5,3.72,3.72,0,0,1,0,.46Zm2.84-.7a1.38,1.38,0,0,0-1.34-1.57,1.61,1.61,0,0,0-1.49,1.57Z"/><path class="cls-6" d="M48.66,51.53l-.08-.67h0a2,2,0,0,1-1.63.79,1.52,1.52,0,0,1-1.62-1.53c0-1.28,1.14-2,3.2-2V48a1.1,1.1,0,0,0-1.21-1.23,2.66,2.66,0,0,0-1.39.4l-.22-.64a3.27,3.27,0,0,1,1.75-.47c1.63,0,2,1.11,2,2.17v2a8.06,8.06,0,0,0,.09,1.27Zm-.14-2.72c-1.06,0-2.26.17-2.26,1.2a.86.86,0,0,0,.92.93,1.31,1.31,0,0,0,1.28-.89.85.85,0,0,0,.06-.31Z"/><path class="cls-6" d="M61,50.08c0,.55,0,1,.05,1.45h-.86l-.06-.87h0a2,2,0,0,1-1.76,1c-.84,0-1.84-.46-1.84-2.33V46.21h1v2.95c0,1,.31,1.69,1.19,1.69A1.41,1.41,0,0,0,59.92,50a1.54,1.54,0,0,0,.08-.5V46.21h1Z"/><path class="cls-6" d="M69.24,44.68v1.53h1.39v.73H69.24v2.88c0,.66.19,1,.73,1a1.86,1.86,0,0,0,.56-.07l0,.73a2.25,2.25,0,0,1-.85.13,1.35,1.35,0,0,1-1-.4,2,2,0,0,1-.37-1.39V46.94h-.83v-.73h.83V44.93Z"/><path class="cls-6" d="M77.67,46.21l1.16,3.14c.13.36.26.77.35,1.09h0c.1-.32.21-.72.34-1.11l1-3.12h1L80.17,50a8.25,8.25,0,0,1-1.83,3.34,2.63,2.63,0,0,1-1.19.62l-.24-.81a2.71,2.71,0,0,0,.85-.47,3,3,0,0,0,.81-1.08.9.9,0,0,0,.08-.23.77.77,0,0,0-.07-.26l-2-4.9Z"/><path class="cls-6" d="M95.7,50.54a2.48,2.48,0,0,0,1.27.39c.71,0,1-.36,1-.8s-.28-.71-1-1c-1-.35-1.41-.87-1.41-1.51a1.64,1.64,0,0,1,1.84-1.56,2.62,2.62,0,0,1,1.31.33l-.25.7a2.08,2.08,0,0,0-1.09-.31c-.57,0-.89.33-.89.73s.32.64,1,.9c.92.35,1.39.81,1.39,1.61s-.72,1.59-2,1.59a3,3,0,0,1-1.49-.36Z"/><path class="cls-6" d="M108.63,51.53l-.07-.67h0a2,2,0,0,1-1.62.79,1.52,1.52,0,0,1-1.63-1.53c0-1.28,1.14-2,3.2-2V48a1.1,1.1,0,0,0-1.21-1.23,2.69,2.69,0,0,0-1.39.4l-.22-.64a3.27,3.27,0,0,1,1.75-.47c1.63,0,2,1.11,2,2.17v2a8.14,8.14,0,0,0,.08,1.27Zm-.14-2.72c-1.06,0-2.26.17-2.26,1.2a.86.86,0,0,0,.92.93,1.34,1.34,0,0,0,1.29-.89,1.12,1.12,0,0,0,0-.31Z"/><path class="cls-6" d="M116.49,43.72h1v7.81h-1Z"/><path class="cls-6" d="M129.4,48.83a2.6,2.6,0,0,1-2.65,2.82,2.53,2.53,0,0,1-2.55-2.74,2.59,2.59,0,0,1,2.64-2.82A2.52,2.52,0,0,1,129.4,48.83Zm-4.22.05c0,1.17.67,2,1.61,2s1.62-.87,1.62-2.07c0-.9-.45-2-1.59-2S125.18,47.87,125.18,48.88Z"/><path class="cls-6" d="M140.94,48.83a2.6,2.6,0,0,1-2.65,2.82,2.53,2.53,0,0,1-2.55-2.74,2.59,2.59,0,0,1,2.64-2.82A2.52,2.52,0,0,1,140.94,48.83Zm-4.22.05c0,1.17.67,2,1.61,2s1.62-.87,1.62-2.07c0-.9-.45-2-1.59-2S136.72,47.87,136.72,48.88Z"/><path class="cls-6" d="M147.66,47.65c0-.55,0-1,0-1.44h.85l.06.88h0a2,2,0,0,1,1.76-1c.74,0,1.88.44,1.88,2.26v3.18h-1V48.46c0-.86-.32-1.57-1.24-1.57a1.39,1.39,0,0,0-1.3,1,1.53,1.53,0,0,0-.06.45v3.2h-1Z"/></g></g></svg>